<svg width="204" height="216" viewBox="0 0 204 216" fill="none" xmlns="http://www.w3.org/2000/svg">
<circle cx="132.5" cy="3.5" r="3.5" fill="#F4F7F9"/>
<path d="M108.178 11.251L110.699 8.73025L112.521 10.5527L110.001 13.0735L112.85 15.9224L110.929 17.8427L108.08 14.9937L105.553 17.5215L103.73 15.699L106.258 13.1712L103.528 10.441L105.448 8.52077L108.178 11.251Z" fill="#9AC4E4"/>
<path d="M23.1782 11.251L25.699 8.73025L27.5215 10.5527L25.0007 13.0735L27.8496 15.9224L25.9294 17.8427L23.0805 14.9937L20.5527 17.5215L18.7302 15.699L21.258 13.1712L18.5277 10.441L20.448 8.52077L23.1782 11.251Z" fill="#9AC4E4"/>
<circle cx="31.5" cy="56.5" r="3.5" fill="#F4F7F9"/>
<circle cx="175" cy="62" r="6" fill="#F4F7F9"/>
<circle cx="63.5" cy="14.5" r="3.5" fill="#F4F7F9"/>
<path d="M158.574 34.3428L160.181 32.7364L161.342 33.8978L159.736 35.5042L161.551 37.3198L160.328 38.5435L158.512 36.728L156.901 38.3388L155.74 37.1774L157.351 35.5665L155.611 33.8266L156.835 32.6029L158.574 34.3428Z" fill="#9AC4E4"/>
<path d="M43.9167 36.5225L47.0479 33.3912L49.3118 35.6551L46.1806 38.7864L49.7195 42.3253L47.3342 44.7106L43.7953 41.1717L40.6553 44.3116L38.3915 42.0477L41.5314 38.9078L38.1399 35.5163L40.5252 33.131L43.9167 36.5225Z" fill="#9AC4E4"/>
<circle cx="100" cy="120" r="80" fill="#F4F7F9"/>
<g clip-path="url(#clip0_19347_61325)">
<rect x="24.291" y="132.211" width="136" height="78" transform="rotate(-45 24.291 132.211)" fill="white"/>
<circle cx="99.9513" cy="111.711" r="27" transform="rotate(-45 99.9513 111.711)" fill="#F4F7F9"/>
<path d="M84.2233 30.0066C84.1039 30.3247 84.0045 34.521 84.0045 39.3337L84.0244 48.1041H87.0075H89.9906L89.9906 43.2516V38.399L95.8176 44.1067C101.466 49.6354 101.665 49.7945 103.057 50.2718C105.105 50.9679 107.69 50.8883 109.46 50.0729C110.833 49.4564 111.429 48.9393 114.969 45.3994C118.191 42.1776 119.146 41.3424 119.941 41.0639C121.95 40.3281 120.319 38.8564 146.351 64.889C171.668 90.2057 170.813 89.2709 170.495 91.0608C170.375 91.7768 167.909 94.2826 142.454 119.738L114.552 147.64L116.739 149.828L118.927 152.016L147.087 123.776C173.935 96.8083 175.228 95.4758 175.785 94.203C176.6 92.3933 176.68 89.1715 175.984 87.322L175.407 85.7907L150.448 60.832L125.49 35.8733L123.561 35.2966C121.452 34.6602 119.802 34.7199 117.694 35.4358C116.481 35.8534 115.964 36.2512 111.728 40.2883L107.094 44.7232L106 44.7033L104.906 44.7232L99.5167 39.4531L94.1471 34.2028L99.0394 34.2028L103.912 34.1829L103.912 31.0805L103.912 28.0178L95.4795 28.0576C90.8657 28.0576 86.6893 28.1371 86.2319 28.2366C85.3767 28.4156 84.5812 29.0917 84.2233 30.0066Z" fill="#9AC4E4"/>
<path d="M24.1435 128.228C22.7911 130.456 22.5127 133.439 23.3679 136.004L23.8651 137.496L48.8237 162.455L73.7824 187.413L75.3137 187.99C77.1831 188.706 80.4049 188.587 82.1947 187.791C83.2289 187.314 84.4022 186.3 87.982 182.919C90.448 180.572 92.6754 178.623 92.9339 178.563C94.147 178.305 95.042 179.041 102.361 186.359L109.48 193.479H104.588L99.7354 193.479V196.581L99.7553 199.664L108.565 199.644C113.418 199.604 117.674 199.445 117.992 199.286C119.523 198.471 119.623 197.775 119.623 188.507L119.623 179.558H116.64H113.657L113.657 184.41L113.657 189.303L106.179 181.825C97.9853 173.631 97.3887 173.154 94.7437 172.736C93.9482 172.617 92.6555 172.637 91.8202 172.796C89.394 173.234 87.9223 174.268 83.6266 178.563C80.4446 181.745 79.7088 182.362 79.0525 182.501C77.2627 182.819 78.1974 183.674 52.8807 158.358C26.8482 132.325 28.3198 133.956 29.0557 131.947C29.3739 131.072 32.2774 128.089 57.0571 103.31L84.7204 75.6462L82.6323 73.558L80.5441 71.4698L52.5824 99.4712C37.1896 114.904 24.402 127.811 24.1435 128.228Z" fill="#9AC4E4"/>
<path d="M87.0075 69.1775L89.0957 71.2656L91.1839 69.1775L93.2721 67.0893L91.1839 65.0011L89.0957 62.9129L87.0075 65.0011L84.9194 67.0893L87.0075 69.1775Z" fill="#9AC4E4"/>
<path d="M95.3601 60.8259L97.4482 62.9141L99.6359 60.7265L101.823 58.5388L99.7353 56.4507L97.6471 54.3625L95.4595 56.5501L93.2719 58.7377L95.3601 60.8259Z" fill="#9AC4E4"/>
<path d="M38.2829 135.013L40.3711 137.102L42.4593 135.013L44.5474 132.925L42.4593 130.837L40.3711 128.749L38.2829 130.837L36.1947 132.925L38.2829 135.013Z" fill="#9AC4E4"/>
<path d="M48.0282 121.521C47.7498 122.357 48.1674 123.808 48.9032 124.544C53.2387 128.88 53.2387 136.954 48.9032 141.289C48.1276 142.065 47.7498 143.477 48.0878 144.372C48.2668 144.829 51.3295 148.051 57.4349 154.157C65.5291 162.251 66.6229 163.265 67.3189 163.404C68.3133 163.563 69.7651 162.987 70.7595 161.992C72.8079 159.944 76.8848 158.77 80.2258 159.288C82.6322 159.665 84.1635 160.361 86.4705 162.151C87.8029 163.166 88.3399 163.424 89.1553 163.444L90.1894 163.444L96.0164 157.736L101.843 152.029L99.7553 149.94L97.6472 147.832L93.3117 152.088L88.9564 156.324L87.1268 155.37C80.9219 152.148 74.6773 152.426 68.3531 156.205C68.0945 156.344 66.5632 154.932 61.4919 149.861L54.949 143.318L55.8041 141.986C59.006 136.954 59.006 128.88 55.8041 123.848L54.949 122.516L59.3043 118.16L63.6398 113.825L61.5516 111.737L59.4634 109.649L53.8751 115.277C50.5141 118.638 48.1674 121.144 48.0282 121.521Z" fill="#9AC4E4"/>
<path d="M75.3538 94.1618C64.9527 108.819 69.5268 129.303 85.1582 137.894C94.4854 143.045 105.702 142.886 115.049 137.476C117.217 136.224 117.873 135.687 120.777 132.783C123.68 129.879 124.217 129.223 125.47 127.055C130.859 117.728 131.019 106.472 125.848 97.0852C117.435 81.7918 96.9316 76.999 82.6922 87.0222C80.604 88.474 76.6663 92.3321 75.3538 94.1618ZM88.1016 90.761C95.3804 86.7835 104.19 86.8034 111.429 90.7809C114.114 92.2725 117.893 95.7726 119.643 98.4375C123.64 104.463 124.714 112.219 122.467 119.001C121.015 123.317 119.683 125.484 116.58 128.587C113.657 131.51 111.429 132.942 107.671 134.275C91.025 140.141 73.8821 126.538 75.9106 109.038C76.3481 105.02 77.6408 101.54 79.9279 98.0995C81.6382 95.5539 85.2179 92.3321 88.1016 90.761Z" fill="#9AC4E4"/>
<path d="M99.7355 73.5597L101.824 75.6479L106.159 71.3125L110.475 66.9969L111.767 67.7725C116.938 70.9943 124.953 71.0141 129.984 67.8123L131.317 66.9571L137.86 73.5001C142.911 78.5515 144.343 80.1027 144.224 80.3413C140.385 86.9241 140.147 92.8903 143.368 99.1349L144.323 100.965L140.087 105.32L135.831 109.655L137.939 111.763L140.027 113.852L145.735 108.025L151.443 102.198L151.443 101.163C151.423 100.348 151.164 99.8111 150.11 98.4388C148.519 96.4103 147.803 94.9387 147.346 92.8903C146.63 89.589 147.585 85.7706 149.832 82.9665C151.264 81.1766 151.582 80.4209 151.383 79.3072C151.264 78.631 150.051 77.3383 142.155 69.443C136.05 63.3376 132.828 60.275 132.371 60.096C131.456 59.738 130.064 60.1358 129.228 60.971C128.314 61.8858 125.967 63.2382 124.436 63.7354C120.677 64.9485 115.407 63.7354 112.702 61.0705C111.787 60.1556 110.415 59.738 109.46 60.096C109.023 60.2551 106.776 62.3433 103.216 65.9031L97.6473 71.4716L99.7355 73.5597Z" fill="#9AC4E4"/>
<path d="M118.827 54.4665L120.915 56.5547L123.003 54.4665L125.091 52.3783L123.003 50.2902L120.915 48.202L118.827 50.2902L116.739 52.3783L118.827 54.4665Z" fill="#9AC4E4"/>
<path d="M76.4675 173.193L78.5557 175.281L80.6438 173.193L82.732 171.105L80.6438 169.017L78.5557 166.929L76.4675 169.017L74.3793 171.105L76.4675 173.193Z" fill="#9AC4E4"/>
<path d="M157.011 92.654L159.1 94.7422L161.188 92.654L163.276 90.5658L161.188 88.4777L159.1 86.3895L157.011 88.4777L154.923 90.5658L157.011 92.654Z" fill="#9AC4E4"/>
<path d="M97.7862 164.92C97.8856 165.099 98.8402 166.093 99.8942 167.107L101.823 168.917L103.911 166.829L106 164.741L103.911 162.652L101.823 160.564L99.7153 162.553C98.1044 164.084 97.647 164.621 97.7862 164.92Z" fill="#9AC4E4"/>
<path d="M108.187 158.383L110.375 160.57L112.463 158.482L114.551 156.394L112.364 154.206L110.176 152.019L108.088 154.107L106 156.195L108.187 158.383Z" fill="#9AC4E4"/>
</g>
<path d="M10.5745 61.3428L12.1809 59.7364L13.3423 60.8978L11.7359 62.5042L13.5515 64.3198L12.3278 65.5435L10.5122 63.728L8.90133 65.3388L7.73991 64.1774L9.35077 62.5665L7.61086 60.8266L8.83459 59.6029L10.5745 61.3428Z" fill="#9AC4E4"/>
<defs>
<clipPath id="clip0_19347_61325">
<rect width="144" height="144" fill="white" transform="translate(0 113.828) rotate(-45)"/>
</clipPath>
</defs>
</svg>
