<svg width="150" height="150" viewBox="0 0 150 150" fill="none" xmlns="http://www.w3.org/2000/svg">
<rect width="150" height="150" fill="white"/>
<rect x="2" y="2" width="146" height="146" rx="13" fill="#EA5455" stroke="white" stroke-width="4"/>
<rect x="13" y="13" width="124" height="124" rx="5" fill="white"/>
<path d="M62.4 67.664C60.768 65.6 58.824 63.968 56.568 62.768C54.312 61.52 52.08 60.896 49.872 60.896C47.328 60.896 45 61.544 42.888 62.84C40.824 64.088 39.192 65.84 37.992 68.096C36.792 70.304 36.192 72.776 36.192 75.512C36.192 78.248 36.792 80.744 37.992 83C39.192 85.208 40.824 86.96 42.888 88.256C45 89.504 47.328 90.128 49.872 90.128C51.936 90.128 54.096 89.6 56.352 88.544C58.608 87.488 60.624 86.048 62.4 84.224L70.104 92.504C67.368 95.384 64.104 97.688 60.312 99.416C56.568 101.096 52.848 101.936 49.152 101.936C44.16 101.936 39.648 100.784 35.616 98.48C31.584 96.176 28.416 93.032 26.112 89.048C23.808 85.064 22.656 80.6 22.656 75.656C22.656 70.76 23.832 66.344 26.184 62.408C28.536 58.472 31.752 55.376 35.832 53.12C39.96 50.864 44.568 49.736 49.656 49.736C53.4 49.736 57.096 50.528 60.744 52.112C64.392 53.648 67.488 55.76 70.032 58.448L62.4 67.664ZM99.7236 50.528C103.516 50.528 106.804 51.056 109.588 52.112C112.42 53.12 114.604 54.584 116.14 56.504C117.676 58.424 118.444 60.68 118.444 63.272C118.444 65.912 117.652 68.216 116.068 70.184C114.532 72.152 112.42 73.496 109.732 74.216C112.948 74.84 115.468 76.304 117.292 78.608C119.164 80.912 120.1 83.696 120.1 86.96C120.1 89.792 119.308 92.288 117.724 94.448C116.14 96.56 113.884 98.192 110.956 99.344C108.028 100.448 104.596 101 100.66 101H75.7476V50.528H99.7236ZM99.0036 70.616C100.828 70.616 102.268 70.184 103.324 69.32C104.38 68.408 104.908 67.16 104.908 65.576C104.908 64.04 104.38 62.864 103.324 62.048C102.268 61.184 100.828 60.776 99.0036 60.824H88.9236V70.616H99.0036ZM99.0036 90.776C101.308 90.776 103.132 90.296 104.476 89.336C105.82 88.376 106.492 87.032 106.492 85.304C106.492 83.72 105.82 82.472 104.476 81.56C103.132 80.6 101.308 80.144 99.0036 80.192H88.9236V90.776H99.0036Z" fill="#EA5455"/>
</svg>
