<svg width="150" height="150" viewBox="0 0 150 150" fill="none" xmlns="http://www.w3.org/2000/svg">
<rect width="150" height="150" fill="white"/>
<rect x="2" y="2" width="146" height="146" rx="13" fill="#FF9F43" stroke="white" stroke-width="4"/>
<rect x="13" y="13" width="124" height="124" rx="5" fill="white"/>
<path d="M62.4 67.664C60.768 65.6 58.824 63.968 56.568 62.768C54.312 61.52 52.08 60.896 49.872 60.896C47.328 60.896 45 61.544 42.888 62.84C40.824 64.088 39.192 65.84 37.992 68.096C36.792 70.304 36.192 72.776 36.192 75.512C36.192 78.248 36.792 80.744 37.992 83C39.192 85.208 40.824 86.96 42.888 88.256C45 89.504 47.328 90.128 49.872 90.128C51.936 90.128 54.096 89.6 56.352 88.544C58.608 87.488 60.624 86.048 62.4 84.224L70.104 92.504C67.368 95.384 64.104 97.688 60.312 99.416C56.568 101.096 52.848 101.936 49.152 101.936C44.16 101.936 39.648 100.784 35.616 98.48C31.584 96.176 28.416 93.032 26.112 89.048C23.808 85.064 22.656 80.6 22.656 75.656C22.656 70.76 23.832 66.344 26.184 62.408C28.536 58.472 31.752 55.376 35.832 53.12C39.96 50.864 44.568 49.736 49.656 49.736C53.4 49.736 57.096 50.528 60.744 52.112C64.392 53.648 67.488 55.76 70.032 58.448L62.4 67.664ZM71.3556 50.528H114.628V61.4H99.5076V101H86.3316V61.4H71.3556V50.528Z" fill="#FF9F43"/>
</svg>
