<svg width="150" height="150" viewBox="0 0 150 150" fill="none" xmlns="http://www.w3.org/2000/svg">
<rect width="150" height="150" fill="white"/>
<rect x="2" y="2" width="146" height="146" rx="13" fill="#7B55E6" stroke="white" stroke-width="4"/>
<rect x="13" y="13" width="124" height="124" rx="5" fill="white"/>
<path d="M86.8664 100.697H71.0984L57.8504 81.1128L51.5144 88.1688V100.697H38.3384V50.2248H51.5144V72.1128L70.4504 50.2248H85.7144L66.9944 71.0328L86.8664 100.697ZM105.084 68.2248C106.428 65.9688 108.156 64.2408 110.268 63.0408C112.428 61.8408 114.876 61.2408 117.612 61.2408V72.9768C117.18 72.9288 116.532 72.9048 115.668 72.9048C112.644 72.9048 110.196 73.6248 108.324 75.0648C106.452 76.4568 105.372 78.3768 105.084 80.8248V100.697H92.2681V61.7448H105.084V68.2248Z" fill="#7B55E6"/>
</svg>
