<svg width="150" height="150" viewBox="0 0 150 150" fill="none" xmlns="http://www.w3.org/2000/svg">
<rect width="150" height="150" fill="white"/>
<rect x="2" y="2" width="146" height="146" rx="13" fill="#A9D0D5" stroke="white" stroke-width="4"/>
<rect x="13" y="13" width="124" height="124" rx="5" fill="white"/>
<path d="M57.5741 61.8897H65.0941L55.6141 89.9297H48.0941L42.7741 70.8497L37.3741 89.9297H29.8541L20.4141 61.8897H28.2941L33.8141 82.3697L39.3341 61.8897H46.4941L52.0941 82.3697L57.5741 61.8897ZM86.1579 89.9297L84.2379 84.9697H72.1179L70.1579 89.9297H62.6379L74.6779 61.8897H82.1979L93.9579 89.9297H86.1579ZM74.3179 79.3697H82.0779L78.2379 69.3697L74.3179 79.3697ZM109.113 61.4497C111.967 61.4497 114.54 62.0764 116.833 63.3297C119.153 64.583 120.967 66.303 122.273 68.4897C123.607 70.6764 124.273 73.1297 124.273 75.8497C124.273 78.5964 123.607 81.0764 122.273 83.2897C120.967 85.503 119.153 87.2497 116.833 88.5297C114.54 89.8097 111.967 90.4497 109.113 90.4497C106.26 90.4497 103.673 89.823 101.353 88.5697C99.0599 87.2897 97.2465 85.543 95.9132 83.3297C94.6065 81.0897 93.9532 78.5964 93.9532 75.8497C93.9532 73.1297 94.6065 70.6764 95.9132 68.4897C97.2465 66.303 99.0599 64.583 101.353 63.3297C103.673 62.0764 106.26 61.4497 109.113 61.4497ZM109.193 67.6497C107.807 67.6497 106.513 68.0097 105.313 68.7297C104.14 69.4497 103.207 70.4497 102.513 71.7297C101.82 72.983 101.473 74.3697 101.473 75.8897C101.473 77.4364 101.82 78.8497 102.513 80.1297C103.233 81.383 104.18 82.383 105.353 83.1297C106.527 83.8497 107.807 84.2097 109.193 84.2097C110.58 84.2097 111.847 83.8497 112.993 83.1297C114.167 82.383 115.087 81.383 115.753 80.1297C116.42 78.8497 116.753 77.4364 116.753 75.8897C116.753 74.3697 116.42 72.983 115.753 71.7297C115.087 70.4497 114.167 69.4497 112.993 68.7297C111.847 68.0097 110.58 67.6497 109.193 67.6497Z" fill="#A9D0D5"/>
</svg>
