<svg width="727" height="1368" viewBox="0 0 727 1368" fill="none" xmlns="http://www.w3.org/2000/svg">
<path opacity="0.75" d="M-89.6726 -161.355C-89.4399 -160.997 -89.2285 -160.628 -89.0578 -160.221C-88.6616 -159.257 -88.4971 -158.248 -88.5359 -157.239L-12.8054 -151.601L15.2882 -223.389C14.274 -223.864 13.3892 -224.561 12.7086 -225.459L-89.6726 -161.355ZM43.0032 65.1374C43.8753 64.1018 45.0023 63.2324 46.3438 62.6295C47.7042 62.0111 49.1139 61.7596 50.4513 61.8142L63.8134 12.7556L-61.6185 -0.288432C-61.8011 0.50067 -62.111 1.2643 -62.5267 1.98462L43.0032 65.1374ZM65.0358 254.834C66.3205 254.701 67.5701 254.854 68.6959 255.266L159.569 123.228L55.7683 73.6913C54.8645 74.8791 53.6396 75.8919 52.154 76.5614C51.593 76.8113 51.0352 77.0003 50.4638 77.1354L65.0358 254.834ZM23.0001 364.764C24.7344 365.444 26.1611 366.729 26.9036 368.511C27.0389 368.837 27.1378 369.168 27.221 369.503L161.206 339.997C161.137 338.242 161.709 336.475 162.799 334.971L70.8915 267.473C70.0817 268.312 69.1025 269.023 67.9684 269.532C66.191 270.334 64.3314 270.525 62.6467 270.206L23.0001 364.764ZM-41.2567 535.821C-40.5187 536.077 -39.8344 536.441 -39.2264 536.902L80.3142 422.923L24.5266 377.361C23.818 377.997 23.0036 378.546 22.0819 378.961C20.4181 379.711 18.6821 379.926 17.0845 379.687L-41.2567 535.821ZM68.1512 578.88C71.4101 577.41 74.952 577.979 77.1598 580.042L88.8245 570.659L-35.5739 545.76L64.0404 582.464C64.9677 580.965 66.3726 579.681 68.1512 578.88ZM-6.54937 1060.1C-4.78618 1060.3 -3.18109 1061.06 -2.00946 1062.27L150.202 949.813L35.6499 841.719C35.0425 842.202 34.3664 842.625 33.6203 842.962C32.4793 843.477 31.3011 843.735 30.1555 843.774L-6.54937 1060.1ZM-113.452 1083.97C-113.42 1086.53 -114.753 1089.11 -117.041 1090.8L-66.8482 1167.7L-13.2314 1074.56C-14.4887 1073.82 -15.5059 1072.72 -16.0924 1071.31C-16.2848 1070.85 -16.4185 1070.38 -16.5057 1069.91L-113.452 1083.97ZM-174.371 1352.23C-173.979 1352.3 -173.595 1352.39 -173.226 1352.51L-67.7242 1169.23L-118.375 1091.63C-118.514 1091.7 -118.651 1091.77 -118.794 1091.84C-120.166 1092.46 -121.587 1092.71 -122.939 1092.65L-174.371 1352.23ZM17.972 1312.95C17.8146 1310.32 19.136 1307.63 21.4573 1305.86L-66.8458 1170.58L-171.905 1353.09C-170.591 1353.82 -169.53 1354.95 -168.923 1356.41C-168.806 1356.69 -168.713 1356.98 -168.635 1357.27L17.972 1312.95ZM236.597 1107.09C235.619 1104.6 236.187 1101.81 237.859 1099.62L151.11 1156.93L236.597 1107.09ZM336.299 1163.96C337.115 1163.09 338.118 1162.36 339.287 1161.83C339.894 1161.56 340.512 1161.36 341.133 1161.23L338.48 1092.6L252.617 1103.19C252.562 1104.65 252.069 1106.1 251.22 1107.37L336.299 1163.96ZM552.911 1114.49L433.683 1070.12L427.161 1076.4C427.638 1076.94 428.039 1077.57 428.33 1078.26C428.966 1079.79 429.004 1081.44 428.563 1083L552.911 1114.49ZM710.47 943.481C711.032 942.23 711.918 941.076 713.068 940.154L576.934 745.744L594.433 906.433C597.798 906.078 600.972 907.673 602.225 910.678C603.509 913.759 602.381 917.366 599.694 919.67L710.47 943.481ZM429.556 705.89C429.069 706.874 428.381 707.784 427.526 708.558L509.73 809.168L574.449 743.228L429.556 705.89ZM405.971 583.094C404.283 583.296 402.633 583.01 401.247 582.29L340.575 659.833L415.716 699.006C416.612 697.865 417.806 696.897 419.248 696.248C419.638 696.072 420.027 695.938 420.424 695.82L405.971 583.094ZM467.189 254.97C466.256 254.807 465.381 254.484 464.603 254.017L348.99 385.835L402.739 565.304L467.189 254.97ZM217.279 150.114C216.773 150.908 216.133 151.639 215.368 152.264L320.146 298.167C320.413 298.014 320.69 297.868 320.979 297.736C325.147 295.857 329.776 297.307 331.484 300.96L461.475 249.751C461.115 248.226 461.284 246.632 461.898 245.161L217.279 150.114ZM261.636 34.8044C260.036 34.0945 258.729 32.8513 258.025 31.1714C257.687 30.3509 257.527 29.4947 257.51 28.6354L233.537 29.3109C233.062 31.9927 231.157 34.5115 228.307 35.7959C227.272 36.2623 226.207 36.5164 225.166 36.5929L212.089 138.872C212.423 138.908 212.751 138.961 213.07 139.039L261.636 34.8044ZM149.399 -228.506C149.021 -228.265 148.627 -228.037 148.204 -227.849C146.438 -227.05 144.586 -226.861 142.908 -227.174L120.006 -172.077L258.471 -91.7218C258.734 -92.0373 259.03 -92.3251 259.335 -92.6038L149.399 -228.506ZM26.2346 -226.498L118.732 -172.82L141.498 -227.576C139.749 -228.254 138.318 -229.541 137.574 -231.332C137.241 -232.126 137.078 -232.954 137.054 -233.787L27.6448 -229.63C27.4072 -228.519 26.9311 -227.453 26.2346 -226.498ZM98.7597 -143.288C99.1299 -144.561 99.818 -145.76 100.781 -146.785L23.5485 -224.021C23.2048 -223.812 22.8554 -223.618 22.4816 -223.448C20.5273 -222.567 18.4696 -222.425 16.6667 -222.888L-11.2818 -151.489L98.7597 -143.288ZM-67.1199 -8.82244C-66.1484 -8.62347 -65.2359 -8.24186 -64.4334 -7.71013L99.6349 -137.281C99.3772 -137.653 99.1524 -138.057 98.9663 -138.489C98.5211 -139.57 98.376 -140.722 98.4808 -141.852L-11.8336 -150.074L-67.1199 -8.82244ZM64.197 11.3357L103.877 -134.422C102.607 -134.733 101.454 -135.339 100.537 -136.215L-63.3417 -6.79544C-62.7564 -6.20205 -62.2748 -5.5015 -61.9395 -4.69296C-61.5402 -3.73932 -61.3757 -2.73038 -61.4153 -1.73209L64.197 11.3357ZM56.9757 66.1122C57.1031 66.4146 57.1978 66.7295 57.2768 67.05L217.159 30.0191C217.134 29.5805 217.16 29.1431 217.209 28.7105L65.3012 12.911L51.9367 62.011C54.1804 62.5132 56.0751 63.9499 56.9757 66.1122ZM160.439 121.964L220.1 35.2829C219.045 34.5546 218.198 33.5525 217.677 32.312C217.553 32.0156 217.457 31.7104 217.377 31.4119L89.6652 60.993L57.4962 68.4414C57.5552 69.7994 57.2326 71.1639 56.5845 72.4108L160.439 121.964ZM70.8236 256.471L203.289 151.322C203.031 150.94 202.802 150.532 202.619 150.093C201.78 148.094 201.971 145.87 202.948 143.918L160.872 123.847L69.9996 255.886C70.2941 256.056 70.5624 256.258 70.8236 256.471ZM163.809 333.799C164.577 333.049 165.494 332.41 166.544 331.936C167.801 331.369 169.099 331.11 170.344 331.12L180.808 281.911L72.9155 264.161C72.67 264.901 72.3177 265.615 71.8665 266.279L163.809 333.799ZM171.492 495.394C172.199 494.759 173.018 494.206 173.938 493.792C174.129 493.707 174.325 493.635 174.52 493.562L168.979 346.678C167.085 346.761 165.29 346.221 163.892 345.168L82.5352 422.739L171.492 495.394ZM169.819 505.512C169.545 505.121 169.307 504.699 169.115 504.241C168.95 503.844 168.834 503.437 168.747 503.027L-36.5359 542.306C-36.5317 542.885 -36.5932 543.462 -36.7236 544.029L90.3187 569.456L169.819 505.512ZM205.231 592.457C206.084 590.485 207.72 588.755 209.924 587.761L210 587.731L178.667 508.127C175.726 509.043 172.702 508.4 170.737 506.563L92.1005 569.812L205.231 592.457ZM78.7804 582.363C79.2193 583.416 79.369 584.531 79.2772 585.636L202.094 593.329L90.6062 571.015L78.0778 581.093C78.3525 581.482 78.5905 581.907 78.7804 582.363ZM154.311 827.851L210.717 602.417C208.226 602.04 206.078 600.551 205.102 598.21C204.663 597.158 204.516 596.042 204.605 594.937L79.0204 587.071C78.3657 589.416 76.615 591.553 74.1097 592.737L150.565 828.346C151.819 827.899 153.096 827.748 154.311 827.851ZM38.6659 837.277L227.066 885.744C227.182 885.51 227.31 885.278 227.449 885.052L158.461 840.626C157.677 841.412 156.731 842.08 155.647 842.567C151.381 844.491 146.62 842.932 145.017 839.083C144.647 838.201 144.487 837.273 144.496 836.346L38.8091 836.689C38.7699 836.886 38.7218 837.081 38.6659 837.277ZM227.265 892.877C227.072 892.567 226.894 892.245 226.748 891.9C226.109 890.366 226.076 888.704 226.527 887.135L38.1271 838.666C37.7765 839.373 37.3263 840.04 36.7803 840.648L151.474 948.875L227.265 892.877ZM199.702 994.384C200.307 993.898 200.984 993.474 201.73 993.14C203.123 992.511 204.57 992.261 205.944 992.335L231.688 895.976C230.312 895.647 229.075 894.961 228.122 893.975L152.503 949.846L199.702 994.384ZM-0.640315 1064.35C-0.587933 1064.47 -0.552487 1064.6 -0.509183 1064.72L196.462 1001.98C196.115 999.687 196.921 997.297 198.569 995.453L151.233 950.786L-1.15335 1063.37C-0.961622 1063.68 -0.784877 1064 -0.640315 1064.35ZM23.3097 1304.75C23.6623 1304.59 24.0208 1304.46 24.3836 1304.35L-8.3631 1075.57C-9.60474 1075.69 -10.8202 1075.55 -11.9204 1075.16L-65.9672 1169.05L22.7785 1305.02C22.9559 1304.93 23.1286 1304.84 23.3097 1304.75ZM21.581 1179.46C20.0172 1175.71 22.0325 1171.18 26.086 1169.17L-6.77672 1075.75L25.6638 1302.43L28.3691 1183.76C25.3912 1183.73 22.7066 1182.16 21.581 1179.46ZM123.108 1165.94L75.3378 1130.8L35.7495 1170.51C36.2807 1171.08 36.718 1171.74 37.0331 1172.5C37.3414 1173.23 37.5062 1174 37.5511 1174.78L121.58 1169.82C121.734 1168.46 122.265 1167.12 123.108 1165.94ZM200.685 1007.29C200.173 1007.08 199.691 1006.82 199.247 1006.5L76.4377 1129.69L124.115 1164.77C124.89 1164 125.814 1163.35 126.877 1162.88C128.797 1162.01 130.814 1161.86 132.599 1162.29L200.685 1007.29ZM329.518 1037.41C329.415 1037.21 329.318 1037.02 329.23 1036.81C328.596 1035.29 328.556 1033.64 328.991 1032.09L212.065 1002.74C211.176 1004.56 209.607 1006.14 207.536 1007.07C205.714 1007.89 203.802 1008.08 202.084 1007.72L133.975 1162.77C135.013 1163.24 135.914 1163.94 136.608 1164.84L329.518 1037.41ZM250.41 1097.87L319.04 1045.99L242.986 1096.24C245.756 1095.52 248.541 1096.16 250.41 1097.87ZM336.491 1041.1C334.246 1041.2 332.133 1040.42 330.673 1038.95L251.345 1098.91C251.642 1099.32 251.893 1099.77 252.095 1100.25C252.302 1100.75 252.444 1101.26 252.527 1101.78L338.428 1091.18L336.491 1041.1ZM412.374 1082.05C412.457 1080.82 412.843 1079.61 413.496 1078.52L343.177 1037.81C342.308 1038.83 341.188 1039.7 339.86 1040.29C339.252 1040.57 338.63 1040.76 338.014 1040.9L339.946 1090.99L412.374 1082.05ZM347.212 1162.17L414.463 1087.52C413.796 1086.88 413.25 1086.12 412.877 1085.23C412.638 1084.66 412.495 1084.07 412.415 1083.47L340.005 1092.41L342.655 1161.02C344.315 1160.95 345.903 1161.36 347.212 1162.17ZM587.941 919.507C587.667 919.198 587.427 918.858 587.21 918.495L586.679 918.379L344.885 1030.42C345.397 1032.05 345.276 1033.79 344.635 1035.38L433.422 1068.42L587.941 919.507ZM590.369 907.871C590.756 907.621 591.162 907.392 591.594 907.197C592.034 907.002 592.474 906.848 592.918 906.726L575.236 744.431L510.619 810.264L590.369 907.871ZM425.751 709.831L479.856 839.601L508.622 810.292L426.28 709.508C426.112 709.616 425.934 709.728 425.751 709.831ZM339.622 661.051L248.013 778.136C248.706 778.69 249.293 779.369 249.728 780.172L414.192 706.038C413.616 704.128 413.91 702.075 414.881 700.279L339.622 661.051ZM398.03 578.86C397.766 578.226 397.613 577.569 397.551 576.903L221.061 594.397C220.999 595.341 220.762 596.278 220.357 597.162L339.3 659.168L400.055 581.519C399.186 580.827 398.482 579.937 398.03 578.86ZM288.976 454.259C289.674 454.908 290.25 455.697 290.634 456.626C291.79 459.383 290.991 462.57 288.881 464.862L400.801 569.672C401.218 569.338 401.665 569.034 402.15 568.766L347.781 387.213L288.976 454.259ZM325.308 312.192C324.396 312.431 323.477 312.525 322.588 312.479L285.546 452.507C286.369 452.686 287.141 452.997 287.842 453.415L347.302 385.621L325.308 312.192ZM213.244 153.582C211.994 154.143 210.696 154.402 209.453 154.393L182.586 280.716L316.182 302.694C316.719 301.321 317.63 300.055 318.861 299.049L214.079 153.152C213.811 153.304 213.535 153.449 213.244 153.582ZM177.176 335.419C177.311 335.739 177.409 336.067 177.49 336.4L315.636 305.811C315.613 305.243 315.662 304.672 315.771 304.11L182.282 282.149L171.837 331.258C174.21 331.703 176.234 333.164 177.176 335.419ZM216.313 587.368L249.284 523.467L184.867 501.778C184.283 504.131 182.574 506.3 180.114 507.539L211.479 587.219C213.152 586.793 214.833 586.866 216.313 587.368ZM160.044 831.286L234.658 787.923L234.58 787.765C232.977 783.917 235.135 779.24 239.402 777.316C239.736 777.164 240.072 777.043 240.409 776.936L216.189 617.432L213.893 602.298C213.332 602.423 212.773 602.491 212.224 602.505L155.775 828.109C157.566 828.6 159.103 829.693 160.044 831.286ZM160.731 836.747L236.091 849.382L240.897 792.046C238.65 791.898 236.612 790.869 235.349 789.129L160.622 832.558C161.085 833.92 161.101 835.365 160.731 836.747ZM210.377 993.991L270.121 940.177L238.163 894.985C237.909 895.128 237.648 895.261 237.38 895.382C235.984 896.011 234.539 896.262 233.165 896.188L207.42 992.546C208.52 992.81 209.528 993.302 210.377 993.991ZM331.974 1027.64L270.935 941.327L211.367 994.981C211.765 995.469 212.106 996.014 212.359 996.622C212.993 998.14 213.031 999.786 212.595 1001.34L329.526 1030.7C330.084 1029.55 330.914 1028.49 331.974 1027.64ZM586.52 916.921C586.175 915.736 586.165 914.494 586.442 913.299L451.435 888.557L342.671 1027.19C343.338 1027.72 343.907 1028.37 344.338 1029.14L586.52 916.921ZM490.184 844.391C491.105 846.601 490.779 849.085 489.531 851.165L517.06 867.424L588.394 909.561C588.62 909.299 588.867 909.056 589.126 908.821L509.516 811.381L481.056 840.385C484.883 839.382 488.767 840.99 490.184 844.391ZM419.609 710.829L372.658 818.033L475.074 845.152C475.864 843.58 477.164 842.198 478.853 841.261L424.325 710.472C422.732 711.04 421.1 711.136 419.609 710.829ZM250.266 781.459C250.675 782.819 250.64 784.252 250.239 785.617L371.235 817.657L418.207 710.403C416.737 709.795 415.5 708.747 414.729 707.324L250.266 781.459ZM215.733 601.694C215.616 601.746 215.499 601.787 215.384 601.832L231.091 705.271L241.918 776.583C243.67 776.335 245.384 776.623 246.821 777.364L338.347 660.386L219.603 598.483C218.682 599.821 217.362 600.96 215.733 601.694ZM342.259 867.181C342.502 866.572 342.811 865.979 343.197 865.426L247.731 789.58C247.007 790.245 246.165 790.819 245.21 791.249C244.29 791.665 243.347 791.908 242.417 792.009L237.587 849.632L342.259 867.181ZM242.202 884.933C242.348 885.287 242.453 885.647 242.537 886.011L341.742 870.751C341.667 870.034 341.705 869.312 341.844 868.599L237.465 851.098L234.988 880.639C238.132 880.516 241.02 882.103 242.202 884.933ZM343.217 874.339C342.817 873.85 342.478 873.306 342.224 872.698C342.148 872.513 342.089 872.327 342.03 872.14L242.72 887.417C242.785 889.89 241.574 892.39 239.454 894.102L271.295 939.123L343.217 874.339ZM334.052 1026.36C334.963 1025.95 335.888 1025.7 336.812 1025.6L348.578 876.981C346.936 876.88 345.408 876.305 344.206 875.33L272.107 940.271L333.268 1026.75C333.519 1026.61 333.781 1026.48 334.052 1026.36ZM357.595 871.362C356.761 873.383 355.106 875.166 352.855 876.182C351.946 876.591 351.016 876.834 350.097 876.938L338.329 1025.56C339.457 1025.63 340.526 1025.92 341.481 1026.41L449.865 888.269L357.595 871.362ZM476.742 854.012C475.883 853.322 475.182 852.433 474.732 851.356C474.537 850.886 474.398 850.401 474.309 849.907L432.84 856.603L358.2 868.652C358.185 869.087 358.125 869.52 358.035 869.95L450.889 886.965L476.742 854.012ZM353.463 861.864C355.339 862.51 356.888 863.843 357.678 865.731C357.874 866.207 358.014 866.692 358.101 867.185L474.213 848.488C474.227 847.83 474.336 847.176 474.53 846.544L372.057 819.407L353.463 861.864ZM248.798 788.42L344.506 863.936C345.236 863.261 346.082 862.683 347.047 862.248C348.703 861.5 350.434 861.285 352.027 861.519L370.634 819.03L249.69 787.003C249.442 787.498 249.142 787.971 248.798 788.42ZM587.478 910.793L526.391 874.712L488.633 852.407C487.768 853.406 486.667 854.254 485.362 854.84C482.799 855.998 480.06 855.887 477.933 854.785L452.461 887.254L586.905 911.89C587.068 911.514 587.261 911.15 587.478 910.793ZM250.664 523.934L217.632 587.957C218.919 588.695 219.957 589.81 220.554 591.245C220.787 591.806 220.933 592.384 221.013 592.972L328.202 582.35L397.546 575.475C397.61 574.821 397.753 574.176 397.986 573.543L250.664 523.934ZM399.674 570.744L287.731 465.914C287.152 466.361 286.516 466.755 285.814 467.074C283.775 467.991 281.621 468.106 279.753 467.561L251.358 522.591L398.621 572.186C398.918 571.677 399.272 571.198 399.674 570.744ZM319.431 311.656L240.722 414.055L278.224 454.198C278.769 453.792 279.359 453.431 280.009 453.137C281.351 452.532 282.739 452.273 284.06 452.322L321.114 312.272C320.523 312.132 319.96 311.921 319.431 311.656ZM275.183 463.59L275.179 463.576L267.067 466.421L183.621 495.688C183.999 496.162 184.322 496.691 184.568 497.276C184.97 498.242 185.132 499.262 185.087 500.275L249.978 522.122L278.403 467.026C276.984 466.294 275.828 465.129 275.183 463.59ZM179.844 493.257C180.831 493.524 181.74 493.977 182.525 494.589L266.638 465.089L274.784 462.232C274.319 459.772 275.2 457.167 277.054 455.23L239.76 415.306L179.844 493.257ZM174.001 344.913C173.493 345.277 172.945 345.603 172.354 345.868C171.742 346.145 171.121 346.341 170.498 346.478L176.036 493.134C176.782 492.995 177.533 492.945 178.255 492.996L238.782 414.255L174.001 344.913ZM316.152 308.19C316.023 307.863 315.924 307.536 315.838 307.209L177.692 337.798C177.785 339.991 176.864 342.218 175.188 343.905L239.743 413.003L318.229 310.896C317.34 310.195 316.616 309.289 316.152 308.19ZM-1.93524 1072.04L75.2943 1128.85L198.191 1005.58C197.66 1005.01 197.221 1004.34 196.907 1003.59C196.872 1003.5 196.847 1003.42 196.816 1003.33L-0.181461 1066.09C0.0932783 1068.16 -0.564561 1070.3 -1.93524 1072.04ZM27.5356 1168.59C30.1196 1167.8 32.765 1168.21 34.6933 1169.58L74.1944 1129.96L-2.99698 1073.18C-3.70849 1073.82 -4.53097 1074.37 -5.46062 1074.79L27.5356 1168.59ZM159.46 839.446L228.362 883.817C229.216 882.847 230.297 882.023 231.571 881.449C232.193 881.169 232.823 880.972 233.455 880.835L235.968 850.847L160.218 838.146C160.004 838.595 159.753 839.03 159.46 839.446ZM71.8116 257.467C72.2062 257.947 72.5385 258.484 72.7886 259.084C73.275 260.258 73.4095 261.508 73.2467 262.731L181.118 280.473L207.959 154.255C206.521 153.988 205.217 153.344 204.202 152.376L71.8116 257.467ZM221.349 35.97L161.74 122.585L203.737 142.624C204.648 141.39 205.908 140.335 207.441 139.644C208.474 139.177 209.537 138.92 210.579 138.847L223.655 36.5664C222.85 36.4784 222.071 36.2796 221.349 35.97ZM257.622 27.2022C257.911 25.5526 258.744 23.9673 260.005 22.6891L236.674 -2.18767L228.688 21.4021C230.665 22.0195 232.313 23.382 233.129 25.3468C233.469 26.1599 233.631 27.0182 233.648 27.8777L257.622 27.2022ZM262.846 -79.5055L237.244 -3.86205L261.193 21.6843C261.706 21.3152 262.256 20.9906 262.85 20.7183C263.533 20.4114 264.226 20.1988 264.92 20.0639L263.997 -79.4551C263.606 -79.4529 263.22 -79.4632 262.846 -79.5055ZM256.964 -83.7536C256.238 -85.4846 256.285 -87.3861 256.937 -89.1289L113.798 -138.721C113.427 -138.1 112.976 -137.51 112.442 -136.978L236.103 -5.07691L261.399 -79.8148C259.426 -80.4262 257.778 -81.7888 256.964 -83.7536ZM110.492 -149.211C112.243 -148.532 113.674 -147.246 114.422 -145.448C115.142 -143.723 115.097 -141.822 114.443 -140.079L257.53 -90.5054L119.413 -170.66L110.492 -149.211ZM220.47 23.102L155.323 -70.631L110.331 -135.371C110.093 -135.242 109.85 -135.12 109.597 -135.005C108.188 -134.369 106.731 -134.121 105.346 -134.2L65.686 11.4899L217.536 27.2777C218.048 25.6973 219.062 24.2295 220.47 23.102ZM203.142 -4.57249L221.768 22.2328C222.006 22.096 222.25 21.9721 222.497 21.8641C224.077 21.1534 225.714 20.9163 227.244 21.0987L235.533 -3.40261L113.443 -133.629L203.142 -4.57249ZM25.2193 -225.318C25.0938 -225.19 24.9531 -225.066 24.8179 -224.95L101.939 -147.829C102.505 -148.257 103.114 -148.631 103.787 -148.937C105.559 -149.734 107.404 -149.925 109.082 -149.613L118.138 -171.394L25.2193 -225.318ZM463.471 253.171C462.84 252.586 462.317 251.88 461.934 251.071L331.941 302.278C332.794 305.893 330.667 309.923 326.784 311.673L326.783 311.671L348.513 384.241L463.471 253.171ZM563.151 1111.61C564.219 1111.13 565.312 1110.87 566.381 1110.81L592.666 921.892C591.297 921.731 590.032 921.242 588.978 920.455L434.88 1068.97L559.058 1115.17C559.985 1113.69 561.384 1112.41 563.151 1111.61ZM432.223 1069.58L345.087 1037.15L414.384 1077.26C415.251 1076.24 416.373 1075.38 417.7 1074.78C420.685 1073.44 423.909 1073.8 426.126 1075.45L432.223 1069.58ZM-38.1974 537.855C-37.7311 538.389 -37.3423 538.997 -37.057 539.684C-36.8896 540.081 -36.7743 540.489 -36.6875 540.9L168.595 501.617C168.584 499.82 169.242 498.018 170.431 496.52L81.4071 423.815L-38.1974 537.855ZM25.5906 376.232L81.4436 421.848L162.867 344.212C162.402 343.678 162.008 343.07 161.723 342.384C161.591 342.057 161.492 341.727 161.407 341.394L27.4209 370.899C27.4964 372.775 26.8306 374.669 25.5906 376.232ZM-88.7386 -155.805C-89.338 -153.295 -91.1884 -150.983 -93.8794 -149.772C-94.4009 -149.538 -94.9325 -149.355 -95.4552 -149.218L-85.8413 -94.0314L-70.9882 -8.72476C-70.193 -8.92541 -69.4002 -9.01061 -68.6235 -8.99276L-13.3607 -150.192L-88.7386 -155.805ZM153.025 -238.299C154.286 -235.282 153.221 -231.757 150.642 -229.448L260.588 -93.5462C260.967 -93.7884 261.361 -94.0143 261.783 -94.2028C266.049 -96.1278 270.808 -94.5644 272.415 -90.72C274.016 -86.8692 271.859 -82.1959 267.593 -80.2709C266.911 -79.9639 266.214 -79.7572 265.519 -79.621L266.442 19.9089C269.517 19.8516 272.32 21.4282 273.482 24.201C275.083 28.0518 272.923 32.7327 268.655 34.6554C266.77 35.5037 264.785 35.6717 263.026 35.2599L214.46 139.495C216.06 140.205 217.367 141.448 218.071 143.128C218.83 144.953 218.736 146.959 217.98 148.778L462.598 243.824C463.521 242.378 464.902 241.138 466.633 240.356C470.899 238.432 475.657 239.995 477.263 243.84C478.865 247.69 476.705 252.371 472.438 254.293C471.195 254.854 469.915 255.107 468.679 255.107L403.682 568.084C407.722 566.695 411.985 568.293 413.482 571.895C415.088 575.74 412.928 580.421 408.661 582.344C408.271 582.52 407.88 582.653 407.485 582.772L421.938 695.498C425.355 695.079 428.607 696.684 429.877 699.731C430.516 701.264 430.549 702.929 430.097 704.499L574.956 741.826L574.74 739.893L576.347 742.188L577.219 742.414L576.806 742.834L714.367 939.275C714.606 939.137 714.854 939.009 715.118 938.894C719.382 936.968 724.141 938.531 725.747 942.377C727.355 946.222 725.192 950.9 720.928 952.826C716.658 954.747 711.898 953.193 710.296 949.344C709.694 947.909 709.624 946.358 709.986 944.883L598.02 920.815C597.821 920.927 597.616 921.033 597.402 921.129C596.341 921.61 595.248 921.873 594.178 921.94L567.889 1110.85C570.5 1111.15 572.77 1112.67 573.785 1115.1C575.39 1118.95 573.23 1123.62 568.963 1125.55C564.696 1127.47 559.934 1125.91 558.331 1122.06C557.697 1120.54 557.661 1118.89 558.101 1117.33L428.027 1084.39C427.137 1086.2 425.575 1087.78 423.509 1088.71C420.737 1089.96 417.771 1089.74 415.581 1088.38L348.331 1163.03C348.996 1163.66 349.545 1164.43 349.916 1165.32C351.519 1169.17 349.36 1173.84 345.096 1175.77C340.824 1177.69 336.068 1176.13 334.465 1172.28C333.492 1169.95 333.91 1167.31 335.338 1165.17L250.26 1108.58C249.439 1109.44 248.441 1110.18 247.274 1110.7C243.444 1112.43 239.229 1111.34 237.24 1108.32L137.538 1166.45C139.071 1170.28 136.917 1174.9 132.685 1176.81C128.417 1178.74 123.655 1177.17 122.051 1173.33C121.772 1172.65 121.614 1171.96 121.553 1171.25L37.4861 1176.21C37.0924 1178.98 35.1534 1181.62 32.2101 1182.95C31.4469 1183.29 30.6669 1183.52 29.8924 1183.65L27.1533 1303.93C30.1286 1303.97 32.8132 1305.53 33.9402 1308.23C35.5435 1312.08 33.3873 1316.76 29.1172 1318.68C24.8532 1320.61 20.0926 1319.05 18.4893 1315.2C18.3746 1314.92 18.281 1314.63 18.2017 1314.34L-168.407 1358.66C-168.211 1361.93 -170.285 1365.3 -173.744 1366.86C-178.011 1368.78 -182.772 1367.22 -184.374 1363.37C-185.98 1359.53 -183.82 1354.85 -179.552 1352.93C-178.336 1352.38 -177.08 1352.12 -175.868 1352.11L-124.42 1092.45C-126.648 1091.93 -128.528 1090.5 -129.424 1088.35C-131.029 1084.51 -128.87 1079.83 -124.604 1077.9C-120.336 1075.98 -115.575 1077.54 -113.972 1081.39C-113.813 1081.77 -113.699 1082.16 -113.614 1082.56L-16.6142 1068.49C-16.5523 1065.41 -14.5298 1062.33 -11.2708 1060.86C-10.2118 1060.38 -9.12475 1060.12 -8.06004 1060.06L28.6535 843.692C26.1421 843.327 23.9737 841.834 22.9898 839.478C21.3865 835.63 23.5464 830.952 27.8141 829.029C32.0792 827.106 36.8386 828.665 38.4445 832.513C38.8118 833.395 38.9717 834.323 38.9631 835.25L144.649 834.909C145.184 832.31 147.057 829.889 149.837 828.635L149.107 828.908L72.6477 593.282C68.7574 594.387 64.7703 592.786 63.3283 589.328C62.5857 587.548 62.6587 585.592 63.3634 583.812L-37.7691 546.549C-38.6938 548.048 -40.0987 549.332 -41.8772 550.132C-46.1451 552.058 -50.9044 550.497 -52.5077 546.648C-54.1124 542.801 -51.9525 538.123 -47.6861 536.199C-46.0223 535.449 -44.2877 535.235 -42.6887 535.475L15.6538 379.34C13.7812 378.693 12.2373 377.361 11.4515 375.477C9.84681 371.63 12.0066 366.951 16.2731 365.027C18.0491 364.227 19.906 364.039 21.5894 364.358L61.2412 269.798C59.5018 269.118 58.0762 267.837 57.3366 266.049C55.7305 262.204 57.8917 257.524 62.1582 255.6C62.6085 255.397 63.0598 255.246 63.5215 255.115L48.9445 77.3678C45.718 77.5713 42.7327 75.9719 41.5248 73.0787C40.6138 70.8962 40.9145 68.455 42.1241 66.392L-63.4173 3.23852C-64.2847 4.27871 -65.4171 5.15326 -66.7586 5.75621C-71.0239 7.68125 -75.783 6.11796 -77.3905 2.27349C-78.991 -1.57743 -76.8328 -6.24946 -72.5688 -8.17576L-72.4752 -8.21564L-88.5051 -100.295L-96.9812 -148.981C-100.246 -148.73 -103.291 -150.331 -104.509 -153.254C-106.116 -157.099 -103.959 -161.782 -99.6885 -163.702C-96.3701 -165.198 -92.7664 -164.584 -90.5726 -162.43L11.9859 -226.644C11.9423 -226.739 11.888 -226.831 11.851 -226.93C10.2504 -230.78 12.4025 -235.458 16.6715 -237.38C20.9367 -239.305 25.7013 -237.747 27.3019 -233.896C27.6803 -232.983 27.8429 -232.03 27.8206 -231.066L137.149 -235.225C137.6 -237.93 139.516 -240.48 142.394 -241.781C146.664 -243.702 151.418 -242.143 153.025 -238.299Z" fill="url(#paint0_linear_20068_61770)"/>
<defs>
<linearGradient id="paint0_linear_20068_61770" x1="575.351" y1="1120.24" x2="-383.859" y2="103.722" gradientUnits="userSpaceOnUse">
<stop stop-color="#3FBCED" stop-opacity="0.19"/>
<stop offset="1" stop-color="#3FBCED"/>
</linearGradient>
</defs>
</svg>
