<svg width="480" height="480" viewBox="0 0 480 480" fill="none" xmlns="http://www.w3.org/2000/svg">
<path fill-rule="evenodd" clip-rule="evenodd" d="M441.646 244.258C439.921 355.935 347.825 442.816 236.721 440.964C124.971 439.101 37.021 348.249 38.9062 236.404C40.7975 124.199 133.48 37.9344 245.04 40.1167C356.362 42.2943 443.366 132.909 441.646 244.258ZM224.85 7.40765C95.7986 14.8446 -1.28161 127.279 6.42924 255.309C14.2944 385.902 126.523 480.688 256.254 472.896C384.62 465.186 482.741 353.966 474.347 225.467C465.859 95.5317 354.178 -0.0452027 224.85 7.40765Z" fill="white"/>
<path fill-rule="evenodd" clip-rule="evenodd" d="M371.348 228.426C369.518 265.032 317.231 257.322 320.346 225.264C323.512 192.692 373.061 194.162 371.348 228.426ZM159.407 214.916C151.954 246.832 101.476 236.573 109.876 201.838C117.149 171.765 167.531 180.125 159.407 214.916ZM214.925 127.944C208.463 92.3969 262.086 86.3109 265.723 118.315C269.91 155.165 220.22 157.068 214.925 127.944ZM150.119 260.091C212.486 234.112 191.161 156.72 136.038 155.411C74.0784 153.94 60.5607 242.565 118.454 258.824V314.131C118.454 324.871 116.817 320.939 123.557 327.605C135.936 339.85 148.24 352.179 160.604 364.442C173.098 376.833 186.745 399.523 202.723 383.231C211.784 373.993 230.786 353.291 240.257 346.64C249.845 353.289 266.276 371.555 275.334 380.615C293.849 399.135 300.202 384.213 315.154 369.396C326.743 357.911 338.248 346.32 349.895 334.898C358.054 326.897 362.901 325.418 362.404 312.786C361.954 301.366 362.271 289.508 362.271 278.034C424.586 252.057 402.294 174.428 346.403 174.054C290.402 173.68 268.001 253.195 330.395 278.034C330.395 310.037 336.206 304.622 314.263 326.075C301.159 338.887 293.609 354.506 276.983 337.99C254.609 315.764 259.045 325.135 259.045 291.755V179.241C259.043 169.781 257.669 173.093 265.507 169.659C279.384 163.58 290.041 147.159 292.999 132.652C300.327 96.7097 267.192 63.5001 231.34 70.2077C196.601 76.7071 175.783 115.256 193.15 147.229C197.182 154.653 201.38 159.24 207.802 164.621C220.078 174.906 222.736 165.013 222.736 181.985V310.543C222.736 322.79 219.93 322.268 210.961 330.854C206.649 334.981 198.703 344.566 193.096 345.419C183.925 346.813 164.523 323.426 157.894 316.7C147.158 305.808 150.097 308.419 150.104 292.403C150.109 281.633 150.119 270.861 150.119 260.091Z" fill="white"/>
</svg>
