<svg width="300" height="300" viewBox="0 0 300 300" fill="none" xmlns="http://www.w3.org/2000/svg">
<path fill-rule="evenodd" clip-rule="evenodd" d="M185.195 277.164C221.593 292.24 260.603 300 300 300V150C217.157 150 150 82.8427 150 0L0 0C0 39.3965 7.75973 78.4073 22.8361 114.805C37.9125 151.203 60.0104 184.274 87.868 212.132C115.726 239.99 148.797 262.087 185.195 277.164Z" fill="#368AC8"/>
<path fill-rule="evenodd" clip-rule="evenodd" d="M185.195 277.164C221.593 292.24 260.603 300 300 300V150C217.157 150 150 82.8427 150 0L0 0C0 39.3965 7.75973 78.4073 22.8361 114.805C37.9125 151.203 60.0104 184.274 87.868 212.132C115.726 239.99 148.797 262.087 185.195 277.164Z" fill="url(#paint0_linear_11349_15750)"/>
<path fill-rule="evenodd" clip-rule="evenodd" d="M223.463 184.776C247.728 194.827 273.736 200 300 200V100C244.772 100 200 55.2285 200 8.74228e-06L100 0C100 26.2644 105.173 52.2716 115.224 76.5367C125.275 100.802 140.007 122.85 158.579 141.421C177.15 159.993 199.198 174.725 223.463 184.776Z" fill="#EBF5FF"/>
<defs>
<linearGradient id="paint0_linear_11349_15750" x1="300" y1="300" x2="242.542" y2="-40.8822" gradientUnits="userSpaceOnUse">
<stop stop-color="#70ADD9"/>
<stop offset="1" stop-color="#368AC8"/>
</linearGradient>
</defs>
</svg>
