<svg width="520" height="200" viewBox="0 0 520 200" fill="none" xmlns="http://www.w3.org/2000/svg">
<rect width="520" height="200" rx="6" fill="#FCFCFC"/>
<mask id="mask0_18470_52107" style="mask-type:alpha" maskUnits="userSpaceOnUse" x="0" y="0" width="520" height="200">
<rect width="520" height="200" rx="6" fill="white"/>
</mask>
<g mask="url(#mask0_18470_52107)">
<path fill-rule="evenodd" clip-rule="evenodd" d="M214 52C214 45.3726 219.373 40 226 40H333.842C340.469 40 345.842 45.3726 345.842 52V286.687C345.842 300.57 334.587 311.824 320.705 311.824H239.137C225.254 311.824 214 300.57 214 286.687V52Z" fill="#59C2FF"/>
<path fill-rule="evenodd" clip-rule="evenodd" d="M214 52C214 45.3726 219.373 40 226 40H333.842C340.469 40 345.842 45.3726 345.842 52V286.687C345.842 300.57 334.587 311.824 320.705 311.824H239.137C225.254 311.824 214 300.57 214 286.687V52Z" fill="url(#paint0_linear_18470_52107)"/>
<path fill-rule="evenodd" clip-rule="evenodd" d="M218.755 59.9688C218.755 55.5505 222.337 51.9687 226.755 51.9687H332.654C337.073 51.9687 340.654 55.5505 340.654 59.9687V284.903C340.654 295.132 332.362 303.425 322.132 303.425H237.277C227.047 303.425 218.755 295.132 218.755 284.903V59.9688Z" fill="white"/>
<mask id="mask1_18470_52107" style="mask-type:alpha" maskUnits="userSpaceOnUse" x="218" y="51" width="123" height="253">
<path fill-rule="evenodd" clip-rule="evenodd" d="M218.755 59.9688C218.755 55.5505 222.337 51.9687 226.755 51.9687H332.654C337.073 51.9687 340.654 55.5505 340.654 59.9687V284.903C340.654 295.132 332.362 303.425 322.132 303.425H237.277C227.047 303.425 218.755 295.132 218.755 284.903V59.9688Z" fill="white"/>
</mask>
<g mask="url(#mask1_18470_52107)">
</g>
<path opacity="0.7" d="M292.295 44.4375C293.422 44.4375 294.337 45.3094 294.337 46.385C294.337 47.4367 293.463 48.2936 292.369 48.3312L292.295 48.3325H256.134C255.007 48.3325 254.092 47.4606 254.092 46.385C254.092 45.3333 254.966 44.4764 256.06 44.4388L256.134 44.4375H292.295Z" fill="white"/>
<path opacity="0.7" d="M298.937 44.1094C300.065 44.1094 300.979 45.0176 300.979 46.138C300.979 47.2335 300.105 48.1262 299.012 48.1653L298.937 48.1667H298.83C297.702 48.1667 296.788 47.2584 296.788 46.138C296.788 45.0425 297.662 44.1498 298.755 44.1107L298.83 44.1094H298.937Z" fill="white"/>
<path fill-rule="evenodd" clip-rule="evenodd" d="M356 175C356 171.686 358.686 169 362 169H379.485L387 176.789V200C387 203.314 384.314 206 381 206H362C358.686 206 356 203.314 356 200V175Z" fill="#59C2FF"/>
<path fill-rule="evenodd" clip-rule="evenodd" d="M356 175C356 171.686 358.686 169 362 169H379.485L387 176.789V200C387 203.314 384.314 206 381 206H362C358.686 206 356 203.314 356 200V175Z" fill="url(#paint1_linear_18470_52107)"/>
<path d="M380.334 182.831C380.334 180.53 378.468 178.664 376.167 178.664H372H367.834C365.532 178.664 363.667 180.53 363.667 182.831V191.164C363.667 193.465 365.532 195.331 367.834 195.331H376.167C378.468 195.331 380.334 193.465 380.334 191.164V182.831Z" stroke="#EBF5FF" stroke-width="2" stroke-linecap="round" stroke-linejoin="round"/>
<path d="M374.995 188.501C375.318 187.879 375.437 187.171 375.334 186.477C375.229 185.77 374.899 185.115 374.393 184.609C373.888 184.103 373.233 183.774 372.525 183.669C371.832 183.566 371.124 183.684 370.501 184.007C369.879 184.33 369.374 184.841 369.059 185.468C368.744 186.094 368.634 186.803 368.745 187.496C368.857 188.188 369.184 188.827 369.679 189.323C370.175 189.819 370.815 190.146 371.507 190.257C372.199 190.369 372.909 190.259 373.535 189.944C374.161 189.628 374.672 189.124 374.995 188.501Z" stroke="#EBF5FF" stroke-width="2" stroke-linecap="round" stroke-linejoin="round"/>
<path d="M376.583 182.414H376.591" stroke="#EBF5FF" stroke-width="2" stroke-linecap="round" stroke-linejoin="round"/>
<path opacity="0.33996" d="M387 176.789H382.485C380.828 176.789 379.485 175.446 379.485 173.789V169L387 176.789Z" fill="#4EA3D6"/>
<path fill-rule="evenodd" clip-rule="evenodd" d="M416 147C416 143.686 418.686 141 422 141H439.485L447 148.789V172C447 175.314 444.314 178 441 178H422C418.686 178 416 175.314 416 172V147Z" fill="#59C2FF"/>
<path fill-rule="evenodd" clip-rule="evenodd" d="M416 147C416 143.686 418.686 141 422 141H439.485L447 148.789V172C447 175.314 444.314 178 441 178H422C418.686 178 416 175.314 416 172V147Z" fill="url(#paint2_linear_18470_52107)"/>
<g clip-path="url(#clip0_18470_52107)">
<path d="M438.55 152.776C439.485 152.494 440.368 152.063 441.166 151.501C440.884 152.661 440.284 153.72 439.433 154.559C439.477 154.787 439.499 155.018 439.5 155.251C439.5 164.834 430.333 169.001 422.833 164.834C424.906 164.916 426.95 164.332 428.666 163.167C421.166 159.834 424.5 152.334 424.5 152.334C425.342 153.533 426.467 154.505 427.776 155.163C429.084 155.822 430.535 156.147 432 156.109V155.276C431.989 154.511 432.214 153.761 432.644 153.129C433.073 152.496 433.687 152.01 434.401 151.738C435.116 151.465 435.897 151.418 436.639 151.604C437.381 151.789 438.048 152.198 438.55 152.776Z" stroke="#EBF5FF" stroke-width="2" stroke-linecap="round" stroke-linejoin="round"/>
</g>
<path opacity="0.33996" d="M447 148.789H442.485C440.828 148.789 439.485 147.446 439.485 145.789V141L447 148.789Z" fill="#4EA3D6"/>
<path fill-rule="evenodd" clip-rule="evenodd" d="M367 115C367 111.686 369.686 109 373 109H390.485L398 116.789V140C398 143.314 395.314 146 392 146H373C369.686 146 367 143.314 367 140V115Z" fill="#59C2FF"/>
<path fill-rule="evenodd" clip-rule="evenodd" d="M367 115C367 111.686 369.686 109 373 109H390.485L398 116.789V140C398 143.314 395.314 146 392 146H373C369.686 146 367 143.314 367 140V115Z" fill="url(#paint3_linear_18470_52107)"/>
<path d="M385.5 118.664H388V121.997H385.5C385.279 121.997 385.067 122.085 384.91 122.241C384.754 122.398 384.666 122.61 384.666 122.831V125.331H388L387.166 128.664H384.666V135.331H381.333V128.664H378.833V125.331H381.333V122.831C381.333 121.726 381.772 120.666 382.553 119.884C383.335 119.103 384.395 118.664 385.5 118.664Z" stroke="#EBF5FF" stroke-width="2" stroke-linecap="round" stroke-linejoin="round"/>
<path opacity="0.33996" d="M398 116.789H393.485C391.828 116.789 390.485 115.446 390.485 113.789V109L398 116.789Z" fill="#4EA3D6"/>
<g opacity="0.8">
<path fill-rule="evenodd" clip-rule="evenodd" d="M319.419 107.752C319.419 101.814 314.606 97 308.667 97H250.048C244.109 97 239.296 101.814 239.296 107.752V179.83C239.296 185.768 244.109 190.582 250.048 190.582H308.667C314.606 190.582 319.419 185.768 319.419 179.83V107.752Z" fill="#59C2FF"/>
<path fill-rule="evenodd" clip-rule="evenodd" d="M319.419 107.752C319.419 101.814 314.606 97 308.667 97H250.048C244.109 97 239.296 101.814 239.296 107.752V179.83C239.296 185.768 244.109 190.582 250.048 190.582H308.667C314.606 190.582 319.419 185.768 319.419 179.83V107.752Z" fill="url(#paint4_linear_18470_52107)"/>
</g>
<path opacity="0.7" fill-rule="evenodd" clip-rule="evenodd" d="M313.359 114.452C313.359 108.688 308.687 104.016 302.923 104.016H256.699C250.935 104.016 246.263 108.688 246.263 114.452C246.263 120.216 250.935 124.889 256.699 124.889H302.923C308.687 124.889 313.359 120.216 313.359 114.452Z" fill="white"/>
<path fill-rule="evenodd" clip-rule="evenodd" d="M308.999 114.385C308.999 110.6 305.93 107.531 302.145 107.531H301.338C297.553 107.531 294.484 110.6 294.484 114.385C294.484 118.171 297.553 121.24 301.338 121.24H302.145C305.93 121.24 308.999 118.171 308.999 114.385Z" fill="#44B51F"/>
<path opacity="0.7" fill-rule="evenodd" clip-rule="evenodd" d="M313.359 141.874C313.359 136.11 308.687 131.438 302.923 131.438H256.699C250.935 131.438 246.263 136.11 246.263 141.874C246.263 147.638 250.935 152.311 256.699 152.311H302.923C308.687 152.311 313.359 147.638 313.359 141.874Z" fill="white"/>
<path fill-rule="evenodd" clip-rule="evenodd" d="M308.999 141.854C308.999 138.069 305.93 135 302.145 135H301.338C297.553 135 294.484 138.069 294.484 141.854C294.484 145.64 297.553 148.708 301.338 148.708H302.145C305.93 148.708 308.999 145.64 308.999 141.854Z" fill="#44B51F"/>
<path opacity="0.7" fill-rule="evenodd" clip-rule="evenodd" d="M313.359 169.288C313.359 163.524 308.687 158.852 302.923 158.852H256.699C250.935 158.852 246.263 163.524 246.263 169.288C246.263 175.052 250.935 179.725 256.699 179.725H302.923C308.687 179.725 313.359 175.052 313.359 169.288Z" fill="white"/>
<path fill-rule="evenodd" clip-rule="evenodd" d="M308.823 169.214C308.823 165.428 305.755 162.359 301.969 162.359H301.162C297.377 162.359 294.308 165.428 294.308 169.214C294.308 172.999 297.377 176.068 301.162 176.068H301.969C305.755 176.068 308.823 172.999 308.823 169.214Z" fill="#59C2FF"/>
<path fill-rule="evenodd" clip-rule="evenodd" d="M308.823 169.214C308.823 165.428 305.755 162.359 301.969 162.359H301.162C297.377 162.359 294.308 165.428 294.308 169.214C294.308 172.999 297.377 176.068 301.162 176.068H301.969C305.755 176.068 308.823 172.999 308.823 169.214Z" fill="url(#paint5_linear_18470_52107)"/>
<path fill-rule="evenodd" clip-rule="evenodd" d="M388 60C388 56.6863 390.686 54 394 54H426C429.314 54 432 56.6863 432 60V85C432 88.3137 429.314 91 426 91H394C390.686 91 388 88.3137 388 85V60Z" fill="#AFF57A"/>
<path fill-rule="evenodd" clip-rule="evenodd" d="M388 60C388 56.6863 390.686 54 394 54H426C429.314 54 432 56.6863 432 60V85C432 88.3137 429.314 91 426 91H394C390.686 91 388 88.3137 388 85V60Z" fill="url(#paint6_linear_18470_52107)"/>
<path fill-rule="evenodd" clip-rule="evenodd" d="M177.734 162.969C177.734 162.969 165.405 230.583 163.243 237.623C161.081 244.664 155.085 297.622 155.085 297.622L142.134 297.659C142.134 297.659 141.859 256.893 143.167 250.341C144.475 243.789 147.428 232.999 147.428 232.999C147.428 232.999 149.622 193.827 150.935 184.69C152.247 175.552 156.46 162.008 156.46 162.008L177.734 162.969Z" fill="#33373E"/>
<path fill-rule="evenodd" clip-rule="evenodd" d="M165.927 194.547C169.303 206.52 172.054 235.758 172.054 235.758C172.054 235.758 172.365 238.838 171.02 247.37C169.675 255.902 174.975 297.42 174.975 297.42L188.923 297.448C188.923 297.448 190.644 241.673 190.725 235.807C190.853 226.66 193.869 163.244 193.869 163.244L164.859 162.594C164.859 162.594 162.551 182.574 165.927 194.547Z" fill="#42474F"/>
<path fill-rule="evenodd" clip-rule="evenodd" d="M186.266 187.245L186.321 187.48C188.325 195.768 184.888 232.497 185.867 241.231L186.256 244.355C186.936 249.97 188.087 260.207 189.709 275.064L190.06 262.628C190.383 250.809 190.658 239.688 190.717 236.306L190.725 235.809C190.853 226.662 193.869 163.246 193.869 163.246L188.442 163.125L188.204 164.151C185.809 174.659 185.163 182.357 186.266 187.245Z" fill="white" fill-opacity="0.192499"/>
<path fill-rule="evenodd" clip-rule="evenodd" d="M186.971 80.0532C189.976 80.3794 189.763 85.6222 186.105 85.8959C185.357 90.9499 182.691 93.3578 179.441 93.6364L179.621 101.281L165.244 101.272C165.244 101.272 169.292 95.8721 169.091 88.4792C168.889 81.0858 169.226 74.1406 169.226 74.1406L187.848 74.4722L186.971 80.0532Z" fill="#FBCCCC"/>
<path fill-rule="evenodd" clip-rule="evenodd" d="M188.413 76.9417C189.709 77.5629 188.677 80.37 188.021 80.37C185.012 79.1888 182.516 83.4419 181.248 87.7136C177.646 91.2212 169.687 91.2989 168.864 88.3647C165.751 81.9382 165.599 72.6457 169.231 71.9286C166.38 64.4605 204.892 60.5539 188.413 76.9417Z" fill="#33373E"/>
<path fill-rule="evenodd" clip-rule="evenodd" d="M185.197 88.7661C185.049 88.4442 184.167 90.6486 182.741 91.8302C181.266 93.0531 179.051 93.4112 179.441 93.6431C182.434 95.423 186.402 91.3898 185.197 88.7661Z" fill="url(#paint7_linear_18470_52107)"/>
<path fill-rule="evenodd" clip-rule="evenodd" d="M129.391 115.549C129.391 115.549 130.02 111.298 129.82 108.501C129.451 103.328 130.157 98.9648 129.016 98.286C127.553 97.4154 127.187 105.139 127.187 105.139C127.187 105.139 118.83 91.4802 117.088 93.1305C115.345 94.7805 118.98 101.958 118.403 104.034C117.827 106.109 123.586 116.147 123.586 116.147L129.391 115.549Z" fill="#FBCCCC"/>
<path fill-rule="evenodd" clip-rule="evenodd" d="M160.284 118.002C160.284 118.002 147.625 137.771 144.829 141.605C141.895 145.625 136.715 147.406 133.038 140.991C129.787 135.317 122.824 121.108 121.943 116.691C121.285 113.395 128.019 108.483 131.256 113.408C134.492 118.332 139.604 125.737 139.604 125.737C139.604 125.737 148.009 110.448 150.63 106.84C157.696 97.1122 168.462 105.848 160.284 118.002Z" fill="#52C686"/>
<path fill-rule="evenodd" clip-rule="evenodd" d="M139.604 125.738L136.823 130.546L137.836 123.125L139.604 125.738Z" fill="black" fill-opacity="0.159856"/>
<path d="M131.02 113.566C128.079 112.633 125.387 113.13 123.238 116.763" stroke="#5386BF" stroke-linecap="round"/>
<path fill-rule="evenodd" clip-rule="evenodd" d="M166.351 98.2031L181.243 98.2983L181.853 98.5408C184.309 99.536 193.433 103.412 195.133 106.731C197.973 112.276 194.231 156.709 195.862 159.39C199.303 165.046 194.808 168.947 179.872 170.422L179.416 170.466C164.116 171.907 150.542 170.727 153.005 163.103C155.469 155.478 147.931 106.367 155 102.975L166.351 98.2031Z" fill="#5FDA96"/>
<path fill-rule="evenodd" clip-rule="evenodd" d="M182.412 109.458C180.205 114.203 184.588 126.552 195.558 146.504L195.694 142.047C196.053 130.921 196.581 117.359 195.918 110.534C188.989 105.354 184.487 104.994 182.412 109.458Z" fill="black" fill-opacity="0.159856"/>
<path fill-rule="evenodd" clip-rule="evenodd" d="M182.245 96.9C181.319 96.6504 165.805 96.9 165.189 96.9C164.572 96.9 164.572 99.5044 165.189 99.5044C165.565 99.5044 170.377 99.4335 182.246 99.2916C183.317 99.2788 186.175 100.475 186.175 100.475C186.175 100.475 183.172 97.1496 182.245 96.9Z" fill="#52C686"/>
<path fill-rule="evenodd" clip-rule="evenodd" d="M242.344 142.099C242.344 142.099 250.457 143.37 251.988 142.122C253.519 140.874 259.615 132.388 258.949 130.927C258.283 129.468 252.721 132.556 252.247 131.627C251.637 130.434 254.783 126.179 252.027 125.931C251.317 125.867 250.815 128.486 248.817 130.211C246.818 131.937 241.994 135.764 241.994 135.764L242.344 142.099Z" fill="#FBCCCC"/>
<path fill-rule="evenodd" clip-rule="evenodd" d="M193.309 104.74C200.321 111.324 210.25 126.87 212.365 128.24C214.481 129.61 240.945 132.372 243.437 134.602C245.518 136.465 245.706 142.132 243.437 143.704C241.168 145.276 211.372 143.169 205.908 141.598C200.443 140.027 191.083 125.631 186.902 121.137C175.209 108.57 186.297 98.1566 193.309 104.74Z" fill="#52C686"/>
<path d="M240.684 133.688C241.994 135.2 242.655 137.404 241.994 141.711" stroke="#5386BF" stroke-linecap="round"/>
<path d="M405.834 72.1641L409.167 64.6641C409.83 64.6641 410.466 64.9275 410.935 65.3963C411.404 65.8651 411.667 66.501 411.667 67.1641V70.4974H416.384C416.625 70.4947 416.865 70.5445 417.085 70.6434C417.305 70.7423 417.502 70.888 417.66 71.0703C417.819 71.2526 417.936 71.4672 418.003 71.6993C418.07 71.9313 418.087 72.1752 418.05 72.4141L416.9 79.9141C416.84 80.3115 416.638 80.6737 416.332 80.9341C416.026 81.1944 415.636 81.3353 415.234 81.3307H405.834M405.834 72.1641V81.3307M405.834 72.1641H403.334C402.892 72.1641 402.468 72.3397 402.155 72.6522C401.843 72.9648 401.667 73.3887 401.667 73.8307V79.6641C401.667 80.1061 401.843 80.53 402.155 80.8426C402.468 81.1551 402.892 81.3307 403.334 81.3307H405.834" stroke="white" stroke-width="2" stroke-linecap="round" stroke-linejoin="round"/>
</g>
<path d="M304.667 140L301 143.667L299.333 142" stroke="white" stroke-width="1.2" stroke-linecap="round" stroke-linejoin="round"/>
<path d="M304.667 113L301 116.667L299.333 115" stroke="white" stroke-width="1.2" stroke-linecap="round" stroke-linejoin="round"/>
<defs>
<linearGradient id="paint0_linear_18470_52107" x1="345.842" y1="311.824" x2="192.101" y2="298.816" gradientUnits="userSpaceOnUse">
<stop stop-color="#1270E3" stop-opacity="0"/>
<stop offset="1" stop-color="#1270E3"/>
</linearGradient>
<linearGradient id="paint1_linear_18470_52107" x1="387" y1="206" x2="351.354" y2="200.79" gradientUnits="userSpaceOnUse">
<stop stop-color="#1270E3" stop-opacity="0"/>
<stop offset="1" stop-color="#1270E3"/>
</linearGradient>
<linearGradient id="paint2_linear_18470_52107" x1="447" y1="178" x2="411.354" y2="172.79" gradientUnits="userSpaceOnUse">
<stop stop-color="#1270E3" stop-opacity="0"/>
<stop offset="1" stop-color="#1270E3"/>
</linearGradient>
<linearGradient id="paint3_linear_18470_52107" x1="398" y1="146" x2="362.354" y2="140.79" gradientUnits="userSpaceOnUse">
<stop stop-color="#1270E3" stop-opacity="0"/>
<stop offset="1" stop-color="#1270E3"/>
</linearGradient>
<linearGradient id="paint4_linear_18470_52107" x1="239.296" y1="190.582" x2="331.343" y2="176.834" gradientUnits="userSpaceOnUse">
<stop stop-color="#1270E3" stop-opacity="0"/>
<stop offset="1" stop-color="#1270E3"/>
</linearGradient>
<linearGradient id="paint5_linear_18470_52107" x1="294.308" y1="176.068" x2="310.793" y2="173.023" gradientUnits="userSpaceOnUse">
<stop stop-color="#1270E3" stop-opacity="0"/>
<stop offset="1" stop-color="#1270E3"/>
</linearGradient>
<linearGradient id="paint6_linear_18470_52107" x1="432" y1="91" x2="382.456" y2="80.7221" gradientUnits="userSpaceOnUse">
<stop stop-color="#54D169" stop-opacity="0"/>
<stop offset="1" stop-color="#54D169"/>
</linearGradient>
<linearGradient id="paint7_linear_18470_52107" x1="187.311" y1="96.9685" x2="175.976" y2="98.7595" gradientUnits="userSpaceOnUse">
<stop stop-color="#4D63A0"/>
<stop offset="1" stop-color="#222735"/>
</linearGradient>
<clipPath id="clip0_18470_52107">
<rect width="20" height="20" fill="white" transform="translate(422 149)"/>
</clipPath>
</defs>
</svg>
