<svg width="331" height="160" viewBox="0 0 331 160" fill="none" xmlns="http://www.w3.org/2000/svg">
<path fill-rule="evenodd" clip-rule="evenodd" d="M98 12C98 5.37259 103.373 0 110 0H217.842C224.469 0 229.842 5.37258 229.842 12V246.687C229.842 260.57 218.587 271.824 204.705 271.824H123.137C109.254 271.824 98 260.57 98 246.687V12Z" fill="#368AC8"/>
<path fill-rule="evenodd" clip-rule="evenodd" d="M98 12C98 5.37259 103.373 0 110 0H217.842C224.469 0 229.842 5.37258 229.842 12V246.687C229.842 260.57 218.587 271.824 204.705 271.824H123.137C109.254 271.824 98 260.57 98 246.687V12Z" fill="url(#paint0_linear_11785_19049)"/>
<path fill-rule="evenodd" clip-rule="evenodd" d="M102.755 19.9688C102.755 15.5505 106.337 11.9687 110.755 11.9687H216.654C221.073 11.9687 224.654 15.5505 224.654 19.9687V244.903C224.654 255.132 216.362 263.425 206.132 263.425H121.277C111.047 263.425 102.755 255.132 102.755 244.903V19.9688Z" fill="white"/>
<mask id="mask0_11785_19049" style="mask-type:alpha" maskUnits="userSpaceOnUse" x="102" y="11" width="123" height="253">
<path fill-rule="evenodd" clip-rule="evenodd" d="M102.755 19.9688C102.755 15.5505 106.337 11.9687 110.755 11.9687H216.654C221.073 11.9687 224.654 15.5505 224.654 19.9687V244.903C224.654 255.132 216.362 263.425 206.132 263.425H121.277C111.047 263.425 102.755 255.132 102.755 244.903V19.9688Z" fill="white"/>
</mask>
<g mask="url(#mask0_11785_19049)">
</g>
<path opacity="0.7" d="M176.295 4.43359C177.422 4.43359 178.337 5.30552 178.337 6.38109C178.337 7.43276 177.463 8.28973 176.369 8.3273L176.295 8.32858H140.134C139.007 8.32858 138.092 7.45666 138.092 6.38109C138.092 5.32942 138.966 4.47245 140.06 4.43488L140.134 4.43359H176.295Z" fill="white"/>
<path opacity="0.7" d="M182.937 4.10938C184.065 4.10938 184.979 5.01763 184.979 6.13801C184.979 7.2335 184.105 8.12618 183.012 8.16532L182.937 8.16665H182.83C181.702 8.16665 180.788 7.2584 180.788 6.13801C180.788 5.04253 181.662 4.14985 182.755 4.11071L182.83 4.10938H182.937Z" fill="white"/>
<path fill-rule="evenodd" clip-rule="evenodd" d="M240 135C240 131.686 242.686 129 246 129H263.485L271 136.789V160C271 163.314 268.314 166 265 166H246C242.686 166 240 163.314 240 160V135Z" fill="#368AC8"/>
<path fill-rule="evenodd" clip-rule="evenodd" d="M240 135C240 131.686 242.686 129 246 129H263.485L271 136.789V160C271 163.314 268.314 166 265 166H246C242.686 166 240 163.314 240 160V135Z" fill="url(#paint1_linear_11785_19049)"/>
<path d="M264.333 142.835C264.333 140.533 262.468 138.668 260.167 138.668H256H251.833C249.532 138.668 247.667 140.533 247.667 142.835V151.168C247.667 153.469 249.532 155.335 251.833 155.335H260.167C262.468 155.335 264.333 153.469 264.333 151.168V142.835Z" stroke="#EBF5FF" stroke-width="2" stroke-linecap="round" stroke-linejoin="round"/>
<path d="M258.995 148.497C259.318 147.875 259.436 147.167 259.333 146.473C259.228 145.766 258.899 145.111 258.393 144.605C257.887 144.1 257.232 143.77 256.525 143.665C255.831 143.562 255.123 143.681 254.501 144.003C253.878 144.326 253.374 144.837 253.059 145.464C252.743 146.09 252.634 146.8 252.745 147.492C252.856 148.184 253.183 148.823 253.679 149.319C254.175 149.815 254.814 150.142 255.506 150.253C256.199 150.365 256.908 150.255 257.535 149.94C258.161 149.624 258.672 149.12 258.995 148.497Z" stroke="#EBF5FF" stroke-width="2" stroke-linecap="round" stroke-linejoin="round"/>
<path d="M260.583 142.418H260.592" stroke="#EBF5FF" stroke-width="2" stroke-linecap="round" stroke-linejoin="round"/>
<path opacity="0.33996" d="M271 136.789H266.485C264.828 136.789 263.485 135.446 263.485 133.789V129L271 136.789Z" fill="#4EA3D6"/>
<path fill-rule="evenodd" clip-rule="evenodd" d="M300 107C300 103.686 302.686 101 306 101H323.485L331 108.789V132C331 135.314 328.314 138 325 138H306C302.686 138 300 135.314 300 132V107Z" fill="#368AC8"/>
<path fill-rule="evenodd" clip-rule="evenodd" d="M300 107C300 103.686 302.686 101 306 101H323.485L331 108.789V132C331 135.314 328.314 138 325 138H306C302.686 138 300 135.314 300 132V107Z" fill="url(#paint2_linear_11785_19049)"/>
<g clip-path="url(#clip0_11785_19049)">
<path d="M322.55 112.776C323.485 112.494 324.369 112.063 325.167 111.501C324.884 112.661 324.284 113.72 323.433 114.559C323.477 114.787 323.499 115.018 323.5 115.251C323.5 124.834 314.333 129.001 306.833 124.834C308.906 124.916 310.951 124.332 312.667 123.167C305.167 119.834 308.5 112.334 308.5 112.334C309.342 113.533 310.467 114.505 311.776 115.163C313.085 115.822 314.536 116.147 316 116.109V115.276C315.99 114.511 316.215 113.761 316.644 113.129C317.074 112.496 317.687 112.01 318.402 111.738C319.116 111.465 319.897 111.418 320.639 111.604C321.381 111.789 322.048 112.198 322.55 112.776Z" stroke="#EBF5FF" stroke-width="2" stroke-linecap="round" stroke-linejoin="round"/>
</g>
<path opacity="0.33996" d="M331 108.789H326.485C324.828 108.789 323.485 107.446 323.485 105.789V101L331 108.789Z" fill="#4EA3D6"/>
<path fill-rule="evenodd" clip-rule="evenodd" d="M251 75C251 71.6863 253.686 69 257 69H274.485L282 76.7895V100C282 103.314 279.314 106 276 106H257C253.686 106 251 103.314 251 100V75Z" fill="#368AC8"/>
<path fill-rule="evenodd" clip-rule="evenodd" d="M251 75C251 71.6863 253.686 69 257 69H274.485L282 76.7895V100C282 103.314 279.314 106 276 106H257C253.686 106 251 103.314 251 100V75Z" fill="url(#paint3_linear_11785_19049)"/>
<path d="M269.5 78.668H272V82.0013H269.5C269.279 82.0013 269.067 82.0891 268.911 82.2454C268.755 82.4017 268.667 82.6136 268.667 82.8346V85.3346H272L271.167 88.668H268.667V95.3346H265.333V88.668H262.833V85.3346H265.333V82.8346C265.333 81.7296 265.772 80.6698 266.554 79.8884C267.335 79.107 268.395 78.668 269.5 78.668Z" stroke="#EBF5FF" stroke-width="2" stroke-linecap="round" stroke-linejoin="round"/>
<path opacity="0.33996" d="M282 76.7895H277.485C275.828 76.7895 274.485 75.4463 274.485 73.7895V69L282 76.7895Z" fill="#4EA3D6"/>
<g opacity="0.8">
<path fill-rule="evenodd" clip-rule="evenodd" d="M203.419 67.752C203.419 61.8138 198.606 57 192.667 57H134.048C128.109 57 123.296 61.8138 123.296 67.752V139.83C123.296 145.768 128.109 150.582 134.048 150.582H192.667C198.606 150.582 203.419 145.768 203.419 139.83V67.752Z" fill="#368AC8"/>
<path fill-rule="evenodd" clip-rule="evenodd" d="M203.419 67.752C203.419 61.8138 198.606 57 192.667 57H134.048C128.109 57 123.296 61.8138 123.296 67.752V139.83C123.296 145.768 128.109 150.582 134.048 150.582H192.667C198.606 150.582 203.419 145.768 203.419 139.83V67.752Z" fill="url(#paint4_linear_11785_19049)"/>
</g>
<path opacity="0.7" fill-rule="evenodd" clip-rule="evenodd" d="M197.359 74.4561C197.359 68.6922 192.687 64.0195 186.923 64.0195H140.699C134.935 64.0195 130.263 68.6922 130.263 74.4561C130.263 80.2201 134.935 84.8928 140.699 84.8928H186.923C192.687 84.8928 197.359 80.2201 197.359 74.4561Z" fill="white"/>
<path fill-rule="evenodd" clip-rule="evenodd" d="M192.823 74.3815C192.823 70.5961 189.755 67.5273 185.969 67.5273H185.162C181.377 67.5273 178.308 70.5961 178.308 74.3815C178.308 78.167 181.377 81.2357 185.162 81.2357H185.969C189.755 81.2357 192.823 78.167 192.823 74.3815Z" fill="#368AC8"/>
<path fill-rule="evenodd" clip-rule="evenodd" d="M192.823 74.3815C192.823 70.5961 189.755 67.5273 185.969 67.5273H185.162C181.377 67.5273 178.308 70.5961 178.308 74.3815C178.308 78.167 181.377 81.2357 185.162 81.2357H185.969C189.755 81.2357 192.823 78.167 192.823 74.3815Z" fill="url(#paint5_linear_11785_19049)"/>
<path opacity="0.7" fill-rule="evenodd" clip-rule="evenodd" d="M197.359 101.87C197.359 96.1062 192.687 91.4336 186.923 91.4336H140.699C134.935 91.4336 130.263 96.1062 130.263 101.87C130.263 107.634 134.935 112.307 140.699 112.307H186.923C192.687 112.307 197.359 107.634 197.359 101.87Z" fill="white"/>
<path fill-rule="evenodd" clip-rule="evenodd" d="M192.823 101.799C192.823 98.014 189.755 94.9453 185.969 94.9453H185.162C181.377 94.9453 178.308 98.014 178.308 101.799C178.308 105.585 181.377 108.654 185.162 108.654H185.969C189.755 108.654 192.823 105.585 192.823 101.799Z" fill="#F88080"/>
<path d="M182.429 103.93C182.246 104.114 182.246 104.389 182.429 104.572C182.521 104.664 182.613 104.71 182.75 104.71C182.888 104.71 182.979 104.664 183.071 104.572L185.5 102.143L187.929 104.572C188.021 104.664 188.113 104.71 188.25 104.71C188.388 104.71 188.479 104.664 188.571 104.572C188.754 104.389 188.754 104.114 188.571 103.93L186.142 101.501L188.571 99.0721C188.754 98.8888 188.754 98.6138 188.571 98.4305C188.388 98.2471 188.113 98.2471 187.929 98.4305L185.5 100.86L183.071 98.4305C182.888 98.2471 182.613 98.2471 182.429 98.4305C182.246 98.6138 182.246 98.8888 182.429 99.0721L184.858 101.501L182.429 103.93Z" fill="black"/>
<mask id="mask1_11785_19049" style="mask-type:alpha" maskUnits="userSpaceOnUse" x="182" y="98" width="7" height="7">
<path d="M182.429 103.93C182.246 104.114 182.246 104.389 182.429 104.572C182.521 104.664 182.613 104.71 182.75 104.71C182.888 104.71 182.979 104.664 183.071 104.572L185.5 102.143L187.929 104.572C188.021 104.664 188.113 104.71 188.25 104.71C188.388 104.71 188.479 104.664 188.571 104.572C188.754 104.389 188.754 104.114 188.571 103.93L186.142 101.501L188.571 99.0721C188.754 98.8888 188.754 98.6138 188.571 98.4305C188.388 98.2471 188.113 98.2471 187.929 98.4305L185.5 100.86L183.071 98.4305C182.888 98.2471 182.613 98.2471 182.429 98.4305C182.246 98.6138 182.246 98.8888 182.429 99.0721L184.858 101.501L182.429 103.93Z" fill="white"/>
</mask>
<g mask="url(#mask1_11785_19049)">
<rect width="11" height="11" transform="matrix(-1 0 0 1 191 96)" fill="white"/>
</g>
<path opacity="0.7" fill-rule="evenodd" clip-rule="evenodd" d="M197.359 129.288C197.359 123.524 192.687 118.852 186.923 118.852H140.699C134.935 118.852 130.263 123.524 130.263 129.288C130.263 135.052 134.935 139.725 140.699 139.725H186.923C192.687 139.725 197.359 135.052 197.359 129.288Z" fill="white"/>
<path fill-rule="evenodd" clip-rule="evenodd" d="M192.823 129.217C192.823 125.432 189.755 122.363 185.969 122.363H185.162C181.377 122.363 178.308 125.432 178.308 129.217C178.308 133.003 181.377 136.072 185.162 136.072H185.969C189.755 136.072 192.823 133.003 192.823 129.217Z" fill="#368AC8"/>
<path fill-rule="evenodd" clip-rule="evenodd" d="M192.823 129.217C192.823 125.432 189.755 122.363 185.969 122.363H185.162C181.377 122.363 178.308 125.432 178.308 129.217C178.308 133.003 181.377 136.072 185.162 136.072H185.969C189.755 136.072 192.823 133.003 192.823 129.217Z" fill="url(#paint6_linear_11785_19049)"/>
<path fill-rule="evenodd" clip-rule="evenodd" d="M272 20C272 16.6863 274.686 14 278 14H310C313.314 14 316 16.6863 316 20V45C316 48.3137 313.314 51 310 51H278C274.686 51 272 48.3137 272 45V20Z" fill="#EA5455" fill-opacity="0.110632"/>
<path fill-rule="evenodd" clip-rule="evenodd" d="M301.15 40.1513C302.983 38.318 304.083 35.843 304.083 33.0013C304.083 27.4096 299.592 22.918 294 22.918C291.25 22.918 288.683 24.018 286.85 25.8513C285.017 27.6846 283.917 30.2513 283.917 33.0013C283.917 38.593 288.408 43.0846 294 43.0846C296.75 43.0846 299.317 41.9846 301.15 40.1513ZM302.25 33.0013C302.25 34.9263 301.608 36.7596 300.417 38.1346L288.867 26.5846C290.242 25.393 292.075 24.7513 294 24.7513C298.583 24.7513 302.25 28.418 302.25 33.0013ZM287.583 27.868C286.392 29.243 285.75 31.0763 285.75 33.0013C285.75 37.5846 289.417 41.2513 294 41.2513C295.925 41.2513 297.758 40.518 299.133 39.418L287.583 27.868Z" fill="black"/>
<mask id="mask2_11785_19049" style="mask-type:alpha" maskUnits="userSpaceOnUse" x="283" y="22" width="22" height="22">
<path fill-rule="evenodd" clip-rule="evenodd" d="M301.15 40.1513C302.983 38.318 304.083 35.843 304.083 33.0013C304.083 27.4096 299.592 22.918 294 22.918C291.25 22.918 288.683 24.018 286.85 25.8513C285.017 27.6846 283.917 30.2513 283.917 33.0013C283.917 38.593 288.408 43.0846 294 43.0846C296.75 43.0846 299.317 41.9846 301.15 40.1513ZM302.25 33.0013C302.25 34.9263 301.608 36.7596 300.417 38.1346L288.867 26.5846C290.242 25.393 292.075 24.7513 294 24.7513C298.583 24.7513 302.25 28.418 302.25 33.0013ZM287.583 27.868C286.392 29.243 285.75 31.0763 285.75 33.0013C285.75 37.5846 289.417 41.2513 294 41.2513C295.925 41.2513 297.758 40.518 299.133 39.418L287.583 27.868Z" fill="white"/>
</mask>
<g mask="url(#mask2_11785_19049)">
<rect x="283" y="22" width="22" height="22" fill="#EA5455"/>
</g>
<path fill-rule="evenodd" clip-rule="evenodd" d="M61.7339 122.969C61.7339 122.969 49.4045 190.583 47.2426 197.623C45.0807 204.664 39.0851 257.622 39.0851 257.622L26.1345 257.659C26.1345 257.659 25.8585 216.893 27.1668 210.341C28.475 203.789 31.428 192.999 31.428 192.999C31.428 192.999 33.622 153.827 34.9346 144.69C36.2468 135.552 40.4596 122.008 40.4596 122.008L61.7339 122.969Z" fill="#33373E"/>
<path fill-rule="evenodd" clip-rule="evenodd" d="M49.9267 154.555C53.3027 166.527 56.0544 195.765 56.0544 195.765C56.0544 195.765 56.3652 198.845 55.0202 207.378C53.6753 215.91 58.9747 257.428 58.9747 257.428L72.9231 257.456C72.9231 257.456 74.6436 201.681 74.7252 195.814C74.8525 186.668 77.8687 123.251 77.8687 123.251L48.8589 122.602C48.8589 122.602 46.5507 142.582 49.9267 154.555Z" fill="#42474F"/>
<path fill-rule="evenodd" clip-rule="evenodd" d="M70.2662 147.249L70.321 147.484C72.3248 155.771 68.8883 192.501 69.8666 201.235L70.2563 204.359C70.9364 209.974 72.0872 220.211 73.7088 235.068L74.0605 222.632C74.3833 210.813 74.6578 199.692 74.7172 196.309L74.7252 195.813C74.8525 186.666 77.8687 123.25 77.8687 123.25L72.4416 123.129L72.2043 124.155C69.8087 134.663 69.1626 142.361 70.2662 147.249Z" fill="white" fill-opacity="0.192499"/>
<path fill-rule="evenodd" clip-rule="evenodd" d="M70.971 40.061C73.9756 40.3873 73.7626 45.63 70.105 45.9037C69.3574 50.9577 66.6914 53.3656 63.441 53.6443L63.6212 61.2887L49.2438 61.2802C49.2438 61.2802 53.2924 55.8799 53.0906 48.487C52.8888 41.0936 53.226 34.1484 53.226 34.1484L71.8482 34.48L70.971 40.061Z" fill="#FBCCCC"/>
<path fill-rule="evenodd" clip-rule="evenodd" d="M72.413 36.9456C73.7086 37.5668 72.6771 40.3739 72.0211 40.3739C69.0115 39.1927 66.5164 43.4459 65.248 47.7175C61.6457 51.2251 53.6866 51.3028 52.8644 48.3686C49.7513 41.9421 49.5986 32.6496 53.2314 31.9325C50.3798 24.4645 88.8921 20.5578 72.413 36.9456Z" fill="#33373E"/>
<path fill-rule="evenodd" clip-rule="evenodd" d="M69.197 48.7661C69.0491 48.4442 68.1671 50.6486 66.7413 51.8302C65.2658 53.0531 63.0509 53.4112 63.4409 53.6431C66.4344 55.423 70.4021 51.3898 69.197 48.7661Z" fill="url(#paint7_linear_11785_19049)"/>
<path fill-rule="evenodd" clip-rule="evenodd" d="M13.3911 75.5566C13.3911 75.5566 14.0198 71.306 13.8202 68.5091C13.4512 63.3363 14.157 58.9726 13.0162 58.2938C11.5529 57.4232 11.1869 65.1469 11.1869 65.1469C11.1869 65.1469 2.82995 51.488 1.0877 53.1384C-0.654547 54.7883 2.97974 61.9663 2.40347 64.0417C1.8272 66.1167 7.58582 76.1553 7.58582 76.1553L13.3911 75.5566Z" fill="#FBCCCC"/>
<path fill-rule="evenodd" clip-rule="evenodd" d="M44.2839 78.0137C44.2839 78.0137 31.6253 97.7824 28.8288 101.616C25.8954 105.637 20.7149 107.417 17.0384 101.003C13.7867 95.3286 6.82395 81.1196 5.94274 76.7025C5.2853 73.407 12.0193 68.495 15.2558 73.4195C18.4923 78.3435 23.6038 85.7485 23.6038 85.7485C23.6038 85.7485 32.0092 70.4597 34.6295 66.8522C41.6958 57.1239 52.4624 65.8597 44.2839 78.0137Z" fill="#52C686"/>
<path fill-rule="evenodd" clip-rule="evenodd" d="M23.604 85.7459L20.8227 90.5538L21.8362 83.1328L23.604 85.7459Z" fill="black" fill-opacity="0.159856"/>
<path d="M15.0202 73.5781C12.0795 72.6446 9.38671 73.1415 7.2379 76.7749" stroke="#5386BF" stroke-linecap="round"/>
<path fill-rule="evenodd" clip-rule="evenodd" d="M50.351 58.207L65.2432 58.3022L65.8528 58.5447C68.3095 59.54 77.4331 63.4155 79.1328 66.7344C81.9729 72.2802 78.231 116.713 79.8623 119.394C83.3034 125.05 78.8083 128.951 63.8722 130.426L63.4164 130.47C48.1161 131.911 34.5422 130.731 37.0054 123.107C39.4691 115.482 31.931 66.3708 38.9998 62.9784L50.351 58.207Z" fill="#5FDA96"/>
<path fill-rule="evenodd" clip-rule="evenodd" d="M66.4117 69.4577C64.2054 74.2028 68.5876 86.5516 79.5584 106.504L79.6942 102.047C80.053 90.9211 80.5809 77.3593 79.9183 70.5344C72.989 65.3536 68.4871 64.9942 66.4117 69.4577Z" fill="black" fill-opacity="0.159856"/>
<path fill-rule="evenodd" clip-rule="evenodd" d="M66.2453 56.9039C65.3188 56.6543 49.805 56.9039 49.1886 56.9039C48.5722 56.9039 48.5722 59.5083 49.1886 59.5083C49.5655 59.5083 54.3767 59.4374 66.2464 59.2955C67.3175 59.2827 70.1748 60.4793 70.1748 60.4793C70.1748 60.4793 67.1718 57.1535 66.2453 56.9039Z" fill="#52C686"/>
<path fill-rule="evenodd" clip-rule="evenodd" d="M126.344 102.099C126.344 102.099 134.457 103.37 135.988 102.122C137.519 100.874 143.615 92.3878 142.949 90.9274C142.283 89.4675 136.721 92.5556 136.247 91.6271C135.637 90.4343 138.783 86.1788 136.027 85.9308C135.317 85.8667 134.815 88.4861 132.817 90.2113C130.818 91.9369 125.994 95.7642 125.994 95.7642L126.344 102.099Z" fill="#FBCCCC"/>
<path fill-rule="evenodd" clip-rule="evenodd" d="M77.3092 64.7438C84.3212 71.3276 94.2498 86.8741 96.3652 88.2437C98.481 89.6137 124.945 92.3762 127.437 94.6061C129.518 96.4688 129.706 102.136 127.437 103.708C125.168 105.28 95.372 103.173 89.9075 101.602C84.4426 100.031 75.0826 85.6345 70.9017 81.1409C59.2091 68.5741 70.2971 58.1605 77.3092 64.7438Z" fill="#52C686"/>
<path d="M124.684 93.6953C125.994 95.2078 126.655 97.4123 125.994 101.719" stroke="#5386BF" stroke-linecap="round"/>
<defs>
<linearGradient id="paint0_linear_11785_19049" x1="229.842" y1="271.824" x2="76.8001" y2="259.313" gradientUnits="userSpaceOnUse">
<stop stop-color="#70ADD9"/>
<stop offset="1" stop-color="#368AC8"/>
</linearGradient>
<linearGradient id="paint1_linear_11785_19049" x1="271" y1="166" x2="235.483" y2="160.984" gradientUnits="userSpaceOnUse">
<stop stop-color="#70ADD9"/>
<stop offset="1" stop-color="#368AC8"/>
</linearGradient>
<linearGradient id="paint2_linear_11785_19049" x1="331" y1="138" x2="295.483" y2="132.984" gradientUnits="userSpaceOnUse">
<stop stop-color="#70ADD9"/>
<stop offset="1" stop-color="#368AC8"/>
</linearGradient>
<linearGradient id="paint3_linear_11785_19049" x1="282" y1="106" x2="246.483" y2="100.984" gradientUnits="userSpaceOnUse">
<stop stop-color="#70ADD9"/>
<stop offset="1" stop-color="#368AC8"/>
</linearGradient>
<linearGradient id="paint4_linear_11785_19049" x1="123.296" y1="150.582" x2="215.015" y2="137.346" gradientUnits="userSpaceOnUse">
<stop stop-color="#70ADD9"/>
<stop offset="1" stop-color="#368AC8"/>
</linearGradient>
<linearGradient id="paint5_linear_11785_19049" x1="178.308" y1="81.2357" x2="194.746" y2="78.3018" gradientUnits="userSpaceOnUse">
<stop stop-color="#70ADD9"/>
<stop offset="1" stop-color="#368AC8"/>
</linearGradient>
<linearGradient id="paint6_linear_11785_19049" x1="178.308" y1="136.072" x2="194.746" y2="133.138" gradientUnits="userSpaceOnUse">
<stop stop-color="#70ADD9"/>
<stop offset="1" stop-color="#368AC8"/>
</linearGradient>
<linearGradient id="paint7_linear_11785_19049" x1="71.3105" y1="56.9685" x2="59.9757" y2="58.7595" gradientUnits="userSpaceOnUse">
<stop stop-color="#4D63A0"/>
<stop offset="1" stop-color="#222735"/>
</linearGradient>
<clipPath id="clip0_11785_19049">
<rect width="20" height="20" fill="white" transform="translate(306 109)"/>
</clipPath>
</defs>
</svg>
