<svg width="650" height="574" viewBox="0 0 650 574" fill="none" xmlns="http://www.w3.org/2000/svg">
<g id="Illustration">
<g id="Shape">
<path id="Oval" opacity="0.0528274" fill-rule="evenodd" clip-rule="evenodd" d="M650 173.93C650 77.8709 571.829 0 475.402 0C378.974 0 300.804 77.8709 300.804 173.93C300.804 269.988 378.974 347.859 475.402 347.859C571.829 347.859 650 269.988 650 173.93ZM366.074 173.929C366.074 113.78 415.022 65.0195 475.402 65.0195C535.782 65.0195 584.73 113.78 584.73 173.929C584.73 234.078 535.782 282.838 475.402 282.838C415.022 282.838 366.074 234.078 366.074 173.929Z" fill="#7367F0"/>
<g id="Oval_2" opacity="0.14102" filter="url(#filter0_f_12534_23612)">
<path fill-rule="evenodd" clip-rule="evenodd" d="M104.993 275.795C104.993 248.564 82.8328 226.488 55.4966 226.488C28.1604 226.488 6 248.564 6 275.795C6 303.027 28.1604 325.103 55.4966 325.103C82.8328 325.103 104.993 303.027 104.993 275.795ZM38.6348 275.797C38.6348 266.52 46.1839 259 55.4963 259C64.8086 259 72.3577 266.52 72.3577 275.797C72.3577 285.074 64.8086 292.594 55.4963 292.594C46.1839 292.594 38.6348 285.074 38.6348 275.797Z" fill="#8BF78F"/>
</g>
<ellipse id="Oval_3" cx="208.338" cy="433.468" rx="97.9054" ry="97.5306" fill="#7367F0" fill-opacity="0.0612161"/>
<ellipse id="Oval_4" opacity="0.14102" cx="175.702" cy="92.1111" rx="34.8108" ry="34.6776" fill="#CEF5FF"/>
<g id="Oval_5" filter="url(#filter1_f_12534_23612)">
<ellipse cx="585.818" cy="433.471" rx="34.8108" ry="34.6776" fill="#7367F0" fill-opacity="0.135927"/>
</g>
</g>
<g id="File Organizer">
<g id="Phone3">
<path id="Rectangle" fill-rule="evenodd" clip-rule="evenodd" d="M208.539 144.137C208.539 130.254 219.793 119 233.676 119H403.481C417.364 119 428.618 130.254 428.618 144.137V547.336C428.618 561.218 417.364 572.473 403.481 572.473H233.676C219.793 572.473 208.539 561.218 208.539 547.336V144.137Z" fill="#368AC8"/>
<g id="Group 48">
<path id="Rectangle_2" fill-rule="evenodd" clip-rule="evenodd" d="M216.477 146.659C216.477 136.429 224.769 128.137 234.999 128.137H265.888C266.701 128.137 267.366 128.783 267.39 129.595C267.559 135.418 272.328 140.049 278.153 140.049H358.284C364.108 140.049 368.877 135.418 369.047 129.595C369.07 128.783 369.736 128.137 370.548 128.137H401.438C411.667 128.137 419.96 136.429 419.96 146.659V542.104C419.96 552.333 411.667 560.626 401.438 560.626H234.999C224.769 560.626 216.477 552.333 216.477 542.104V146.659Z" fill="white"/>
<mask id="mask0_12534_23612" style="mask-type:alpha" maskUnits="userSpaceOnUse" x="216" y="128" width="204" height="433">
<path id="Rectangle_3" fill-rule="evenodd" clip-rule="evenodd" d="M216.477 146.659C216.477 136.429 224.769 128.137 234.999 128.137H265.888C266.701 128.137 267.366 128.783 267.39 129.595C267.559 135.418 272.328 140.049 278.153 140.049H358.284C364.108 140.049 368.877 135.418 369.047 129.595C369.07 128.783 369.736 128.137 370.548 128.137H401.438C411.667 128.137 419.96 136.429 419.96 146.659V542.104C419.96 552.333 411.667 560.626 401.438 560.626H234.999C224.769 560.626 216.477 552.333 216.477 542.104V146.659Z" fill="white"/>
</mask>
<g mask="url(#mask0_12534_23612)">
<ellipse id="Oval_6" opacity="0.0987723" cx="293.623" cy="391.367" rx="17.453" ry="17.3276" fill="#7367F0"/>
<path id="Oval_7" opacity="0.14102" fill-rule="evenodd" clip-rule="evenodd" d="M398.068 374.039C444.606 374.039 482.333 411.495 482.333 457.699C482.333 503.903 444.606 541.358 398.068 541.358C351.53 541.358 313.803 503.903 313.803 457.699C313.803 411.495 351.53 374.039 398.068 374.039ZM398.067 410.59C371.861 410.59 350.617 431.681 350.617 457.699C350.617 483.717 371.861 504.808 398.067 504.808C424.274 504.808 445.518 483.717 445.518 457.699C445.518 431.681 424.274 410.59 398.067 410.59Z" fill="#C8F5D0"/>
<path id="Rectangle_4" fill-rule="evenodd" clip-rule="evenodd" d="M241.264 208.072C241.264 204.932 243.809 202.387 246.949 202.387H391.019C394.159 202.387 396.704 204.932 396.704 208.072C396.704 211.212 394.159 213.758 391.019 213.758H246.949C243.809 213.758 241.264 211.212 241.264 208.072Z" fill="#FFD2E6"/>
</g>
</g>
<path id="Path" d="M330.508 126.938C332.39 126.938 333.916 128.392 333.916 130.186C333.916 131.941 332.457 133.371 330.632 133.433L330.508 133.435H291.962C290.08 133.435 288.554 131.981 288.554 130.186C288.554 128.432 290.013 127.002 291.838 126.94L291.962 126.938H330.508Z" fill="#00CFE8"/>
<path id="Path_2" d="M344.322 126.398C346.205 126.398 347.731 127.914 347.731 129.783C347.731 131.61 346.272 133.099 344.447 133.165L344.322 133.167H344.143C342.261 133.167 340.734 131.652 340.734 129.783C340.734 127.955 342.193 126.466 344.018 126.401L344.143 126.398H344.322Z" fill="#00CFE8"/>
</g>
<g id="Icon54">
<g id="Group 37">
<path id="Rectangle_5" fill-rule="evenodd" clip-rule="evenodd" d="M222.72 276.465C222.72 274.256 224.511 272.465 226.72 272.465L234.313 272.465C236.523 272.465 238.313 274.256 238.313 276.465V279.967C238.313 280.64 238.859 281.186 239.533 281.186H289.542C291.751 281.186 293.542 282.977 293.542 285.186V327.885C293.542 330.094 291.751 331.885 289.542 331.885H226.72C224.511 331.885 222.72 330.094 222.72 327.885V276.465Z" fill="url(#paint0_linear_12534_23612)"/>
<path id="Rectangle_6" fill-rule="evenodd" clip-rule="evenodd" d="M239.536 277.616C239.631 277.025 240.141 276.59 240.739 276.59H295.061C295.812 276.59 296.384 277.261 296.265 278.003L288.105 328.794C288.01 329.385 287.5 329.82 286.901 329.82H232.579C231.829 329.82 231.256 329.149 231.375 328.408L239.536 277.616Z" fill="url(#paint1_linear_12534_23612)"/>
<path id="Rectangle_7" fill-rule="evenodd" clip-rule="evenodd" d="M298.086 290.109C300.604 290.109 302.496 292.407 302.012 294.878L295.899 326.093C295.163 329.847 291.873 332.555 288.048 332.555H227.579C225.061 332.555 223.17 330.257 223.654 327.786L229.767 296.572C230.502 292.818 233.792 290.109 237.617 290.109L298.086 290.109Z" fill="#FFCC7B"/>
</g>
</g>
<g id="Group 28">
<path id="Rectangle_8" fill-rule="evenodd" clip-rule="evenodd" d="M142 222.469C142 219.155 144.686 216.469 148 216.469H181.667L194.359 229.464V272.198C194.359 275.512 191.673 278.198 188.359 278.198H148C144.686 278.198 142 275.512 142 272.198V222.469Z" fill="#368AC8"/>
<g id="Icon">
<path id="Mask" fill-rule="evenodd" clip-rule="evenodd" d="M176.099 257.509V240.462C176.099 238.651 174.714 237.266 172.903 237.266H167.575C166.935 237.266 166.509 237.692 166.509 238.331C166.509 238.97 166.935 239.396 167.575 239.396H172.903C173.542 239.396 173.968 239.823 173.968 240.462V257.509C173.968 258.148 173.542 258.574 172.903 258.574H167.575C166.935 258.574 166.509 259 166.509 259.639C166.509 260.279 166.935 260.705 167.575 260.705H172.903C174.714 260.705 176.099 259.32 176.099 257.509ZM169.599 248.559C169.706 248.879 169.706 249.198 169.599 249.411C169.599 249.518 169.493 249.625 169.386 249.731L165.124 253.993C164.91 254.206 164.591 254.312 164.378 254.312C164.165 254.312 163.845 254.206 163.632 253.993C163.205 253.567 163.205 252.927 163.632 252.501L166.083 250.051H155.853C155.213 250.051 154.787 249.625 154.787 248.985C154.787 248.346 155.213 247.92 155.853 247.92H166.083L163.632 245.469C163.205 245.043 163.205 244.404 163.632 243.978C164.058 243.552 164.697 243.552 165.124 243.978L169.386 248.239C169.439 248.293 169.466 248.346 169.493 248.399C169.519 248.453 169.546 248.506 169.599 248.559Z" fill="black"/>
<mask id="mask1_12534_23612" style="mask-type:alpha" maskUnits="userSpaceOnUse" x="154" y="237" width="23" height="24">
<path id="Mask_2" fill-rule="evenodd" clip-rule="evenodd" d="M176.099 257.509V240.462C176.099 238.651 174.714 237.266 172.903 237.266H167.575C166.935 237.266 166.509 237.692 166.509 238.331C166.509 238.97 166.935 239.396 167.575 239.396H172.903C173.542 239.396 173.968 239.823 173.968 240.462V257.509C173.968 258.148 173.542 258.574 172.903 258.574H167.575C166.935 258.574 166.509 259 166.509 259.639C166.509 260.279 166.935 260.705 167.575 260.705H172.903C174.714 260.705 176.099 259.32 176.099 257.509ZM169.599 248.559C169.706 248.879 169.706 249.198 169.599 249.411C169.599 249.518 169.493 249.625 169.386 249.731L165.124 253.993C164.91 254.206 164.591 254.312 164.378 254.312C164.165 254.312 163.845 254.206 163.632 253.993C163.205 253.567 163.205 252.927 163.632 252.501L166.083 250.051H155.853C155.213 250.051 154.787 249.625 154.787 248.985C154.787 248.346 155.213 247.92 155.853 247.92H166.083L163.632 245.469C163.205 245.043 163.205 244.404 163.632 243.978C164.058 243.552 164.697 243.552 165.124 243.978L169.386 248.239C169.439 248.293 169.466 248.346 169.493 248.399C169.519 248.453 169.546 248.506 169.599 248.559Z" fill="white"/>
</mask>
<g mask="url(#mask1_12534_23612)">
<g id="Icon Color">
<rect id="&#240;&#159;&#142;&#168; Icon Color" x="152.656" y="236.199" width="25.5748" height="25.5701" fill="white"/>
</g>
</g>
</g>
<path id="Path_3" opacity="0.33996" d="M194.358 229.464H184.666C183.009 229.464 181.666 228.121 181.666 226.464V216.469L194.358 229.464Z" fill="#7367F0"/>
</g>
<g id="Group">
<path id="Rectangle_9" fill-rule="evenodd" clip-rule="evenodd" d="M164.907 382.746C164.907 379.432 167.594 376.746 170.907 376.746H233.082C236.396 376.746 239.082 379.432 239.082 382.746V432.476C239.082 435.789 236.396 438.476 233.082 438.476H170.907C167.594 438.476 164.907 435.789 164.907 432.476V382.746Z" fill="#EBF3FA"/>
<g id="Icon_2">
<path id="Mask_3" fill-rule="evenodd" clip-rule="evenodd" d="M209.841 405.156H208.598V401.427C208.598 397.325 205.241 393.969 201.138 393.969C197.036 393.969 193.679 397.325 193.679 401.427V405.156H192.436C190.322 405.156 188.706 406.772 188.706 408.885V417.586C188.706 419.699 190.322 421.315 192.436 421.315H209.841C211.954 421.315 213.57 419.699 213.57 417.586V408.885C213.57 406.772 211.954 405.156 209.841 405.156ZM196.165 401.427C196.165 398.692 198.403 396.455 201.138 396.455C203.873 396.455 206.111 398.692 206.111 401.427V405.156H196.165V401.427ZM209.841 418.829C210.587 418.829 211.084 418.331 211.084 417.586V408.885C211.084 408.139 210.587 407.642 209.841 407.642H192.436C191.69 407.642 191.192 408.139 191.192 408.885V417.586C191.192 418.331 191.69 418.829 192.436 418.829H209.841Z" fill="black"/>
<mask id="mask2_12534_23612" style="mask-type:alpha" maskUnits="userSpaceOnUse" x="188" y="393" width="26" height="29">
<path id="Mask_4" fill-rule="evenodd" clip-rule="evenodd" d="M209.841 405.156H208.598V401.427C208.598 397.325 205.241 393.969 201.138 393.969C197.036 393.969 193.679 397.325 193.679 401.427V405.156H192.436C190.322 405.156 188.706 406.772 188.706 408.885V417.586C188.706 419.699 190.322 421.315 192.436 421.315H209.841C211.954 421.315 213.57 419.699 213.57 417.586V408.885C213.57 406.772 211.954 405.156 209.841 405.156ZM196.165 401.427C196.165 398.692 198.403 396.455 201.138 396.455C203.873 396.455 206.111 398.692 206.111 401.427V405.156H196.165V401.427ZM209.841 418.829C210.587 418.829 211.084 418.331 211.084 417.586V408.885C211.084 408.139 210.587 407.642 209.841 407.642H192.436C191.69 407.642 191.192 408.139 191.192 408.885V417.586C191.192 418.331 191.69 418.829 192.436 418.829H209.841Z" fill="white"/>
</mask>
<g mask="url(#mask2_12534_23612)">
<g id="Icon Color_2">
<rect id="&#240;&#159;&#142;&#168; Icon Color_2" x="186.22" y="392.727" width="29.8373" height="29.8318" fill="#368AC8"/>
</g>
</g>
</g>
</g>
<g id="Group 34">
<path id="Rectangle_10" d="M229.265 185.645C229.265 182.331 231.951 179.645 235.265 179.645H297.44C300.754 179.645 303.44 182.331 303.44 185.645V235.374C303.44 238.688 300.754 241.374 297.44 241.374H235.265C231.951 241.374 229.265 238.688 229.265 235.374V185.645Z" fill="#FFD2E6"/>
<mask id="mask3_12534_23612" style="mask-type:alpha" maskUnits="userSpaceOnUse" x="229" y="179" width="75" height="63">
<path id="Rectangle_11" d="M229.265 185.645C229.265 182.331 231.951 179.645 235.265 179.645H297.44C300.754 179.645 303.44 182.331 303.44 185.645V235.374C303.44 238.688 300.754 241.374 297.44 241.374H235.265C231.951 241.374 229.265 238.688 229.265 235.374V185.645Z" fill="white"/>
</mask>
<g mask="url(#mask3_12534_23612)">
<ellipse id="Oval_8" cx="261.989" cy="202.387" rx="9.8173" ry="9.74675" fill="white"/>
<ellipse id="Oval_9" cx="239.627" cy="252.743" rx="35.4514" ry="35.1966" fill="#D61C6E"/>
<ellipse id="Oval_10" cx="303.986" cy="244.622" rx="41.9962" ry="41.153" fill="#F72A85"/>
</g>
</g>
<g id="Group 23">
<g id="Rectangle_12" filter="url(#filter2_dd_12534_23612)">
<path fill-rule="evenodd" clip-rule="evenodd" d="M327.477 164.778C327.455 159.24 331.939 154.738 337.477 154.738H447.72C453.227 154.738 457.698 159.191 457.72 164.699L458.295 309.31C458.317 314.849 453.833 319.35 448.295 319.35H338.052C332.545 319.35 328.074 314.897 328.052 309.39L327.477 164.778Z" fill="white"/>
</g>
<path id="Rectangle_13" opacity="0.33996" d="M368.889 259.788C368.889 257.994 370.343 256.539 372.138 256.539H413.635C415.43 256.539 416.884 257.994 416.884 259.788C416.884 261.582 415.43 263.037 413.635 263.037H372.138C370.343 263.037 368.889 261.582 368.889 259.788Z" fill="#7367F0"/>
<path id="Rectangle_14" opacity="0.33996" d="M357.98 277.116C357.98 275.322 359.435 273.867 361.229 273.867H424.543C426.338 273.867 427.792 275.322 427.792 277.116C427.792 278.91 426.338 280.365 424.543 280.365H361.229C359.435 280.365 357.98 278.91 357.98 277.116Z" fill="#7367F0"/>
<g id="Icon8">
<g id="Oval_11" filter="url(#filter3_dd_12534_23612)">
<ellipse cx="392.968" cy="207.357" rx="25.1704" ry="25.5449" fill="white"/>
</g>
<g id="Group 70">
<path id="Combined Shape" fill-rule="evenodd" clip-rule="evenodd" d="M393.443 206.512C396.999 206.512 399.882 203.65 399.882 200.119C399.882 196.589 396.999 193.727 393.443 193.727C389.887 193.727 387.004 196.589 387.004 200.119C387.004 203.65 389.887 206.512 393.443 206.512ZM392.631 208.32C387.35 208.32 383.069 212.601 383.069 217.882C383.069 218.485 383.559 218.975 384.162 218.975H402.724C403.327 218.975 403.817 218.485 403.817 217.882C403.817 212.601 399.536 208.32 394.255 208.32H392.631Z" fill="#7367F0"/>
</g>
</g>
</g>
<g id="Wom3.5">
<g id="RArm">
<path id="Path_4" fill-rule="evenodd" clip-rule="evenodd" d="M517.545 340.072C517.545 340.072 505.347 352.052 506.095 353.224C506.843 354.403 512.991 351.663 512.991 351.663C512.991 351.663 505.321 364.247 506.899 365.214C508.476 366.181 516.545 364.223 519.019 361.629C521.494 359.035 525.313 345.945 525.313 345.945L543.865 311.45L530.41 306.827L517.545 340.072Z" fill="url(#paint2_linear_12534_23612)"/>
<path id="Path_5" fill-rule="evenodd" clip-rule="evenodd" d="M505.088 276.307C510.211 284.209 527.455 306.73 527.455 306.73L526.198 311.223L542.045 322.009C542.045 322.009 546.547 309.662 546.938 307.925C548.226 302.195 522.192 265.628 516.362 260.344C507.184 252.024 497.26 264.231 505.088 276.307Z" fill="#9370E8"/>
<path id="Path_6" fill-rule="evenodd" clip-rule="evenodd" d="M531.576 312.708C531.872 312.135 527.48 306.648 527.48 306.648L526.736 309.317C526.736 309.317 531.281 313.28 531.576 312.708Z" fill="black" fill-opacity="0.159856"/>
<path id="Path 70" fill-rule="evenodd" clip-rule="evenodd" d="M526.1 309.715L542.936 322.479L539.184 330.734L524.464 314.478L526.1 309.715Z" fill="#FFEDC2"/>
</g>
<g id="RLeg">
<path id="Path_7" fill-rule="evenodd" clip-rule="evenodd" d="M515.473 542.023L514.538 557.842L526.525 558.152L524.272 542.023H515.473Z" fill="url(#paint3_linear_12534_23612)"/>
<path id="Path_8" fill-rule="evenodd" clip-rule="evenodd" d="M527.093 548.254C527.093 548.254 526.757 557.78 528.743 561.106C530.743 564.432 531.349 567.01 531.437 568.999C531.532 571.131 531.329 573.063 531.329 573.063H511.488C511.488 573.063 510.992 563.041 512.306 561.15C513.62 559.261 514.482 559.228 514.482 557.558C514.492 555.888 514.776 548.316 514.776 548.316L527.093 548.254Z" fill="#391B0B"/>
<path id="Path_9" fill-rule="evenodd" clip-rule="evenodd" d="M473.24 330.84L504.336 327.484L504.793 327.906C507.01 330.002 516.641 339.739 519.409 353.048C524.634 378.173 517.641 424.578 517.796 434.753C517.943 444.929 522.786 451.068 524.799 465.456C526.812 479.843 527.002 544.143 527.002 544.143C521.666 547.282 516.97 547.507 510.607 543.954L473.24 330.84Z" fill="#161010"/>
</g>
<g id="LLeg">
<path id="Path_10" fill-rule="evenodd" clip-rule="evenodd" d="M479.609 540.359L469.387 540.524C469.387 540.524 470.059 551.058 466.128 554.627L465.913 554.814C461.168 558.762 479.476 557.337 479.476 557.337L479.609 540.359Z" fill="url(#paint4_linear_12534_23612)"/>
<path id="Path_11" fill-rule="evenodd" clip-rule="evenodd" d="M480.151 548.574L479.857 573.058L472.578 573.063L472.515 567.03C472.515 567.03 470.219 572.655 466.71 572.98C463.19 573.305 447.508 573.106 447.508 573.106C447.508 573.106 446.205 567.457 454.011 564.893C460.504 562.761 467.684 548.574 467.684 548.574H480.151Z" fill="#391B0B"/>
<path id="Path_12" fill-rule="evenodd" clip-rule="evenodd" d="M457.814 333.019L492.732 331.844L492.993 332.323C494.688 335.514 503.972 354.195 501.105 375.428C497.081 405.232 486.852 440.171 486.351 445.509C485.458 455.025 487.244 461.915 487.976 471.744C488.709 481.573 485.184 543.391 485.184 543.391C480.003 546.485 473.837 547.092 465.998 543.484C465.998 543.484 458.921 459.518 458.869 446.229C458.816 432.941 457.814 333.019 457.814 333.019Z" fill="#332C2B"/>
</g>
<g id="Head">
<path id="Path_13" fill-rule="evenodd" clip-rule="evenodd" d="M471.129 222.653C466.833 223.12 467.137 230.619 472.368 231.01C473.437 238.24 477.249 241.684 481.897 242.083L481.639 253.018L502.198 253.005C502.198 253.005 496.409 245.281 496.698 234.706C496.986 224.13 496.504 214.195 496.504 214.195L469.875 214.67L471.129 222.653Z" fill="url(#paint5_linear_12534_23612)"/>
<path id="Path_14" fill-rule="evenodd" clip-rule="evenodd" d="M470.194 223.215C475.198 221.25 478.895 229.709 482.724 235.588C486.553 241.468 496.473 240.469 497.84 235.588C503.016 224.899 507.477 210.367 501.437 209.174C500.586 193.725 459.858 197.373 470.194 223.215Z" fill="#8B5030"/>
<path id="Combined Shape_2" fill-rule="evenodd" clip-rule="evenodd" d="M498.138 203.082H489.28H489.169L489.094 203.165C481.245 211.863 479.499 224.685 483.191 236.24C483.448 236.561 483.724 236.858 484.017 237.131C479.931 225.485 481.512 212.384 489.391 203.582H498.732C498.542 203.409 498.344 203.243 498.138 203.082Z" fill="black" fill-opacity="0.199355"/>
<ellipse id="Oval_12" cx="492.696" cy="203.33" rx="4.90865" ry="4.87338" fill="#FB9934"/>
</g>
<g id="Body">
<path id="Path_15" fill-rule="evenodd" clip-rule="evenodd" d="M465.735 255.135C461.149 261.824 453.504 284.529 453.071 289.637C452.582 295.528 458.944 304.914 459.049 313.443C459.142 321.974 454.303 347.658 455.757 350.057C457.199 352.456 498.553 363.079 501.252 363.022C503.938 362.964 520.901 348.506 518.772 343.51C516.632 338.514 506.7 326.098 507.712 319.291C508.712 312.485 514.52 287.359 517.405 278.808C520.278 270.257 519.32 261.279 513.958 257.599C511.305 255.778 504.226 250.606 491.618 250.629C479.011 250.653 466.091 254.616 465.735 255.135Z" fill="#9370E8"/>
<path id="Path 68" fill-rule="evenodd" clip-rule="evenodd" d="M479.97 250.141C479.97 250.141 479.44 253.017 481.762 253.017C484.085 253.017 499.664 253.527 501.774 252.617C503.884 251.708 503.251 250.141 503.251 250.141H479.97Z" fill="#FFF6E1"/>
<path id="Path_16" fill-rule="evenodd" clip-rule="evenodd" d="M459.078 269.605L459.219 269.534C467.714 265.324 472.817 265.138 474.527 268.976C476.738 273.937 471.004 285.859 457.327 304.74C455.448 299.014 452.746 293.554 453.071 289.638C453.322 286.682 455.988 277.833 459.078 269.605Z" fill="black" fill-opacity="0.159856"/>
</g>
<g id="LArm">
<path id="Path_17" fill-rule="evenodd" clip-rule="evenodd" d="M402.413 255.658C402.413 255.658 400.883 252.359 398.477 251.467C396.072 250.575 392.393 244.664 392.962 242.948C393.531 241.232 398.507 236.472 398.507 236.472C398.507 236.472 394.108 224.752 396.056 223.429C397.777 222.26 404.291 237.023 404.291 237.023C404.291 237.023 408.121 237.596 409.004 239.105C411.232 242.91 409.548 251.467 409.548 251.467L432.156 284.266L421.782 297.471L402.413 255.658Z" fill="url(#paint6_linear_12534_23612)"/>
<path id="Path_18" fill-rule="evenodd" clip-rule="evenodd" d="M460.124 258.202C452.478 264.946 433.776 282.837 433.776 282.837L430.998 278.61L417.012 292.829C417.012 292.829 427.562 308.365 430.998 308.474C439.949 308.756 455.988 291.977 471.067 278.875C484.587 267.127 474.376 245.632 460.124 258.202Z" fill="#9370E8"/>
<path id="Path_19" fill-rule="evenodd" clip-rule="evenodd" d="M433.832 282.855C433.832 282.855 428.586 288.879 428.153 288.222C427.72 287.565 432.11 280.242 432.11 280.242L433.832 282.855Z" fill="black" fill-opacity="0.159856"/>
<path id="Path 69" fill-rule="evenodd" clip-rule="evenodd" d="M432.673 279.567L416.452 297.472L411.454 287.254L429.587 275.957L432.673 279.567Z" fill="#FFEDC2"/>
</g>
<path id="Path_20" fill-rule="evenodd" clip-rule="evenodd" d="M491.835 199.451C491.835 199.451 496.429 193.511 501.733 195.069C507.037 196.628 511.834 206.18 509.556 215.16C507.29 224.141 509.159 229.263 511.909 235.315C519.295 251.596 493.721 261.933 493.721 261.933C493.721 261.933 495.717 249.869 491.835 242.585C487.838 235.082 485.568 225.462 485.568 219.574C485.568 209.336 491.835 199.451 491.835 199.451Z" fill="#8B5030"/>
</g>
<g id="Group 39">
<path id="Rectangle_15" fill-rule="evenodd" clip-rule="evenodd" d="M434.338 134.278C452.818 123.706 471.55 124.332 490.493 134.278L489.293 147.547C487.666 165.53 477.722 181.718 462.415 191.297C446.446 181.784 436.213 164.99 435.08 146.436L434.338 134.278Z" fill="#F72A85"/>
<ellipse id="Oval_13" cx="462.416" cy="155.724" rx="15.315" ry="15.2049" fill="#D61C6E"/>
<g id="Group 40">
<path id="Path_21" fill-rule="evenodd" clip-rule="evenodd" d="M462.197 144.922C467.068 144.922 471.284 148.182 472.507 152.778C472.602 153.133 472.388 153.497 472.031 153.591C471.673 153.685 471.306 153.473 471.212 153.118C470.143 149.103 466.456 146.252 462.197 146.252C457.048 146.252 452.875 150.381 452.875 155.472C452.875 158.346 453.824 160.93 455.734 163.247C455.969 163.531 455.927 163.95 455.64 164.183C455.354 164.416 454.932 164.374 454.697 164.089C452.593 161.537 451.535 158.656 451.535 155.472C451.535 149.645 456.309 144.922 462.197 144.922Z" fill="white"/>
<path id="Path_22" fill-rule="evenodd" clip-rule="evenodd" d="M459.827 148.665C463.619 147.369 467.713 149.245 469.112 152.914L469.188 153.123C469.907 155.196 470.885 156.134 472.136 156.119C472.506 156.114 472.81 156.408 472.814 156.775C472.819 157.143 472.523 157.444 472.153 157.449C470.288 157.472 468.903 156.204 468.011 153.809L467.921 153.557C466.843 150.45 463.432 148.84 460.263 149.923C457.41 150.898 455.885 154.346 456.556 157.385C456.686 157.977 456.851 158.508 457.064 159.02L457.255 159.462C457.891 160.858 458.718 161.905 462.454 166.362C462.69 166.644 462.652 167.064 462.367 167.299C462.083 167.534 461.66 167.495 461.423 167.213L459.42 164.81C457.016 161.898 456.473 161.067 455.867 159.628L455.825 159.526C455.582 158.941 455.393 158.336 455.246 157.67C454.441 154.018 456.272 149.88 459.827 148.665Z" fill="white"/>
<path id="Path_23" fill-rule="evenodd" clip-rule="evenodd" d="M461.375 152.256C463.34 151.585 465.512 152.634 466.123 154.595C467.003 157.42 468.624 159.175 471.016 159.929C471.368 160.04 471.564 160.414 471.452 160.764C471.34 161.114 470.963 161.308 470.61 161.197C467.78 160.305 465.847 158.212 464.843 154.988C464.459 153.754 463.07 153.084 461.812 153.514C460.472 153.972 459.809 155.256 460.174 157.012C460.36 157.905 461.094 159.121 462.345 160.705L462.558 160.973C462.734 161.191 462.919 161.416 463.118 161.655L465.272 164.184C465.508 164.467 465.467 164.886 465.182 165.121C464.897 165.355 464.475 165.315 464.239 165.032L462.516 163.014L462.085 162.503C461.881 162.258 461.692 162.028 461.511 161.803L461.077 161.253C459.831 159.643 459.089 158.374 458.862 157.281C458.365 154.892 459.373 152.941 461.375 152.256Z" fill="white"/>
<path id="Path_24" fill-rule="evenodd" clip-rule="evenodd" d="M462.568 155.877C462.922 155.769 463.296 155.967 463.405 156.318C464.127 158.659 465.541 160.32 468.201 162.303C468.497 162.523 468.557 162.94 468.335 163.234C468.113 163.528 467.693 163.587 467.397 163.367C464.531 161.23 462.944 159.367 462.123 156.708C462.015 156.357 462.214 155.985 462.568 155.877Z" fill="white"/>
</g>
</g>
</g>
</g>
<defs>
<filter id="filter0_f_12534_23612" x="0.563437" y="221.052" width="109.866" height="109.486" filterUnits="userSpaceOnUse" color-interpolation-filters="sRGB">
<feFlood flood-opacity="0" result="BackgroundImageFix"/>
<feBlend mode="normal" in="SourceGraphic" in2="BackgroundImageFix" result="shape"/>
<feGaussianBlur stdDeviation="2.71828" result="effect1_foregroundBlur_12534_23612"/>
</filter>
<filter id="filter1_f_12534_23612" x="542.852" y="390.638" width="85.9313" height="85.6652" filterUnits="userSpaceOnUse" color-interpolation-filters="sRGB">
<feFlood flood-opacity="0" result="BackgroundImageFix"/>
<feBlend mode="normal" in="SourceGraphic" in2="BackgroundImageFix" result="shape"/>
<feGaussianBlur stdDeviation="4.07742" result="effect1_foregroundBlur_12534_23612"/>
</filter>
<filter id="filter2_dd_12534_23612" x="307.478" y="135.738" width="186.817" height="220.613" filterUnits="userSpaceOnUse" color-interpolation-filters="sRGB">
<feFlood flood-opacity="0" result="BackgroundImageFix"/>
<feColorMatrix in="SourceAlpha" type="matrix" values="0 0 0 0 0 0 0 0 0 0 0 0 0 0 0 0 0 0 127 0" result="hardAlpha"/>
<feOffset dx="8" dy="9"/>
<feGaussianBlur stdDeviation="14"/>
<feColorMatrix type="matrix" values="0 0 0 0 0.0755213 0 0 0 0 0.582569 0 0 0 0 0.878793 0 0 0 0.229458 0"/>
<feBlend mode="normal" in2="BackgroundImageFix" result="effect1_dropShadow_12534_23612"/>
<feColorMatrix in="SourceAlpha" type="matrix" values="0 0 0 0 0 0 0 0 0 0 0 0 0 0 0 0 0 0 127 0" result="hardAlpha"/>
<feOffset dy="2"/>
<feGaussianBlur stdDeviation="7.5"/>
<feColorMatrix type="matrix" values="0 0 0 0 0.503982 0 0 0 0 0.700178 0 0 0 0 1 0 0 0 0.233829 0"/>
<feBlend mode="normal" in2="effect1_dropShadow_12534_23612" result="effect2_dropShadow_12534_23612"/>
<feBlend mode="normal" in="SourceGraphic" in2="effect2_dropShadow_12534_23612" result="shape"/>
</filter>
<filter id="filter3_dd_12534_23612" x="347.798" y="162.812" width="106.341" height="107.09" filterUnits="userSpaceOnUse" color-interpolation-filters="sRGB">
<feFlood flood-opacity="0" result="BackgroundImageFix"/>
<feColorMatrix in="SourceAlpha" type="matrix" values="0 0 0 0 0 0 0 0 0 0 0 0 0 0 0 0 0 0 127 0" result="hardAlpha"/>
<feOffset dx="8" dy="9"/>
<feGaussianBlur stdDeviation="14"/>
<feColorMatrix type="matrix" values="0 0 0 0 0.0755213 0 0 0 0 0.582569 0 0 0 0 0.878793 0 0 0 0.229458 0"/>
<feBlend mode="normal" in2="BackgroundImageFix" result="effect1_dropShadow_12534_23612"/>
<feColorMatrix in="SourceAlpha" type="matrix" values="0 0 0 0 0 0 0 0 0 0 0 0 0 0 0 0 0 0 127 0" result="hardAlpha"/>
<feOffset dy="2"/>
<feGaussianBlur stdDeviation="7.5"/>
<feColorMatrix type="matrix" values="0 0 0 0 0.503982 0 0 0 0 0.700178 0 0 0 0 1 0 0 0 0.233829 0"/>
<feBlend mode="normal" in2="effect1_dropShadow_12534_23612" result="effect2_dropShadow_12534_23612"/>
<feBlend mode="normal" in="SourceGraphic" in2="effect2_dropShadow_12534_23612" result="shape"/>
</filter>
<linearGradient id="paint0_linear_12534_23612" x1="299.098" y1="320.7" x2="299.098" y2="251.957" gradientUnits="userSpaceOnUse">
<stop stop-color="#FF8C19"/>
<stop offset="1" stop-color="#FFC967"/>
</linearGradient>
<linearGradient id="paint1_linear_12534_23612" x1="290.964" y1="293.294" x2="290.964" y2="261.963" gradientUnits="userSpaceOnUse">
<stop stop-color="#F8FDFF"/>
<stop offset="1" stop-color="#AAD4FF"/>
</linearGradient>
<linearGradient id="paint2_linear_12534_23612" x1="502.994" y1="290.908" x2="507.069" y2="361.835" gradientUnits="userSpaceOnUse">
<stop stop-color="#FDC6C6"/>
<stop offset="1" stop-color="#FFCCA1"/>
</linearGradient>
<linearGradient id="paint3_linear_12534_23612" x1="512.463" y1="538.097" x2="514.126" y2="557.264" gradientUnits="userSpaceOnUse">
<stop stop-color="#FDC6C6"/>
<stop offset="1" stop-color="#FAB2B2"/>
</linearGradient>
<linearGradient id="paint4_linear_12534_23612" x1="462.622" y1="536.165" x2="464.195" y2="556.673" gradientUnits="userSpaceOnUse">
<stop stop-color="#FDC6C6"/>
<stop offset="1" stop-color="#FAB2B2"/>
</linearGradient>
<linearGradient id="paint5_linear_12534_23612" x1="462.261" y1="204.745" x2="465.659" y2="250.978" gradientUnits="userSpaceOnUse">
<stop stop-color="#FDC6C6"/>
<stop offset="1" stop-color="#FFCCA1"/>
</linearGradient>
<linearGradient id="paint6_linear_12534_23612" x1="386.111" y1="205.323" x2="396.752" y2="292.759" gradientUnits="userSpaceOnUse">
<stop stop-color="#FDC6C6"/>
<stop offset="1" stop-color="#FFCCA1"/>
</linearGradient>
</defs>
</svg>
