<svg width="385" height="250" viewBox="0 0 385 250" fill="none" xmlns="http://www.w3.org/2000/svg">
<path d="M238.231 248.497C238.275 248.52 238.336 248.541 238.396 248.566H270.957C270.648 247.385 269.587 245.236 265.862 244.62C260.806 243.783 252.052 240.796 250.101 234.212C250.04 234.003 249.979 233.784 249.93 233.565C248.383 226.532 237.104 235.718 237.104 235.718C237.104 235.718 237.07 236 237.02 236.477C236.761 239.057 236.093 247.406 238.231 248.497Z" fill="#060632"/>
<path d="M281.296 129.413C281.296 129.413 260.12 206.009 253.743 235.631C253.743 235.631 238.027 238.843 235.578 233.813C235.578 233.813 240.646 150.4 249.957 139.804C261.546 126.626 281.296 129.413 281.296 129.413Z" fill="#060632"/>
<path d="M283.043 51.7785C283.043 51.7785 282.49 48.3519 283.353 45.4981C284.22 42.6443 287.845 35.1187 286.702 32.5032C285.552 29.8884 281.402 22.8519 278.843 22.8724C276.279 22.8934 281.535 30.4029 280.811 32.749C280.092 35.0945 279.849 35.2852 278.96 35.0778C278.07 34.871 276.716 30.38 276.263 31.4283C275.815 32.4772 276.075 39.427 276.926 41.1619C277.771 42.8975 276.036 52.6807 276.036 52.6807L283.043 51.7785Z" fill="#EA8888"/>
<path d="M285.093 50.2548C285.093 50.2548 279.423 46.9756 275.035 48.3576C275.035 48.3576 266.337 73.8793 261.546 92.6475C252.345 69.532 246.686 46.479 246.686 46.479C246.686 46.479 235.534 62.1643 231.506 72.5945C227.48 83.0247 251.538 119.615 260.877 122.487C270.62 125.484 268.846 122.481 274.344 119.277C276.118 116.942 281.772 105.31 285.093 50.2548Z" fill="#DE146F"/>
<path d="M310.74 249.693C310.784 249.716 310.845 249.739 310.906 249.762H343.466C343.156 248.58 342.095 246.431 338.371 245.815C333.314 244.979 324.561 241.992 322.605 235.408C322.544 235.199 322.489 234.982 322.439 234.76C320.892 227.73 309.613 236.914 309.613 236.914C309.613 236.914 309.58 237.195 309.53 237.673C309.265 240.253 308.601 248.601 310.74 249.693Z" fill="#060632"/>
<path d="M287.613 127.555C287.613 127.555 284.441 128.992 280.523 131.93C280.081 129.621 279.44 128.123 279.44 128.123C251.499 120.71 176.706 121.314 176.706 121.314C176.706 121.314 160.627 125.416 165.349 149.252C169.694 171.189 241.502 161.031 264.701 154.45C265.243 154.295 265.768 154.136 266.276 153.968C264.43 167.943 277.356 187.881 288.668 206.228C297.996 221.355 305.932 236.663 305.932 236.663C310.618 239.623 326.346 237.912 326.346 237.912C316.404 209.324 287.613 127.555 287.613 127.555Z" fill="#0B0754"/>
<path d="M225.95 38.7336C225.95 38.7336 233.971 64.8831 246.018 70.732C246.018 70.732 247.161 62.7996 245.211 56.7656C246.802 55.5254 248.212 54.3743 249.439 53.3378C253.528 49.874 255.589 47.658 255.589 47.658L253.798 34.907L252.583 26.2551C250.627 28.5418 248.604 30.4123 246.587 31.9473C236.181 39.8481 225.95 38.7336 225.95 38.7336Z" fill="#FC9290"/>
<path d="M246.587 31.9487C246.587 31.9487 242.542 43.2694 249.439 53.3392C253.528 49.8755 255.589 47.6594 255.589 47.6594L253.798 34.9085C249.488 32.4515 246.587 31.9487 246.587 31.9487Z" fill="#EA8888"/>
<path d="M258.644 50.1349C258.644 50.1349 240.883 38.1332 248.393 26.9829C255.903 15.8331 258.667 6.77379 270.327 13.9657C281.986 21.1569 281.301 26.9352 279.683 31.2776C278.063 35.6199 263.457 52.9696 258.644 50.1349Z" fill="#FC9290"/>
<path d="M250.461 3.64009C250.378 3.33668 250.046 2.9565 249.151 2.44319C249.151 2.44319 250.118 2.33359 251.118 2.80232C251.953 1.56828 253.771 -0.444697 256.258 0.0878056C256.258 0.0878056 254.755 0.150334 253.914 1.48654C257.788 0.0425952 264.238 0.801105 278.849 9.63198C298.107 21.2709 285.116 31.2485 281.761 31.5358C278.401 31.8231 273.958 24.2257 268.929 22.2096C263.906 20.1941 259.507 26.9612 257.39 27.1346C255.274 27.308 256.761 25.8764 255.042 23.7315C253.323 21.586 251.284 25.2845 250.731 28.0776C250.184 30.8702 245.564 32.6101 245.564 32.6101C245.564 32.6101 245.564 32.6101 244.134 27.6405C242.702 22.6709 246.797 6.68403 249.687 4.28343C249.941 4.07229 250.196 3.85556 250.461 3.64009Z" fill="#0B0754"/>
<path d="M247.565 82.3073C242.232 95.1753 237.353 103.393 236.712 104.468C234.413 108.338 231.945 111.891 229.687 114.991C229.617 115.092 229.546 115.187 229.474 115.286C225.028 121.376 218.231 123.054 218.442 124.584C218.865 127.646 211.267 134.998 198.734 138.257C184.192 142.042 167.343 143.863 163.084 138.858C161.661 137.176 161.186 134.085 161.344 130.241C161.655 122.148 171.66 89.5512 171.66 89.5512C188.775 36.8081 237.789 36.8081 237.789 36.8081C237.789 36.8081 236.827 49.4433 248.852 53.829C248.869 53.8556 251.682 72.3743 247.565 82.3073Z" fill="#F72A85"/>
<path d="M276.351 119.835C276.351 119.835 283.711 122.485 285.728 123.771C287.746 125.059 292.393 131.535 292.918 133.805C293.438 136.075 294.051 142.746 293.67 143.864C293.289 144.981 287.657 140.701 286.403 136.671C285.148 132.641 281.932 131.558 282.059 131.774C282.181 131.991 283.828 137.148 283.479 137.373C283.131 137.595 281.634 137.979 280.274 135.1C278.915 132.221 276.224 130.118 276.732 127.142C277.24 124.166 276.351 119.835 276.351 119.835Z" fill="#FC9290"/>
<path d="M218.685 125.008C219.11 128.071 211.267 134.997 198.734 138.256C188.282 117.081 208.156 68.5994 208.156 68.5994L229.687 114.99C225.145 121.237 218.472 123.455 218.685 125.008Z" fill="#DE146F"/>
<path d="M236.712 104.467C234.413 108.337 231.945 111.89 229.687 114.99C229.616 115.091 229.545 115.186 229.474 115.285C226.52 114.126 223.589 111.812 222.112 109.686C218.72 104.81 218.441 75.4922 218.441 75.4922C218.441 75.4922 232.324 92.9582 236.712 104.467Z" fill="#DE146F"/>
<path d="M279.174 120.492C279.174 120.492 245.592 110.921 228.355 106.731C229.872 86.0227 234.849 23.406 203.532 48.4707C203.532 48.4707 201.166 115.575 216.342 129.166C216.342 129.166 265.055 130.215 274.334 129.638C274.334 129.638 277.058 128.201 277.738 127.244C279.898 124.179 279.174 120.492 279.174 120.492Z" fill="#F72A85"/>
<path d="M84.6854 220.961L85.9245 220.848C85.4503 211.661 78.6257 206.522 78.6257 206.522C73.8448 202.208 72.2919 197.471 72.2919 197.471C72.2919 197.471 80.3586 187.89 72.7886 181.802C72.7886 181.802 67.261 178.394 62.7537 178.672C62.7537 178.672 69.1404 189.577 67.0756 190.663C65.0083 191.747 60.8177 177.985 60.8177 177.985C60.8177 177.985 48.2369 176.745 44.1911 178.726C44.1911 178.726 54.9459 187.689 52.6804 188.222C50.4161 188.754 38.8009 179.959 38.8009 179.959C38.8009 179.959 27.0914 181.987 27.7171 189.263C28.3403 196.535 32.3734 198.78 34.1464 198.586C35.92 198.396 46.2918 194.363 46.5192 195.841C46.7448 197.322 40.5003 202.157 36.1304 202.381C36.1304 202.381 44.3844 211.654 49.8689 208.978C55.3557 206.303 55.8252 202.061 59.2447 200.47C62.6625 198.88 65.5835 198.883 64.1698 200.506C62.7585 202.128 56.5694 203.705 54.614 207.227C52.6579 210.75 50.905 213.126 56.5797 212.257C62.2545 211.388 71.4814 207.157 71.8869 202.314C71.9045 202.102 71.9222 201.902 71.9374 201.708C71.9471 202.092 71.8869 202.314 71.8869 202.314C73.072 202.528 75.5296 204.747 77.3081 206.489C77.5817 206.793 77.9843 207.201 78.5619 207.747C78.7796 207.969 78.9595 208.158 79.097 208.3C82.6995 212.319 84.6854 220.961 84.6854 220.961Z" fill="#3A49CD"/>
<path d="M100.491 185.422C100.491 185.422 87.662 178.105 93.6481 168.175C93.6481 168.175 98.4388 162.077 103.571 160.51C103.571 160.51 100.833 175.316 103.571 175.665C106.308 176.013 105.451 158.942 105.451 158.942C105.451 158.942 118.967 152.322 124.27 152.846C124.27 152.846 115.886 167.303 118.625 166.955C121.361 166.607 130.77 151.973 130.77 151.973C130.77 151.973 144.628 149.36 146.85 157.721C149.074 166.086 145.482 170.265 143.429 170.789C141.377 171.31 128.204 171.137 128.546 172.878C128.888 174.62 137.785 177.408 142.746 175.84C142.746 175.84 137.271 189.601 130.086 188.905C122.901 188.208 120.677 183.68 116.229 183.33C111.782 182.984 108.532 184.202 110.756 185.422C112.98 186.64 120.507 185.821 124.1 188.93C127.692 192.042 130.598 193.958 123.927 195.352C117.257 196.745 105.282 195.873 102.887 190.649C100.491 185.422 100.491 185.422 100.491 185.422Z" fill="#93B3F4"/>
<path d="M140.522 160.336C140.522 160.336 104.598 172.183 100.491 185.423C100.491 185.423 100.663 191.346 97.071 198.139C97.071 198.139 91.5306 206.707 94.69 217.135L96.1133 216.745C96.1133 216.745 94.8669 206.4 97.2206 200.407C97.3172 200.185 97.4565 199.867 97.631 199.478C98.0566 198.629 98.343 198.007 98.5254 197.553C99.8047 194.876 101.654 191.38 102.887 190.65C102.887 190.65 94.8468 179.151 140.522 160.336Z" fill="#3A49CD"/>
<path d="M80.0795 175.331C80.0795 175.331 96.9926 165.684 89.1009 152.594C89.1009 152.594 82.7853 144.558 76.0209 142.491C76.0209 142.491 79.6284 162.011 76.0209 162.47C72.4135 162.93 73.5408 140.425 73.5408 140.425C73.5408 140.425 55.726 131.7 48.7361 132.389C48.7361 132.389 59.7846 151.446 56.1772 150.99C52.5697 150.528 40.1653 131.241 40.1653 131.241C40.1653 131.241 21.9025 127.794 18.9687 138.818C16.038 149.839 20.7752 155.353 23.4809 156.041C26.1866 156.73 43.5502 156.5 43.0997 158.796C42.6485 161.092 30.9214 164.766 24.3826 162.7C24.3826 162.7 31.5975 180.841 41.0682 179.923C50.5401 179.004 53.4715 173.032 59.3335 172.573C65.1986 172.113 69.4821 173.721 66.5514 175.331C63.6177 176.938 53.697 175.857 48.9623 179.957C44.2269 184.056 40.3915 186.582 49.1873 188.418C57.9806 190.256 73.7663 189.108 76.9226 182.219C80.0795 175.331 80.0795 175.331 80.0795 175.331Z" fill="#93B3F4"/>
<path d="M84.5899 192.093C79.8545 183.138 80.0801 175.331 80.0801 175.331C74.6686 157.879 27.3145 142.263 27.3145 142.263C87.5212 167.063 76.9232 182.22 76.9232 182.22C78.5473 183.183 80.9794 187.779 82.6667 191.306C82.9075 191.905 83.2875 192.735 83.8548 193.863C84.0834 194.373 84.2682 194.789 84.3941 195.081C87.4932 202.98 85.8515 216.62 85.8515 216.62L87.731 217.133C91.893 203.387 84.5899 192.093 84.5899 192.093Z" fill="#3A49CD"/>
<path d="M47.5234 213.211C47.5234 231.842 62.3533 246.945 80.6502 246.945C84.4705 246.945 88.1387 246.287 91.5534 245.075C104.494 240.485 113.779 227.952 113.779 213.211H47.5234Z" fill="#0B0754"/>
<path d="M69.3281 213.211C69.3281 225.85 72.3026 238.723 82.4057 244.502C84.0851 245.462 89.7099 244.422 91.5535 245.075C104.494 240.485 113.779 227.952 113.779 213.211H69.3281Z" fill="#6D89CF"/>
<path d="M80.6504 246.945C81.9978 247.117 75.2206 246.945 76.6143 246.945C94.9112 246.945 109.741 231.842 109.741 213.211H101.51C101.51 230.423 97.0058 244.882 80.6504 246.945Z" fill="#BED2FA"/>
<path d="M47.0654 248.661H114.238C114.238 247.513 113.78 246.471 113.04 245.718C112.301 244.965 111.279 244.497 110.15 244.497H51.152C48.8944 244.497 47.0654 246.363 47.0654 248.661Z" fill="#0B0754"/>
<path d="M78.5376 248.661H114.238C114.238 247.513 113.78 246.471 113.04 245.718C112.3 244.965 111.279 244.497 110.15 244.497H82.6236C80.3666 244.497 78.5376 246.363 78.5376 248.661Z" fill="#6D89CF"/>
<path d="M46.7681 214.243H114.868V213.208H46.7681V214.243Z" fill="#010117"/>
<path d="M250.494 161.689V174.883C250.494 177.604 248.306 179.833 245.626 179.833H169.049C166.373 179.833 164.187 177.604 164.187 174.883V161.689C164.187 158.967 166.373 156.738 169.049 156.738H245.626C248.306 156.738 250.494 158.967 250.494 161.689Z" fill="#6D89CF"/>
<path d="M250.494 172.482V174.884C250.494 177.605 248.306 179.835 245.626 179.835H169.049C166.373 179.835 164.187 177.605 164.187 174.884V172.283H249.096C249.583 172.283 250.047 172.353 250.494 172.482Z" fill="#0B0754"/>
<path d="M182.621 179.834L179.168 193.149L179.166 193.154L164.793 248.573H163.282L171.589 202.594C171.595 202.548 171.608 202.504 171.616 202.455L175.725 179.716L182.621 179.834Z" fill="#93B3F4"/>
<path d="M182.621 179.834L179.169 193.149L179.166 193.154C178.965 193.252 172.683 196.562 171.616 202.455L175.725 179.716L182.621 179.834Z" fill="#3662C1"/>
<path d="M250.493 248.573H248.979L237.269 203.427V203.419L234.606 193.154L234.601 193.149L231.151 179.834L238.049 179.716L240.398 192.716L242.155 202.455C242.166 202.504 242.177 202.548 242.182 202.594L250.493 248.573Z" fill="#93B3F4"/>
<path d="M227.147 197.273L227.124 197.255C227.09 197.198 227.098 197.211 227.147 197.273Z" fill="#3662C1"/>
<path d="M240.398 192.716C239.126 194.601 237.369 198.146 237.269 203.419L234.606 193.154L234.601 193.149L231.151 179.834L238.049 179.716L240.398 192.716Z" fill="#3662C1"/>
<path d="M383.735 250H0.837369C0.604331 250 0.414062 249.726 0.414062 249.392V249.147C0.414062 248.814 0.604331 248.54 0.837369 248.54H383.735C383.969 248.54 384.159 248.814 384.159 249.147V249.392C384.159 249.726 383.969 250 383.735 250Z" fill="#010117"/>
</svg>
