<svg width="637" height="572" viewBox="0 0 637 572" fill="none" xmlns="http://www.w3.org/2000/svg">
<g id="Illustration">
<g id="Shape">
<g id="Oval" opacity="0.1" filter="url(#filter0_f_12534_23731)">
<ellipse cx="121.531" cy="275.608" rx="115.531" ry="116.393" fill="#7367F0"/>
</g>
<path id="Oval_2" opacity="0.05" fill-rule="evenodd" clip-rule="evenodd" d="M380.75 177.184C380.75 116.432 429.999 67.1836 490.75 67.1836C551.501 67.1836 600.75 116.432 600.75 177.184C600.75 237.935 551.501 287.184 490.75 287.184C429.999 287.184 380.75 237.935 380.75 177.184ZM553.75 176.684C553.75 142.166 525.768 114.184 491.25 114.184C456.732 114.184 428.75 142.166 428.75 176.684C428.75 211.201 456.732 239.184 491.25 239.184C525.768 239.184 553.75 211.201 553.75 176.684Z" fill="#00CFE8"/>
<ellipse id="Oval_3" opacity="0.1" cx="312.382" cy="53.0407" rx="37.9439" ry="38.0407" stroke="#7367F0" stroke-width="30"/>
<path id="Path" opacity="0.1" d="M491.165 67.1836C551.687 67.1836 600.75 116.432 600.75 177.184C600.75 237.935 551.687 287.184 491.165 287.184C454.704 287.184 421.237 269.151 400.923 239.604C393.53 228.851 396.221 214.118 406.933 206.698C417.538 199.351 432.029 201.925 439.491 212.411L439.715 212.731C451.321 229.613 470.362 239.872 491.165 239.872C525.656 239.872 553.617 211.805 553.617 177.184C553.617 142.908 526.213 115.057 492.198 114.504L491.165 114.495C478.15 114.495 467.598 103.904 467.598 90.8395C467.598 77.7747 478.15 67.1836 491.165 67.1836Z" fill="#00CFE8"/>
</g>
<g id="Mobile Banking App">
<g id="Phone3">
<path id="Rectangle" fill-rule="evenodd" clip-rule="evenodd" d="M168.975 178.137C168.975 164.254 180.229 153 194.112 153H345.201C359.084 153 370.338 164.254 370.338 178.137V545.323C370.338 559.206 359.084 570.46 345.201 570.46H194.112C180.229 570.46 168.975 559.206 168.975 545.323V178.137Z" fill="#368AC8"/>
<g id="Group 48">
<path id="Rectangle_2" fill-rule="evenodd" clip-rule="evenodd" d="M176.237 179.936C176.237 169.707 184.53 161.414 194.759 161.414H221.439C222.187 161.414 222.799 162.009 222.821 162.757C222.976 168.116 227.365 172.381 232.727 172.381H305.926C311.288 172.381 315.678 168.116 315.833 162.757C315.854 162.009 316.467 161.414 317.215 161.414H343.894C354.124 161.414 362.416 169.707 362.416 179.936V541.035C362.416 551.264 354.124 559.557 343.894 559.557H194.759C184.53 559.557 176.237 551.264 176.237 541.035V179.936Z" fill="white"/>
<mask id="mask0_12534_23731" style="mask-type:alpha" maskUnits="userSpaceOnUse" x="176" y="161" width="187" height="399">
<path id="Rectangle_3" fill-rule="evenodd" clip-rule="evenodd" d="M176.237 179.936C176.237 169.707 184.53 161.414 194.759 161.414H221.439C222.187 161.414 222.799 162.009 222.821 162.757C222.976 168.116 227.365 172.381 232.727 172.381H305.926C311.288 172.381 315.678 168.116 315.833 162.757C315.854 162.009 316.467 161.414 317.215 161.414H343.894C354.124 161.414 362.416 169.707 362.416 179.936V541.035C362.416 551.264 354.124 559.557 343.894 559.557H194.759C184.53 559.557 176.237 551.264 176.237 541.035V179.936Z" fill="white"/>
</mask>
<g mask="url(#mask0_12534_23731)">
<ellipse id="Oval_4" cx="246.822" cy="403.741" rx="15.9688" ry="15.9515" fill="#E97EFF" fill-opacity="0.548951"/>
<path id="Rectangle_4" fill-rule="evenodd" clip-rule="evenodd" d="M198.916 235.004C198.916 232.113 201.259 229.77 204.15 229.77H335.904C338.794 229.77 341.138 232.113 341.138 235.004C341.138 237.894 338.794 240.238 335.904 240.238H204.15C201.259 240.238 198.916 237.894 198.916 235.004Z" fill="#E97EFF" fill-opacity="0.548951"/>
</g>
</g>
<path id="Path_2" d="M280.572 160.309C282.294 160.309 283.69 161.648 283.69 163.299C283.69 164.915 282.355 166.231 280.686 166.288L280.572 166.29H245.304C243.582 166.29 242.186 164.951 242.186 163.299C242.186 161.684 243.521 160.368 245.19 160.311L245.304 160.309H280.572Z" fill="#00CFE8"/>
<path id="Path_3" d="M293.21 159.809C294.933 159.809 296.329 161.203 296.329 162.924C296.329 164.607 294.994 165.977 293.325 166.038L293.21 166.04H293.047C291.324 166.04 289.928 164.645 289.928 162.924C289.928 161.242 291.263 159.871 292.932 159.811L293.047 159.809H293.21Z" fill="#00CFE8"/>
</g>
<g id="BoardPieChart">
<g id="Rectangle_5" filter="url(#filter1_dd_12534_23731)">
<path fill-rule="evenodd" clip-rule="evenodd" d="M188.229 359.268C188.229 354.432 192.15 350.512 196.986 350.512H388.175C393.011 350.512 396.931 354.432 396.931 359.268V478.523C396.931 483.359 393.011 487.279 388.175 487.279H196.986C192.15 487.279 188.229 483.359 188.229 478.523V359.268Z" fill="white"/>
</g>
<mask id="mask1_12534_23731" style="mask-type:alpha" maskUnits="userSpaceOnUse" x="188" y="350" width="209" height="138">
<path id="Rectangle_6" fill-rule="evenodd" clip-rule="evenodd" d="M188.229 359.268C188.229 354.432 192.15 350.512 196.986 350.512H388.175C393.011 350.512 396.931 354.432 396.931 359.268V478.523C396.931 483.359 393.011 487.279 388.175 487.279H196.986C192.15 487.279 188.229 483.359 188.229 478.523V359.268Z" fill="white"/>
</mask>
<g mask="url(#mask1_12534_23731)">
<path id="Rectangle_7" fill-rule="evenodd" clip-rule="evenodd" d="M183.547 345.148H402.282V385.374H183.547L183.547 345.148Z" fill="#7EB2FC"/>
<path id="Rectangle_8" opacity="0.365606" fill-rule="evenodd" clip-rule="evenodd" d="M205.621 374.648C205.621 373.537 206.522 372.637 207.632 372.637H274.515C275.626 372.637 276.526 373.537 276.526 374.648C276.526 375.759 275.626 376.659 274.515 376.659H207.632C206.522 376.659 205.621 375.759 205.621 374.648Z" fill="#6FA3FF"/>
<rect id="Rectangle_9" x="205.621" y="361.238" width="37.4593" height="4.02258" rx="2.01129" fill="white"/>
<rect id="Rectangle_10" x="212.311" y="452.418" width="37.4593" height="4.69301" rx="2.3465" fill="#368AC8"/>
<path id="Rectangle_11" fill-rule="evenodd" clip-rule="evenodd" d="M212.311 468.171C212.311 466.875 213.361 465.824 214.657 465.824H234.045C235.341 465.824 236.392 466.875 236.392 468.171C236.392 469.467 235.341 470.517 234.045 470.517H214.657C213.361 470.517 212.311 469.467 212.311 468.171Z" fill="#F8F9FA"/>
<rect id="Rectangle_12" x="271.844" y="452.418" width="37.4593" height="4.69301" rx="2.3465" fill="#9370E8"/>
<path id="Rectangle_13" fill-rule="evenodd" clip-rule="evenodd" d="M271.844 468.171C271.844 466.875 272.894 465.824 274.19 465.824H293.578C294.874 465.824 295.925 466.875 295.925 468.171C295.925 469.467 294.874 470.517 293.578 470.517H274.19C272.894 470.517 271.844 469.467 271.844 468.171Z" fill="#F8F9FA"/>
<rect id="Rectangle_14" x="333.385" y="452.418" width="37.4593" height="4.69301" rx="2.3465" fill="#F72A85"/>
<path id="Rectangle_15" fill-rule="evenodd" clip-rule="evenodd" d="M333.385 468.171C333.385 466.875 334.435 465.824 335.731 465.824H355.119C356.415 465.824 357.466 466.875 357.466 468.171C357.466 469.467 356.415 470.517 355.119 470.517H335.731C334.435 470.517 333.385 469.467 333.385 468.171Z" fill="#F8F9FA"/>
<g id="Group 3">
<path id="Oval_5" fill-rule="evenodd" clip-rule="evenodd" d="M352.114 438.843C362.735 438.843 371.345 430.213 371.345 419.568C371.345 408.923 362.735 400.293 352.114 400.293C341.493 400.293 332.883 408.923 332.883 419.568C332.883 430.213 341.493 438.843 352.114 438.843ZM352.114 431.134C345.741 431.134 340.575 425.956 340.575 419.569C340.575 413.182 345.741 408.004 352.114 408.004C358.487 408.004 363.653 413.182 363.653 419.569C363.653 425.956 358.487 431.134 352.114 431.134Z" fill="#F2F2F2"/>
<path id="Path_4" fill-rule="evenodd" clip-rule="evenodd" d="M371.345 419.568C371.345 408.923 362.735 400.293 352.114 400.293C349.99 400.293 348.268 402.019 348.268 404.148C348.268 406.277 349.99 408.003 352.114 408.003C358.414 408.003 363.535 413.064 363.651 419.351L363.653 419.568C363.653 421.697 365.375 423.423 367.499 423.423C369.623 423.423 371.345 421.697 371.345 419.568Z" fill="#F72A85"/>
</g>
<g id="Group 4">
<path id="Oval_6" fill-rule="evenodd" clip-rule="evenodd" d="M291.911 438.843C302.532 438.843 311.142 430.213 311.142 419.568C311.142 408.923 302.532 400.293 291.911 400.293C281.29 400.293 272.68 408.923 272.68 419.568C272.68 430.213 281.29 438.843 291.911 438.843ZM291.911 431.134C285.538 431.134 280.372 425.956 280.372 419.569C280.372 413.182 285.538 408.004 291.911 408.004C298.284 408.004 303.45 413.182 303.45 419.569C303.45 425.956 298.284 431.134 291.911 431.134Z" fill="#F2F2F2"/>
<path id="Path_5" d="M291.911 438.843C302.532 438.843 311.142 430.213 311.142 419.568C311.142 408.923 302.532 400.293 291.911 400.293C289.786 400.293 288.064 402.019 288.064 404.148C288.064 406.277 289.786 408.003 291.911 408.003C298.283 408.003 303.45 413.181 303.45 419.568C303.45 425.882 298.4 431.015 292.127 431.131L291.911 431.133C289.786 431.133 288.064 432.859 288.064 434.988C288.064 437.117 289.786 438.843 291.911 438.843Z" fill="#9370E8"/>
</g>
<g id="Group 6">
<path id="Oval_7" fill-rule="evenodd" clip-rule="evenodd" d="M231.709 438.843C242.33 438.843 250.94 430.213 250.94 419.568C250.94 408.923 242.33 400.293 231.709 400.293C221.088 400.293 212.478 408.923 212.478 419.568C212.478 430.213 221.088 438.843 231.709 438.843ZM231.709 431.134C225.336 431.134 220.17 425.956 220.17 419.569C220.17 413.182 225.336 408.004 231.709 408.004C238.081 408.004 243.248 413.182 243.248 419.569C243.248 425.956 238.081 431.134 231.709 431.134Z" fill="#F2F2F2"/>
<path id="Path_6" fill-rule="evenodd" clip-rule="evenodd" d="M212.478 419.568C212.478 430.213 221.088 438.843 231.709 438.843C242.33 438.843 250.94 430.213 250.94 419.568C250.94 408.923 242.33 400.293 231.709 400.293C229.585 400.293 227.863 402.019 227.863 404.148C227.863 406.277 229.585 408.003 231.709 408.003C238.082 408.003 243.248 413.181 243.248 419.568C243.248 425.955 238.082 431.133 231.709 431.133C225.336 431.133 220.17 425.955 220.17 419.568C220.17 417.439 218.448 415.713 216.324 415.713C214.2 415.713 212.478 417.439 212.478 419.568Z" fill="#368AC8"/>
</g>
</g>
</g>
<g id="VisaCard2">
<g id="Rectangle_16" filter="url(#filter2_d_12534_23731)">
<path fill-rule="evenodd" clip-rule="evenodd" d="M190.441 206.352H397.491C399.964 206.352 401.968 208.361 401.968 210.841V328.683C401.968 331.163 399.964 333.173 397.491 333.173H190.441C187.968 333.173 185.964 331.163 185.964 328.683V210.841C185.964 208.361 187.968 206.352 190.441 206.352Z" fill="#9370E8"/>
</g>
<g id="Group 46">
<g id="Group 45">
<g id="Group 43">
<ellipse id="Oval_8" cx="343.993" cy="239.357" rx="12.9826" ry="12.9349" fill="#8E83FF"/>
<ellipse id="Oval Copy 10" cx="361.901" cy="239.357" rx="12.9826" ry="12.9349" fill="#FFBB7A"/>
<path id="Path_7" fill-rule="evenodd" clip-rule="evenodd" d="M352.83 230.104L352.949 229.992C355.43 232.348 356.976 235.673 356.976 239.357C356.976 243.042 355.43 246.367 352.949 248.723C350.465 246.368 348.918 243.042 348.918 239.357C348.918 235.731 350.416 232.452 352.83 230.104L352.949 229.992L352.83 230.104Z" fill="white" fill-opacity="0.416193"/>
</g>
<path id="Rectangle_17" fill-rule="evenodd" clip-rule="evenodd" d="M217.972 247.609H245.057C246.046 247.609 246.848 248.408 246.848 249.393V269.019C246.848 270.004 246.046 270.803 245.057 270.803H217.972C216.983 270.803 216.182 270.004 216.182 269.019V249.393C216.182 248.408 216.983 247.609 217.972 247.609Z" fill="#9F95FF"/>
</g>
<g id="Group 44">
<path id="Rectangle_18" fill-rule="evenodd" clip-rule="evenodd" d="M220.211 283.961H242.595C244.82 283.961 246.624 285.758 246.624 287.975C246.624 290.192 244.82 291.989 242.595 291.989H220.211C217.986 291.989 216.182 290.192 216.182 287.975C216.182 285.758 217.986 283.961 220.211 283.961Z" fill="white" fill-opacity="0.646908"/>
<path id="Rectangle_19" fill-rule="evenodd" clip-rule="evenodd" d="M220.211 304.031H276.17C278.396 304.031 280.199 305.828 280.199 308.046C280.199 310.263 278.396 312.06 276.17 312.06H220.211C217.986 312.06 216.182 310.263 216.182 308.046C216.182 305.828 217.986 304.031 220.211 304.031Z" fill="white" fill-opacity="0.646908"/>
<path id="Rectangle_20" fill-rule="evenodd" clip-rule="evenodd" d="M347.799 304.031H370.182C372.408 304.031 374.212 305.828 374.212 308.046C374.212 310.263 372.408 312.06 370.182 312.06H347.799C345.573 312.06 343.77 310.263 343.77 308.046C343.77 305.828 345.573 304.031 347.799 304.031Z" fill="white" fill-opacity="0.646908"/>
<path id="Rectangle_21" fill-rule="evenodd" clip-rule="evenodd" d="M220.211 225.977H242.595C244.82 225.977 246.624 227.774 246.624 229.991C246.624 232.208 244.82 234.005 242.595 234.005H220.211C217.986 234.005 216.182 232.208 216.182 229.991C216.182 227.774 217.986 225.977 220.211 225.977Z" fill="white" fill-opacity="0.646908"/>
<path id="Rectangle Copy 38" fill-rule="evenodd" clip-rule="evenodd" d="M262.293 283.961H284.677C286.902 283.961 288.706 285.758 288.706 287.975C288.706 290.192 286.902 291.989 284.677 291.989H262.293C260.068 291.989 258.264 290.192 258.264 287.975C258.264 285.758 260.068 283.961 262.293 283.961Z" fill="white" fill-opacity="0.646908"/>
<path id="Rectangle Copy 39" fill-rule="evenodd" clip-rule="evenodd" d="M305.269 283.961H327.653C329.878 283.961 331.682 285.758 331.682 287.975C331.682 290.192 329.878 291.989 327.653 291.989H305.269C303.044 291.989 301.24 290.192 301.24 287.975C301.24 285.758 303.044 283.961 305.269 283.961Z" fill="white" fill-opacity="0.646908"/>
<path id="Rectangle Copy 40" fill-rule="evenodd" clip-rule="evenodd" d="M347.351 283.961H369.735C371.96 283.961 373.764 285.758 373.764 287.975C373.764 290.192 371.96 291.989 369.735 291.989H347.351C345.126 291.989 343.322 290.192 343.322 287.975C343.322 285.758 345.126 283.961 347.351 283.961Z" fill="white" fill-opacity="0.646908"/>
</g>
</g>
</g>
<g id="Men1.1">
<g id="LLeg">
<path id="Path_8" fill-rule="evenodd" clip-rule="evenodd" d="M142.482 542.003C142.482 542.003 142.328 551.86 148.381 555.361C154.434 558.862 163.812 565.368 163.812 565.368L128.137 566.577L129.154 541.914L142.482 542.003Z" fill="url(#paint0_linear_12534_23731)"/>
<path id="Path_9" fill-rule="evenodd" clip-rule="evenodd" d="M127.761 553.935C130.519 554.22 129.916 558.21 134.922 558.016C138.569 557.874 144.257 551.147 148.936 553.639C156.078 557.442 164.453 562.57 166.506 563.791C168.56 565.012 169.371 569.618 163.303 570.183C157.501 570.724 149.668 570.664 147.707 570.306C145.744 569.948 142.105 567.446 139.177 567.846C136.249 568.246 135.915 569.256 134.279 569.703C132.643 570.15 127.704 570.247 127.192 568.868C126.603 567.285 126.014 553.756 127.761 553.935Z" fill="#482B61"/>
<path id="Path_10" fill-rule="evenodd" clip-rule="evenodd" d="M124.996 332.891C124.996 332.891 138.605 439.706 139.743 449.808C140.88 459.909 147.128 531.772 146.273 541.358C145.402 551.12 127.14 551.172 124.69 543.807C121.337 533.726 113.585 483.342 112.303 472.821C111.021 462.299 111.471 450.084 106.319 439.311C102.63 431.598 90.4229 335.629 90.4229 335.629L124.996 332.891Z" fill="#2F2B57"/>
<path id="Path_11" opacity="0.59096" fill-rule="evenodd" clip-rule="evenodd" d="M116.998 456.323L117.046 456.804C117.566 462.384 118.001 480.865 118.352 512.249L117.569 507.561C115.113 492.698 112.931 477.974 112.303 472.819C111.048 462.517 111.453 450.59 106.634 439.984L106.319 439.309C104.695 435.914 101.422 415.426 98.2656 393.547L99.2567 396.2C109.796 424.542 115.709 444.583 116.998 456.323Z" fill="white" fill-opacity="0.192499"/>
<path id="Path 10" d="M151.575 555.355L149.868 557.909" stroke="white" stroke-linecap="round"/>
<path id="Path 10_2" d="M154.554 556.355L152.848 558.909" stroke="white" stroke-linecap="round"/>
</g>
<g id="RLeg">
<path id="Path_12" fill-rule="evenodd" clip-rule="evenodd" d="M59.5863 544.26L56.3936 565.816L71.825 565.738L71.3198 543.859L59.5863 544.26Z" fill="url(#paint1_linear_12534_23731)"/>
<path id="Path_13" fill-rule="evenodd" clip-rule="evenodd" d="M53.5505 569.303C53.4989 568.045 54.6698 559.888 56.3937 556.658C57.6441 554.316 60.4167 553.767 64.4739 553.75C69.7071 553.73 74.0807 554.522 74.0746 556.658C74.0562 563.197 75.7144 568.226 75.8258 568.801C76.153 570.486 71.4725 571.745 65.0796 571.681C59.847 571.629 53.6306 571.264 53.5505 569.303Z" fill="#482B61"/>
<path id="Path_14" fill-rule="evenodd" clip-rule="evenodd" d="M107.504 336.395C107.504 336.395 100.429 384.068 96.146 414.231C91.9374 443.871 79.4738 532.283 78.1859 541.538C77.0035 550.035 55.422 550.035 55.6491 539.745C55.8763 529.455 53.8783 465.333 57.8967 455.839C61.9152 446.346 58.4168 435.297 58.5628 426.074C58.7095 416.851 64.4886 337.011 64.4886 337.011L107.504 336.395Z" fill="#3A3669"/>
<path id="Path_15" opacity="0.461565" fill-rule="evenodd" clip-rule="evenodd" d="M68.7971 398.213L68.4593 399.44C64.3624 414.16 62.9485 415.486 64.1096 438.964L64.1215 439.441C64.1619 445.347 61.3528 475.913 55.6941 531.139L55.6685 527.706C55.4701 505.176 54.64 464.442 57.7945 456.093L57.8965 455.838C61.915 446.344 58.4167 435.295 58.5627 426.072C58.7093 416.85 64.4885 337.009 64.4885 337.009L71.8706 336.902L71.9461 340.56C72.4772 369.122 71.4275 388.34 68.7971 398.213Z" fill="white" fill-opacity="0.192499"/>
<path id="Path 9" d="M62.6045 558.53H68.2533" stroke="white" stroke-linecap="round"/>
<path id="Path 9_2" d="M62.6045 561.527H68.2533" stroke="white" stroke-linecap="round"/>
</g>
<g id="Head">
<path id="Path_16" fill-rule="evenodd" clip-rule="evenodd" d="M81.0342 240.079C81.0342 240.079 86.9452 238.684 87.1503 228.95C87.3554 219.215 87.2114 215.892 87.2114 215.892L101.225 215.656C101.225 215.656 101.367 226.505 101.369 230.429C101.374 240.969 108.681 240.079 108.681 240.079C108.681 240.079 107.162 248.625 95.3644 249.292C86.1528 249.813 81.0342 240.079 81.0342 240.079Z" fill="url(#paint2_linear_12534_23731)"/>
<g id="Head1">
<path id="Path_17" fill-rule="evenodd" clip-rule="evenodd" d="M85.925 210.969C80.1166 210.743 81.064 219.289 87.0978 219.277C87.0978 219.277 93.5823 232.382 103.763 232.416C108.667 232.432 110.268 228.042 111.738 224.96C113.208 221.878 114.287 217.268 114.377 214.445C114.473 211.436 114.485 201.548 114.485 201.548L85.6989 201.535L85.925 210.969Z" fill="url(#paint3_linear_12534_23731)"/>
<path id="Path_18" d="M103.355 226.173C104.226 226.653 105.262 226.534 106.064 226.173" stroke="#F49494" stroke-linecap="round"/>
<path id="Path 8" d="M86.8314 215.85C86.8912 214.479 86.4751 213.391 85.084 213.172" stroke="#DE6767" stroke-linecap="round"/>
<path id="Path_19" fill-rule="evenodd" clip-rule="evenodd" d="M85.9252 210.97C85.9252 210.97 88.5958 214.069 89.5837 214.154C90.5724 214.239 89.4459 205.769 90.901 204.226C94.0972 200.834 102.449 206.597 111.232 205.189C114.485 204.668 114.427 210.228 114.427 210.228C122.638 202.703 125.614 196.767 115.803 194.288C115.725 187.92 112.08 186.321 105.031 189.276C104.089 180.673 91.9111 181.971 86.3677 192.916C82.3554 188.992 76.7157 192.159 79.1091 198.064C74.7885 198.064 77.04 209.672 82.1317 213.66C82.7392 211.918 83.8494 210.97 85.9252 210.97Z" fill="#422851"/>
<path id="Path_20" d="M101.386 223.414C101.386 223.414 104.151 226.029 107.623 223.9" stroke="#DE6767" stroke-linecap="round"/>
</g>
</g>
<g id="LArm">
<g id="Group 3_2">
<path id="Path_21" fill-rule="evenodd" clip-rule="evenodd" d="M182.553 271.334C182.553 271.334 184.215 262.095 186.414 258.857C188.613 255.619 189.254 250.179 191.329 250.379C193.404 250.579 191.326 259.264 191.326 259.264C191.326 259.264 201.002 252.005 205.392 249.504C209.397 247.222 207.2 259.026 206.574 260.53C205.083 264.112 187.833 277.629 187.833 277.629C187.833 277.629 182.93 272.156 182.553 271.334Z" fill="url(#paint4_linear_12534_23731)"/>
<path id="Path_22" fill-rule="evenodd" clip-rule="evenodd" d="M191.326 259.263C191.326 259.263 190.612 262.234 190.968 262.234C191.325 262.234 197.892 254.486 197.892 254.486L191.326 259.263Z" fill="#F28585"/>
</g>
<path id="Path_23" fill-rule="evenodd" clip-rule="evenodd" d="M126.694 250.656C131.425 260.916 149.121 287.427 149.121 287.427C149.121 287.427 178.119 268.521 181.809 268.482C185.499 268.443 190.509 273.339 190.194 276.718C189.879 280.097 158.129 309.733 147.946 309.484C132.113 309.096 112.258 267.923 110.219 262.42C104.759 247.679 122.079 240.648 126.694 250.656Z" fill="#F3378A"/>
<path id="Path 5" fill-rule="evenodd" clip-rule="evenodd" d="M149.016 287.409C149.016 287.409 152.364 292.315 152.964 291.993C153.564 291.671 151.648 285.996 151.648 285.996L149.016 287.409Z" fill="black" fill-opacity="0.159856"/>
</g>
<g id="Body">
<path id="Path_24" fill-rule="evenodd" clip-rule="evenodd" d="M56.6569 252.296C55.1712 259.42 65.3456 295.325 62.5464 312.122C60.3324 325.406 58.2189 343.698 63.9571 347.759C69.7991 351.894 120.087 355.177 127.255 343.698C132.941 334.591 128.286 314.396 127.255 305.183C125.198 286.804 128.304 255.042 124.814 248.546C122.65 244.516 107.892 239.319 107.338 239.48C106.783 239.641 105.48 245.351 96.1486 245.351C86.817 245.351 82.6963 239.48 82.1949 239.319C81.6935 239.158 58.0014 245.852 56.6569 252.296Z" fill="#F72A85"/>
<path id="Path_25" fill-rule="evenodd" clip-rule="evenodd" d="M82.1719 239.316L82.1954 239.319C82.6968 239.48 86.8175 245.351 96.1491 245.351C105.481 245.351 106.784 239.641 107.338 239.48C107.538 239.422 109.589 240.062 112.229 241.093L112.217 241.214C105.547 252.415 87.2046 253.795 77.3998 240.981L77.1777 240.685L78.2718 240.345C80.2744 239.737 81.7075 239.371 82.0972 239.322L82.1719 239.316Z" fill="#FF9B86"/>
<path id="Path_26" fill-rule="evenodd" clip-rule="evenodd" d="M56.6885 257.246L57.5107 257.36C66.2329 258.608 71.3484 260.582 72.8572 263.282C73.8472 265.054 73.3869 271.046 71.4763 281.259L71.2735 282.33C69.5015 291.588 71.5276 301.164 76.877 308.89L77.1776 309.317C78.9867 311.848 80.6545 315.181 82.1809 319.315C85.7216 328.905 78.1902 336.985 82.9601 351.251L81.9863 351.18C73.1197 350.501 65.9488 349.17 63.9571 347.76C58.219 343.699 60.3325 325.408 62.5464 312.123C64.9282 297.831 57.9172 269.705 56.6885 257.246Z" fill="black" fill-opacity="0.0667614"/>
</g>
<g id="Rarm">
<g id="Group 2">
<path id="Path_27" fill-rule="evenodd" clip-rule="evenodd" d="M66.8808 328.605C66.8808 328.605 70.2286 332.555 73.0859 333.046C75.9433 333.537 87.9012 335.876 88.6311 336.223C89.3209 336.55 91.68 337.792 93.6974 339.785C95.4452 341.511 98.4689 345.605 97.4551 346.309C96.3714 347.063 93.4455 343.37 91.9774 342.458C90.4381 341.5 88.0724 340.653 88.0724 340.653C88.0724 340.653 93.9242 347.712 93.5521 348.945C93.2805 349.846 88.3045 351.383 87.2404 351.267C86.1764 351.152 80.3132 346.859 77.6779 346.36C75.85 346.014 67.6664 343.797 65.9404 342.132C64.215 340.467 60.333 337.088 60.333 337.088L66.8808 328.605Z" fill="url(#paint5_linear_12534_23731)"/>
<path id="Path_28" fill-rule="evenodd" clip-rule="evenodd" d="M92.4237 349.762C92.4237 349.762 86.2999 343.592 86.0444 343.697C85.7888 343.802 91.3804 350.192 91.3804 350.192L92.4237 349.762Z" fill="#F28585"/>
<path id="Path_29" fill-rule="evenodd" clip-rule="evenodd" d="M89.6944 350.775C89.6944 350.775 85.107 346.572 84.8072 346.775C84.5073 346.977 88.4814 351.118 88.4814 351.118L89.6944 350.775Z" fill="#F28585"/>
</g>
<path id="Path_30" fill-rule="evenodd" clip-rule="evenodd" d="M70.209 246.344C79.6645 252.997 73.3474 265.091 65.5027 276.185C58.1747 286.548 47.0679 302.157 47.0679 302.157C47.0679 302.157 67.9526 325.033 69.97 329.265C71.9873 333.498 66.8356 341.447 60.4311 339.276C54.0259 337.106 17.5776 310.106 24.9896 297.347C36.3106 277.858 59.0404 238.485 70.209 246.344Z" fill="#F3378A"/>
<path id="Path 6" fill-rule="evenodd" clip-rule="evenodd" d="M47.068 302.159C47.068 302.159 42.7822 297.625 43.1826 297.1C43.5831 296.576 48.4132 300.282 48.4132 300.282L47.068 302.159Z" fill="black" fill-opacity="0.159856"/>
</g>
</g>
<g id="Group 7">
<path id="Rectangle_22" fill-rule="evenodd" clip-rule="evenodd" d="M390.956 492.783C390.956 479.467 401.751 468.672 415.067 468.672L496.198 468.672V551.132C496.198 553.341 494.407 555.132 492.198 555.132H394.956C392.747 555.132 390.956 553.341 390.956 551.132L390.956 492.783Z" fill="#368AC8"/>
<path id="Rectangle_23" fill-rule="evenodd" clip-rule="evenodd" d="M400.465 538.066L477.244 538.066V555.133H400.465V538.066Z" fill="#368AC8"/>
<path id="Path_31" fill-rule="evenodd" clip-rule="evenodd" d="M498.245 554.516L503.088 566.646H479.675L483.732 554.516H498.245Z" fill="#368AC8"/>
<path id="Path_32" fill-rule="evenodd" clip-rule="evenodd" d="M418.473 554.516L423.317 566.646H399.903L403.961 554.516H418.473Z" fill="#E1EFFF"/>
<path id="Path_33" fill-rule="evenodd" clip-rule="evenodd" d="M577.018 554.516L581.862 566.646H558.448L562.506 554.516H577.018Z" fill="#368AC8"/>
<path id="Rectangle_24" fill-rule="evenodd" clip-rule="evenodd" d="M450.796 403.494C450.796 390.381 461.275 379.673 474.384 379.388L496.796 378.902V476.83H450.796L450.796 403.494Z" fill="#E1EFFF"/>
<path id="Rectangle_25" fill-rule="evenodd" clip-rule="evenodd" d="M459.77 403.014C459.77 389.697 470.565 378.902 483.881 378.902H560.112C572.174 378.902 581.952 388.68 581.952 400.742V477.078C581.952 478.043 581.169 478.825 580.205 478.825H459.77L459.77 403.014Z" fill="#E1EFFF"/>
<path id="Rectangle_26" fill-rule="evenodd" clip-rule="evenodd" d="M547.805 396.82C547.805 386.924 555.827 378.902 565.722 378.902C574.685 378.902 581.952 386.169 581.952 395.132V467.101C581.952 468.066 581.169 468.848 580.205 468.848H547.805V396.82Z" fill="#368AC8"/>
<path id="Rectangle_27" fill-rule="evenodd" clip-rule="evenodd" d="M400.465 490.475C400.465 483.516 406.106 477.875 413.065 477.875H491.345V543.628H400.465V490.475Z" fill="#E1EFFF"/>
<g id="Wom1.4">
<g id="Head_2">
<path id="Path_34" fill-rule="evenodd" clip-rule="evenodd" d="M494.783 370.395C506.981 367.553 507.784 350.8 498.51 344.989C508.075 324.929 485.957 305.013 470.807 317.296C460.875 313.042 452.622 329.641 461.864 342.532C457.989 364.667 465.875 370.389 480.091 370.632L494.783 370.395Z" fill="#422851"/>
<path id="Path_35" fill-rule="evenodd" clip-rule="evenodd" d="M494.631 366.395C494.631 366.395 488.698 365.001 488.492 355.273C488.286 345.545 488.43 342.224 488.43 342.224L475.36 341.988C475.36 341.988 475.217 352.83 475.215 356.752C475.21 367.284 467.875 366.395 467.875 366.395C467.875 366.395 469.4 374.935 481.243 375.602C490.49 376.123 494.631 366.395 494.631 366.395Z" fill="url(#paint6_linear_12534_23731)"/>
<path id="Path_36" fill-rule="evenodd" clip-rule="evenodd" d="M491.477 337.365C497.308 337.139 496.357 345.679 490.3 345.668C490.3 345.668 486.782 357.8 474.568 357.8C464.648 357.8 464.003 343.66 463.913 340.839C463.816 337.831 463.804 327.95 463.804 327.95L491.704 327.938L491.477 337.365Z" fill="url(#paint7_linear_12534_23731)"/>
<path id="Path_37" d="M476.922 349.648C476.922 349.648 474.013 352.113 470.644 349.805" stroke="#F77B7B" stroke-width="1.5" stroke-linecap="round"/>
<path id="Path_38" d="M475.002 352.504C474.097 352.922 473.225 352.953 472.447 352.536" stroke="#F49494" stroke-linecap="round"/>
<path id="Path 8_2" d="M490.883 341.958C490.823 340.588 491.24 339.5 492.637 339.281" stroke="#F77B7B" stroke-linecap="round"/>
<path id="Path_39" fill-rule="evenodd" clip-rule="evenodd" d="M492.399 336.31C492.399 336.31 489.204 340.601 488.556 340.624C487.909 340.647 487.682 335.044 487.682 335.044C483.762 334.744 473.84 332.767 471.408 328.162C469.707 332.225 466.456 334.03 464.32 333.684L463.915 342.316L462.918 324.961H493.181L492.399 336.31Z" fill="#422851"/>
</g>
<g id="LLeg_2">
<path id="Path_40" fill-rule="evenodd" clip-rule="evenodd" d="M434.912 537.948C434.912 537.948 440.143 548.518 435.854 551.849C431.56 555.181 420.216 561.424 420.216 561.424L450.27 559.535L443.589 536.48L434.912 537.948Z" fill="url(#paint8_linear_12534_23731)"/>
<path id="Path_41" fill-rule="evenodd" clip-rule="evenodd" d="M447.362 548.006C445.879 548.18 447.463 553.176 444.252 553.556C441.047 553.935 439.49 549.202 435.853 550.703C432.216 552.203 418.952 559.962 418.43 563.133C417.901 566.304 422.843 567.237 429.62 566.521C436.397 565.805 437.646 563.393 442.734 564.364C447.815 565.335 451.622 563.788 451.454 560.073C451.286 556.358 448.846 547.834 447.362 548.006Z" fill="#222D4E"/>
<path id="Path 14" fill-rule="evenodd" clip-rule="evenodd" d="M434.194 551.473L434.854 552.463C435.178 552.948 435.019 553.606 434.509 553.891L425.544 558.897C425.253 559.059 424.901 559.066 424.604 558.915L423.212 558.209C425.398 556.625 427.185 555.435 429.16 554.266C430.677 553.369 432.356 552.444 434.194 551.473Z" fill="white" fill-opacity="0.540975"/>
<path id="Path_42" fill-rule="evenodd" clip-rule="evenodd" d="M480.184 444.78C471.086 445.187 420.446 456.393 411.245 458.297C402.045 460.201 394.267 470.503 401.282 482.433C409.162 495.824 429.494 533.855 434.43 542.428C436.873 546.671 449.199 544.292 446.304 537.17C440.906 523.893 438.4 490.54 424.639 478.379C424.639 478.379 470.916 486.438 490.906 477.207C505.434 470.497 502.147 443.798 480.184 444.78Z" fill="url(#paint9_linear_12534_23731)"/>
</g>
<g id="LArm_2">
<path id="Path_43" fill-rule="evenodd" clip-rule="evenodd" d="M415.717 390.946C415.717 390.946 415.82 383.539 413.23 379.668C410.641 375.797 410.538 371.685 408.578 371.82C406.618 371.954 408.559 381.512 408.559 381.512C408.559 381.512 406.072 380.561 404.286 379.359C402.499 378.156 397.082 372.229 395.816 373.28C393.67 375.069 397.127 385.164 399.01 387.183C400.899 389.202 411.219 395.84 411.219 395.84L415.717 390.946Z" fill="url(#paint10_linear_12534_23731)"/>
<path id="Path_44" fill-rule="evenodd" clip-rule="evenodd" d="M471.631 386.507C467.398 396.329 459.649 414.373 456.454 419.756C452.45 426.497 446.137 429.467 438.744 424.466C430.977 419.21 409.59 398.71 408.963 394.067C408.341 389.423 413.576 383.852 418.313 386.736C423.049 389.621 442.731 406.009 442.731 406.009C442.731 406.009 450.674 385.636 457.063 373.835C462.597 363.625 478.073 371.576 471.631 386.507Z" fill="#F9F9F9"/>
<path id="Path_45" fill-rule="evenodd" clip-rule="evenodd" d="M442.648 406.021C442.648 406.021 440.515 413.261 440.016 412.842C439.518 412.423 440.397 404.129 440.397 404.129L442.648 406.021Z" fill="black" fill-opacity="0.302803"/>
</g>
<g id="PhoneMini4">
<g id="Group 3_3">
<path id="Rectangle_28" d="M388.708 372.329C388.299 371.069 388.989 369.715 390.249 369.305L401.616 365.612C402.877 365.202 404.231 365.892 404.64 367.153L413.516 394.469C413.926 395.73 413.236 397.084 411.975 397.493L400.608 401.187C399.348 401.596 397.994 400.906 397.584 399.646L388.708 372.329Z" fill="#7596FF"/>
<rect id="Rectangle_29" x="389.031" y="369.238" width="16.7519" height="33.522" rx="2.4" transform="rotate(-18 389.031 369.238)" fill="#93C2F9"/>
<path id="Rectangle_30" d="M392.249 369.452L393.457 369.059C393.703 368.979 393.966 369.09 394.084 369.31L394.121 369.398C394.211 369.675 394.509 369.827 394.786 369.737L400.612 367.843C400.858 367.763 401.005 367.519 400.972 367.272L400.951 367.179C400.861 366.902 401.012 366.604 401.289 366.514L402.491 366.124C403.384 365.833 404.34 366.284 404.696 367.136L404.747 367.275L413.148 393.208C413.513 394.34 412.894 395.555 411.764 395.924L402.205 399.03C401.123 399.383 399.964 398.832 399.544 397.793L399.491 397.648C399.491 397.647 399.491 397.647 399.492 397.645L391.093 371.718C390.787 370.773 391.304 369.758 392.249 369.452Z" fill="#E6F3FF"/>
</g>
</g>
<g id="Body_2">
<path id="Path_46" fill-rule="evenodd" clip-rule="evenodd" d="M513.929 374.675C513.929 374.675 503.729 408.846 503.427 415.314C503.125 421.783 511.769 440.795 510.298 445.6C506.904 456.705 463.581 461.486 461.926 446.548C461.154 439.581 462.76 433.329 460.909 425.12C459.065 416.911 451.65 404.712 455.856 393.243C460.061 381.774 458.934 371.164 461.942 369.158C464.95 367.153 471.981 365.023 471.981 365.023C475.4 370.057 486.942 369.984 492.45 364.668C492.45 364.668 506.133 367.324 513.929 374.675Z" fill="white"/>
<path id="Path_47" fill-rule="evenodd" clip-rule="evenodd" d="M504.789 380.21C497.99 391.006 498.011 409.801 494.359 412.263C490.708 414.724 476.496 412.309 476.496 414.258C476.496 416.207 496.136 434.073 492.912 442.613C491.223 447.085 491.681 451.086 494.285 454.615L495.135 454.43C502.874 452.68 509.095 449.538 510.298 445.601C511.769 440.796 502.128 421.784 502.43 415.315C502.687 409.824 510.793 384.372 513.238 376.804C511.248 373.291 508.432 374.426 504.789 380.21Z" fill="black" fill-opacity="0.199355"/>
</g>
<g id="RArm">
<path id="Path_48" fill-rule="evenodd" clip-rule="evenodd" d="M493.195 408.849C493.195 408.849 484.604 401.241 481.975 400.358C479.345 399.475 463.942 398.415 464.04 400.41C464.15 402.547 472.423 402.424 473.28 403.475C474.137 404.526 474.332 411.713 477.572 412.52C480.806 413.327 490.501 414.717 490.501 414.717L493.195 408.849Z" fill="url(#paint11_linear_12534_23731)"/>
<path id="Path_49" fill-rule="evenodd" clip-rule="evenodd" d="M516.051 376.637C525.102 389.418 532.829 408.886 535.795 416.476C538.762 424.067 535.769 435.515 522.726 433.268C509.707 431.026 488.991 418.845 486.699 415.292C484.407 411.739 487.889 405.274 492.274 406.12C496.336 406.903 516.487 415.476 516.487 415.476C516.487 415.476 503.523 392.485 500.358 386.322C495.07 376.029 508.078 365.375 516.051 376.637Z" fill="#F9F9F9"/>
<path id="Path_50" fill-rule="evenodd" clip-rule="evenodd" d="M516.282 415.319C516.282 415.319 523.072 418.695 522.243 417.279C521.415 415.864 513.691 410.891 513.691 410.891L516.282 415.319Z" fill="black" fill-opacity="0.302803"/>
</g>
<g id="RLeg_2">
<path id="Path_51" fill-rule="evenodd" clip-rule="evenodd" d="M403.309 538.371C403.309 538.371 403.467 550.813 393.22 555.464C382.98 560.116 375.685 559.836 376.613 563.432C377.542 567.027 404.195 566.882 406.684 564.07C408.806 561.677 413.419 539.4 414.689 541.103L403.309 538.371Z" fill="url(#paint12_linear_12534_23731)"/>
<path id="Path_52" fill-rule="evenodd" clip-rule="evenodd" d="M411.416 552.299C410.271 550.087 410.199 556.31 405.686 554.938C402.024 553.825 400.772 547.456 398.457 548.851C396.143 550.246 375.77 561.062 375.654 561.128C373.146 562.479 373.847 566.575 378.083 567.29C382.791 568.083 407.182 567.549 408.491 566.293C409.8 565.038 412.333 554.073 411.416 552.299Z" fill="#222D4E"/>
<path id="Path 14_2" fill-rule="evenodd" clip-rule="evenodd" d="M395.444 552.57C395.842 552.57 396.222 553.07 396.496 553.551C396.764 554.021 396.515 554.591 396.015 554.796L385.503 559.127C385.163 559.267 384.766 559.214 384.523 558.939C384.299 558.686 384.092 558.372 384.195 558.157C384.393 557.742 394.676 552.57 395.444 552.57Z" fill="white" fill-opacity="0.540975"/>
<path id="Path_53" fill-rule="evenodd" clip-rule="evenodd" d="M509.69 440.934C509.69 440.934 522.918 468.884 504.329 478.482C486.352 487.763 432.534 476.786 432.534 476.786C432.534 476.786 433.496 484.532 432.534 491.441C430.022 509.487 418.077 539.551 415.55 543.328C412.055 548.552 401.409 544.612 401.208 540.263C401.008 535.913 409.234 480.358 410.485 469.765C411.729 459.17 415.658 457.631 427.134 454.735C429.771 454.07 460.948 446.318 463.804 446.544C488.345 448.485 509.69 440.934 509.69 440.934Z" fill="#2C3757"/>
<path id="Path_54" opacity="0.461565" fill-rule="evenodd" clip-rule="evenodd" d="M495.19 475.598C477.392 477.594 430.272 473.481 428.38 475.35C426.573 477.134 426.875 508.177 422.822 526.145L423.438 524.448C427.25 513.856 431.208 500.973 432.534 491.443C433.496 484.534 432.534 476.787 432.534 476.787L434.704 477.207C444.934 479.13 488.509 486.651 504.329 478.483C512.9 474.057 516.398 466.705 514.822 456.426C512.108 468.044 505.564 474.435 495.19 475.598Z" fill="white" fill-opacity="0.192499"/>
</g>
</g>
<path id="Rectangle_31" fill-rule="evenodd" clip-rule="evenodd" d="M476.71 492.783C476.71 479.467 487.505 468.672 500.821 468.672L581.952 468.672V553.385C581.952 554.349 581.17 555.132 580.205 555.132H476.71L476.71 492.783Z" fill="#368AC8"/>
</g>
<g id="Group 80">
<path id="Rectangle_32" d="M595 508H603C610.732 508 617 514.268 617 522H609C601.268 522 595 515.732 595 508Z" fill="#368AC8"/>
<path id="Rectangle_33" d="M605 500H611C614.866 500 618 503.134 618 507H612C608.134 507 605 503.866 605 500Z" fill="#9370E8"/>
<path id="Rectangle_34" d="M636 507H629C622.373 507 617 512.373 617 519H624C630.627 519 636 513.627 636 507Z" fill="#9370E8"/>
<path id="Rectangle_35" fill-rule="evenodd" clip-rule="evenodd" d="M627.408 494.211L621.714 496.523C617.268 498.328 615.12 503.388 616.91 507.84L622.605 505.528C627.05 503.723 629.198 498.662 627.408 494.211V494.211Z" fill="#368AC8"/>
<path id="Path_55" fill-rule="evenodd" clip-rule="evenodd" d="M612.765 493C615.893 494.983 617.877 498.756 617.994 502.897L618 503.286V533H616.395V503.286C616.395 499.802 614.819 496.589 612.267 494.828L612 494.651L612.765 493Z" fill="#9370E8"/>
<g id="Group 84">
<path id="Rectangle_36" fill-rule="evenodd" clip-rule="evenodd" d="M605.059 523H630.005C631.17 523 632.115 523.925 632.115 525.067V525.126C632.115 526.388 632.728 527.574 633.767 528.322L634.413 528.788C635.451 529.535 636.065 530.722 636.065 531.984V562.872C636.065 565.063 634.251 566.839 632.014 566.839H603.051C600.814 566.839 599 565.063 599 562.872V531.984C599 530.722 599.613 529.535 600.651 528.788L601.298 528.322C602.267 527.624 602.866 526.544 602.941 525.377L602.95 525.067C602.95 523.925 603.894 523 605.059 523Z" fill="#F72A85"/>
<mask id="mask2_12534_23731" style="mask-type:alpha" maskUnits="userSpaceOnUse" x="599" y="523" width="38" height="44">
<path id="Rectangle_37" fill-rule="evenodd" clip-rule="evenodd" d="M605.059 523H630.005C631.17 523 632.115 523.925 632.115 525.067V525.126C632.115 526.388 632.728 527.574 633.767 528.322L634.413 528.788C635.451 529.535 636.065 530.722 636.065 531.984V562.872C636.065 565.063 634.251 566.839 632.014 566.839H603.051C600.814 566.839 599 565.063 599 562.872V531.984C599 530.722 599.613 529.535 600.651 528.788L601.298 528.322C602.267 527.624 602.866 526.544 602.941 525.377L602.95 525.067C602.95 523.925 603.894 523 605.059 523Z" fill="white"/>
</mask>
<g mask="url(#mask2_12534_23731)">
<path id="Rectangle_38" fill-rule="evenodd" clip-rule="evenodd" d="M597.987 521.016H608.114C603.645 538.063 614.53 552.2 608.114 569.616H597.987V521.016Z" fill="#D51C6E"/>
<rect id="Rectangle_39" x="599" y="549.781" width="37.0645" height="3.96734" fill="#FFDFE2" fill-opacity="0.257949"/>
<rect id="Rectangle_40" x="599" y="538.871" width="37.0645" height="3.96734" fill="#FFDFE2" fill-opacity="0.257949"/>
</g>
</g>
<path id="Rectangle_41" fill-rule="evenodd" clip-rule="evenodd" d="M607.371 488.914L612.087 490.273C616.039 491.412 618.324 495.534 617.196 499.489L612.479 498.13C608.527 496.991 606.242 492.869 607.371 488.914V488.914Z" fill="#368AC8"/>
</g>
</g>
</g>
<defs>
<filter id="filter0_f_12534_23731" x="0.563437" y="153.778" width="241.935" height="243.658" filterUnits="userSpaceOnUse" color-interpolation-filters="sRGB">
<feFlood flood-opacity="0" result="BackgroundImageFix"/>
<feBlend mode="normal" in="SourceGraphic" in2="BackgroundImageFix" result="shape"/>
<feGaussianBlur stdDeviation="2.71828" result="effect1_foregroundBlur_12534_23731"/>
</filter>
<filter id="filter1_dd_12534_23731" x="173.229" y="335.512" width="248.702" height="176.77" filterUnits="userSpaceOnUse" color-interpolation-filters="sRGB">
<feFlood flood-opacity="0" result="BackgroundImageFix"/>
<feColorMatrix in="SourceAlpha" type="matrix" values="0 0 0 0 0 0 0 0 0 0 0 0 0 0 0 0 0 0 127 0" result="hardAlpha"/>
<feOffset dx="5" dy="5"/>
<feGaussianBlur stdDeviation="10"/>
<feColorMatrix type="matrix" values="0 0 0 0 0.0755213 0 0 0 0 0.582569 0 0 0 0 0.878793 0 0 0 0.229458 0"/>
<feBlend mode="normal" in2="BackgroundImageFix" result="effect1_dropShadow_12534_23731"/>
<feColorMatrix in="SourceAlpha" type="matrix" values="0 0 0 0 0 0 0 0 0 0 0 0 0 0 0 0 0 0 127 0" result="hardAlpha"/>
<feOffset dy="1"/>
<feGaussianBlur stdDeviation="5.5"/>
<feColorMatrix type="matrix" values="0 0 0 0 0.503982 0 0 0 0 0.700178 0 0 0 0 1 0 0 0 0.233829 0"/>
<feBlend mode="normal" in2="effect1_dropShadow_12534_23731" result="effect2_dropShadow_12534_23731"/>
<feBlend mode="normal" in="SourceGraphic" in2="effect2_dropShadow_12534_23731" result="shape"/>
</filter>
<filter id="filter2_d_12534_23731" x="177.964" y="196.352" width="244.004" height="154.82" filterUnits="userSpaceOnUse" color-interpolation-filters="sRGB">
<feFlood flood-opacity="0" result="BackgroundImageFix"/>
<feColorMatrix in="SourceAlpha" type="matrix" values="0 0 0 0 0 0 0 0 0 0 0 0 0 0 0 0 0 0 127 0" result="hardAlpha"/>
<feOffset dx="6" dy="4"/>
<feGaussianBlur stdDeviation="7"/>
<feColorMatrix type="matrix" values="0 0 0 0 0.0189934 0 0 0 0 0.0189934 0 0 0 0 0.0189934 0 0 0 0.11 0"/>
<feBlend mode="normal" in2="BackgroundImageFix" result="effect1_dropShadow_12534_23731"/>
<feBlend mode="normal" in="SourceGraphic" in2="effect1_dropShadow_12534_23731" result="shape"/>
</filter>
<linearGradient id="paint0_linear_12534_23731" x1="121.964" y1="535.91" x2="123.277" y2="565.381" gradientUnits="userSpaceOnUse">
<stop stop-color="#FDC6C6"/>
<stop offset="1" stop-color="#FAB2B2"/>
</linearGradient>
<linearGradient id="paint1_linear_12534_23731" x1="53.7233" y1="538.514" x2="56.1143" y2="564.584" gradientUnits="userSpaceOnUse">
<stop stop-color="#FDC6C6"/>
<stop offset="1" stop-color="#FAB2B2"/>
</linearGradient>
<linearGradient id="paint2_linear_12534_23731" x1="72.0345" y1="210.659" x2="82.8035" y2="260.316" gradientUnits="userSpaceOnUse">
<stop stop-color="#FFAFAF"/>
<stop offset="1" stop-color="#F07777"/>
</linearGradient>
<linearGradient id="paint3_linear_12534_23731" x1="74.7409" y1="201.185" x2="81.6557" y2="234.796" gradientUnits="userSpaceOnUse">
<stop stop-color="#FDC6C6"/>
<stop offset="1" stop-color="#FAB2B2"/>
</linearGradient>
<linearGradient id="paint4_linear_12534_23731" x1="180.59" y1="240.178" x2="180.945" y2="275.551" gradientUnits="userSpaceOnUse">
<stop stop-color="#FDC6C6"/>
<stop offset="1" stop-color="#FAB2B2"/>
</linearGradient>
<linearGradient id="paint5_linear_12534_23731" x1="53.8743" y1="323.087" x2="54.9351" y2="350.187" gradientUnits="userSpaceOnUse">
<stop stop-color="#FDC6C6"/>
<stop offset="1" stop-color="#FAB2B2"/>
</linearGradient>
<linearGradient id="paint6_linear_12534_23731" x1="503.341" y1="336.994" x2="492.261" y2="386.472" gradientUnits="userSpaceOnUse">
<stop stop-color="#FFAFAF"/>
<stop offset="1" stop-color="#F07777"/>
</linearGradient>
<linearGradient id="paint7_linear_12534_23731" x1="502.48" y1="327.599" x2="495.832" y2="360.118" gradientUnits="userSpaceOnUse">
<stop stop-color="#FDC6C6"/>
<stop offset="1" stop-color="#FAB2B2"/>
</linearGradient>
<linearGradient id="paint8_linear_12534_23731" x1="455.47" y1="530.408" x2="453.877" y2="560.189" gradientUnits="userSpaceOnUse">
<stop stop-color="#FDC6C6"/>
<stop offset="1" stop-color="#FAB2B2"/>
</linearGradient>
<linearGradient id="paint9_linear_12534_23731" x1="424.399" y1="568.759" x2="376.325" y2="476.482" gradientUnits="userSpaceOnUse">
<stop stop-color="#28324F"/>
<stop offset="1" stop-color="#222735"/>
</linearGradient>
<linearGradient id="paint10_linear_12534_23731" x1="419.279" y1="365.968" x2="417.127" y2="394.571" gradientUnits="userSpaceOnUse">
<stop stop-color="#FDC6C6"/>
<stop offset="1" stop-color="#FAB2B2"/>
</linearGradient>
<linearGradient id="paint11_linear_12534_23731" x1="498.24" y1="395.514" x2="497.61" y2="413.984" gradientUnits="userSpaceOnUse">
<stop stop-color="#FDC6C6"/>
<stop offset="1" stop-color="#FAB2B2"/>
</linearGradient>
<linearGradient id="paint12_linear_12534_23731" x1="421.292" y1="531.607" x2="419.734" y2="564.803" gradientUnits="userSpaceOnUse">
<stop stop-color="#FDC6C6"/>
<stop offset="1" stop-color="#FAB2B2"/>
</linearGradient>
</defs>
</svg>
