<svg width="189" height="200" viewBox="0 0 189 200" fill="none" xmlns="http://www.w3.org/2000/svg">
<path fill-rule="evenodd" clip-rule="evenodd" d="M7.4396 176.85V188.77C7.42031 189.605 7.47949 190.096 7.61714 190.244C7.75479 190.391 8.24543 190.449 9.08907 190.419H23.7655C24.6773 190.437 25.1844 190.379 25.2868 190.244C25.3892 190.108 25.4319 189.617 25.415 188.77V174.507C25.4316 174.321 25.416 174.206 25.3683 174.161C25.3206 174.116 25.1974 174.1 24.9987 174.114H7.69853C7.57517 174.114 7.49801 174.13 7.46705 174.161C7.43608 174.192 7.42693 174.263 7.4396 174.373V176.85Z" fill="#215175"/>
<path fill-rule="evenodd" clip-rule="evenodd" d="M23.5497 174.108C23.7701 173.488 23.966 173.034 24.1375 172.746C24.309 172.458 24.5513 172.177 24.8645 171.902C25.2645 171.487 25.5509 171.054 25.7236 170.605C25.8963 170.155 26.0563 169.424 26.2038 168.413C26.0511 166.767 26.0511 165.644 26.2038 165.043C26.3565 164.443 26.8035 163.809 27.5447 163.142C28.2145 162.909 28.7787 162.792 29.2375 162.792C29.6963 162.792 30.362 162.86 31.2347 162.996C32.1207 162.911 32.6663 162.622 32.8716 162.129C33.0768 161.636 33.1615 160.875 33.1257 159.848C32.5597 158.378 32.2448 157.255 32.1812 156.476C32.1176 155.698 32.2769 154.662 32.6591 153.368C33.351 152.412 33.7687 151.704 33.9125 151.244C34.0562 150.784 34.127 150.083 34.1251 149.142C34.1553 148.61 34.0845 148.283 33.9125 148.163C33.7404 148.043 33.3935 148.078 32.8717 148.268C31.0018 148.951 29.5184 149.784 28.4214 150.765C27.3244 151.746 26.0013 153.348 24.4521 155.57C24.0942 156.053 23.7551 156.587 23.435 157.172C23.1148 157.758 22.7538 158.598 22.3519 159.692C22.1848 160.29 22.1013 160.73 22.1013 161.013C22.1013 161.438 22.6358 163.242 22.257 163.142C22.0044 163.075 21.7512 162.958 21.4972 162.792C20.9769 162.368 20.6322 161.935 20.4631 161.492C20.294 161.049 20.2442 160.449 20.3138 159.692C20.4469 158.819 20.5835 158.164 20.7234 157.728C20.8634 157.293 21.1213 156.719 21.4972 156.007C22.1686 155.176 22.5766 154.547 22.7212 154.12C22.8659 153.694 22.8659 153.119 22.7212 152.397C21.6469 151.247 20.8942 150.278 20.4631 149.488C20.032 148.698 19.5499 147.404 19.0166 145.608L17.9296 140.237C17.7898 139.868 17.6094 139.684 17.3886 139.684C17.1677 139.684 16.9446 139.919 16.7192 140.39C16.1009 141.934 15.6401 143.143 15.3366 144.016C15.0331 144.889 14.6768 146.132 14.2675 147.746C13.9302 149.938 13.5625 151.488 13.1644 152.397C12.7662 153.306 12.1022 154.136 11.1723 154.885C10.4447 155.368 10.01 155.847 9.86807 156.321C9.72618 156.795 9.78986 157.557 10.0591 158.606C10.6849 159.561 11.0559 160.281 11.1723 160.766C11.2887 161.251 11.2401 161.794 11.0265 162.393C10.9522 162.6 10.8493 162.733 10.7178 162.792C10.5862 162.851 10.4288 162.804 10.2455 162.65C9.67959 162.066 9.28269 161.587 9.05476 161.214C8.82684 160.841 8.64464 160.221 8.50818 159.355C8.43528 158.323 8.31526 157.548 8.1481 157.032C7.98094 156.515 7.62778 155.876 7.08863 155.113C5.8516 153.724 4.84055 152.646 4.0555 151.878C3.27044 151.11 2.44147 150.389 1.56858 149.714C1.0687 149.412 0.660084 149.336 0.342727 149.488C0.0253698 149.639 -0.0715884 150.005 0.0518524 150.586L1.24167 153.703C1.40553 154.394 1.5145 154.901 1.56858 155.224C1.62266 155.546 1.62266 155.964 1.56858 156.476C0.899984 157.337 0.459996 158.084 0.248615 158.716C0.0372329 159.348 -0.0283545 160.114 0.0518524 161.013C0.359143 161.998 0.656514 162.707 0.943965 163.142C1.23142 163.576 1.69636 164.019 2.33879 164.469C3.32433 165.132 4.01908 165.673 4.42303 166.093C4.82698 166.512 5.29284 167.176 5.82061 168.085C6.01656 169.128 6.27579 169.923 6.59828 170.471C6.92078 171.019 7.5019 171.65 8.34166 172.366C8.63057 172.703 8.82442 172.977 8.92323 173.186C9.02203 173.394 9.10292 173.702 9.1659 174.108H23.5497Z" fill="url(#paint0_linear_11785_18248)"/>
<path d="M11.951 169.35C11.2019 167.988 10.568 167.041 10.0492 166.509C9.53044 165.976 8.6587 165.379 7.43399 164.716C6.32691 163.617 5.60099 162.689 5.25625 161.933C4.91151 161.176 4.71601 159.977 4.66976 158.336C4.64503 157.505 4.55333 156.776 4.39465 156.147C4.23597 155.519 3.74627 154.575 2.92554 153.316" stroke="#235A83" stroke-width="0.5"/>
<path d="M17.3587 169.371C17.6049 168.488 17.6845 167.636 17.5975 166.815C17.5104 165.994 17.2205 165.171 16.7276 164.344C15.7839 163.006 15.2914 161.937 15.25 161.137C15.2087 160.337 15.6013 159.47 16.4278 158.538C17.503 157.051 18.0931 155.917 18.1979 155.137C18.3027 154.357 18.023 153.18 17.3587 151.607C16.773 150.428 16.4627 149.462 16.4278 148.71C16.3928 147.958 16.6055 146.825 17.066 145.312" stroke="#235A83" stroke-width="0.5"/>
<path d="M22.885 169.349C23.2564 166.649 23.697 164.657 24.2071 163.373C24.7172 162.089 25.6433 160.64 26.9857 159.026C28.3339 157.792 29.2409 156.82 29.7065 156.11C30.1721 155.401 30.6452 154.269 31.1256 152.715" stroke="#235A83" stroke-width="0.5"/>
<path fill-rule="evenodd" clip-rule="evenodd" d="M181.211 123.735C178.048 126.317 173.683 131.045 169.682 137.697C167.018 142.126 165.412 146.768 164.706 152.901C164.721 145.959 164.743 138.501 164.767 131.461C165.571 129.65 167.406 125.475 168.722 122.177C173.115 111.171 174.751 108.464 178.703 98.9712C183.972 86.3102 189.372 71.2856 187.827 72.4864C184.675 74.9325 172.602 97.5417 171.297 100.778C166.807 111.91 165.557 120.024 164.78 127.855C164.805 121.244 164.83 115.172 164.855 110.488C164.935 95.2103 165.196 90.2794 165.322 88.7587C165.811 87.986 166.389 87.0853 166.724 86.5999C169.56 82.4991 170.654 79.0056 173.326 72.889C177.113 64.2219 180.375 48.834 179.421 49.6103C175.451 52.8418 172.32 59.7891 168.206 68.6421C164.091 77.4951 165.267 82.5866 164.451 90.1472C164.28 91.6316 164.149 97.2302 164.054 104.991C162.987 96.7231 160.985 91.2749 157.333 86.324C152.839 80.2347 148.494 76.1212 145.305 73.9726C142.116 71.8247 150.811 86.7828 154.97 93.3117C158.673 99.1258 162.084 104.257 164.006 109.309C163.906 119.827 163.858 133.145 163.857 145.543C162.904 139.9 161.346 133.826 159.268 129.121C156.771 123.468 152.93 114.799 149.872 111.859C149.138 111.152 153.069 128.013 155.593 132.497C158.116 136.98 159.968 141.206 161.557 143.747C161.927 144.341 163.156 146.627 163.858 147.942C163.865 163.077 163.942 176.431 164.074 180.976H164.728C164.683 179.804 164.676 172.105 164.689 161.916C166.264 156.383 169.865 150.07 172.837 144.309C176.08 138.023 184.375 121.152 181.211 123.735Z" fill="url(#paint1_linear_11785_18248)"/>
<path fill-rule="evenodd" clip-rule="evenodd" d="M173.867 190.25H154.946L153.518 171.703H175.296L173.867 190.25Z" fill="#17325A"/>
<path fill-rule="evenodd" clip-rule="evenodd" d="M176.706 173.863H152.108L151.404 167.605H177.411L176.706 173.863Z" fill="#215175"/>
<path fill-rule="evenodd" clip-rule="evenodd" d="M11.1113 77.69H39.2205V46.8242H11.1113V77.69Z" fill="#368AC8"/>
<path fill-rule="evenodd" clip-rule="evenodd" d="M13.2307 77.69H42.2656V46.8242H13.2307V77.69Z" fill="#235A83" fill-opacity="0.5"/>
<path fill-rule="evenodd" clip-rule="evenodd" d="M15.6628 75.2592H39.8328V49.2578H15.6628V75.2592Z" fill="#F0F3F6"/>
<path fill-rule="evenodd" clip-rule="evenodd" d="M21.521 68.9552H33.9743V55.5586H21.521V68.9552Z" fill="url(#paint2_linear_11785_18248)"/>
<path fill-rule="evenodd" clip-rule="evenodd" d="M140.99 42.7317H172.425V8.21484H140.99V42.7317Z" fill="#368AC8"/>
<path fill-rule="evenodd" clip-rule="evenodd" d="M143.361 42.7317H175.829V8.21484H143.361V42.7317Z" fill="#235A83" fill-opacity="0.5"/>
<path fill-rule="evenodd" clip-rule="evenodd" d="M146.081 40.0101H173.11V10.9336H146.081V40.0101Z" fill="#F0F3F6"/>
<path fill-rule="evenodd" clip-rule="evenodd" d="M168.028 25.4713C168.028 30.1282 164.252 33.9036 159.595 33.9036C154.938 33.9036 151.163 30.1282 151.163 25.4713C151.163 20.8145 154.938 17.0391 159.595 17.0391C164.252 17.0391 168.028 20.8145 168.028 25.4713Z" fill="url(#paint3_linear_11785_18248)"/>
<path fill-rule="evenodd" clip-rule="evenodd" d="M49.2065 27.5631H74.3084V0H49.2065V27.5631Z" fill="#368AC8"/>
<path fill-rule="evenodd" clip-rule="evenodd" d="M51.0989 27.5631H77.0272V0H51.0989V27.5631Z" fill="#235A83" fill-opacity="0.5"/>
<path fill-rule="evenodd" clip-rule="evenodd" d="M53.271 25.3908H74.8552V2.17188H53.271V25.3908Z" fill="#F0F3F6"/>
<rect width="188.095" height="200" fill="#F8F8F8" fill-opacity="0.78"/>
<rect x="66.6663" y="49.207" width="72.2222" height="141.27" rx="10" fill="#263139"/>
<rect x="70.6345" y="53.1758" width="64.2857" height="123.81" rx="6" fill="white"/>
<rect x="59.5237" y="34.1289" width="66.6667" height="126.984" rx="6" fill="#368AC8"/>
<rect x="59.5234" y="46.0352" width="66.6667" height="126.984" rx="6" fill="#368AC8"/>
<circle cx="92.8568" cy="63.4955" r="17.4603" fill="#00D7F4"/>
<circle cx="92.8568" cy="63.4967" r="14.2857" fill="#F9F9F9"/>
<path d="M88.8887 58.901C88.8887 61.1809 90.6691 63.0363 92.8569 63.0363C95.0447 63.0363 96.8252 61.1809 96.8252 58.901C96.8252 56.621 95.0447 54.7656 92.8569 54.7656C90.6691 54.7656 88.8887 56.621 88.8887 58.901ZM99.9116 72.2259H100.793V71.307C100.793 67.7607 98.0236 64.8742 94.6206 64.8742H91.0932C87.6894 64.8742 84.9204 67.7607 84.9204 71.307V72.2259H99.9116Z" fill="#368AC8"/>
<rect x="70.0908" y="97.8711" width="44.7381" height="5.84921" rx="0.75" fill="white" stroke="#00D7F4" stroke-width="0.5"/>
<rect x="70.0908" y="108.188" width="44.7381" height="5.84921" rx="0.75" fill="white" stroke="#00D7F4" stroke-width="0.5"/>
<rect x="69.8408" y="122.223" width="45.2381" height="6.34921" rx="1" fill="#00D7F4"/>
<ellipse cx="44.3645" cy="74.096" rx="1.23628" ry="6.14635" transform="rotate(10.0917 44.3645 74.096)" fill="#F6B375"/>
<path fill-rule="evenodd" clip-rule="evenodd" d="M24.4428 119.29L25.3293 113.32C24.1884 111.317 23.4913 110.078 23.2381 109.603C22.9849 109.128 22.6253 108.327 22.1592 107.201C21.8492 106.537 21.6942 106.003 21.6942 105.6C21.6942 105.197 22.0042 104.598 22.6241 103.802C23.5779 102.452 24.2252 101.501 24.5658 100.947C24.9065 100.394 25.161 99.7696 25.3293 99.0747L25.6052 96.7546L22.7535 94.5234L21.164 97.2131C20.476 98.3352 19.9508 99.2332 19.5886 99.9072C19.2263 100.581 18.7596 101.614 18.1883 103.005C17.7029 104.109 17.4602 104.974 17.4602 105.6C17.4602 106.226 17.7029 107.175 18.1883 108.447C18.8351 110.02 19.4181 111.356 19.9373 112.456C20.4565 113.555 21.3953 115.132 22.7535 117.187L24.4428 119.29Z" fill="#F6B375"/>
<path fill-rule="evenodd" clip-rule="evenodd" d="M28.7231 190.442V184.977H33.7204C33.8701 186.359 34.3482 187.395 35.1549 188.085C35.9615 188.775 37.1491 189.324 38.7176 189.732V190.442H28.7231Z" fill="#2D2B5D"/>
<path fill-rule="evenodd" clip-rule="evenodd" d="M44.9883 190.442V184.977H49.9855C50.1352 186.359 50.6134 187.395 51.42 188.085C52.2267 188.775 53.4142 189.324 54.9828 189.732V190.442H44.9883Z" fill="#2D2B5D"/>
<path fill-rule="evenodd" clip-rule="evenodd" d="M29.2151 184.976V182.391H33.2812V184.976" fill="#F9D6B8"/>
<path fill-rule="evenodd" clip-rule="evenodd" d="M45.48 184.976V182.391H49.5461V184.976" fill="#F9D6B8"/>
<path fill-rule="evenodd" clip-rule="evenodd" d="M35.7615 121.203H25.1915C23.9133 123.717 23.2151 125.72 23.0969 127.212C22.9788 128.704 23.0949 130.842 23.4453 133.624C23.8347 134.758 24.2353 136.332 24.6473 138.346C25.0592 140.361 25.8328 143.241 26.968 146.988C27.3847 148.447 27.6392 149.596 27.7317 150.437C27.8241 151.277 27.8241 152.441 27.7317 153.93C27.2226 158.295 26.968 161.555 26.968 163.711C26.968 165.001 27.0592 166.495 27.2415 168.192C27.323 168.952 27.4864 170.182 27.7317 171.885V181.585C27.6946 181.828 27.7609 182.034 27.9306 182.204C28.1004 182.374 28.3024 182.436 28.5369 182.391H33.7205C34.066 182.356 34.2836 182.294 34.3733 182.204C34.463 182.115 34.5138 181.908 34.5258 181.585L34.8855 174.376C35.5387 169.614 35.9769 166.059 36.1999 163.711C36.423 161.363 36.6322 158.103 36.8277 153.93C36.6396 150.392 36.5456 147.786 36.5456 146.113C36.5456 144.44 36.6396 142.252 36.8277 139.55C36.8417 139.26 37.049 139.115 37.4494 139.115C37.8499 139.115 38.0501 139.26 38.0501 139.55C38.5379 141.376 38.9932 142.768 39.416 143.723C39.8389 144.679 40.5735 145.977 41.6199 147.618C42.2226 148.776 42.5863 149.715 42.7109 150.437C42.8355 151.158 42.8355 152.322 42.7109 153.93C42.819 157.761 42.9348 160.825 43.0583 163.121C43.1818 165.416 43.4046 168.1 43.7266 171.172V175.929L44.1446 181.585C44.1404 181.957 44.1835 182.187 44.2739 182.278C44.3642 182.368 44.5895 182.406 44.9498 182.391H49.7696C50.1369 182.404 50.3649 182.366 50.4534 182.278C50.5419 182.189 50.5824 181.958 50.5748 181.585C50.6845 177.41 50.7911 174.309 50.8948 172.284C50.9984 170.259 51.1157 168.984 51.2466 168.46C52.1484 161.069 52.5993 156.033 52.5993 153.352C52.5993 150.671 52.1484 147.92 51.2466 145.101L46.6264 126.166L44.9498 121.203H35.7615Z" fill="#2B365D"/>
<path fill-rule="evenodd" clip-rule="evenodd" d="M24.817 100.37V111.075C24.7724 112.448 24.6949 113.508 24.5843 114.254C24.4737 115 24.3107 115.974 24.0953 117.176C23.9641 117.668 23.8984 118.077 23.8984 118.401C23.8984 118.725 23.9641 119.201 24.0953 119.829C24.2922 120.297 24.4552 120.611 24.5843 120.772C24.7134 120.934 24.916 121.076 25.1919 121.2H44.9502C45.5258 121.124 45.9217 121.018 46.1381 120.882C46.3544 120.747 46.4848 120.497 46.5295 120.133C46.581 119.796 46.6158 119.546 46.634 119.384C46.6612 119.141 46.5499 119.284 46.313 118.239C46.0762 117.194 46.2534 117.834 45.8957 116.125C45.6573 114.986 45.4321 113.303 45.2202 111.075V101.748C45.9502 100.181 46.4809 98.7492 46.8121 97.4511C47.1433 96.1531 47.264 95.0329 47.1741 94.0905C46.925 93.4048 46.5796 92.8495 46.1381 92.4245C45.6965 91.9995 44.874 91.431 43.6706 90.7188L24.5843 91.5505L24.817 100.37Z" fill="#46BAED"/>
<path fill-rule="evenodd" clip-rule="evenodd" d="M57.9841 100.327C58.4754 100.536 58.8371 100.64 59.069 100.64C59.3008 100.64 59.6234 100.536 60.0366 100.327C62.1789 99.0283 63.8417 97.9182 65.0251 96.9967C66.2084 96.0752 67.888 94.5824 70.064 92.5185C71.3867 91.0741 72.3598 89.992 72.9833 89.2724C73.6068 88.5528 74.034 87.9969 74.2647 87.6048C74.6687 87.1046 74.9818 86.7713 75.204 86.6049C75.4263 86.4385 75.7676 86.2818 76.228 86.1349C77.0199 85.7199 77.6079 85.3439 77.992 85.0069C78.376 84.6699 78.8559 84.1089 79.4315 83.3238C79.6867 82.9312 79.8503 82.6242 79.9225 82.4028C79.9946 82.1814 80.0411 81.8761 80.0619 81.4868C80.0928 81.3133 80.0532 81.1805 79.9428 81.0883C79.8325 80.9962 79.7024 80.9872 79.5523 81.0613C79.0907 81.5875 78.7188 81.9532 78.4365 82.1584C78.1543 82.3636 77.721 82.5832 77.1368 82.8173C76.9143 82.9112 76.6884 82.8901 76.4591 82.7538C76.2297 82.6176 76.1527 82.4287 76.228 82.1871L76.3948 81.6861C76.3858 81.5722 76.3177 81.4896 76.1906 81.4382C76.0634 81.3868 75.948 81.4077 75.8444 81.5009C75.4896 81.7832 75.2436 82.012 75.1065 82.1871C74.9695 82.3623 74.8416 82.6112 74.7231 82.9338C74.516 83.6475 74.3229 84.1893 74.1438 84.5592C73.9646 84.9291 73.5778 85.3909 72.9833 85.9446C70.7747 87.5547 68.8368 89.0323 67.1697 90.3775C65.5026 91.7227 63.2649 93.2045 60.4566 94.8227C60.0916 95.0668 59.8549 95.236 59.7464 95.3305C59.5836 95.4722 59.1344 95.7907 58.5705 95.6985C58.1945 95.6371 57.7514 95.3906 57.2411 94.9592C54.3164 92.5891 52.1456 90.7939 50.7286 89.5737C49.3116 88.3535 47.5525 86.9397 45.4514 85.3321L42.2752 82.9338C42.1741 83.1938 42.0434 83.3238 41.8832 83.3238C41.7231 83.3238 41.5503 83.2343 41.3651 83.0553L40.8337 89.0807L43.6703 90.719L47.4883 94.3164C49.4851 95.6642 50.9274 96.5964 51.8152 97.1128C52.703 97.6292 54.7593 98.7007 57.9841 100.327Z" fill="#F6B375"/>
<path fill-rule="evenodd" clip-rule="evenodd" d="M40.1484 61.4426C38.1257 61.2966 36.6457 61.3742 35.7083 61.6755C34.7709 61.9768 33.6902 62.618 32.4661 63.599C31.9093 64.0825 31.4347 64.6097 31.0422 65.1808C30.6498 65.7519 30.2812 66.5232 29.9366 67.4947C29.8686 69.0185 29.6704 70.1859 29.3422 70.997C29.0139 71.8081 28.3909 72.7463 27.4731 73.8113C26.4231 74.4278 25.5386 75.3014 24.8198 76.4322C24.101 77.563 23.579 79.0877 23.2538 81.0062C23.3619 83.0893 23.3619 84.6029 23.2538 85.5471C23.1458 86.4913 22.772 87.55 22.1326 88.7233C20.9334 89.4553 20.1424 90.0417 19.7598 90.4825C19.3772 90.9234 19.0358 91.5119 18.7356 92.248C18.636 92.8876 18.636 93.4222 18.7356 93.8518C18.8351 94.2815 19.0771 94.7909 19.4614 95.3801C20.1576 96.1016 20.7923 96.5914 21.3654 96.8496C21.9386 97.1077 22.7829 97.2841 23.8983 97.3787C24.9196 97.2689 25.6726 97.2689 26.1574 97.3787C26.6422 97.4886 27.2898 97.8061 28.1004 98.3311C29.5093 99.7024 30.527 100.519 31.1535 100.78C31.78 101.041 32.6086 100.995 33.6393 100.641C35.5897 98.893 37.0397 97.6954 37.9893 97.0486C38.9389 96.4017 39.8871 95.9656 40.8339 95.7402C42.0277 94.7948 42.7932 93.9498 43.1303 93.2052C43.4674 92.4607 43.6271 91.2626 43.6092 89.6111C43.5559 88.6378 43.4618 87.9012 43.3269 87.4012C43.192 86.9013 42.9206 86.2833 42.5127 85.5471C42.3579 84.4434 42.3052 83.6452 42.3549 83.1524C42.4045 82.6596 42.5921 82.1182 42.9176 81.5282C43.2445 80.5427 43.4378 79.707 43.4976 79.0212C43.5574 78.3353 43.5005 77.6059 43.3269 76.8328C43.2599 75.6475 43.3168 74.698 43.4976 73.9844C43.6783 73.2708 44.1305 72.2105 44.854 70.8035C45.5419 69.9221 45.9866 69.2021 46.1882 68.6435C46.3897 68.0849 46.4822 67.3159 46.4657 66.3364C46.0035 64.8107 45.3181 63.6959 44.4095 62.992C43.5009 62.2882 42.0805 61.7717 40.1484 61.4426Z" fill="#122129"/>
<circle cx="80.9523" cy="100.794" r="0.793651" fill="#3A3A3A"/>
<circle cx="87.3015" cy="100.794" r="0.793651" fill="#3A3A3A"/>
<circle cx="93.6506" cy="100.794" r="0.793651" fill="#3A3A3A"/>
<circle cx="99.9999" cy="100.794" r="0.793651" fill="#3A3A3A"/>
<circle cx="84.1269" cy="100.794" r="0.793651" fill="#3A3A3A"/>
<circle cx="90.4763" cy="100.794" r="0.793651" fill="#3A3A3A"/>
<circle cx="96.8254" cy="100.794" r="0.793651" fill="#3A3A3A"/>
<circle cx="103.175" cy="100.794" r="0.793651" fill="#3A3A3A"/>
<circle cx="80.9521" cy="111.114" r="0.793651" fill="#3A3A3A"/>
<circle cx="87.3015" cy="111.114" r="0.793651" fill="#3A3A3A"/>
<circle cx="93.6506" cy="111.114" r="0.793651" fill="#3A3A3A"/>
<circle cx="99.9999" cy="111.114" r="0.793651" fill="#3A3A3A"/>
<circle cx="84.1269" cy="111.114" r="0.793651" fill="#3A3A3A"/>
<circle cx="90.476" cy="111.114" r="0.793651" fill="#3A3A3A"/>
<circle cx="96.8251" cy="111.114" r="0.793651" fill="#3A3A3A"/>
<circle cx="103.174" cy="111.114" r="0.793651" fill="#3A3A3A"/>
<defs>
<linearGradient id="paint0_linear_11785_18248" x1="17.0659" y1="139.684" x2="17.0659" y2="174.108" gradientUnits="userSpaceOnUse">
<stop stop-color="#238349"/>
<stop offset="1" stop-color="#237283"/>
</linearGradient>
<linearGradient id="paint1_linear_11785_18248" x1="166.356" y1="49.582" x2="166.356" y2="180.976" gradientUnits="userSpaceOnUse">
<stop stop-color="#238349"/>
<stop offset="1" stop-color="#237283"/>
</linearGradient>
<linearGradient id="paint2_linear_11785_18248" x1="27.7477" y1="55.5586" x2="27.7477" y2="68.9552" gradientUnits="userSpaceOnUse">
<stop stop-color="#238349"/>
<stop offset="1" stop-color="#237283"/>
</linearGradient>
<linearGradient id="paint3_linear_11785_18248" x1="159.595" y1="17.0391" x2="159.595" y2="33.9036" gradientUnits="userSpaceOnUse">
<stop stop-color="#238349"/>
<stop offset="1" stop-color="#237283"/>
</linearGradient>
</defs>
</svg>
