<svg width="1440" height="708" viewBox="0 0 1440 708" fill="none" xmlns="http://www.w3.org/2000/svg">
<g clip-path="url(#clip0_20286_60625)">
<path d="M249 651L30 797H1440V153L1168 266L1061 431L705 478L407 673L249 651Z" fill="#FFA600"/>
<path d="M279 665.534L60 807H1470V183L1198 292.491L1091 452.366L735 497.907L437 686.851L279 665.534Z" fill="url(#paint0_linear_20286_60625)"/>
<path opacity="0.25" d="M1591.44 1076.18C1591.35 1075.82 1591.25 1075.46 1591.1 1075.11C1590.73 1074.27 1590.19 1073.55 1589.54 1072.94L1630.64 1024.79L1692.03 1053.07C1691.73 1053.96 1691.64 1054.92 1691.8 1055.88L1591.44 1076.18V1076.18ZM1528.19 856.563C1529.35 856.696 1530.55 856.575 1531.72 856.161C1532.91 855.746 1533.9 855.072 1534.65 854.25L1573.16 877.011L1507.39 959.068C1506.79 958.683 1506.13 958.389 1505.44 958.184L1528.19 856.563V856.563ZM1422.71 725.122C1423.55 724.448 1424.19 723.616 1424.6 722.696L1560.6 751.601L1530.37 843.7C1529.09 843.491 1527.74 843.58 1526.44 844.037C1525.96 844.212 1525.51 844.423 1525.09 844.675L1422.71 725.122V725.122ZM1329.29 681.245C1329.89 679.798 1329.93 678.155 1329.25 676.604C1329.13 676.322 1328.98 676.056 1328.82 675.798L1426.2 615.272C1427.25 616.409 1428.69 617.175 1430.27 617.472L1418.27 713.779C1417.27 713.733 1416.25 713.865 1415.26 714.216C1413.71 714.762 1412.5 715.739 1411.7 716.93L1329.29 681.245ZM1184.61 612.289C1184.89 611.695 1185.06 611.065 1185.13 610.418L1326.75 611.154L1322.33 672.479C1321.51 672.499 1320.69 672.636 1319.89 672.92C1318.44 673.432 1317.28 674.321 1316.49 675.411L1184.61 612.289V612.289ZM1222.19 520.932C1225.03 519.929 1226.76 517.487 1226.77 514.898L1239.51 513.884L1181.75 602.735L1217.53 521.116C1219.01 521.506 1220.64 521.48 1222.19 520.932V520.932ZM877.671 264.447C878.583 263.282 879.056 261.862 878.987 260.413L1038.91 240.949V375.95C1038.25 376.006 1037.58 376.14 1036.93 376.37C1035.94 376.72 1035.08 377.254 1034.39 377.905L877.671 264.447V264.447ZM799.771 312.534C798.189 310.914 795.793 310.089 793.388 310.38L774.944 232.783L864.703 259.354C864.423 260.556 864.509 261.841 865.045 263.068C865.218 263.468 865.433 263.84 865.678 264.188L799.771 312.534V312.534ZM596.354 180.91C596.543 180.638 596.714 180.357 596.857 180.064L773.476 232.347L792.088 310.653C791.962 310.69 791.834 310.723 791.709 310.767C790.515 311.189 789.519 311.869 788.76 312.704L596.354 180.91V180.91ZM734.221 92.0985C735.772 93.8352 738.231 94.7367 740.702 94.4727L773.151 230.987L597.272 178.921C597.587 177.688 597.508 176.36 596.956 175.092C596.849 174.846 596.724 174.613 596.59 174.386L734.221 92.0985V92.0985ZM991.602 91.8273C992.577 93.9549 994.659 95.3685 997.008 95.7464L910.106 111.079L991.602 91.8273V91.8273ZM1014.84 -2.43692C1015.86 -2.37634 1016.91 -2.50904 1017.93 -2.86965C1018.46 -3.05572 1018.94 -3.29661 1019.39 -3.57933L1060.68 40.8403L1003.47 84.82C1002.53 83.9416 1001.34 83.3285 1000.04 83.0343L1014.84 -2.43692V-2.43692ZM1173.37 -99.1836L1130.82 -1.22239L1123.06 -1.30028C1123 -1.91909 1122.85 -2.5451 1122.58 -3.15236C1122 -4.4794 1121 -5.53238 1119.76 -6.24783L1173.37 -99.1836V-99.1836ZM1373 -85.2382C1374.11 -84.7881 1375.36 -84.5891 1376.61 -84.6915L1417.79 116.929L1327.76 6.27247C1329.96 4.51127 1330.84 1.64516 1329.7 -0.969962C1328.53 -3.65 1325.62 -5.23813 1322.59 -5.09388L1373 -85.2382ZM1355.84 228.659C1354.94 228.332 1353.96 228.169 1352.97 228.189L1338.59 116.923L1417.9 119.963L1355.84 228.659ZM1418.62 319.238C1417.5 320.106 1416.71 321.257 1416.34 322.524L1332.17 309.852L1351.98 241.113C1353.22 241.298 1354.53 241.198 1355.78 240.754C1356.12 240.634 1356.44 240.489 1356.74 240.328L1418.62 319.238ZM1659.6 488.066C1659.15 488.718 1658.83 489.435 1658.67 490.185L1508.23 475.996L1427.83 332.252L1659.6 488.066V488.066ZM1577.81 700.806C1577.02 700.608 1576.19 700.529 1575.34 700.589L1545.97 547.738C1546.23 547.676 1546.48 547.604 1546.74 547.516C1550.36 546.233 1552.19 542.6 1550.91 539.312L1659.49 494.692C1660.23 495.856 1661.32 496.752 1662.6 497.309L1577.81 700.806ZM1675.96 746.675C1675.46 748.061 1675.46 749.607 1676.1 751.071C1676.41 751.782 1676.85 752.411 1677.38 752.958L1662.83 766.663C1660.88 765.268 1658.18 764.818 1655.7 765.695C1654.8 766.013 1654.01 766.482 1653.35 767.048L1581.78 710.884C1581.95 710.664 1582.11 710.438 1582.25 710.201L1675.96 746.675ZM1774.25 977.239C1773.88 977.311 1773.5 977.4 1773.13 977.533C1771.59 978.074 1770.39 979.047 1769.59 980.232L1721.69 959.321L1753.1 827.55C1753.46 827.592 1753.81 827.598 1754.16 827.592L1774.25 977.239ZM1700.42 1048.56L1721.4 960.535L1769.01 981.313C1768.41 982.767 1768.37 984.415 1769.05 985.971C1769.35 986.663 1769.77 987.276 1770.27 987.81L1703.21 1049.68C1702.37 1049.13 1701.43 1048.75 1700.42 1048.56ZM1691.19 953.863C1692.21 954.44 1693.36 954.783 1694.57 954.855L1697.29 1048.6C1696.96 1048.67 1696.63 1048.75 1696.3 1048.87C1694.6 1049.47 1693.3 1050.59 1692.53 1051.94L1631.47 1023.83L1691.19 953.863ZM1509.48 967.639C1509.93 966.943 1510.23 966.167 1510.37 965.362L1687.96 949.596C1688.04 949.98 1688.16 950.365 1688.32 950.744C1688.73 951.682 1689.37 952.486 1690.13 953.13L1630.26 1023.27L1509.48 967.639V967.639ZM1574.27 877.672L1688.67 945.31C1688.12 946.254 1687.82 947.311 1687.82 948.399L1510.44 964.147C1510.41 963.432 1510.26 962.71 1509.95 962.008C1509.59 961.177 1509.06 960.45 1508.41 959.85L1574.27 877.672V877.672ZM1535.81 847.721C1535.7 847.457 1535.56 847.205 1535.4 846.958L1652.74 775.871C1653 776.16 1653.29 776.418 1653.58 776.659L1573.94 876.038L1535.4 853.252C1536.41 851.616 1536.63 849.602 1535.81 847.721ZM1561.9 751.878L1651.18 770.851C1651.02 771.927 1651.14 773.053 1651.61 774.134C1651.72 774.393 1651.86 774.639 1652 774.873L1558.27 831.656L1534.66 845.96C1533.85 845.077 1532.81 844.415 1531.65 844.019L1561.9 751.878V751.878ZM1425.1 720.689L1568.82 708.295C1568.9 708.686 1569.02 709.075 1569.19 709.457C1569.94 711.2 1571.44 712.476 1573.24 713.119L1560.98 750.447L1424.98 721.54C1425.04 721.261 1425.08 720.976 1425.1 720.689V720.689ZM1431.6 617.609C1432.52 617.625 1433.46 617.484 1434.38 617.16C1435.47 616.774 1436.4 616.171 1437.12 615.431L1474.02 639.994L1421.53 714.654C1420.92 714.337 1420.27 714.099 1419.59 713.95L1431.6 617.609ZM1335.22 512.172C1336.03 512.152 1336.86 512.014 1337.66 511.73C1337.83 511.671 1337.99 511.601 1338.15 511.531L1426.61 606.52C1425.44 607.584 1424.72 608.979 1424.55 610.46L1328.17 609.96L1335.22 512.172V512.172ZM1327.91 506.839C1328 507.244 1328.12 507.648 1328.29 508.048C1328.44 508.393 1328.63 508.716 1328.83 509.023L1183.34 605.458C1182.98 605.095 1182.59 604.77 1182.16 604.493L1241.14 513.754L1327.91 506.839ZM1294.49 431.678C1296.22 432.407 1298.27 432.524 1300.19 431.846L1300.25 431.82L1331.5 499.992C1329.19 501.153 1327.81 503.337 1327.8 505.642L1241.97 512.482L1294.49 431.678V431.678ZM1226.28 512.493C1225.88 511.577 1225.27 510.793 1224.53 510.157L1292.09 432.982L1240.33 512.612L1226.66 513.701C1226.58 513.295 1226.45 512.89 1226.28 512.493V512.493ZM1117.49 314.689L1291.5 422.226C1290.27 423.93 1289.93 426.125 1290.82 428.162C1291.22 429.078 1291.83 429.861 1292.57 430.498L1223.48 509.412C1221.63 508.333 1219.26 508.03 1217.05 508.768L1114.97 316.587C1115.99 316.127 1116.84 315.469 1117.49 314.689V314.689ZM1043.46 376.947L1124.21 235.665C1124.42 235.743 1124.64 235.812 1124.86 235.871L1111.96 304.266C1111 304.237 1110.03 304.377 1109.09 304.711C1105.37 306.024 1103.54 309.803 1105 313.151C1105.33 313.92 1105.81 314.593 1106.4 315.167L1043.91 377.229C1043.76 377.13 1043.61 377.036 1043.46 376.947V376.947ZM1119.87 231.094C1119.95 231.401 1120.05 231.707 1120.18 232.008C1120.76 233.343 1121.77 234.4 1123.02 235.114L1042.27 376.397C1041.62 376.162 1040.94 376.011 1040.24 375.953V240.786L1119.87 231.094V231.094ZM1040.24 183.948C1040.9 183.895 1041.56 183.761 1042.21 183.53C1043.43 183.101 1044.44 182.405 1045.2 181.549L1120.54 226.552C1119.94 227.569 1119.63 228.726 1119.69 229.903L1040.24 239.573V183.948ZM878.5 258.313C878.454 258.204 878.394 258.103 878.342 258L1033.59 181.117C1034.82 182.749 1036.78 183.768 1038.91 183.948V239.734L878.804 259.221C878.726 258.917 878.63 258.613 878.5 258.313V258.313ZM742.489 94.0761C742.796 93.9679 743.086 93.8352 743.369 93.691L866.942 255.856C866.134 256.511 865.506 257.316 865.1 258.206L774.62 231.421L742.007 94.2203C742.167 94.1713 742.329 94.1294 742.489 94.0761V94.0761ZM819.709 173.333C821.129 176.596 825.145 178.238 828.789 177.104L867.76 254.805L745.322 94.1352L821.023 166.648C819.288 168.422 818.684 170.982 819.709 173.333V173.333ZM887.978 121.952L881.774 172.045L833.649 170.575C833.605 169.906 833.448 169.234 833.164 168.578C832.885 167.936 832.501 167.357 832.045 166.848L884.652 120.426C885.596 121.189 886.746 121.713 887.978 121.952V121.952ZM1032.76 175.311C1032.59 175.744 1032.47 176.191 1032.4 176.648L883.11 172.086L889.304 122.091C890.236 122.11 891.186 121.971 892.108 121.641C893.781 121.051 895.065 119.958 895.846 118.635L1032.76 175.311ZM1089.87 80.5879C1089.93 80.7682 1090 80.9485 1090.07 81.1288C1090.65 82.4515 1091.65 83.5031 1092.88 84.2185L1042.31 171.448C1040.65 170.835 1038.74 170.77 1036.93 171.408C1035.35 171.969 1034.11 172.981 1033.32 174.218L896.362 117.529C896.677 116.621 896.772 115.653 896.621 114.686L1089.87 80.5879V80.5879ZM1005.5 89.4473L1078.33 81.4L1002.14 94.8391C1004.22 93.6549 1005.46 91.611 1005.5 89.4473ZM1091.67 74.1691C1090.29 75.4312 1089.53 77.1622 1089.58 78.9407L1005.4 88.2458C1005.32 87.8131 1005.19 87.3861 1005 86.9649C1004.82 86.5322 1004.58 86.1297 1004.31 85.7576L1061.54 41.7591L1091.67 74.1691V74.1691ZM1110.82 3.88669C1111.63 4.60213 1112.61 5.13151 1113.68 5.43153L1097.67 72.2867C1096.52 72.1612 1095.32 72.281 1094.16 72.6906C1093.63 72.8767 1093.14 73.1233 1092.69 73.3988L1062.56 40.9846L1110.82 3.88669V3.88669ZM1022.39 -7.74938L1108.63 -0.759373C1108.63 0.0281939 1108.79 0.827301 1109.13 1.60333C1109.34 2.10097 1109.62 2.55245 1109.95 2.97364L1061.7 40.0585L1020.42 -4.34814C1021.44 -5.27995 1022.12 -6.46995 1022.39 -7.74938V-7.74938ZM1315.77 1.93365C1315.8 2.28849 1315.87 2.64188 1315.97 2.99672L1315.73 3.38184L1103.29 75.8943C1102.57 74.5773 1101.42 73.5619 1100.04 72.9431L1131.73 -0.00787248L1315.77 1.93365V1.93365ZM1324.47 7.76972C1324.85 7.6976 1325.23 7.60095 1325.61 7.46825C1325.99 7.33121 1326.35 7.16822 1326.68 6.98215L1417.61 118.749L1338.43 115.714L1324.47 7.76972V7.76972ZM1351.13 228.44L1301.98 115.522L1337.23 116.874L1351.65 228.33C1351.48 228.362 1351.31 228.397 1351.13 228.44ZM1330.84 309.653L1203.75 290.519C1203.81 289.765 1203.73 288.995 1203.49 288.237L1346.69 237.62C1347.55 239.151 1349 240.261 1350.69 240.81L1330.84 309.653V309.653ZM1416.59 326.561C1416.83 327.112 1417.15 327.613 1417.53 328.066L1302.6 421.138C1301.98 420.586 1301.25 420.14 1300.46 419.827L1331.83 311.019L1416.12 323.708C1416.04 324.651 1416.18 325.622 1416.59 326.561ZM1430.13 468.63C1430.14 467.814 1429.99 466.982 1429.63 466.175C1428.59 463.772 1426.13 462.253 1423.46 462.066L1423.96 330.666C1424.41 330.629 1424.86 330.555 1425.32 330.437L1506.65 475.847L1430.13 468.63ZM1540.26 535.937C1539.57 536.325 1538.97 536.808 1538.48 537.361L1429.21 471.746C1429.58 471.149 1429.84 470.5 1429.99 469.826L1507.36 477.124L1540.26 535.937V535.937ZM1573.27 701.018C1572.18 701.404 1571.26 702.007 1570.53 702.746L1475.81 639.693L1540.81 547.246C1541.99 547.787 1543.31 548.041 1544.67 547.944L1574.03 700.794C1573.78 700.857 1573.52 700.93 1573.27 701.018V701.018ZM1438.47 608.721C1438.35 608.441 1438.2 608.178 1438.04 607.923L1538.54 545.622C1538.88 545.989 1539.27 546.317 1539.69 546.604L1474.74 638.977L1437.92 614.465C1439.04 612.788 1439.32 610.684 1438.47 608.721V608.721ZM1304.2 428.326L1363.53 448.801L1339.11 500.303C1337.3 499.178 1334.94 498.831 1332.72 499.507L1301.44 431.267C1302.69 430.547 1303.64 429.512 1304.2 428.326V428.326ZM1118.72 309.166L1189.77 292.278L1189.82 292.422C1191.28 295.77 1195.47 297.418 1199.19 296.106C1199.48 296.003 1199.75 295.881 1200.02 295.749L1285.35 409.625L1293.45 420.429C1293.04 420.681 1292.67 420.968 1292.33 421.283L1118.19 313.664C1118.94 312.303 1119.16 310.715 1118.72 309.166V309.166ZM1115.72 305.35L1152.23 253.054L1190.87 286.026C1189.64 287.442 1189.08 289.286 1189.42 291.116L1118.27 308.03C1117.69 306.907 1116.8 305.995 1115.72 305.35V305.35ZM1046.78 177.903L1115.59 176.303L1124.97 223.355C1124.74 223.416 1124.5 223.487 1124.27 223.569C1123.05 223.999 1122.04 224.694 1121.28 225.549L1045.94 180.548C1046.42 179.735 1046.71 178.833 1046.78 177.903V177.903ZM1097.42 85.2398L1115.35 175.106L1046.74 176.701C1046.67 176.162 1046.53 175.621 1046.3 175.092C1045.73 173.77 1044.72 172.72 1043.49 172.005L1094.06 84.771C1095.11 85.1619 1096.26 85.3306 1097.42 85.2398V85.2398ZM1316.55 4.38578C1317.08 5.32913 1317.85 6.11092 1318.76 6.69366L1254.66 101.698L1104 79.2176C1104.06 78.4906 1103.99 77.7507 1103.77 77.0179L1316.55 4.38578V4.38578ZM1305.07 106.445C1304.24 104.522 1302.49 103.163 1300.46 102.599L1306.53 76.2246L1322.25 7.8779C1322.55 7.90819 1322.84 7.91396 1323.14 7.90819L1337.08 115.666L1302.2 114.325C1305.08 112.696 1306.36 109.403 1305.07 106.445V106.445ZM1346.89 231.436L1252.28 192.157L1295.69 114.873C1297.14 115.389 1298.77 115.486 1300.35 115.076L1349.89 228.88C1348.6 229.464 1347.58 230.366 1346.89 231.436V231.436ZM1203 287.117C1202.39 286.026 1201.48 285.152 1200.39 284.536L1251.68 193.23L1346.33 232.528C1345.84 233.774 1345.77 235.157 1346.21 236.5L1203 287.117ZM1294.91 419.722C1294.81 419.758 1294.71 419.801 1294.62 419.842L1239.28 345.992L1201.13 295.08C1202.31 294.203 1203.14 293.013 1203.53 291.703L1330.51 310.82L1299.19 419.447C1297.81 419.154 1296.33 419.22 1294.91 419.722V419.722ZM1203.68 179.379C1204.2 179.617 1204.75 179.804 1205.33 179.922L1196.44 283.539C1195.59 283.551 1194.74 283.688 1193.91 283.982C1193.11 284.265 1192.4 284.669 1191.79 285.153L1152.96 252.016L1203.68 179.379V179.379ZM1133.63 227.253C1133.5 226.946 1133.33 226.658 1133.16 226.382L1201.14 177.454C1201.55 177.946 1202.02 178.375 1202.55 178.738L1151.97 251.173L1132.06 234.185C1133.99 232.409 1134.7 229.716 1133.63 227.253V227.253ZM1199.77 174.344C1199.84 174.885 1199.98 175.425 1200.21 175.954C1200.28 176.114 1200.36 176.266 1200.45 176.417L1132.39 225.396C1130.88 223.814 1128.61 222.966 1126.29 223.146L1116.94 176.27L1199.77 174.344V174.344ZM1099.44 84.8128C1100.23 84.5315 1100.93 84.1406 1101.54 83.6589L1201.28 169.535C1200.38 170.567 1199.84 171.826 1199.74 173.143L1116.7 175.074L1098.73 85.0292C1098.97 84.97 1099.21 84.8979 1099.44 84.8128ZM1210.1 167.731C1208.35 166.961 1206.26 166.822 1204.3 167.515C1203.51 167.794 1202.81 168.191 1202.2 168.667L1102.46 82.7934C1103.08 82.0852 1103.53 81.2731 1103.78 80.4019L1253.92 102.803L1210.1 167.731ZM1291.15 108.358C1291.07 109.295 1291.21 110.263 1291.62 111.201C1291.8 111.609 1292.02 111.994 1292.28 112.355L1263.66 132.609L1212.15 169.067C1211.87 168.804 1211.57 168.569 1211.24 168.354L1255.33 103.013L1291.15 108.358ZM1213.6 176.097C1214.3 174.588 1214.38 172.843 1213.67 171.198C1213.49 170.786 1213.27 170.401 1213.01 170.042L1293.1 113.298C1293.52 113.7 1294 114.044 1294.51 114.325L1251.07 191.654L1213.6 176.097V176.097ZM1197.79 283.635L1207.03 180.081C1207.88 180.072 1208.74 179.935 1209.58 179.638C1211.02 179.129 1212.18 178.243 1212.97 177.159L1250.47 192.727L1199.2 283.994C1198.74 283.831 1198.27 283.712 1197.79 283.635ZM1320.94 7.64855L1307.48 66.1752L1299.15 102.353C1298.02 102.239 1296.84 102.359 1295.71 102.761C1293.47 103.549 1291.93 105.232 1291.36 107.173L1256.08 101.907L1319.92 7.30093C1320.25 7.4394 1320.59 7.55335 1320.94 7.64855V7.64855ZM1364.05 447.696L1304.6 427.181C1304.9 425.962 1304.82 424.654 1304.27 423.406C1304.06 422.918 1303.79 422.471 1303.47 422.057L1373.26 365.528L1418.41 328.96C1418.86 329.331 1419.35 329.649 1419.88 329.908L1364.05 447.696V447.696ZM1422.62 330.661L1422.12 462.086C1421.5 462.148 1420.88 462.277 1420.27 462.492C1418.49 463.12 1417.15 464.318 1416.39 465.759L1365.3 448.126L1421.1 330.381C1421.6 330.524 1422.1 330.614 1422.62 330.661V330.661ZM1537.13 539.735L1426.81 522.171L1423.84 475.005C1424.41 474.937 1424.98 474.814 1425.55 474.615C1426.72 474.203 1427.7 473.546 1428.45 472.737L1537.74 538.359C1537.48 538.795 1537.28 539.258 1537.13 539.735V539.735ZM1416.18 470.931L1416.19 470.943L1409.63 473.946L1342.18 504.841C1342.11 504.322 1341.97 503.801 1341.75 503.291C1341.38 502.451 1340.84 501.718 1340.18 501.113L1364.78 449.233L1415.93 466.888C1415.55 468.182 1415.6 469.59 1416.18 470.931V470.931ZM1341.47 508.584C1341.89 507.836 1342.14 507.018 1342.22 506.173L1410.21 475.031L1416.79 472.014C1418.05 473.825 1420.2 474.932 1422.5 475.049L1425.46 521.956L1341.47 508.584V508.584ZM1430.67 604.663C1430.14 604.735 1429.61 604.854 1429.1 605.037C1428.57 605.224 1428.08 605.468 1427.63 605.749L1339.31 510.905C1339.83 510.552 1340.31 510.141 1340.7 509.684L1425.54 523.189L1430.67 604.663V604.663ZM1537.36 543.832C1537.49 544.111 1537.64 544.374 1537.79 544.629L1437.28 606.931C1435.97 605.507 1434.04 604.659 1432 604.593L1426.89 523.404L1536.9 540.918C1536.81 541.88 1536.95 542.872 1537.36 543.832ZM872.931 254.269L882.961 173.284L1032.36 177.85C1032.4 178.519 1032.56 179.191 1032.85 179.846C1032.88 179.921 1032.92 179.99 1032.95 180.062L877.682 256.954C876.552 255.5 874.825 254.548 872.931 254.269V254.269ZM830.004 176.611C832.019 175.581 833.322 173.766 833.605 171.777L881.625 173.244L871.597 254.187C870.776 254.205 869.945 254.343 869.135 254.629L830.004 176.611V176.611ZM1113.28 304.414L1126.17 236.105C1127.28 236.207 1128.43 236.085 1129.54 235.692C1130.08 235.501 1130.58 235.252 1131.04 234.965L1151.24 252.211L1114.54 304.779C1114.13 304.625 1113.71 304.501 1113.28 304.414V304.414ZM1425.06 719.485C1424.99 718.953 1424.85 718.422 1424.62 717.9C1424.18 716.88 1423.48 716.02 1422.62 715.352L1475.1 640.71L1569.74 703.712C1569.06 704.726 1568.69 705.896 1568.7 707.099L1425.06 719.485ZM1651.49 769.686L1562.28 750.724L1574.51 713.463C1575.82 713.697 1577.22 713.613 1578.55 713.141C1579.45 712.824 1580.24 712.358 1580.9 711.79L1652.48 767.955C1652.06 768.484 1651.72 769.067 1651.49 769.686ZM1678.34 753.787C1679.54 754.647 1681.02 755.146 1682.56 755.201L1684.35 784.484L1664.91 774.459C1665.69 772.908 1665.81 771.086 1665.07 769.379C1664.76 768.67 1664.32 768.039 1663.79 767.492L1678.34 753.787ZM1748.05 817.344L1685.73 785.193L1683.89 755.129C1684.42 755.057 1684.95 754.936 1685.47 754.755C1686.06 754.545 1686.6 754.269 1687.1 753.945L1748.7 816.634C1748.47 816.863 1748.25 817.097 1748.05 817.344V817.344ZM1747.24 823.463C1747.89 824.971 1749.11 826.131 1750.58 826.835L1697.2 942.149C1696.6 941.98 1695.96 941.877 1695.32 941.86L1685.82 786.624L1747.39 818.39C1746.61 819.934 1746.49 821.756 1747.24 823.463V823.463ZM1701.81 950.647C1702.41 949.192 1702.45 947.546 1701.77 945.983C1701.12 944.481 1699.91 943.32 1698.43 942.617L1751.79 827.346L1720.46 958.786L1701.81 950.647ZM1659.01 778.24L1679.15 875.161L1693.07 942.1C1692.85 942.16 1692.63 942.227 1692.41 942.304C1691.18 942.737 1690.17 943.441 1689.4 944.306L1575.05 876.698L1654.67 777.361C1655.96 778.046 1657.47 778.365 1659.01 778.24ZM1666.08 805.732L1660.32 778.017C1660.54 777.963 1660.76 777.896 1660.98 777.818C1662.35 777.331 1663.46 776.514 1664.25 775.499L1684.44 785.915L1693.81 939.179L1666.08 805.732ZM1699.08 1048.42C1698.93 1048.42 1698.77 1048.42 1698.62 1048.43L1695.9 954.825C1696.5 954.758 1697.1 954.633 1697.68 954.428C1699.23 953.881 1700.43 952.913 1701.23 951.729L1720.16 959.994L1699.08 1048.42ZM1658.53 491.381C1658.52 492.118 1658.65 492.866 1658.93 493.598L1550.36 538.219C1548.6 535.46 1544.83 534.196 1541.45 535.392V535.393L1508.94 477.272L1658.53 491.381V491.381ZM1181.2 -103.421C1182.13 -103.752 1182.94 -104.232 1183.61 -104.821L1317.07 -2.34027C1316.36 -1.43298 1315.92 -0.381463 1315.79 0.730651L1132.25 -1.20508L1176.56 -103.234C1178.04 -102.85 1179.66 -102.879 1181.2 -103.421V-103.421ZM1130.3 -0.0208494L1099.2 71.5727L1114.99 5.68974C1116.14 5.81667 1117.34 5.6955 1118.49 5.28729C1121.09 4.36702 1122.76 2.23943 1123.04 -0.0987463L1130.3 -0.0208494V-0.0208494ZM1185.14 609.217C1185.08 608.608 1184.93 608 1184.67 607.402C1184.52 607.056 1184.34 606.733 1184.13 606.426L1329.63 509.992C1330.74 511.122 1332.25 511.859 1333.89 512.094L1326.83 609.953L1185.14 609.217V609.217ZM1323.66 672.557L1328.08 611.16L1424.54 611.662C1424.6 612.269 1424.75 612.881 1425.01 613.476C1425.14 613.759 1425.29 614.023 1425.44 614.281L1328.07 674.809C1326.94 673.593 1325.36 672.802 1323.66 672.557V672.557ZM1588.53 1072.16C1586.61 1070.95 1584.07 1070.6 1581.73 1071.42C1581.28 1071.59 1580.85 1071.79 1580.45 1072.01L1551.66 1031.88L1507.14 969.858C1507.73 969.514 1508.25 969.1 1508.7 968.632L1629.44 1024.24L1588.53 1072.16ZM1782.5 981.217C1781.36 978.59 1778.53 977.016 1775.57 977.094L1755.49 827.442C1755.86 827.37 1756.24 827.279 1756.6 827.148C1760.32 825.837 1762.15 822.056 1760.69 818.708C1759.23 815.36 1755.04 813.713 1751.33 815.024C1750.73 815.235 1750.19 815.516 1749.7 815.841L1688.09 753.144C1689.94 751.368 1690.61 748.732 1689.56 746.316C1688.1 742.968 1683.9 741.318 1680.19 742.632C1678.55 743.213 1677.27 744.277 1676.49 745.571L1582.78 709.098C1583.28 707.712 1583.28 706.166 1582.64 704.701C1581.95 703.115 1580.64 701.918 1579.06 701.227L1663.85 497.731C1665.3 498.091 1666.89 498.052 1668.39 497.52C1672.11 496.207 1673.94 492.428 1672.48 489.08C1671.02 485.732 1666.83 484.082 1663.11 485.396C1662.03 485.778 1661.12 486.374 1660.39 487.102L1426.65 329.96C1429.89 328.446 1431.41 324.937 1430.04 321.806C1428.59 318.458 1424.39 316.807 1420.67 318.122C1420.34 318.241 1420.02 318.388 1419.71 318.547L1357.84 239.637C1360.11 237.885 1361.03 234.967 1359.87 232.316C1359.29 230.981 1358.27 229.923 1357.03 229.209L1419.07 120.54L1420.15 121.875L1419.67 119.495L1420.04 118.84L1419.53 118.821L1377.92 -84.9079C1378.15 -84.9627 1378.38 -85.029 1378.6 -85.1127C1382.32 -86.4224 1384.15 -90.203 1382.69 -93.5509C1381.24 -96.8988 1377.04 -98.546 1373.33 -97.2363C1369.61 -95.9194 1367.78 -92.1445 1369.24 -88.7966C1369.78 -87.5461 1370.71 -86.5364 1371.84 -85.8281L1320.89 -4.82271C1320.71 -4.7751 1320.52 -4.72029 1320.33 -4.65393C1319.41 -4.32939 1318.6 -3.84905 1317.93 -3.26054L1184.47 -105.735C1185.82 -107.466 1186.21 -109.749 1185.29 -111.865C1183.83 -115.213 1179.64 -116.861 1175.92 -115.549C1172.21 -114.234 1170.38 -110.453 1171.84 -107.105C1172.41 -105.783 1173.42 -104.731 1174.65 -104.016L1118.58 -6.80027C1116.92 -7.40753 1115.01 -7.47389 1113.22 -6.83633C1110.8 -5.98241 1109.19 -4.09572 1108.75 -1.95515L1022.51 -8.94661C1022.51 -9.73273 1022.35 -10.5333 1022.01 -11.3079C1020.56 -14.6557 1016.36 -16.303 1012.65 -14.9933C1008.93 -13.6763 1007.1 -9.9015 1008.56 -6.55362C1009.44 -4.52268 1011.34 -3.12208 1013.52 -2.623L998.724 82.8482C997.703 82.7934 996.653 82.9203 995.638 83.2809C992.303 84.4594 990.496 87.6198 991.211 90.6792L896.162 113.129C894.675 109.836 890.519 108.219 886.831 109.517C883.115 110.833 881.284 114.613 882.742 117.961C882.997 118.545 883.339 119.073 883.743 119.549L831.11 165.99C829.147 164.491 826.358 163.988 823.796 164.894C823.131 165.129 822.529 165.446 821.993 165.823L745.263 92.3207C746.997 90.5479 747.6 87.9876 746.577 85.6364C745.119 82.2885 740.925 80.6355 737.209 81.9525C733.494 83.2622 731.664 87.0428 733.123 90.3907C733.228 90.6316 733.353 90.8667 733.488 91.0946L595.856 173.384C593.929 171.226 590.603 170.343 587.59 171.408C583.874 172.72 582.043 176.499 583.501 179.846C584.958 183.195 589.152 184.844 592.868 183.53C593.927 183.156 594.827 182.576 595.547 181.868L788.013 313.701C787.02 315.335 786.807 317.337 787.621 319.206C789.077 322.554 793.271 324.204 796.987 322.892C800.702 321.578 802.534 317.798 801.075 314.451C800.93 314.117 800.752 313.806 800.555 313.509L866.499 265.137C868.461 267.026 871.573 267.755 874.412 266.752C875.334 266.426 876.137 265.949 876.806 265.363L1033.55 378.841C1032.3 380.549 1031.95 382.758 1032.85 384.809C1034.3 388.157 1038.5 389.806 1042.21 388.492C1045.93 387.179 1047.76 383.402 1046.3 380.052C1045.97 379.285 1045.48 378.611 1044.9 378.037L1107.39 315.974C1109.33 317.282 1111.94 317.69 1114.36 316.835L1113.76 317.095L1215.85 509.288C1212.86 510.891 1211.51 514.24 1212.82 517.249C1213.5 518.798 1214.76 519.977 1216.29 520.673L1179.97 603.535C1178.49 603.144 1176.86 603.17 1175.31 603.718C1171.59 605.031 1169.76 608.81 1171.22 612.158C1172.68 615.506 1176.87 617.155 1180.59 615.842C1182.03 615.33 1183.19 614.441 1183.98 613.35L1315.86 676.472C1315.16 677.979 1315.08 679.72 1315.8 681.36C1317.25 684.708 1321.45 686.357 1325.16 685.044C1326.71 684.497 1327.92 683.521 1328.71 682.329L1411.13 718.014C1410.53 719.463 1410.49 721.103 1411.17 722.655C1412.62 726.003 1416.82 727.652 1420.54 726.339C1420.93 726.201 1421.29 726.029 1421.64 725.839L1524.05 845.425C1522.02 847.199 1521.26 849.957 1522.35 852.476C1523.18 854.375 1524.88 855.722 1526.88 856.298L1504.13 957.926C1502.97 957.787 1501.76 957.909 1500.59 958.323C1496.87 959.634 1495.05 963.414 1496.5 966.762C1497.96 970.11 1502.15 971.756 1505.87 970.446L1505.95 970.416L1554 1037.36L1579.41 1072.76C1577.33 1074.53 1576.53 1077.32 1577.64 1079.86C1579.09 1083.21 1583.29 1084.86 1587.01 1083.55C1589.89 1082.53 1591.63 1080.02 1591.58 1077.38L1692.11 1057.05C1692.15 1057.13 1692.17 1057.22 1692.21 1057.31C1693.68 1060.65 1697.86 1062.31 1701.58 1060.99C1705.3 1059.68 1707.13 1055.9 1705.67 1052.55C1705.32 1051.76 1704.82 1051.07 1704.21 1050.48L1771.23 988.653C1773.18 990.076 1775.9 990.539 1778.41 989.656C1782.13 988.34 1783.95 984.565 1782.5 981.217Z" fill="#3EBDEF"/>
<path opacity="0.75" d="M1720.14 -726.819C1719.91 -726.44 1719.7 -726.049 1719.53 -725.618C1719.13 -724.597 1718.96 -723.528 1719 -722.458L1643.27 -716.483L1615.18 -792.56C1616.19 -793.064 1617.08 -793.802 1617.76 -794.754L1720.14 -726.819V-726.819ZM1587.46 -486.795C1586.59 -487.892 1585.47 -488.814 1584.12 -489.453C1582.76 -490.108 1581.35 -490.374 1580.02 -490.317L1566.65 -542.306L1692.09 -556.13C1692.27 -555.294 1692.58 -554.484 1692.99 -553.721L1587.46 -486.795V-486.795ZM1565.43 -285.764C1564.15 -285.906 1562.9 -285.743 1561.77 -285.307L1470.9 -425.233L1574.7 -477.73C1575.6 -476.471 1576.83 -475.398 1578.31 -474.688C1578.87 -474.423 1579.43 -474.223 1580 -474.08L1565.43 -285.764V-285.764ZM1607.47 -169.266C1605.73 -168.545 1604.31 -167.184 1603.56 -165.295C1603.43 -164.95 1603.33 -164.599 1603.25 -164.244L1469.26 -195.513C1469.33 -197.373 1468.76 -199.245 1467.67 -200.839L1559.58 -272.37C1560.39 -271.481 1561.37 -270.727 1562.5 -270.188C1564.28 -269.338 1566.14 -269.136 1567.82 -269.473L1607.47 -169.266ZM1671.72 12.0119C1670.99 12.2825 1670.3 12.668 1669.69 13.1565L1550.15 -107.632L1605.94 -155.917C1606.65 -155.242 1607.46 -154.66 1608.39 -154.221C1610.05 -153.426 1611.79 -153.198 1613.38 -153.451L1671.72 12.0119V12.0119ZM1562.32 57.6433C1559.06 56.0856 1555.52 56.6881 1553.31 58.8742L1541.64 48.9304L1666.04 22.5439L1566.43 61.4408C1565.5 59.8525 1564.1 58.4917 1562.32 57.6433V57.6433ZM1637.02 567.612C1635.25 567.827 1633.65 568.63 1632.48 569.919L1480.27 450.739L1594.82 336.186C1595.43 336.698 1596.1 337.147 1596.85 337.504C1597.99 338.05 1599.17 338.322 1600.31 338.364L1637.02 567.612V567.612ZM1743.92 592.91C1743.89 595.627 1745.22 598.36 1747.51 600.153L1697.32 681.647L1643.7 582.938C1644.96 582.156 1645.97 580.992 1646.56 579.495C1646.75 579.01 1646.89 578.512 1646.97 578.009L1743.92 592.91V592.91ZM1804.84 877.2C1804.45 877.272 1804.06 877.365 1803.69 877.492L1698.19 683.262L1748.84 601.025C1748.98 601.1 1749.12 601.181 1749.26 601.25C1750.63 601.905 1752.05 602.173 1753.41 602.108L1804.84 877.2V877.2ZM1612.5 835.576C1612.65 832.786 1611.33 829.935 1609.01 828.062L1697.31 684.692L1802.37 878.11C1801.06 878.889 1800 880.083 1799.39 881.627C1799.27 881.926 1799.18 882.23 1799.1 882.537L1612.5 835.576V835.576ZM1393.87 617.411C1394.85 614.779 1394.28 611.812 1392.61 609.499L1479.36 670.226L1393.87 617.411V617.411ZM1294.17 677.681C1293.35 676.763 1292.35 675.984 1291.18 675.428C1290.57 675.136 1289.96 674.928 1289.33 674.786L1291.99 602.056L1377.85 613.284C1377.91 614.829 1378.4 616.363 1379.25 617.711L1294.17 677.681V677.681ZM1077.56 625.253L1196.79 578.236L1203.31 584.89C1202.83 585.463 1202.43 586.125 1202.14 586.864C1201.5 588.48 1201.46 590.23 1201.9 591.884L1077.56 625.253V625.253ZM919.997 444.028C919.435 442.702 918.55 441.479 917.4 440.503L1053.53 234.477L1036.03 404.767C1032.67 404.391 1029.5 406.081 1028.24 409.266C1026.96 412.53 1028.09 416.353 1030.77 418.795L919.997 444.028ZM1200.91 192.242C1201.4 193.284 1202.09 194.248 1202.94 195.069L1120.74 301.69L1056.02 231.811L1200.91 192.242ZM1224.5 62.1092C1226.18 62.3232 1227.84 62.0202 1229.22 61.2567L1289.89 143.433L1214.75 184.946C1213.86 183.737 1212.66 182.712 1211.22 182.024C1210.83 181.837 1210.44 181.695 1210.04 181.57L1224.5 62.1092ZM1163.28 -285.62C1164.21 -285.793 1165.09 -286.135 1165.86 -286.63L1281.48 -146.937L1227.73 43.2564L1163.28 -285.62V-285.62ZM1413.19 -396.741C1413.69 -395.899 1414.34 -395.124 1415.1 -394.463L1310.32 -239.843C1310.05 -240.005 1309.78 -240.159 1309.49 -240.299C1305.32 -242.291 1300.69 -240.753 1298.98 -236.883L1168.99 -291.151C1169.35 -292.767 1169.18 -294.456 1168.57 -296.015L1413.19 -396.741ZM1368.83 -518.94C1370.43 -519.693 1371.74 -521.01 1372.44 -522.79C1372.78 -523.66 1372.94 -524.567 1372.96 -525.478L1396.93 -524.762C1397.41 -521.92 1399.31 -519.251 1402.16 -517.889C1403.2 -517.395 1404.26 -517.126 1405.3 -517.045L1418.38 -408.654C1418.04 -408.616 1417.72 -408.56 1417.4 -408.478L1368.83 -518.94ZM1481.07 -797.983C1481.45 -797.728 1481.84 -797.486 1482.26 -797.287C1484.03 -796.439 1485.88 -796.24 1487.56 -796.571L1510.46 -738.182L1372 -653.026C1371.73 -653.36 1371.44 -653.665 1371.13 -653.961L1481.07 -797.983ZM1604.23 -795.855L1511.74 -738.97L1488.97 -796.997C1490.72 -797.716 1492.15 -799.08 1492.89 -800.978C1493.23 -801.82 1493.39 -802.697 1493.41 -803.579L1602.82 -799.174C1603.06 -797.996 1603.54 -796.867 1604.23 -795.855ZM1531.71 -707.673C1531.34 -709.023 1530.65 -710.293 1529.69 -711.379L1606.92 -793.23C1607.26 -793.008 1607.61 -792.803 1607.99 -792.623C1609.94 -791.689 1612 -791.539 1613.8 -792.029L1641.75 -716.364L1531.71 -707.673ZM1697.59 -565.174C1696.62 -564.963 1695.7 -564.558 1694.9 -563.995L1530.83 -701.308C1531.09 -701.701 1531.32 -702.13 1531.5 -702.588C1531.95 -703.734 1532.09 -704.954 1531.99 -706.151L1642.3 -714.865L1697.59 -565.174V-565.174ZM1566.27 -543.811L1526.59 -698.277C1527.86 -698.608 1529.01 -699.249 1529.93 -700.178L1693.81 -563.025C1693.22 -562.397 1692.74 -561.654 1692.41 -560.797C1692.01 -559.787 1691.84 -558.718 1691.88 -557.66L1566.27 -543.811V-543.811ZM1573.49 -485.762C1573.36 -485.441 1573.27 -485.108 1573.19 -484.768L1413.31 -524.011C1413.33 -524.476 1413.31 -524.94 1413.26 -525.398L1565.17 -542.142L1578.53 -490.108C1576.29 -489.576 1574.39 -488.053 1573.49 -485.762ZM1470.03 -426.572L1410.37 -518.433C1411.42 -519.205 1412.27 -520.267 1412.79 -521.582C1412.92 -521.896 1413.01 -522.219 1413.09 -522.535L1540.8 -491.187L1572.97 -483.293C1572.91 -481.854 1573.23 -480.408 1573.88 -479.087L1470.03 -426.572V-426.572ZM1559.64 -284.029L1427.18 -395.46C1427.44 -395.865 1427.67 -396.298 1427.85 -396.763C1428.69 -398.882 1428.5 -401.239 1427.52 -403.307L1469.6 -424.577L1560.47 -284.65C1560.17 -284.469 1559.91 -284.255 1559.64 -284.029V-284.029ZM1466.66 -202.082C1465.89 -202.876 1464.97 -203.554 1463.92 -204.055C1462.67 -204.656 1461.37 -204.931 1460.12 -204.92L1449.66 -257.069L1557.55 -275.879C1557.8 -275.095 1558.15 -274.339 1558.6 -273.636L1466.66 -202.082ZM1458.98 -30.8314C1458.27 -31.5043 1457.45 -32.0903 1456.53 -32.5283C1456.34 -32.6194 1456.14 -32.6953 1455.95 -32.7724L1461.49 -188.433C1463.38 -188.344 1465.18 -188.917 1466.58 -190.032L1547.93 -107.827L1458.98 -30.8314V-30.8314ZM1460.65 -20.1084C1460.92 -20.523 1461.16 -20.9703 1461.35 -21.456C1461.52 -21.8762 1461.63 -22.308 1461.72 -22.7425L1667 18.8843C1667 19.497 1667.06 20.1092 1667.19 20.7096L1540.15 47.6564L1460.65 -20.1084ZM1425.24 72.0309C1424.38 69.9417 1422.75 68.108 1420.54 67.0546L1420.47 67.0223L1451.8 -17.337C1454.74 -16.3663 1457.77 -17.0484 1459.73 -18.9948L1538.37 48.0337L1425.24 72.0309V72.0309ZM1551.69 61.3342C1551.25 62.4496 1551.1 63.6316 1551.19 64.803L1428.37 72.9552L1539.86 49.3077L1552.39 59.9878C1552.12 60.401 1551.88 60.8509 1551.69 61.3342V61.3342ZM1476.16 321.489L1419.75 82.586C1422.24 82.1865 1424.39 80.6088 1425.37 78.1281C1425.8 77.0127 1425.95 75.8306 1425.86 74.6593L1551.45 66.3229C1552.1 68.8087 1553.85 71.0733 1556.36 72.3278L1479.9 322.014C1478.65 321.54 1477.37 321.38 1476.16 321.489V321.489ZM1591.8 331.479L1403.4 382.842C1403.29 382.594 1403.16 382.348 1403.02 382.109L1472.01 335.028C1472.79 335.861 1473.74 336.569 1474.82 337.085C1479.09 339.124 1483.85 337.471 1485.45 333.393C1485.82 332.458 1485.98 331.475 1485.97 330.492L1591.66 330.856C1591.7 331.064 1591.75 331.271 1591.8 331.479V331.479ZM1403.2 390.4C1403.4 390.072 1403.57 389.731 1403.72 389.365C1404.36 387.74 1404.39 385.979 1403.94 384.316L1592.34 332.95C1592.69 333.7 1593.14 334.407 1593.69 335.051L1478.99 449.744L1403.2 390.4V390.4ZM1430.77 497.973C1430.16 497.458 1429.48 497.008 1428.74 496.654C1427.34 495.988 1425.9 495.723 1424.52 495.801L1398.78 393.686C1400.16 393.336 1401.39 392.61 1402.35 391.565L1477.96 450.774L1430.77 497.973ZM1631.11 572.114C1631.06 572.245 1631.02 572.381 1630.98 572.514L1434.01 506.018C1434.35 503.593 1433.55 501.06 1431.9 499.105L1479.23 451.769L1631.62 571.085C1631.43 571.41 1631.25 571.749 1631.11 572.114V572.114ZM1607.16 826.882C1606.81 826.713 1606.45 826.58 1606.08 826.462L1638.83 584.005C1640.07 584.136 1641.29 583.985 1642.39 583.575L1696.43 683.077L1607.69 827.169C1607.51 827.075 1607.34 826.973 1607.16 826.882V826.882ZM1608.89 694.107C1610.45 690.134 1608.44 685.333 1604.38 683.203L1637.24 584.204L1604.8 824.428L1602.1 698.665C1605.08 698.632 1607.76 696.972 1608.89 694.107V694.107ZM1507.36 679.777L1555.13 642.536L1594.72 684.619C1594.19 685.224 1593.75 685.927 1593.43 686.726C1593.13 687.507 1592.96 688.324 1592.92 689.143L1508.89 683.894C1508.73 682.445 1508.2 681.026 1507.36 679.777V679.777ZM1429.78 511.648C1430.29 511.424 1430.78 511.148 1431.22 510.816L1554.03 641.368L1506.35 678.534C1505.58 677.728 1504.65 677.039 1503.59 676.536C1501.67 675.618 1499.65 675.456 1497.87 675.915L1429.78 511.648ZM1300.95 543.564C1301.05 543.361 1301.15 543.152 1301.24 542.934C1301.87 541.324 1301.91 539.579 1301.48 537.93L1418.4 506.823C1419.29 508.752 1420.86 510.431 1422.93 511.42C1424.75 512.29 1426.67 512.483 1428.38 512.104L1496.49 676.417C1495.46 676.919 1494.55 677.66 1493.86 678.609L1300.95 543.564V543.564ZM1380.06 607.638L1311.43 552.665L1387.48 605.911C1384.71 605.151 1381.93 605.834 1380.06 607.638ZM1293.98 547.484C1296.22 547.588 1298.33 546.763 1299.79 545.205L1379.12 608.741C1378.83 609.179 1378.58 609.653 1378.37 610.165C1378.17 610.693 1378.02 611.234 1377.94 611.782L1292.04 600.549L1293.98 547.484V547.484ZM1218.09 590.875C1218.01 589.578 1217.62 588.293 1216.97 587.131L1287.29 543.993C1288.16 545.075 1289.28 545.992 1290.61 546.625C1291.22 546.917 1291.84 547.12 1292.45 547.268L1290.52 600.346L1218.09 590.875V590.875ZM1283.26 675.784L1216 596.67C1216.67 596 1217.22 595.191 1217.59 594.247C1217.83 593.641 1217.97 593.018 1218.05 592.383L1290.46 601.858L1287.81 674.569C1286.15 674.49 1284.56 674.921 1283.26 675.784V675.784ZM1042.53 418.622C1042.8 418.294 1043.04 417.934 1043.26 417.549L1043.79 417.426L1285.58 536.163C1285.07 537.886 1285.19 539.73 1285.83 541.422L1197.05 576.436L1042.53 418.622V418.622ZM1040.1 406.29C1039.71 406.026 1039.31 405.783 1038.87 405.576C1038.43 405.369 1037.99 405.206 1037.55 405.077L1055.23 233.086L1119.85 302.852L1040.1 406.29V406.29ZM1204.72 196.418L1150.61 333.941L1121.85 302.881L1204.19 196.075C1204.36 196.19 1204.53 196.308 1204.72 196.418ZM1290.85 144.724L1382.45 268.804C1381.76 269.391 1381.17 270.111 1380.74 270.962L1216.28 192.399C1216.85 190.375 1216.56 188.199 1215.59 186.295L1290.85 144.724V144.724ZM1232.44 57.6217C1232.7 56.9504 1232.85 56.254 1232.92 55.5477L1409.41 74.0875C1409.47 75.0874 1409.71 76.0809 1410.11 77.0175L1291.17 142.728L1230.41 60.4393C1231.28 59.7067 1231.99 58.7635 1232.44 57.6217ZM1341.49 -74.4236C1340.79 -73.7363 1340.22 -72.8997 1339.83 -71.9153C1338.68 -68.9933 1339.48 -65.6168 1341.59 -63.1879L1229.67 47.8846C1229.25 47.5306 1228.8 47.2086 1228.32 46.9246L1282.69 -145.475L1341.49 -74.4236ZM1305.16 -224.979C1306.07 -224.725 1306.99 -224.626 1307.88 -224.675L1344.92 -76.2809C1344.1 -76.0907 1343.33 -75.7613 1342.63 -75.3188L1283.17 -147.163L1305.16 -224.979V-224.979ZM1417.22 -393.066C1418.47 -392.472 1419.77 -392.197 1421.02 -392.207L1447.88 -258.336L1314.29 -235.045C1313.75 -236.499 1312.84 -237.841 1311.61 -238.908L1416.39 -393.521C1416.66 -393.361 1416.93 -393.207 1417.22 -393.066V-393.066ZM1453.29 -200.364C1453.16 -200.025 1453.06 -199.677 1452.98 -199.325L1314.83 -231.742C1314.85 -232.343 1314.81 -232.948 1314.7 -233.544L1448.19 -256.818L1458.63 -204.774C1456.26 -204.302 1454.23 -202.754 1453.29 -200.364V-200.364ZM1414.15 66.6384L1381.18 -1.08063L1445.6 -24.0656C1446.18 -21.572 1447.89 -19.2734 1450.35 -17.9607L1418.99 66.4805C1417.32 66.029 1415.64 66.1064 1414.15 66.6384V66.6384ZM1470.42 325.13L1395.81 279.176L1395.89 279.008C1397.49 274.93 1395.33 269.974 1391.07 267.935C1390.73 267.775 1390.4 267.646 1390.06 267.532L1414.28 98.4985L1416.58 82.4607C1417.14 82.5929 1417.69 82.6644 1418.24 82.6801L1474.69 321.763C1472.9 322.283 1471.37 323.442 1470.42 325.13V325.13ZM1469.74 330.917L1394.38 344.307L1389.57 283.546C1391.82 283.388 1393.86 282.298 1395.12 280.454L1469.85 326.478C1469.38 327.921 1469.37 329.453 1469.74 330.917V330.917ZM1420.09 497.556L1360.35 440.527L1392.3 392.635C1392.56 392.786 1392.82 392.927 1393.09 393.056C1394.48 393.722 1395.93 393.988 1397.3 393.91L1423.05 496.024C1421.95 496.304 1420.94 496.826 1420.09 497.556V497.556ZM1298.49 533.214L1359.53 441.745L1419.1 498.605C1418.7 499.123 1418.36 499.7 1418.11 500.345C1417.47 501.954 1417.44 503.698 1417.87 505.348L1300.94 536.457C1300.38 535.236 1299.55 534.12 1298.49 533.214V533.214ZM1043.95 415.881C1044.29 414.626 1044.3 413.309 1044.03 412.043L1179.03 385.822L1287.8 532.737C1287.13 533.304 1286.56 533.99 1286.13 534.803L1043.95 415.881V415.881ZM1140.28 339.018C1139.36 341.36 1139.69 343.992 1140.94 346.197L1113.41 363.427L1042.07 408.081C1041.85 407.804 1041.6 407.547 1041.34 407.298L1120.95 304.036L1149.41 334.772C1145.58 333.709 1141.7 335.414 1140.28 339.018V339.018ZM1210.86 197.476L1257.81 311.085L1155.39 339.825C1154.6 338.159 1153.3 336.694 1151.62 335.701L1206.14 197.098C1207.74 197.7 1209.37 197.801 1210.86 197.476V197.476ZM1380.2 272.326C1379.79 273.767 1379.83 275.286 1380.23 276.732L1259.23 310.687L1212.26 197.025C1213.73 196.38 1214.97 195.269 1215.74 193.761L1380.2 272.326ZM1414.74 81.8202C1414.85 81.8752 1414.97 81.9187 1415.08 81.9659L1399.38 191.585L1388.55 267.159C1386.8 266.895 1385.08 267.201 1383.65 267.987L1292.12 144.019L1410.87 78.4177C1411.79 79.8357 1413.11 81.0427 1414.74 81.8202V81.8202ZM1288.21 363.17C1287.97 362.524 1287.66 361.896 1287.27 361.309L1382.74 280.932C1383.46 281.636 1384.3 282.245 1385.26 282.701C1386.18 283.141 1387.12 283.399 1388.05 283.507L1392.88 344.572L1288.21 363.17V363.17ZM1388.27 381.982C1388.12 382.357 1388.01 382.739 1387.93 383.125L1288.73 366.953C1288.8 366.193 1288.76 365.428 1288.62 364.672L1393 346.126L1395.48 377.431C1392.34 377.301 1389.45 378.983 1388.27 381.982V381.982ZM1287.25 370.756C1287.65 370.237 1287.99 369.661 1288.24 369.016C1288.32 368.821 1288.38 368.623 1288.44 368.425L1387.75 384.614C1387.68 387.235 1388.89 389.885 1391.01 391.699L1359.17 439.41L1287.25 370.756V370.756ZM1296.42 531.861C1295.5 531.427 1294.58 531.165 1293.66 531.059L1281.89 373.555C1283.53 373.448 1285.06 372.838 1286.26 371.805L1358.36 440.627L1297.2 532.277C1296.95 532.126 1296.69 531.987 1296.42 531.861ZM1272.87 367.601C1273.71 369.742 1275.36 371.632 1277.61 372.708C1278.52 373.142 1279.45 373.399 1280.37 373.51L1292.14 531.011C1291.01 531.085 1289.94 531.394 1288.99 531.917L1180.6 385.518L1272.87 367.601ZM1153.73 349.214C1154.59 348.482 1155.29 347.54 1155.74 346.399C1155.93 345.901 1156.07 345.387 1156.16 344.863L1197.63 351.96L1272.27 364.729C1272.28 365.189 1272.34 365.648 1272.43 366.104L1179.58 384.136L1153.73 349.214ZM1277 357.535C1275.13 358.219 1273.58 359.632 1272.79 361.633C1272.59 362.137 1272.45 362.651 1272.37 363.173L1156.26 343.359C1156.24 342.662 1156.13 341.97 1155.94 341.299L1258.41 312.541L1277 357.535V357.535ZM1381.67 279.703L1285.96 359.731C1285.23 359.015 1284.39 358.402 1283.42 357.941C1281.76 357.149 1280.03 356.922 1278.44 357.17L1259.83 312.142L1380.78 278.201C1381.03 278.726 1381.33 279.227 1381.67 279.703ZM1042.99 409.387L1104.08 371.15L1141.83 347.513C1142.7 348.572 1143.8 349.47 1145.11 350.091C1147.67 351.318 1150.41 351.201 1152.53 350.033L1178.01 384.442L1043.56 410.55C1043.4 410.151 1043.21 409.765 1042.99 409.387V409.387ZM1379.8 -0.585951L1412.84 67.2625C1411.55 68.0441 1410.51 69.2262 1409.91 70.7467C1409.68 71.3411 1409.53 71.9541 1409.46 72.577L1302.27 61.3201L1232.92 54.035C1232.86 53.3415 1232.71 52.6581 1232.48 51.9866L1379.8 -0.585951V-0.585951ZM1230.79 49.0209L1342.74 -62.0722C1343.32 -61.5991 1343.95 -61.181 1344.65 -60.8432C1346.69 -59.8718 1348.85 -59.7494 1350.71 -60.3269L1379.11 -2.00883L1231.85 50.5488C1231.55 50.0093 1231.2 49.5016 1230.79 49.0209V49.0209ZM1311.04 -225.547L1389.75 -117.03L1352.24 -74.4886C1351.7 -74.9187 1351.11 -75.3009 1350.46 -75.6129C1349.12 -76.2544 1347.73 -76.5288 1346.41 -76.4765L1309.35 -224.895C1309.95 -225.043 1310.51 -225.266 1311.04 -225.547V-225.547ZM1355.28 -64.5353L1355.29 -64.5505L1363.4 -61.535L1446.85 -30.52C1446.47 -30.0169 1446.15 -29.4569 1445.9 -28.8362C1445.5 -27.8128 1445.34 -26.732 1445.38 -25.6583L1380.49 -2.50613L1352.06 -60.894C1353.48 -61.67 1354.64 -62.9039 1355.28 -64.5353V-64.5353ZM1450.62 -33.0958C1449.64 -32.8124 1448.73 -32.333 1447.94 -31.6837L1363.83 -62.9472L1355.68 -65.9747C1356.15 -68.5811 1355.27 -71.3426 1353.41 -73.395L1390.71 -115.704L1450.62 -33.0958V-33.0958ZM1456.47 -190.304C1456.98 -189.918 1457.52 -189.571 1458.11 -189.291C1458.73 -188.998 1459.35 -188.79 1459.97 -188.644L1454.43 -33.226C1453.69 -33.373 1452.93 -33.4262 1452.21 -33.3724L1391.69 -116.818L1456.47 -190.304V-190.304ZM1314.32 -229.22C1314.44 -229.567 1314.54 -229.913 1314.63 -230.26L1452.78 -197.843C1452.68 -195.52 1453.6 -193.159 1455.28 -191.371L1390.72 -118.144L1312.24 -226.353C1313.13 -227.096 1313.85 -228.056 1314.32 -229.22ZM1632.4 580.27L1555.17 640.477L1432.28 509.833C1432.81 509.228 1433.25 508.526 1433.56 507.729C1433.6 507.637 1433.62 507.544 1433.65 507.453L1630.65 573.961C1630.37 576.154 1631.03 578.427 1632.4 580.27V580.27ZM1602.93 682.591C1600.35 681.755 1597.7 682.189 1595.77 683.636L1556.27 641.646L1633.46 581.471C1634.18 582.154 1635 582.741 1635.93 583.186L1602.93 682.591V682.591ZM1471.01 333.777L1402.11 380.799C1401.25 379.771 1400.17 378.899 1398.9 378.29C1398.27 377.994 1397.64 377.785 1397.01 377.64L1394.5 345.86L1470.25 332.4C1470.46 332.876 1470.71 333.337 1471.01 333.777V333.777ZM1558.66 -282.973C1558.26 -282.465 1557.93 -281.896 1557.68 -281.26C1557.19 -280.016 1557.06 -278.692 1557.22 -277.395L1449.35 -258.593L1422.51 -392.353C1423.95 -392.636 1425.25 -393.318 1426.27 -394.344L1558.66 -282.973ZM1409.12 -517.705L1468.73 -425.915L1426.73 -404.679C1425.82 -405.987 1424.56 -407.104 1423.03 -407.837C1421.99 -408.331 1420.93 -408.604 1419.89 -408.681L1406.81 -517.073C1407.62 -517.166 1408.4 -517.377 1409.12 -517.705ZM1372.85 -526.997C1372.56 -528.745 1371.72 -530.425 1370.46 -531.779L1393.79 -558.142L1401.78 -533.143C1399.8 -532.489 1398.16 -531.045 1397.34 -528.963C1397 -528.101 1396.84 -527.192 1396.82 -526.281L1372.85 -526.997ZM1367.62 -640.08L1393.22 -559.917L1369.28 -532.844C1368.76 -533.235 1368.21 -533.579 1367.62 -533.868C1366.93 -534.193 1366.24 -534.418 1365.55 -534.561L1366.47 -640.026C1366.86 -640.024 1367.25 -640.035 1367.62 -640.08V-640.08ZM1373.5 -644.582C1374.23 -646.416 1374.18 -648.431 1373.53 -650.278L1516.67 -702.833C1517.04 -702.175 1517.49 -701.55 1518.03 -700.987L1394.36 -561.204L1369.07 -640.408C1371.04 -641.056 1372.69 -642.5 1373.5 -644.582V-644.582ZM1519.98 -713.95C1518.22 -713.231 1516.79 -711.868 1516.05 -709.963C1515.33 -708.135 1515.37 -706.12 1516.03 -704.273L1372.94 -651.737L1511.06 -736.681L1519.98 -713.95ZM1410 -531.342L1475.14 -630.675L1520.14 -699.283C1520.38 -699.147 1520.62 -699.017 1520.87 -698.896C1522.28 -698.221 1523.74 -697.958 1525.12 -698.042L1564.78 -543.648L1412.93 -526.917C1412.42 -528.591 1411.41 -530.147 1410 -531.342ZM1427.33 -560.67L1408.7 -532.263C1408.46 -532.408 1408.22 -532.539 1407.97 -532.654C1406.39 -533.407 1404.75 -533.658 1403.22 -533.465L1394.93 -559.43L1517.02 -697.437L1427.33 -560.67ZM1605.25 -794.604C1605.37 -794.469 1605.51 -794.338 1605.65 -794.215L1528.53 -712.486C1527.96 -712.939 1527.35 -713.335 1526.68 -713.66C1524.91 -714.504 1523.06 -714.707 1521.39 -714.376L1512.33 -737.458L1605.25 -794.604ZM1167 -287.526C1167.63 -288.146 1168.15 -288.894 1168.53 -289.753L1298.53 -235.485C1297.67 -231.655 1299.8 -227.384 1303.68 -225.53L1303.68 -225.531L1281.96 -148.626L1167 -287.526V-287.526ZM1067.32 622.206C1066.25 621.698 1065.16 621.42 1064.09 621.35L1037.8 421.15C1039.17 420.979 1040.44 420.46 1041.49 419.627L1195.59 577.01L1071.41 625.98C1070.48 624.402 1069.08 623.052 1067.32 622.206V622.206ZM1198.24 577.657L1285.38 543.295L1216.08 585.805C1215.22 584.722 1214.1 583.806 1212.77 583.172C1209.78 581.748 1206.56 582.135 1204.34 583.886L1198.24 577.657V577.657ZM1668.67 14.1665C1668.2 14.7333 1667.81 15.3775 1667.52 16.1056C1667.36 16.5257 1667.24 16.9588 1667.16 17.3933L1461.87 -24.236C1461.88 -26.1411 1461.23 -28.0502 1460.04 -29.6379L1549.06 -106.686L1668.67 14.1665V14.1665ZM1604.88 -157.113L1549.02 -108.772L1467.6 -191.046C1468.07 -191.612 1468.46 -192.256 1468.74 -192.983C1468.88 -193.33 1468.98 -193.679 1469.06 -194.033L1603.05 -162.764C1602.97 -160.776 1603.64 -158.769 1604.88 -157.113V-157.113ZM1719.21 -720.938C1719.81 -718.278 1721.66 -715.828 1724.35 -714.544C1724.87 -714.297 1725.4 -714.103 1725.92 -713.958L1716.31 -655.474L1701.46 -565.07C1700.66 -565.283 1699.87 -565.373 1699.09 -565.354L1643.83 -714.99L1719.21 -720.938ZM1477.44 -808.361C1476.18 -805.163 1477.25 -801.428 1479.83 -798.981L1369.88 -654.96C1369.5 -655.216 1369.11 -655.456 1368.68 -655.655C1364.42 -657.695 1359.66 -656.039 1358.05 -651.965C1356.45 -647.884 1358.61 -642.931 1362.87 -640.891C1363.56 -640.566 1364.25 -640.347 1364.95 -640.202L1364.03 -534.726C1360.95 -534.786 1358.15 -533.116 1356.99 -530.177C1355.38 -526.096 1357.54 -521.136 1361.81 -519.098C1363.7 -518.199 1365.68 -518.021 1367.44 -518.457L1416.01 -407.995C1414.41 -407.242 1413.1 -405.925 1412.4 -404.145C1411.64 -402.21 1411.73 -400.085 1412.49 -398.156L1167.87 -297.432C1166.95 -298.964 1165.57 -300.279 1163.83 -301.107C1159.57 -303.146 1154.81 -301.49 1153.2 -297.415C1151.6 -293.335 1153.76 -288.375 1158.03 -286.337C1159.27 -285.743 1160.55 -285.474 1161.79 -285.474L1226.79 46.2023C1222.75 44.7302 1218.48 46.4231 1216.99 50.2403C1215.38 54.3158 1217.54 59.2761 1221.81 61.3138C1222.2 61.5002 1222.59 61.6415 1222.98 61.7677L1208.53 181.228C1205.11 180.785 1201.86 182.486 1200.59 185.715C1199.95 187.34 1199.92 189.103 1200.37 190.767L1055.51 230.325L1055.73 228.276L1054.12 230.709L1053.25 230.948L1053.66 231.393L916.101 439.571C915.862 439.425 915.614 439.29 915.35 439.168C911.086 437.126 906.327 438.783 904.721 442.859C903.113 446.933 905.276 451.891 909.54 453.932C913.81 455.967 918.569 454.321 920.171 450.241C920.773 448.721 920.844 447.078 920.482 445.514L1032.45 420.009C1032.65 420.127 1032.85 420.24 1033.07 420.341C1034.13 420.851 1035.22 421.129 1036.29 421.2L1062.58 621.394C1059.97 621.72 1057.7 623.325 1056.68 625.902C1055.08 629.978 1057.24 634.934 1061.5 636.975C1065.77 639.01 1070.53 637.356 1072.14 633.278C1072.77 631.667 1072.81 629.919 1072.37 628.264L1202.44 593.358C1203.33 595.279 1204.89 596.953 1206.96 597.938C1209.73 599.26 1212.7 599.024 1214.89 597.581L1282.14 676.697C1281.47 677.365 1280.92 678.175 1280.55 679.119C1278.95 683.197 1281.11 688.152 1285.37 690.193C1289.64 692.23 1294.4 690.58 1296 686.501C1296.98 684.028 1296.56 681.233 1295.13 678.958L1380.21 618.987C1381.03 619.9 1382.03 620.683 1383.19 621.239C1387.02 623.068 1391.24 621.92 1393.23 618.717L1492.93 680.32C1491.4 684.376 1493.55 689.274 1497.78 691.302C1502.05 693.339 1506.81 691.685 1508.42 687.606C1508.7 686.895 1508.85 686.156 1508.92 685.41L1592.98 690.664C1593.38 693.601 1595.31 696.395 1598.26 697.801C1599.02 698.165 1599.8 698.406 1600.58 698.542L1603.31 826.018C1600.34 826.051 1597.65 827.712 1596.53 830.575C1594.92 834.653 1597.08 839.614 1601.35 841.649C1605.61 843.691 1610.38 842.035 1611.98 837.957C1612.09 837.663 1612.19 837.358 1612.27 837.05L1798.87 884.009C1798.68 887.476 1800.75 891.048 1804.21 892.701C1808.48 894.74 1813.24 893.087 1814.84 889.01C1816.45 884.932 1814.29 879.974 1810.02 877.936C1808.8 877.354 1807.55 877.083 1806.34 877.072L1754.89 601.897C1757.12 601.352 1759 599.834 1759.89 597.558C1761.5 593.481 1759.34 588.522 1755.07 586.483C1750.8 584.445 1746.04 586.098 1744.44 590.176C1744.28 590.583 1744.17 590.998 1744.08 591.417L1647.08 576.507C1647.02 573.238 1645 569.979 1641.74 568.422C1640.68 567.916 1639.59 567.639 1638.53 567.568L1601.81 338.277C1604.33 337.89 1606.49 336.309 1607.48 333.812C1609.08 329.733 1606.92 324.776 1602.65 322.738C1598.39 320.7 1593.63 322.352 1592.02 326.43C1591.66 327.365 1591.5 328.348 1591.5 329.331L1485.82 328.97C1485.28 326.215 1483.41 323.649 1480.63 322.321L1481.36 322.61L1557.82 72.9061C1561.71 74.0768 1565.7 72.3799 1567.14 68.7156C1567.88 66.8293 1567.81 64.7562 1567.1 62.8692L1668.24 23.3805C1669.16 24.9686 1670.57 26.3294 1672.34 27.1778C1676.61 29.2181 1681.37 27.5639 1682.98 23.4857C1684.58 19.4089 1682.42 14.4511 1678.15 12.4122C1676.49 11.6174 1674.76 11.3906 1673.16 11.6448L1614.81 -153.82C1616.69 -154.505 1618.23 -155.916 1619.02 -157.913C1620.62 -161.99 1618.46 -166.948 1614.19 -168.987C1612.42 -169.835 1610.56 -170.035 1608.88 -169.696L1569.23 -269.906C1570.97 -270.627 1572.39 -271.985 1573.13 -273.879C1574.74 -277.954 1572.58 -282.913 1568.31 -284.952C1567.86 -285.168 1567.41 -285.328 1566.95 -285.466L1581.52 -473.834C1584.75 -473.618 1587.74 -475.313 1588.94 -478.379C1589.85 -480.692 1589.55 -483.279 1588.34 -485.465L1693.89 -552.392C1694.75 -551.29 1695.88 -550.363 1697.23 -549.724C1701.49 -547.684 1706.25 -549.341 1707.86 -553.415C1709.46 -557.496 1707.3 -562.447 1703.04 -564.488L1702.94 -564.531L1718.97 -662.112L1727.45 -713.707C1730.71 -713.44 1733.76 -715.137 1734.98 -718.235C1736.58 -722.309 1734.43 -727.272 1730.16 -729.307C1726.84 -730.893 1723.23 -730.242 1721.04 -727.959L1618.48 -796.009C1618.53 -796.11 1618.58 -796.207 1618.62 -796.312C1620.22 -800.393 1618.07 -805.351 1613.8 -807.387C1609.53 -809.427 1604.77 -807.776 1603.17 -803.695C1602.79 -802.727 1602.62 -801.717 1602.65 -800.696L1493.32 -805.103C1492.87 -807.97 1490.95 -810.672 1488.07 -812.051C1483.8 -814.087 1479.05 -812.435 1477.44 -808.361Z" fill="#3FBCED"/>
</g>
<defs>
<linearGradient id="paint0_linear_20286_60625" x1="801" y1="237.5" x2="1069.5" y2="783.5" gradientUnits="userSpaceOnUse">
<stop stop-color="#5DBDE3"/>
<stop offset="1" stop-color="#0F8ABC"/>
</linearGradient>
<clipPath id="clip0_20286_60625">
<rect width="1440" height="708" fill="white"/>
</clipPath>
</defs>
</svg>
