<svg width="307" height="328" viewBox="0 0 307 328" fill="none" xmlns="http://www.w3.org/2000/svg">
<g clip-path="url(#clip0_12451_23251)">
<rect width="307" height="328" rx="4" fill="#AF231E"/>
<rect width="307" height="328" fill="url(#paint0_linear_12451_23251)"/>
<rect x="-1" width="308" height="328" fill="url(#paint1_linear_12451_23251)"/>
<rect x="147.785" y="11.5273" width="146" height="146" rx="13" transform="rotate(-35 147.785 11.5273)" fill="#EA5455" stroke="white" stroke-width="4"/>
<rect x="163.105" y="14.2285" width="124" height="124" rx="5" transform="rotate(-35 163.105 14.2285)" fill="white"/>
<path d="M234.926 30.6721C232.405 29.9174 229.877 29.6956 227.34 30.0066C224.777 30.2783 222.59 31.0474 220.782 32.3138C218.698 33.773 217.162 35.6391 216.176 37.9121C215.201 40.1183 214.869 42.4895 215.18 45.0258C215.463 47.5228 216.39 49.8919 217.959 52.1331C219.528 54.3743 221.451 56.0747 223.728 57.2345C225.978 58.3549 228.32 58.8539 230.754 58.7317C233.2 58.5426 235.464 57.7185 237.548 56.2593C239.239 55.0754 240.706 53.404 241.948 51.245C243.19 49.086 244.016 46.7501 244.424 44.2372L255.484 46.601C254.895 50.5295 253.543 54.2889 251.428 57.8794C249.324 61.4031 246.759 64.2249 243.731 66.3448C239.642 69.2081 235.285 70.8524 230.661 71.2778C226.037 71.7031 221.638 70.9448 217.466 69.0028C213.293 67.0608 209.789 64.0649 206.954 60.015C204.145 56.0044 202.576 51.7125 202.245 47.1393C201.914 42.566 202.772 38.1853 204.821 33.9971C206.908 29.7814 210.036 26.2143 214.204 23.296C217.27 21.1485 220.752 19.6773 224.649 18.8825C228.518 18.0483 232.266 18.0025 235.892 18.7452L234.926 30.6721ZM255.671 -4.77282C258.777 -6.94782 261.773 -8.40123 264.659 -9.13304C267.557 -9.9317 270.186 -9.98515 272.546 -9.29339C274.905 -8.60164 276.828 -7.19414 278.315 -5.0709C279.829 -2.90833 280.502 -0.566733 280.333 1.9539C280.204 4.44701 279.245 6.75934 277.456 8.8909C280.448 7.55743 283.352 7.31126 286.168 8.15238C289.023 8.96597 291.386 10.7096 293.258 13.3833C294.883 15.7032 295.666 18.2021 295.607 20.88C295.521 23.5186 294.609 26.1494 292.871 28.7725C291.106 31.3563 288.611 33.777 285.387 36.0346L264.98 50.3235L236.031 8.97925L255.671 -4.77282ZM266.603 12.0953C268.097 11.0491 269.029 9.86926 269.398 8.55581C269.74 7.20305 269.457 5.8779 268.548 4.58036C267.667 3.32214 266.56 2.66167 265.227 2.59894C263.867 2.49689 262.453 2.98863 260.987 4.07415L252.729 9.8558L258.346 17.8769L266.603 12.0953ZM278.166 28.6094C280.054 27.2879 281.272 25.8485 281.823 24.2912C282.373 22.7339 282.153 21.2475 281.161 19.832C280.253 18.5345 278.987 17.8977 277.363 17.9215C275.711 17.906 273.955 18.5786 272.096 19.9395L263.838 25.7211L269.909 34.391L278.166 28.6094Z" fill="#EA5455"/>
<rect width="307" height="328" fill="url(#paint2_linear_12451_23251)"/>
</g>
<defs>
<linearGradient id="paint0_linear_12451_23251" x1="-37.0142" y1="238.13" x2="358.606" y2="-7.12148" gradientUnits="userSpaceOnUse">
<stop offset="0.382953" stop-color="#EC5B56" stop-opacity="0.84"/>
<stop offset="1" stop-color="#AF1D11" stop-opacity="0"/>
</linearGradient>
<linearGradient id="paint1_linear_12451_23251" x1="-38.1348" y1="238.13" x2="358.057" y2="-8.27545" gradientUnits="userSpaceOnUse">
<stop offset="0.382953" stop-color="#EC5B56" stop-opacity="0.84"/>
<stop offset="1" stop-color="#AF1D11" stop-opacity="0"/>
</linearGradient>
<linearGradient id="paint2_linear_12451_23251" x1="-37.0142" y1="238.13" x2="358.606" y2="-7.12148" gradientUnits="userSpaceOnUse">
<stop offset="0.382953" stop-color="#EC5B56" stop-opacity="0.84"/>
<stop offset="0.819445" stop-color="#EC5B56" stop-opacity="0"/>
</linearGradient>
<clipPath id="clip0_12451_23251">
<rect width="307" height="328" rx="4" fill="white"/>
</clipPath>
</defs>
</svg>
