<svg width="16" height="16" viewBox="0 0 16 16" fill="none" xmlns="http://www.w3.org/2000/svg">
<path d="M12.4668 6.46732L8.46683 10.4673C8.3335 10.6007 8.20016 10.6673 8.00016 10.6673C7.80016 10.6673 7.66683 10.6007 7.5335 10.4673L3.5335 6.46732C3.26683 6.20065 3.26683 5.80065 3.5335 5.53398C3.80016 5.26732 4.20016 5.26732 4.46683 5.53398L8.00016 9.06732L11.5335 5.53398C11.8002 5.26732 12.2002 5.26732 12.4668 5.53398C12.7335 5.80065 12.7335 6.20065 12.4668 6.46732Z" fill="black"/>
<mask id="mask0_13250_30477" style="mask-type:alpha" maskUnits="userSpaceOnUse" x="3" y="5" width="10" height="6">
<path d="M12.4668 6.46732L8.46683 10.4673C8.3335 10.6007 8.20016 10.6673 8.00016 10.6673C7.80016 10.6673 7.66683 10.6007 7.5335 10.4673L3.5335 6.46732C3.26683 6.20065 3.26683 5.80065 3.5335 5.53398C3.80016 5.26732 4.20016 5.26732 4.46683 5.53398L8.00016 9.06732L11.5335 5.53398C11.8002 5.26732 12.2002 5.26732 12.4668 5.53398C12.7335 5.80065 12.7335 6.20065 12.4668 6.46732Z" fill="white"/>
</mask>
<g mask="url(#mask0_13250_30477)">
<rect width="16" height="16" fill="#B9B9C3"/>
</g>
</svg>
