<svg width="307" height="328" viewBox="0 0 307 328" fill="none" xmlns="http://www.w3.org/2000/svg">
<g clip-path="url(#clip0_12451_23162)">
<rect width="307" height="328" rx="4" fill="#C25518"/>
<rect width="307" height="328" fill="url(#paint0_linear_12451_23162)"/>
<rect x="147.785" y="11.5273" width="146" height="146" rx="13" transform="rotate(-35 147.785 11.5273)" fill="#FF9F43" stroke="white" stroke-width="4"/>
<rect x="163.105" y="14.2285" width="124" height="124" rx="5" transform="rotate(-35 163.105 14.2285)" fill="white"/>
<path d="M234.926 30.6721C232.405 29.9174 229.877 29.6956 227.34 30.0066C224.777 30.2783 222.59 31.0474 220.782 32.3138C218.698 33.773 217.162 35.6391 216.176 37.9121C215.201 40.1183 214.869 42.4895 215.18 45.0258C215.463 47.5228 216.39 49.8919 217.959 52.1331C219.528 54.3743 221.451 56.0747 223.728 57.2345C225.978 58.3549 228.32 58.8539 230.754 58.7317C233.2 58.5426 235.464 57.7185 237.548 56.2593C239.239 55.0754 240.706 53.404 241.948 51.245C243.19 49.086 244.016 46.7501 244.424 44.2372L255.484 46.601C254.895 50.5295 253.543 54.2889 251.428 57.8794C249.324 61.4031 246.759 64.2249 243.731 66.3448C239.642 69.2081 235.285 70.8524 230.661 71.2778C226.037 71.7031 221.638 70.9448 217.466 69.0028C213.293 67.0608 209.789 64.0649 206.954 60.015C204.145 56.0044 202.576 51.7125 202.245 47.1393C201.914 42.566 202.772 38.1853 204.821 33.9971C206.908 29.7814 210.036 26.2143 214.204 23.296C217.27 21.1485 220.752 19.6773 224.649 18.8825C228.518 18.0483 232.266 18.0025 235.892 18.7452L234.926 30.6721ZM232.433 11.4984L267.879 -13.3214L274.115 -4.41558L261.73 4.2569L284.443 36.6953L273.65 44.2528L250.937 11.8143L238.669 20.4042L232.433 11.4984Z" fill="#FF9F43"/>
<rect width="307" height="328" fill="url(#paint1_linear_12451_23162)"/>
</g>
<defs>
<linearGradient id="paint0_linear_12451_23162" x1="-37.0142" y1="238.13" x2="358.606" y2="-7.12148" gradientUnits="userSpaceOnUse">
<stop offset="0.382953" stop-color="#F08C34" stop-opacity="0.84"/>
<stop offset="1" stop-color="#C25518" stop-opacity="0"/>
</linearGradient>
<linearGradient id="paint1_linear_12451_23162" x1="-37.0142" y1="238.13" x2="358.606" y2="-7.12148" gradientUnits="userSpaceOnUse">
<stop offset="0.382953" stop-color="#F08C34" stop-opacity="0.84"/>
<stop offset="0.819445" stop-color="#F08C34" stop-opacity="0"/>
</linearGradient>
<clipPath id="clip0_12451_23162">
<rect width="307" height="328" rx="4" fill="white"/>
</clipPath>
</defs>
</svg>
