<svg width="19" height="16" viewBox="0 0 19 16" fill="none" xmlns="http://www.w3.org/2000/svg">
<path d="M8.3874 11.8609C8.3874 10.9729 8.1474 10.2049 7.6554 9.58088C6.9114 8.64488 5.4594 8.52488 4.6194 8.71688C4.2714 6.73688 5.9514 4.21687 8.1234 3.13687L6.4554 0.796875C3.1794 2.35688 -0.0485991 5.93288 0.503401 10.4569C0.851401 13.3129 2.5074 15.1969 4.8474 15.1969C5.8674 15.1969 6.7194 14.8969 7.3914 14.2969C8.0634 13.6969 8.3874 12.8809 8.3874 11.8609ZM18.0474 11.8609C18.0474 10.9729 17.8074 10.2049 17.3154 9.58088C16.5594 8.64488 15.1194 8.52488 14.2794 8.71688C13.9314 6.73688 15.6114 4.21687 17.7834 3.13687L16.1154 0.796875C12.8394 2.35688 9.6234 5.93288 10.1754 10.4569C10.5234 13.3129 12.1674 15.1969 14.5074 15.1969C15.5274 15.1969 16.3794 14.8969 17.0514 14.2969C17.7234 13.6969 18.0474 12.8809 18.0474 11.8609Z" fill="#368AC8"/>
</svg>
