<svg width="307" height="328" viewBox="0 0 307 328" fill="none" xmlns="http://www.w3.org/2000/svg">
<g clip-path="url(#clip0_12451_23233)">
<rect width="307" height="328" rx="4" fill="#412585"/>
<rect width="308" height="328" fill="url(#paint0_linear_12451_23233)"/>
<rect x="148.785" y="11.5273" width="146" height="146" rx="13" transform="rotate(-35 148.785 11.5273)" fill="#7B55E6" stroke="white" stroke-width="4"/>
<rect x="164.105" y="14.2285" width="124" height="124" rx="5" transform="rotate(-35 164.105 14.2285)" fill="white"/>
<path d="M274.914 43.6979L261.997 52.742L239.912 44.2985L238.769 53.7126L245.955 63.975L235.162 71.5324L206.212 30.1882L217.005 22.6307L229.56 40.5603L232.517 11.7695L245.02 3.01441L241.621 30.7967L274.914 43.6979ZM271.212 6.64915C271.019 4.03026 271.443 1.62362 272.485 -0.570752C273.566 -2.79266 275.227 -4.68827 277.468 -6.25757L284.2 3.356C283.818 3.56446 283.274 3.91648 282.566 4.41205C280.089 6.14655 278.496 8.14045 277.789 10.3938C277.054 12.6078 277.27 14.8 278.439 16.9705L289.837 33.2487L279.339 40.5996L256.997 8.692L267.495 1.34105L271.212 6.64915Z" fill="#7B55E6"/>
<rect x="1" width="307" height="328" fill="url(#paint1_linear_12451_23233)"/>
</g>
<defs>
<linearGradient id="paint0_linear_12451_23233" x1="-37.1348" y1="238.13" x2="359.057" y2="-8.27545" gradientUnits="userSpaceOnUse">
<stop offset="0.382953" stop-color="#7B55E6" stop-opacity="0.84"/>
<stop offset="1" stop-color="#7B55E6" stop-opacity="0"/>
</linearGradient>
<linearGradient id="paint1_linear_12451_23233" x1="-36.0142" y1="238.13" x2="359.606" y2="-7.12148" gradientUnits="userSpaceOnUse">
<stop offset="0.382953" stop-color="#7B55E6" stop-opacity="0.84"/>
<stop offset="0.819445" stop-color="#7B55E6" stop-opacity="0"/>
</linearGradient>
<clipPath id="clip0_12451_23233">
<rect width="307" height="328" rx="4" fill="white"/>
</clipPath>
</defs>
</svg>
