<svg width="20" height="18" viewBox="0 0 20 18" fill="none" xmlns="http://www.w3.org/2000/svg">
<path d="M9.99984 0C7.74461 0 5.9165 1.98316 5.9165 4.42969C5.9165 6.40758 8.58525 10.0125 9.60771 11.321C9.81479 11.5861 10.1852 11.5861 10.392 11.321C11.4144 10.0125 14.0832 6.40758 14.0832 4.42969C14.0832 1.98316 12.2551 0 9.99984 0ZM9.99984 5.90625C9.24799 5.90625 8.63873 5.24531 8.63873 4.42969C8.63873 3.61406 9.24799 2.95312 9.99984 2.95312C10.7517 2.95312 11.3609 3.61406 11.3609 4.42969C11.3609 5.24531 10.7517 5.90625 9.99984 5.90625ZM1.31854 7.59199C1.1261 7.67549 0.96113 7.81962 0.84491 8.00579C0.72869 8.19197 0.66655 8.41164 0.666504 8.63648L0.666504 17.4368C0.666504 17.8348 1.03692 18.1069 1.37752 17.9592L5.85169 15.75V7.55578C5.56521 6.99398 5.3309 6.44695 5.16303 5.92383L1.31854 7.59199ZM9.99984 12.6446C9.54387 12.6446 9.11252 12.4274 8.81664 12.0484C8.17951 11.2328 7.50187 10.3039 6.88873 9.35121V15.7496L13.1109 17.9996V9.35156C12.4978 10.3039 11.8205 11.2331 11.183 12.0487C10.8872 12.4274 10.4558 12.6446 9.99984 12.6446ZM18.6222 5.66578L14.148 7.875V18L18.6811 16.033C18.8736 15.9495 19.0386 15.8054 19.1548 15.6192C19.271 15.4331 19.3332 15.2134 19.3332 14.9885V6.1882C19.3332 5.79023 18.9628 5.51813 18.6222 5.66578Z" fill="#576C7F"/>
</svg>
