<svg width="88" height="88" viewBox="0 0 88 88" fill="none" xmlns="http://www.w3.org/2000/svg">
<path d="M0 43.9988C0 19.6987 19.6987 0 44 0C68.3 0 88 19.6987 88 43.9988C88 68.3 68.3 88 44 88C19.6987 88 0 68.3 0 43.9988Z" fill="#FFD05D"/>
<path d="M67.02 6.44531C71.4008 13.2866 73.9419 21.42 73.9419 30.1457C73.9419 54.447 54.2431 74.1457 29.9419 74.1457C21.5024 74.1457 13.6192 71.7682 6.92285 67.6489C14.7416 79.8571 28.4254 87.9484 43.9998 87.9484C68.2998 87.9484 87.9998 68.2485 87.9998 43.9484C87.9998 28.0866 79.6062 14.1885 67.02 6.44531Z" fill="#FDC453"/>
<path d="M5.98072 48.6406C5.98072 26.0787 24.2696 7.78991 46.8314 7.78991C60.0196 7.78991 71.7447 14.0402 79.2141 23.7384C72.1597 11.493 58.9381 3.24805 43.7911 3.24805C21.2293 3.24805 2.94043 21.5381 2.94043 44.1C2.94043 53.4736 6.09966 62.1076 11.4084 69.0021C7.95555 63.007 5.98072 56.0555 5.98072 48.6406Z" fill="#FFD77F"/>
<path d="M31.0311 33.3242C31.0311 36.3422 29.5803 38.7891 27.7901 38.7891C25.9986 38.7891 24.5479 36.3422 24.5479 33.3242C24.5479 30.3062 25.9986 27.8594 27.7901 27.8594C29.5803 27.8594 31.0311 30.3062 31.0311 33.3242Z" fill="#303030"/>
<path d="M63.4522 33.3242C63.4522 36.3422 62.0002 38.7891 60.21 38.7891C58.4198 38.7891 56.9678 36.3422 56.9678 33.3242C56.9678 30.3062 58.4198 27.8594 60.21 27.8594C62.0002 27.8594 63.4522 30.3062 63.4522 33.3242Z" fill="#303030"/>
<path d="M51.9452 56.3445C51.9452 63.7841 48.3883 69.8139 44.0001 69.8139C39.6119 69.8139 36.0537 63.7841 36.0537 56.3445C36.0537 48.9048 39.6119 42.875 44.0001 42.875C48.3883 42.875 51.9452 48.9048 51.9452 56.3445Z" fill="#695342"/>
<path d="M50.7062 63.5621C44.9093 60.3768 40.1903 62.1832 37.4609 63.992C38.8944 67.508 41.2879 69.8124 43.9999 69.8124C46.8209 69.8124 49.2963 67.3197 50.7062 63.5621Z" fill="#F06669"/>
</svg>
