<svg width="572" height="500" viewBox="0 0 572 500" fill="none" xmlns="http://www.w3.org/2000/svg">
<path d="M79.0438 276.728C79.0438 276.728 68.6452 279.482 77.3901 301.943C86.135 324.404 92.6186 335.74 92.6186 335.74C92.6186 335.74 94.0522 340.896 89.8026 341.246C85.553 341.597 76.5138 339.207 74.1412 344.128C71.6813 349.232 75.025 354.619 82.3816 359.789C89.7383 364.959 105.443 376.877 106.858 377.959C108.248 379.023 109.502 381.479 106.646 382.184C103.79 382.886 82.9092 382.964 83.5399 392.878C84.1697 402.791 107.031 413.822 109.507 415.077C111.982 416.331 112.488 417.485 112.137 418.88C111.786 420.274 104.764 419.638 98.827 419.904C92.889 420.17 86.0509 421.52 86.8934 427.209C87.7359 432.898 100.621 445.968 134.415 452.751L150.279 454.867L160.293 442.282C180.083 414.04 180.401 395.684 177.09 390.982C173.778 386.283 167.897 390.027 163.416 393.934C158.934 397.841 154.29 403.148 153.074 402.381C151.858 401.616 151.428 400.431 152.356 397.813C153.284 395.196 162.231 371.427 155.853 363.815C149.477 356.204 134.307 370.562 131.753 372.025C129.201 373.487 128.414 370.841 128.688 369.114C128.966 367.351 132.121 347.882 133.883 339.06C135.647 330.238 134.354 324.031 129.055 322.035C123.944 320.108 119.048 328.08 115.73 330.759C112.412 333.439 109.897 328.718 109.897 328.718C109.897 328.718 106.776 316.034 97.6242 293.736C88.4721 271.437 78.8352 276.8 78.8352 276.8L79.0413 276.73L79.0438 276.728Z" fill="#EDEDEB"/>
<path d="M150.728 458.698C144.071 442.296 132.73 412.943 122.861 387.793C112.996 362.653 104.044 339.898 97.4712 323.465C94.1811 315.264 91.5176 308.623 89.6677 304.009C88.7535 301.726 88.0412 299.946 87.5491 298.717C87.3183 298.125 87.1386 297.665 87.01 297.336C86.8913 297.024 86.8418 296.859 86.8418 296.859C86.8418 296.859 86.9226 297.01 87.057 297.316C87.1963 297.642 87.3908 298.094 87.6414 298.679C88.1534 299.899 88.8945 301.667 89.8466 303.935C91.7567 308.502 94.4722 315.13 97.7968 323.332C104.454 339.735 113.46 362.472 123.323 387.613C133.192 412.761 144.481 442.132 151.054 458.568L150.728 458.699V458.698Z" fill="#E0E1E2"/>
<path d="M86.6526 347.988C86.6675 347.958 87.0508 348.11 87.7317 348.409C88.4135 348.707 89.3871 349.166 90.5849 349.745C92.9772 350.907 96.2417 352.597 99.8087 354.525C103.32 356.44 106.495 358.173 108.924 359.498C110.023 360.088 110.949 360.585 111.694 360.986C112.349 361.336 112.707 361.542 112.692 361.574C112.677 361.605 112.292 361.456 111.61 361.161C110.928 360.861 109.954 360.401 108.762 359.81C106.38 358.624 103.14 356.893 99.5721 354.963C96.0488 353.074 92.8626 351.365 90.425 350.059C89.3228 349.473 88.3929 348.98 87.646 348.583C86.9923 348.229 86.637 348.018 86.6518 347.988H86.6526Z" fill="#E0E1E2"/>
<path d="M113.883 360.666C113.759 360.607 116.942 353.719 120.993 345.285C125.045 336.847 128.429 330.059 128.552 330.118C128.676 330.177 125.493 337.063 121.441 345.5C117.391 353.935 114.007 360.725 113.884 360.666H113.883Z" fill="#E0E1E2"/>
<path d="M127.294 399.958C127.27 399.935 127.536 399.609 128.039 399.041C128.614 398.399 129.332 397.599 130.185 396.649C131.993 394.626 134.478 391.825 137.106 388.63C139.743 385.442 142.029 382.474 143.666 380.31C144.438 379.293 145.088 378.438 145.609 377.752C146.071 377.148 146.339 376.825 146.368 376.845C146.397 376.864 146.18 377.227 145.766 377.863C145.351 378.5 144.735 379.411 143.95 380.52C142.382 382.738 140.134 385.75 137.49 388.947C134.853 392.15 132.319 394.924 130.442 396.888C129.5 397.865 128.728 398.648 128.179 399.175C127.631 399.704 127.318 399.982 127.293 399.958H127.294Z" fill="#E0E1E2"/>
<path d="M100.143 393.917C100.15 393.884 100.537 393.931 101.228 394.045C102.023 394.19 102.999 394.367 104.15 394.576C106.613 395.044 110.009 395.726 113.752 396.509C117.497 397.291 120.881 398.028 123.327 398.585C124.465 398.856 125.43 399.085 126.217 399.27C126.897 399.443 127.269 399.554 127.263 399.588C127.256 399.621 126.869 399.574 126.177 399.461C125.382 399.316 124.407 399.14 123.255 398.93C120.791 398.461 117.396 397.778 113.651 396.996C109.907 396.213 106.523 395.477 104.078 394.92C102.94 394.651 101.974 394.421 101.188 394.235C100.509 394.063 100.135 393.95 100.142 393.917L100.143 393.917Z" fill="#E0E1E2"/>
<path d="M107.58 430.118C107.585 430.084 108.079 430.149 108.966 430.296C109.942 430.469 111.202 430.694 112.713 430.962C115.873 431.545 120.232 432.385 125.04 433.342C129.85 434.3 134.198 435.193 137.339 435.866C138.84 436.197 140.087 436.473 141.056 436.686C141.932 436.891 142.413 437.02 142.406 437.053C142.399 437.088 141.905 437.023 141.018 436.876C140.041 436.703 138.783 436.479 137.271 436.21C134.112 435.627 129.752 434.787 124.943 433.829C120.135 432.873 115.787 431.978 112.644 431.306C111.145 430.976 109.897 430.7 108.928 430.486C108.053 430.282 107.572 430.152 107.579 430.119L107.58 430.118Z" fill="#E0E1E2"/>
<path d="M142.62 436.654C142.595 436.63 142.921 436.209 143.535 435.467C144.209 434.66 145.087 433.605 146.146 432.335C148.347 429.69 151.373 426.024 154.599 421.881C157.832 417.744 160.66 413.923 162.688 411.14C163.663 409.805 164.472 408.697 165.093 407.848C165.664 407.072 165.993 406.653 166.021 406.673C166.048 406.691 165.774 407.149 165.251 407.958C164.729 408.768 163.955 409.927 162.974 411.344C161.017 414.181 158.229 418.043 154.99 422.187C151.76 426.335 148.686 429.973 146.412 432.564C145.273 433.855 144.341 434.892 143.68 435.593C143.022 436.297 142.646 436.675 142.62 436.654V436.654Z" fill="#E0E1E2"/>
<path d="M197.176 0.000824972C196.308 12.3774 197.182 35.4219 192.675 46.9784C188.168 58.5357 182.166 70.4436 170.896 75.6122C157.019 81.977 140.711 79.281 125.908 83.0099C102.704 88.8534 85.9296 110.155 78.7667 133.004C71.6046 155.85 72.3984 180.327 73.2624 204.257L191.683 220.7C191.683 220.7 192.304 172.545 202.632 159.403C212.96 146.261 262.022 134.43 278.228 98.4373C292.812 66.0473 297.209 14.6774 297.209 14.6774L197.175 0L197.176 0.000824972Z" fill="#F3F4F4"/>
<path d="M227.707 27.2166C227.866 25.923 227.103 25.0782 225.487 24.8777L223.338 24.6121L222.837 28.6686L224.986 28.9334C226.603 29.1339 227.549 28.4887 227.707 27.2174V27.2166ZM227.095 32.5386L225.569 29.7105C225.358 29.7072 225.15 29.694 224.92 29.6635L222.747 29.3954L222.429 31.9619L221.575 31.8563L222.575 23.7656L225.601 24.1402C227.657 24.3943 228.775 25.5889 228.561 27.3213C228.404 28.5943 227.624 29.3995 226.4 29.6363L228.031 32.6541L227.095 32.5386Z" fill="#E0E1E2"/>
<path d="M235.732 32.8546L235.641 33.5938L229.924 32.8868L230.924 24.7969L236.468 25.4824L236.375 26.2225L231.687 25.6425L231.332 28.5209L235.511 29.0373L235.421 29.765L231.242 29.2485L230.871 32.2532L235.732 32.8546Z" fill="#E0E1E2"/>
<path d="M237.387 29.7065C237.68 27.3372 239.698 25.8142 242.133 26.1162C243.312 26.2614 244.325 26.7852 244.943 27.6597L244.334 28.1366C243.758 27.385 242.986 26.9956 242.062 26.8818C240.11 26.64 238.467 27.8916 238.23 29.8105C237.994 31.7286 239.282 33.3415 241.234 33.584C242.158 33.6987 243.002 33.5106 243.744 32.9092L244.22 33.5197C243.407 34.216 242.294 34.4898 241.105 34.3422C238.681 34.0427 237.094 32.0751 237.386 29.7065H237.387Z" fill="#E0E1E2"/>
<path d="M251.713 34.8311L251.622 35.5695L245.906 34.8625L246.905 26.7734L252.448 27.459L252.355 28.199L247.668 27.6191L247.312 30.4958L251.492 31.0131L251.401 31.7415L247.223 31.2251L246.852 34.2297L251.713 34.8311Z" fill="#E0E1E2"/>
<path d="M254.631 27.7344L255.485 27.84L254.487 35.9299L253.633 35.8243L254.631 27.7344Z" fill="#E0E1E2"/>
<path d="M263.249 31.6142C263.409 30.3189 262.645 29.475 261.029 29.2745L258.88 29.0089L258.381 33.0538L260.527 33.3194C262.144 33.5199 263.09 32.8863 263.248 31.6142H263.249ZM264.103 31.7198C263.89 33.4407 262.516 34.3268 260.461 34.0727L258.288 33.8045L257.974 36.3587L257.119 36.2548L258.117 28.1641L261.143 28.5386C263.198 28.7927 264.317 29.9873 264.103 31.7206V31.7198Z" fill="#E0E1E2"/>
<path d="M267.507 30.0758L264.665 29.7236L264.758 28.9844L271.295 29.792L271.201 30.5329L268.361 30.1806L267.454 37.5305L266.6 37.4249L267.507 30.0758Z" fill="#E0E1E2"/>
<path d="M254.711 52.2936C254.69 52.4561 243.9 51.1204 230.619 49.3087C217.332 47.4962 206.582 45.8966 206.605 45.7324C206.626 45.5682 217.412 46.9055 230.7 48.718C243.983 50.5281 254.735 52.1302 254.712 52.2927L254.711 52.2936Z" fill="#E0E1E2"/>
<path d="M253.415 61.9417C253.394 62.1043 242.606 60.7686 229.323 58.9569C216.036 57.1452 205.287 55.5431 205.308 55.3806C205.331 55.2181 216.116 56.5537 229.404 58.3654C242.685 60.1771 253.437 61.7784 253.414 61.9417H253.415Z" fill="#E0E1E2"/>
<path d="M249.006 71.7857C248.983 71.9491 238.195 70.6126 224.913 68.8009C211.625 66.9892 200.877 65.3887 200.898 65.2246C200.919 65.0604 211.706 66.3977 224.993 68.2102C238.275 70.0203 249.026 71.6224 249.006 71.7849V71.7857Z" fill="#E0E1E2"/>
<path d="M240.973 81.709C240.952 81.8715 230.164 80.5342 216.881 78.7226C203.594 76.9109 192.844 75.3104 192.866 75.1462C192.889 74.9837 203.674 76.3193 216.961 78.131C230.244 79.9427 240.997 81.544 240.973 81.7082V81.709Z" fill="#E0E1E2"/>
<path d="M228.191 91.6136C228.168 91.7761 217.381 90.4405 204.098 88.6296C190.811 86.8171 180.061 85.215 180.085 85.0525C180.106 84.8899 190.891 86.2256 204.179 88.0373C217.462 89.849 228.214 91.4503 228.192 91.6136H228.191Z" fill="#E0E1E2"/>
<path d="M276.279 55.5136C276.254 55.6761 273.602 55.3791 270.358 54.8511C267.113 54.3231 264.505 53.7613 264.531 53.5988C264.559 53.4371 267.21 53.7341 270.455 54.2621C273.698 54.7901 276.306 55.3519 276.28 55.5136H276.279Z" fill="#E0E1E2"/>
<path d="M275.861 64.1155C275.834 64.2772 273.182 63.981 269.938 63.4522C266.693 62.9242 264.085 62.3641 264.111 62.2007C264.138 62.0382 266.789 62.3352 270.034 62.8632C273.278 63.3912 275.885 63.953 275.861 64.1155Z" fill="#E0E1E2"/>
<path d="M272.945 76.0166C272.917 76.1791 270.263 75.8673 267.015 75.3294C263.773 74.7931 261.133 74.2247 261.196 74.1034C261.179 73.898 263.873 74.2041 267.112 74.7403C270.362 75.279 272.972 75.8541 272.945 76.0166Z" fill="#E0E1E2"/>
<path d="M268.731 86.0939C268.704 86.2564 266.049 85.9454 262.802 85.4067C259.56 84.8704 256.92 84.302 256.983 84.1807C256.965 83.977 259.658 84.283 262.897 84.8176C266.147 85.3572 268.759 85.933 268.731 86.0939H268.731Z" fill="#E0E1E2"/>
<path d="M259.672 95.6644C259.646 95.8277 256.99 95.515 253.742 94.9772C250.501 94.4409 247.861 93.8725 247.924 93.7512C247.907 93.5474 250.601 93.8519 253.84 94.3881C257.089 94.9276 259.701 95.5027 259.672 95.6644Z" fill="#E0E1E2"/>
<path d="M217.258 103.717C217.235 103.88 201.041 101.722 181.093 98.8972C161.138 96.0716 144.985 93.6478 145.009 93.4853C145.032 93.3219 161.222 95.4801 181.176 98.3057C201.123 101.131 217.28 103.553 217.257 103.717H217.258Z" fill="#E0E1E2"/>
<path d="M207.896 113.843C207.893 113.864 207.617 113.841 207.095 113.779C206.515 113.702 205.759 113.602 204.818 113.478C202.775 113.181 199.936 112.767 196.459 112.261C189.348 111.163 179.64 109.665 168.914 108.012C158.161 106.313 148.432 104.741 141.396 103.562C137.932 102.964 135.106 102.475 133.071 102.125C132.09 101.942 131.331 101.804 130.813 101.692C130.297 101.579 130.032 101.51 130.037 101.49C130.043 101.471 130.32 101.5 130.837 101.574C131.416 101.655 132.17 101.763 133.109 101.895C135.15 102.201 137.987 102.624 141.462 103.144C148.572 104.249 158.28 105.756 169.007 107.422C179.722 109.144 189.42 110.702 196.524 111.844C199.989 112.428 202.818 112.905 204.853 113.249C205.787 113.42 206.538 113.556 207.114 113.66C207.63 113.76 207.898 113.824 207.895 113.843H207.896Z" fill="#E0E1E2"/>
<path d="M192.784 123.11C192.887 123.211 191.724 123.087 189.808 122.847C187.865 122.599 185.059 122.21 181.596 121.707C174.669 120.703 165.11 119.25 154.559 117.597C144.006 115.945 134.46 114.407 127.555 113.264C124.157 112.688 121.382 112.217 119.383 111.878C118.468 111.71 117.731 111.575 117.164 111.471C116.658 111.371 116.395 111.309 116.398 111.289C116.401 111.268 116.672 111.291 117.183 111.353C117.755 111.427 118.496 111.525 119.418 111.648C121.425 111.942 124.21 112.348 127.621 112.847C134.599 113.922 144.125 115.387 154.652 117.007C165.168 118.676 174.686 120.184 181.66 121.29C187.956 122.32 191.32 122.871 192.784 123.111V123.11Z" fill="#E0E1E2"/>
<path d="M244.54 109.282C244.513 109.446 241.858 109.133 238.61 108.595C235.37 108.059 232.728 107.49 232.792 107.368C232.774 107.164 235.468 107.471 238.707 108.007C241.955 108.545 244.567 109.122 244.54 109.283V109.282Z" fill="#E0E1E2"/>
<path d="M232.872 115.782C232.844 115.945 230.19 115.633 226.942 115.095C223.701 114.559 221.06 113.99 221.123 113.868C221.105 113.664 223.799 113.971 227.038 114.507C230.288 115.045 232.899 115.62 232.871 115.783L232.872 115.782Z" fill="#E0E1E2"/>
<path d="M217.167 126.728C217.139 126.891 214.484 126.58 211.236 126.04C207.996 125.505 205.354 124.937 205.418 124.814C205.4 124.61 208.094 124.915 211.333 125.451C214.583 125.99 217.195 126.565 217.167 126.728V126.728Z" fill="#E0E1E2"/>
<path d="M186.135 144.007C186.111 144.17 166.097 141.223 141.437 137.427C116.77 133.629 96.8002 130.42 96.8257 130.256C96.8504 130.093 116.861 133.038 141.528 136.837C166.187 140.634 186.161 143.843 186.135 144.007Z" fill="#E0E1E2"/>
<path d="M175.148 165.693C175.122 165.855 168.561 164.929 160.496 163.624C152.428 162.318 145.913 161.127 145.939 160.964C145.965 160.801 152.525 161.727 160.592 163.035C168.656 164.34 175.174 165.53 175.148 165.693Z" fill="#E0E1E2"/>
<path d="M119.543 104.164L119.631 108.757C119.631 108.757 121.494 144.293 121.379 149.614C121.265 154.933 103.462 185.422 103.462 185.422L114.335 203.251L140.447 156.258L134.191 105.854L134.038 104.61L119.542 104.164H119.543Z" fill="#FABBA3"/>
<path d="M132.793 98.676C132.698 98.3023 129.226 85.7344 129.226 85.7344L115.43 93.6956C115.408 94.8505 119.544 104.166 119.544 104.166L121.927 106.634C121.927 106.634 133.859 105.372 134.118 105.251C134.377 105.13 132.793 98.6769 132.793 98.6769L132.793 98.676Z" fill="#FABBA3"/>
<path d="M129.708 86.6524C129.737 86.6598 129.785 86.7563 129.849 86.9263C130.372 88.3271 131.899 94.6375 131.203 95.1028C130.421 95.6266 128.148 95.6893 127.787 94.899C127.425 94.1095 126.104 86.9032 126.104 86.9032C126.104 86.9032 125.968 85.7506 127.771 84.9966C128.884 84.5305 129.707 86.6524 129.707 86.6524H129.708Z" fill="#FABBA3"/>
<path d="M125.357 85.3709C125.385 85.3775 125.434 85.4765 125.497 85.6448C126.022 87.0456 127.549 93.356 126.852 93.823C126.07 94.3452 123.797 94.4079 123.436 93.6192C123.075 92.828 121.755 85.6234 121.755 85.6234C121.755 85.6234 121.617 84.4708 123.421 83.7152C124.535 83.2499 125.358 85.3709 125.358 85.3709H125.357Z" fill="#FABBA3"/>
<path d="M121.381 85.1912C121.41 85.1986 121.457 85.2952 121.522 85.4651C122.045 86.866 123.572 93.1763 122.876 93.6424C122.095 94.1647 119.821 94.2282 119.46 93.4378C119.098 92.6483 117.778 85.4437 117.778 85.4437C117.778 85.4437 117.642 84.2895 119.445 83.5355C120.558 83.0702 121.382 85.1912 121.382 85.1912H121.381Z" fill="#FABBA3"/>
<path d="M117.442 85.074C117.469 85.0806 117.518 85.178 117.582 85.3479C118.105 86.7488 119.634 93.0591 118.936 93.5261C118.154 94.0483 115.881 94.111 115.52 93.3223C115.158 92.5311 113.838 85.3265 113.838 85.3265C113.838 85.3265 113.701 84.174 115.505 83.4183C116.618 82.953 117.442 85.074 117.442 85.074H117.442Z" fill="#FABBA3"/>
<path d="M127.284 93.0746C127.39 93.0383 127.169 91.6341 126.79 89.9388C126.41 88.2442 126.018 86.9003 125.912 86.9383C125.806 86.9746 126.027 88.3771 126.406 90.0733C126.785 91.7678 127.179 93.1117 127.284 93.0754V93.0746Z" fill="#F79A73"/>
<path d="M123.585 94.0516C123.695 94.0277 123.35 92.0387 122.816 89.6107C122.281 87.1828 121.758 85.2333 121.648 85.258C121.538 85.2836 121.881 87.2702 122.417 89.699C122.951 92.1269 123.475 94.0772 123.585 94.0516Z" fill="#F79A73"/>
<path d="M118.061 86.9553C117.963 86.5887 117.871 86.2559 117.786 85.976C117.789 85.938 117.795 85.9182 117.805 85.9149C117.806 85.9141 117.808 85.9141 117.808 85.9141C117.826 85.9141 117.855 85.9636 117.891 86.0536C117.938 86.2988 117.994 86.6068 118.061 86.9553H118.061Z" fill="#F9AF8F"/>
<path d="M119.742 94.7115C119.668 94.7115 119.423 93.8948 119.114 92.6631C119.109 92.451 119.091 92.2093 119.063 91.9453C119.229 92.6886 119.373 93.2513 119.46 93.4419C119.5 93.5301 119.564 93.6077 119.648 93.6753C119.752 94.3122 119.792 94.7016 119.743 94.7115C119.743 94.7123 119.741 94.7123 119.741 94.7123L119.742 94.7115Z" fill="#F8A27C"/>
<path d="M119.647 93.6735C119.563 93.6058 119.5 93.5275 119.459 93.44C119.372 93.2495 119.229 92.6868 119.064 91.9435C118.911 90.5212 118.454 88.4513 118.06 86.9556C117.994 86.6074 117.937 86.3005 117.891 86.0547C118.086 86.5406 118.525 88.236 118.973 90.2688C119.274 91.6325 119.515 92.8576 119.647 93.6735Z" fill="#F8A27C"/>
<path d="M119.114 92.6615C118.946 91.9949 118.761 91.2054 118.575 90.3573C118.091 88.1628 117.764 86.3288 117.786 85.9766C117.871 86.2562 117.963 86.5887 118.06 86.955C118.454 88.4507 118.911 90.5206 119.063 91.9429C119.091 92.2069 119.11 92.4495 119.114 92.6607V92.6615Z" fill="#F8A27C"/>
<path d="M122.722 102.909L118.55 99.535C116.726 98.0608 115.543 95.9381 115.247 93.6099L115.02 91.8312L127.55 89.2969C127.55 89.2969 127.61 93.9779 124.002 94.0356L128.439 96.2837L122.722 102.908V102.909Z" fill="#FABBA3"/>
<path d="M127.885 97.2307C127.826 97.2662 127.555 96.7209 126.799 96.0196C126.062 95.3382 124.73 94.495 122.969 94.4736L121.627 94.4579L122.89 93.9918C123.792 93.6568 124.772 93.2955 125.808 92.9127L125.75 92.9399C126.807 92.2865 127.746 91.0804 127.565 89.6928C127.551 89.5872 127.53 89.4684 127.508 89.3982L127.862 89.5929C124.349 90.46 121.164 91.1959 118.835 91.5927C117.673 91.7965 116.728 91.9301 116.074 92.0036C115.419 92.0753 115.055 92.0918 115.049 92.0531C115.035 91.9673 116.461 91.6942 118.754 91.1843C121.05 90.6836 124.205 89.885 127.719 89.013L127.992 88.9453L128.072 89.2077C128.118 89.3553 128.137 89.4766 128.157 89.6152C128.258 90.4377 128.04 91.2619 127.621 91.9095C127.212 92.5695 126.63 93.0439 126.055 93.4159L126.028 93.4341L125.998 93.4448C124.955 93.8045 123.967 94.1452 123.058 94.4587L122.978 93.9761C124.913 94.0586 126.287 95.0403 127.001 95.8167C127.733 96.6161 127.917 97.22 127.885 97.2307Z" fill="#F79A73"/>
<path d="M127.121 91.4022C127.219 91.3412 127.429 91.9673 128.068 92.5465C128.383 92.8063 128.923 92.9953 129.321 92.7288C129.742 92.4598 129.937 91.8428 129.877 91.1679C129.727 89.7506 129.651 88.4149 129.517 87.4992C129.385 86.5711 129.241 85.9985 129.326 85.9696C129.396 85.9441 129.685 86.4754 129.93 87.4167C130.18 88.3704 130.319 89.6623 130.473 91.1349C130.541 91.8865 130.307 92.7989 129.604 93.1999C128.859 93.6091 128.127 93.2164 127.783 92.8583C127.413 92.4747 127.274 92.0853 127.185 91.8296C127.101 91.5697 127.084 91.4179 127.121 91.4022Z" fill="#F79A73"/>
<path d="M84.3202 132.973C87.3704 132.795 90.1955 134.644 92.2968 136.864C94.3981 139.083 96.0246 141.726 98.2051 143.868C99.8324 145.466 101.802 146.833 102.788 148.889C104.356 152.162 103.042 156.393 105.019 159.437C106.131 161.151 108.105 162.153 109.253 163.844C110.691 165.96 110.585 168.74 110.259 171.278C110.033 173.04 109.677 174.902 108.468 176.202C107.522 177.219 106.178 177.752 104.863 178.202C94.9455 181.587 83.9798 181.821 73.9258 178.864L84.3202 132.974V132.973Z" fill="#313F44"/>
<path d="M63.3277 153.404C62.2296 144.63 68.5707 136.613 77.473 135.764C85.8635 134.965 93.319 141.217 94.5762 149.556C95.6784 156.867 96.6264 164.247 96.5926 166.928C96.4896 175.011 91.7643 178.157 89.8485 179.102C89.4115 179.319 88.2055 179.562 87.7232 179.632L87.6779 179.694L89.4717 188.973C90.2845 195.051 86.8939 200.473 80.829 201.359C74.7444 202.246 69.9878 197.578 69.0579 191.492L63.3269 153.404H63.3277Z" fill="#FABBA3"/>
<path d="M93.1852 154.276C93.0517 154.465 91.985 153.893 90.6181 154.097C89.2513 154.279 88.3495 155.13 88.1772 154.984C88.0939 154.921 88.211 154.597 88.6009 154.215C88.9851 153.835 89.6726 153.42 90.5258 153.301C91.3782 153.18 92.1408 153.39 92.5991 153.651C93.0665 153.913 93.252 154.192 93.1852 154.276Z" fill="#313F44"/>
<path d="M81.0212 156.918C80.8876 157.107 79.8193 156.534 78.4541 156.737C77.0865 156.92 76.1854 157.771 76.0123 157.625C75.9291 157.562 76.0445 157.239 76.436 156.856C76.8202 156.477 77.5085 156.062 78.3609 155.94C79.2133 155.822 79.9751 156.031 80.4342 156.291C80.9 156.553 81.0871 156.832 81.0212 156.917V156.918Z" fill="#313F44"/>
<path d="M85.7519 163.38C85.7346 163.303 86.5623 163.032 87.9142 162.655C88.258 162.568 88.5787 162.451 88.6018 162.204C88.6479 161.939 88.4468 161.583 88.2184 161.202C87.7675 160.404 87.2951 159.569 86.7989 158.693C84.8138 155.113 83.3217 152.149 83.4668 152.072C83.6119 151.993 85.3381 154.83 87.324 158.409C87.8046 159.292 88.2646 160.135 88.7023 160.941C88.8919 161.318 89.1854 161.736 89.0824 162.285C89.0263 162.559 88.798 162.787 88.5836 162.879C88.3693 162.982 88.1739 163.014 88.0024 163.049C86.6274 163.326 85.7684 163.457 85.7519 163.38Z" fill="#313F44"/>
<path d="M87.6678 179.633C87.6678 179.633 82.4529 180.837 75.271 177.828C75.271 177.828 78.3714 184.507 88.1517 182.133L87.6678 179.633Z" fill="#F79A73"/>
<path d="M85.6535 166.768C85.0674 166.188 84.154 165.957 83.3123 166.174C82.7286 166.325 82.1705 166.698 81.8804 167.235C81.5902 167.769 81.6141 168.467 82.009 168.881C82.4533 169.346 83.2422 169.355 83.8679 169.073C84.4936 168.791 84.9915 168.281 85.4631 167.774C85.5933 167.635 85.726 167.489 85.7953 167.313C85.8637 167.137 85.8522 166.922 85.7186 166.804L85.6535 166.768Z" fill="#F79A73"/>
<path d="M81.8662 164.915C82.0863 164.87 82.3056 166.354 83.7292 167.224C85.1505 168.096 86.7093 167.699 86.7514 167.905C86.7852 167.996 86.4414 168.244 85.7753 168.36C85.1233 168.478 84.1373 168.407 83.2651 167.877C82.3962 167.343 81.9371 166.53 81.7986 165.926C81.651 165.314 81.7631 164.922 81.8662 164.916V164.915Z" fill="#313F44"/>
<path d="M80.0789 152.466C79.9981 152.858 78.6074 152.881 77.032 153.308C75.4467 153.703 74.2217 154.363 73.9604 154.061C73.8425 153.915 74.0173 153.532 74.4872 153.095C74.9529 152.66 75.7311 152.199 76.6783 151.949C77.6247 151.704 78.5291 151.728 79.1482 151.881C79.7714 152.032 80.111 152.282 80.078 152.466H80.0789Z" fill="#313F44"/>
<path d="M91.8044 150.06C91.6091 150.405 90.6207 150.22 89.4855 150.371C88.3454 150.48 87.4238 150.885 87.1567 150.592C87.0371 150.448 87.1426 150.115 87.5186 149.76C87.8887 149.406 88.5441 149.065 89.3264 148.976C90.1079 148.887 90.8235 149.07 91.2637 149.332C91.7105 149.593 91.8894 149.894 91.8053 150.06H91.8044Z" fill="#313F44"/>
<path d="M96.1635 147.742C94.4917 150.295 89.1869 148.718 85.9826 146.964C82.6085 149.203 77.9203 148.232 75.5824 144.81C73.7498 147.146 70.027 146.374 68.6692 143.742C67.3123 141.108 68.0757 137.486 69.9404 135.182C71.8051 132.878 74.533 131.715 77.2262 131.217C83.6117 130.036 90.5669 132.514 94.3887 138.294C96.1512 140.959 97.2088 144.55 96.1644 147.743L96.1635 147.742Z" fill="#313F44"/>
<path d="M70.4174 134.995C64.411 133.847 58.6108 139.839 58.0106 144.128C56.9678 151.573 57.9727 152.501 56.6133 156.07C55.7296 158.389 52.6737 160.766 51.4676 163.157C50.1701 165.728 50.1758 170.071 51.0769 172.806C51.8369 175.113 54.9374 181.553 54.9374 181.553C54.9374 181.553 63.8743 181.26 68.4446 180.09C69.5847 179.798 70.7999 179.371 71.6712 178.579C72.5352 177.793 70.7463 175.061 70.9095 173.904C71.3786 170.604 73.8476 168.697 73.1411 165.44C72.2029 161.115 68.8041 160.894 68.8791 156.47C68.9187 154.12 72.4165 150.751 72.7371 148.423C73.0586 146.095 74.4073 137.992 70.4174 134.994V134.995Z" fill="#313F44"/>
<path d="M60.2512 181.825C60.2825 181.795 59.8159 181.325 59.0624 180.409C58.3147 179.492 57.2826 178.101 56.403 176.181C55.5383 174.276 54.8293 171.778 55.1022 169.008C55.3503 166.277 56.5671 163.236 59.0567 161.223C60.2932 160.219 61.7078 159.461 62.9131 158.452C64.1513 157.477 65.0127 156.096 65.415 154.717C65.8453 153.338 65.9888 151.985 66.1553 150.747C66.3169 149.507 66.504 148.364 66.8395 147.371C67.466 145.355 68.8337 144.141 69.8946 143.692C70.9737 143.221 71.672 143.391 71.6654 143.32C71.6678 143.308 71.5046 143.261 71.1864 143.252C70.869 143.24 70.3876 143.281 69.8163 143.502C68.682 143.908 67.1866 145.159 66.4867 147.249C66.1149 148.274 65.903 149.444 65.7217 150.687C65.5362 151.928 65.3754 153.254 64.9509 154.569C64.5445 155.892 63.7638 157.123 62.5808 158.056C61.4284 159.017 60.0154 159.768 58.722 160.814C56.0972 162.941 54.8474 166.132 54.6174 168.965C54.3611 171.847 55.1376 174.414 56.0642 176.34C57.0073 178.284 58.1029 179.66 58.905 180.544C59.3064 180.99 59.6403 181.314 59.8744 181.525C60.1086 181.736 60.2372 181.84 60.2495 181.826L60.2512 181.825Z" fill="#44616B"/>
<path d="M103.946 177.933C103.962 177.941 104.038 177.831 104.17 177.611C104.311 177.394 104.474 177.054 104.675 176.605C105.048 175.706 105.452 174.312 105.454 172.547C105.461 170.798 105.042 168.647 103.774 166.66C103.154 165.656 102.302 164.778 101.516 163.831C100.729 162.889 99.9947 161.843 99.726 160.599C99.191 158.088 100.015 155.558 99.8447 153.226C99.7598 150.899 99.1118 148.831 98.1943 147.325C97.285 145.806 96.1969 144.841 95.3989 144.284C94.9957 144.007 94.6734 143.81 94.4401 143.698C94.2126 143.58 94.0898 143.527 94.0807 143.541C94.0535 143.589 94.5275 143.846 95.276 144.447C96.0213 145.043 97.0361 146.024 97.8711 147.511C98.7153 148.987 99.3023 150.985 99.3591 153.243C99.4045 154.371 99.2701 155.547 99.1382 156.793C99.017 158.031 98.9033 159.367 99.2124 160.717C99.5067 162.082 100.315 163.213 101.119 164.164C101.928 165.125 102.768 165.979 103.365 166.924C104.595 168.802 105.042 170.86 105.08 172.552C105.125 174.259 104.789 175.629 104.483 176.533C104.162 177.438 103.901 177.909 103.946 177.933Z" fill="#44616B"/>
<path d="M78.51 132.131C78.5166 132.244 80.0194 131.955 82.3845 132.349C84.7059 132.739 87.9762 133.95 90.4098 136.67C92.7889 139.428 93.8696 142.698 94.2645 145.031C94.6635 147.4 94.3593 148.897 94.4632 148.906C94.4929 148.912 94.5926 148.547 94.6808 147.869C94.7599 147.189 94.7863 146.193 94.6338 144.977C94.3206 142.568 93.281 139.195 90.8038 136.319C88.254 133.473 84.837 132.285 82.4381 131.98C81.2213 131.82 80.2247 131.855 79.5479 131.932C78.8686 132.004 78.5034 132.102 78.5084 132.131H78.51Z" fill="#44616B"/>
<path d="M87.1447 144.008C87.1744 144.011 87.2428 143.69 87.2725 143.098C87.3038 142.507 87.2544 141.642 87.0128 140.603C86.5586 138.553 85.0747 135.722 82.2142 134.021C79.3396 132.341 76.1443 132.415 74.1337 133.011C73.109 133.302 72.3283 133.679 71.828 133.993C71.3243 134.306 71.0778 134.521 71.0951 134.546C71.147 134.641 72.2146 133.847 74.2269 133.373C76.193 132.887 79.2324 132.889 81.9471 134.475C84.6494 136.082 86.1225 138.741 86.6517 140.697C87.214 142.687 87.0367 144.009 87.1455 144.007L87.1447 144.008Z" fill="#44616B"/>
<path d="M61.2253 234.486C61.2253 234.486 65.1856 243.523 64.9572 247.797C64.7297 252.072 60.645 265.953 60.645 265.953L109.061 270.486L109.284 259.28L107.827 213.184L134.822 172.082L114.392 160.234L94.5347 187.17L89.5077 185.22L67.7881 187.976V191.817L67.1665 191.893C67.1665 191.893 60.2625 193.148 53.6329 197.199C45.8105 201.979 41.8082 211.136 43.264 220.193C44.1477 225.688 45.8599 232.368 49.1574 236.228C55.4655 243.611 61.2253 234.486 61.2253 234.486Z" fill="#368AC8"/>
<path d="M54.3597 212.972C54.3597 212.972 51.8817 198.899 52.6005 197.887C53.4538 196.682 63.6289 192.304 63.7831 192.751L66.018 208.222L54.3597 212.972Z" fill="#F9F8F8"/>
<path d="M95.6227 213.75L94.4653 240.736H104.649V213.75H95.6227Z" fill="#F9F8F8"/>
<path d="M78.776 227.245C78.7637 227.231 78.9607 227.218 79.3539 227.204C79.8114 227.191 80.391 227.175 81.1082 227.156C82.7429 227.129 85.0008 227.094 87.802 227.05L87.9958 227.047L87.9974 227.245C88.0592 233.724 88.0988 243.407 88.1005 254.231V254.531H87.802C87.6157 254.531 87.4146 254.531 87.2126 254.531C83.8706 254.526 80.635 254.522 77.6194 254.519H77.3169L77.3317 254.219C77.7184 246.438 78.0547 239.685 78.2971 234.793C78.4306 232.463 78.5386 230.58 78.6186 229.203C78.659 228.606 78.6919 228.12 78.7191 227.73C78.7464 227.399 78.7653 227.232 78.7769 227.246C78.7892 227.258 78.7933 227.449 78.79 227.802C78.7826 228.209 78.7736 228.716 78.762 229.339C78.7216 230.733 78.6672 232.641 78.5996 234.999C78.4257 239.847 78.1841 246.537 77.9071 254.245L77.6203 253.945C80.6366 253.942 83.8723 253.938 87.2134 253.933C87.4146 253.933 87.6166 253.934 87.8029 253.934L87.5053 254.232C87.5069 243.408 87.5465 233.725 87.6083 227.246L87.8037 227.44C85.0503 227.396 82.8311 227.361 81.2236 227.335C80.4899 227.315 79.8955 227.299 79.4281 227.287C79.0143 227.273 78.7917 227.26 78.7785 227.246L78.776 227.245Z" fill="#F9F8F8"/>
<path d="M118.043 197.054L107.294 190.261L116.733 176.484L127.739 182.87L118.043 197.054Z" fill="#F9F8F8"/>
<path d="M75.7769 208.111H107.295V197.883H75.7769V208.111Z" fill="#F72A85"/>
<path d="M106.837 225.719C106.797 225.712 106.818 225.374 106.891 224.772C106.97 224.172 107.068 223.302 107.164 222.227C107.361 220.079 107.464 217.092 107.167 213.817C106.862 210.541 106.217 207.624 105.632 205.547C105.05 203.468 104.584 202.209 104.674 202.172C104.712 202.158 104.868 202.456 105.117 203.012C105.373 203.566 105.689 204.39 106.035 205.425C106.73 207.489 107.453 210.439 107.761 213.762C108.063 217.086 107.889 220.117 107.582 222.274C107.431 223.355 107.269 224.222 107.119 224.813C106.974 225.406 106.876 225.728 106.836 225.719H106.837Z" fill="#313F44"/>
<path d="M122.121 164.712C122.182 164.767 121.474 165.669 120.28 167.081C119.085 168.494 117.405 170.416 115.522 172.515C114.817 173.294 114.137 174.044 113.5 174.75L113.334 174.934L113.13 174.797C111.401 173.622 109.923 172.592 108.887 171.843C107.852 171.092 107.257 170.623 107.294 170.568C107.331 170.512 107.994 170.878 109.086 171.545C110.176 172.213 111.696 173.18 113.447 174.323L113.077 174.369C113.707 173.66 114.381 172.904 115.078 172.119C116.962 170.018 118.691 168.141 119.966 166.8C121.24 165.46 122.059 164.658 122.121 164.714V164.712Z" fill="#F9F8F8"/>
<path d="M133.257 174.47C133.218 174.542 132.006 173.974 130.079 172.995C128.153 172.018 125.511 170.632 122.611 169.068C119.708 167.503 117.098 166.056 115.222 164.984C113.346 163.911 112.206 163.212 112.245 163.139C112.285 163.066 113.496 163.635 115.422 164.613C117.348 165.59 119.992 166.978 122.893 168.542C125.793 170.106 128.404 171.552 130.279 172.624C132.154 173.698 133.295 174.397 133.256 174.47H133.257Z" fill="#313F44"/>
<path d="M24.3478 455.469L19.1584 478.945L9.70373 496.331C9.02198 497.583 9.54298 499.152 10.8381 499.747C11.5635 500.08 12.3986 500.045 13.0894 499.645C17.4882 497.102 33.6236 487.664 33.9072 485.926C34.2361 483.911 41.024 461.524 41.024 461.524L24.347 455.469H24.3478Z" fill="#368AC8"/>
<path d="M11.9204 500C11.5511 500 11.1802 499.916 10.8389 499.748C11.1678 499.899 11.519 499.975 11.8685 499.975C12.2914 499.975 12.7118 499.865 13.0902 499.646C15.1586 498.451 19.8228 495.729 24.2126 493.002C24.22 493.002 24.225 493.002 24.2324 493.002C21.3949 494.774 17.766 496.973 13.1611 499.664C12.7794 499.887 12.3508 500 11.9213 500L11.9204 500ZM24.652 492.729C28.7186 490.191 32.4662 487.691 33.5782 486.453C33.3301 486.845 33.0086 487.19 32.6253 487.466C31.4745 488.297 29.0706 489.97 24.6685 492.729C24.661 492.729 24.6586 492.729 24.652 492.729Z" fill="#FEFEFE"/>
<path d="M24.2323 493.001C24.2248 493.001 24.2198 493.001 24.2124 493.001C24.3605 492.909 24.5069 492.818 24.6533 492.727C24.6607 492.727 24.6632 492.727 24.6698 492.727C24.5259 492.817 24.3803 492.909 24.2314 493.001H24.2323Z" fill="#A9B0B3"/>
<path d="M33.9688 485.626C34.0356 485.33 34.1471 484.898 34.294 484.352L34.0521 485.338C34.0274 485.436 34.0001 485.532 33.9696 485.626H33.9688Z" fill="#FEFEFE"/>
<path d="M11.8685 499.975C11.519 499.975 11.1678 499.899 10.8389 499.748L34.2946 484.352L34.2938 484.353C34.1471 484.899 34.0366 485.332 33.969 485.628C33.8725 485.918 33.7415 486.196 33.5782 486.453C32.4662 487.69 28.7186 490.19 24.652 492.729C24.5052 492.82 24.3602 492.911 24.2126 493.002C19.8228 495.73 15.1586 498.451 13.0902 499.646C12.7118 499.865 12.2914 499.975 11.8685 499.975Z" fill="#F72A85"/>
<path d="M31.8417 478.373C31.263 478.373 30.6801 477.99 30.493 477.432C30.2754 476.783 30.6183 476.008 31.2226 475.697C31.3841 475.589 31.5754 475.539 31.7749 475.539C32.3247 475.539 32.9356 475.909 33.1623 476.395C33.4714 477.059 32.9504 478.051 32.2621 478.299C32.1261 478.348 31.9843 478.372 31.8425 478.372L31.8417 478.373Z" fill="#F72A85"/>
<path d="M18.6737 490.858C18.5261 490.89 18.2994 489.536 17.0728 488.539C15.8758 487.504 14.5065 487.517 14.5123 487.366C14.5065 487.303 14.8461 487.194 15.4108 487.25C15.9714 487.303 16.7422 487.574 17.4116 488.134C18.0785 488.697 18.4791 489.408 18.6292 489.951C18.7842 490.498 18.7363 490.853 18.6737 490.858Z" fill="#313F44"/>
<path d="M16.245 493.574C16.109 493.647 15.546 492.704 14.424 492.061C13.316 491.394 12.2196 491.363 12.2172 491.208C12.1792 491.072 13.4232 490.854 14.6911 491.606C15.9664 492.345 16.3819 493.539 16.245 493.573V493.574Z" fill="#313F44"/>
<path d="M22.75 487.608C22.614 487.692 21.755 486.237 20.0972 485.085C18.4575 483.907 16.7997 483.584 16.8335 483.427C16.8261 483.294 18.6397 483.395 20.4014 484.655C22.1754 485.895 22.8778 487.569 22.7492 487.609L22.75 487.608Z" fill="#313F44"/>
<path d="M24.9235 480.602C24.8271 480.726 23.6688 479.871 22.0077 479.399C20.3508 478.904 18.9164 479.004 18.9015 478.845C18.8652 478.716 20.373 478.363 22.1553 478.891C23.9401 479.403 25.0241 480.512 24.9244 480.602L24.9235 480.602Z" fill="#313F44"/>
<path d="M26.6209 473.747C26.5154 473.863 25.4107 472.767 23.6185 472.413C21.8354 472.018 20.3837 472.58 20.3334 472.431C20.3079 472.373 20.6343 472.143 21.2485 471.963C21.8577 471.782 22.7637 471.696 23.7265 471.897C24.6886 472.098 25.4833 472.541 25.9696 472.951C26.4601 473.362 26.6679 473.705 26.6201 473.747H26.6209Z" fill="#313F44"/>
<path d="M23.98 471.121C23.9503 471.114 23.9742 470.786 24.1646 470.229C24.3551 469.676 24.7236 468.884 25.4333 468.088C25.7919 467.715 26.1909 467.223 26.918 467.074C27.2799 466.999 27.7473 467.178 27.9485 467.555C28.1496 467.923 28.1422 468.327 28.059 468.7C27.6707 470.176 26.0483 471.297 24.3295 471.1C22.6124 470.874 21.3321 469.547 20.9834 468.105C20.9191 467.737 20.9183 467.305 21.1969 466.956C21.4714 466.603 21.985 466.559 22.3057 466.7C22.9726 466.974 23.3122 467.479 23.6469 467.876C24.2916 468.719 24.623 469.523 24.7945 470.082C24.9659 470.644 24.9849 470.97 24.9544 470.976C24.8571 471.017 24.6461 469.685 23.3559 468.11C23.0237 467.74 22.6495 467.28 22.1623 467.112C21.924 467.029 21.6915 467.074 21.5572 467.248C21.422 467.415 21.3981 467.72 21.4607 468.011C21.7641 469.195 22.9372 470.407 24.3922 470.577C25.8389 470.756 27.2634 469.768 27.5866 468.583C27.6608 468.296 27.655 467.989 27.5437 467.781C27.4341 467.576 27.2148 467.472 26.979 467.508C26.4803 467.579 26.0557 467.995 25.707 468.342C24.3031 469.815 24.0789 471.168 23.9808 471.12L23.98 471.121Z" fill="#313F44"/>
<path d="M39.6086 466.22C40.442 463.448 41.0256 461.523 41.0256 461.523L39.6086 466.22ZM23.0503 461.343L23.7436 458.016L24.3487 455.469L23.0503 461.344V461.343Z" fill="#B4B6B5"/>
<path d="M39.6083 466.221L23.0459 461.362L23.05 461.344L24.3484 455.469L41.0254 461.524C41.0254 461.524 40.4417 463.449 39.6083 466.22V466.222V466.221Z" fill="#BE444B"/>
<path d="M100.254 464.154L98.8516 482.914C98.8516 482.914 117.436 490.642 117.513 494.134L81.0684 492.718L82.056 463.398L100.255 464.153L100.254 464.154Z" fill="#368AC8"/>
<path d="M87.9319 483.689C87.2938 483.689 86.6689 483.197 86.5486 482.561C86.4216 481.889 86.8659 481.169 87.5073 480.941C87.6351 480.88 87.7744 480.852 87.917 480.852C88.5081 480.852 89.1602 481.335 89.3333 481.898C89.5493 482.599 88.8988 483.51 88.1841 483.662C88.1008 483.681 88.0168 483.689 87.9327 483.689H87.9319Z" fill="#F72A85"/>
<path d="M117.513 494.135L90.7983 493.097L117.513 494.135C117.506 493.826 117.355 493.485 117.086 493.118C117.145 493.118 117.189 493.118 117.248 493.12C117.458 493.405 117.59 493.749 117.513 494.135ZM116.648 492.607C116.58 492.535 116.508 492.462 116.43 492.391C116.522 492.448 116.63 492.521 116.74 492.607C116.712 492.607 116.674 492.607 116.648 492.607Z" fill="#FEFEFE"/>
<path d="M117.249 493.123C117.189 493.121 117.146 493.121 117.086 493.121C116.964 492.956 116.817 492.785 116.648 492.609C116.674 492.609 116.712 492.609 116.74 492.609C116.916 492.747 117.102 492.92 117.249 493.122V493.123Z" fill="#A9B0B3"/>
<path d="M117.513 494.14L90.7982 493.102L81.0674 492.724L81.2834 489.773L116.147 492.234C116.147 492.234 116.265 492.29 116.43 492.396C116.507 492.468 116.58 492.54 116.648 492.612C116.816 492.788 116.963 492.959 117.086 493.124C117.354 493.49 117.506 493.832 117.513 494.14Z" fill="#F72A85"/>
<path d="M99.4492 482.75C99.4368 482.929 98.5441 482.974 97.6463 483.512C96.7346 484.028 96.2531 484.783 96.0924 484.705C95.93 484.664 96.2366 483.61 97.3347 482.978C98.4278 482.335 99.4946 482.589 99.45 482.751L99.4492 482.75Z" fill="#313F44"/>
<path d="M103.211 484.486C103.245 484.66 102.463 484.934 101.829 485.663C101.174 486.375 100.989 487.184 100.813 487.168C100.645 487.19 100.562 486.142 101.367 485.25C102.164 484.35 103.214 484.317 103.211 484.486Z" fill="#313F44"/>
<path d="M105.205 489.145C105.042 489.178 104.828 488.279 105.324 487.321C105.812 486.36 106.666 486.007 106.735 486.159C106.831 486.309 106.269 486.811 105.875 487.604C105.463 488.386 105.383 489.136 105.205 489.145Z" fill="#313F44"/>
<path d="M99.2951 478.445C99.2143 478.605 98.4072 478.327 97.399 478.356C96.39 478.365 95.5945 478.674 95.5071 478.516C95.4098 478.383 96.1996 477.753 97.3875 477.735C98.5754 477.709 99.3882 478.307 99.2951 478.444V478.445Z" fill="#313F44"/>
<path d="M99.7269 471.217L99.7516 470.881L99.7269 471.217ZM81.8208 470.357L81.942 466.492H81.951L81.8208 470.357Z" fill="#B4B6B5"/>
<path d="M99.7267 471.217L81.8198 470.357L81.9509 466.492L99.9716 467.873L99.7515 470.88L99.7259 471.217H99.7267Z" fill="#BE444B"/>
<path d="M99.5082 474.657C99.5066 474.73 98.7992 474.814 97.6822 474.576C97.1274 474.457 96.4745 474.248 95.7961 473.914C95.4564 473.749 95.111 473.55 94.7697 473.319C94.6057 473.202 94.4111 473.088 94.2355 472.867C94.0451 472.674 93.9511 472.197 94.191 471.916C94.3881 471.644 94.7236 471.535 94.9865 471.539C95.2553 471.542 95.4704 471.604 95.6675 471.66C96.0689 471.775 96.4448 471.924 96.7861 472.095C97.4704 472.438 98.021 472.862 98.4266 473.265C99.2419 474.083 99.5041 474.759 99.4422 474.79C99.3598 474.847 98.9699 474.273 98.134 473.593C97.7177 473.254 97.1827 472.9 96.5421 472.612C96.2214 472.468 95.8752 472.343 95.5067 472.246C95.125 472.131 94.7961 472.116 94.6906 472.284C94.6527 472.347 94.6461 472.374 94.7236 472.489C94.8027 472.597 94.9552 472.706 95.116 472.818C95.4301 473.041 95.7483 473.237 96.059 473.408C96.6823 473.748 97.2816 473.987 97.7968 474.153C98.8297 474.485 99.5148 474.561 99.5082 474.657Z" fill="#313F44"/>
<path d="M99.2662 474.898C99.2028 474.923 98.8738 474.272 98.8541 473.115C98.8458 472.543 98.9315 471.851 99.1805 471.125C99.3058 470.763 99.474 470.394 99.6883 470.034C99.9158 469.683 100.195 469.209 100.889 469.156C101.25 469.157 101.538 469.451 101.631 469.696C101.741 469.947 101.757 470.159 101.792 470.373C101.842 470.801 101.818 471.219 101.745 471.603C101.6 472.375 101.258 473.008 100.893 473.459C100.144 474.378 99.3932 474.561 99.38 474.5C99.3248 474.408 99.9587 474.089 100.538 473.2C100.824 472.762 101.086 472.183 101.182 471.507C101.231 471.171 101.24 470.811 101.189 470.451C101.148 470.06 101.015 469.742 100.869 469.775C100.687 469.766 100.368 470.046 100.207 470.349C100.007 470.669 99.8449 470.998 99.7172 471.323C99.4633 471.972 99.3388 472.6 99.2926 473.132C99.2011 474.199 99.3652 474.873 99.2671 474.897L99.2662 474.898Z" fill="#313F44"/>
<path d="M54.0784 223.87L63.51 224.392C64.106 227.451 66.176 232.13 66.176 232.13C73.7668 218.942 79.6528 201.276 81.1136 194.175C80.9009 193.466 80.6486 192.681 80.3337 191.804C79.9702 190.793 80.2818 188.876 80.4533 187.811C80.7072 186.231 81.1498 184.104 81.2826 183.119C81.6865 180.119 82.1696 179.647 83.2157 179.986C84.6378 180.448 82.6329 188.413 83.7977 188.586C84.4251 188.679 85.1909 185.949 85.4127 183.712C85.6352 181.473 86.6467 174.585 87.3862 174.127C88.4702 173.455 89.415 174.518 89.1413 176.747C88.8643 179.005 88.5148 185.733 89.6969 185.825C90.8617 185.914 91.8403 174.496 91.8403 174.496C91.8403 174.496 91.6556 172.012 93.0249 172.071C95.4939 172.178 93.5648 184.216 93.353 185.356C93.2054 186.149 94.4881 186.295 94.6002 185.434C94.7165 184.548 95.3125 174.016 97.8252 174.101C99.755 174.166 96.3306 184.021 97.4146 186.305C98.4979 188.589 99.2497 178.547 101.092 178.685C101.778 178.736 102.285 178.871 101.025 184.554C100.347 187.608 98.3577 193.223 96.6191 197.875C93.7 213.632 80.8877 264.044 60.8003 254.816C49.5601 249.652 44.3154 224.087 44.3154 224.087L54.0776 223.87H54.0784Z" fill="#FABBA3"/>
<path d="M96.6207 197.887C96.6116 197.882 96.6446 197.766 96.7171 197.541C96.8037 197.288 96.9141 196.96 97.0526 196.549C97.3667 195.642 97.8069 194.368 98.3667 192.745C98.9272 191.09 99.6139 189.065 100.298 186.685C100.649 185.497 100.931 184.209 101.196 182.828C101.324 182.139 101.455 181.429 101.535 180.7C101.569 180.337 101.606 179.964 101.586 179.607C101.559 179.233 101.501 178.927 101.206 178.921C100.899 178.838 100.695 179.091 100.485 179.409C100.293 179.73 100.142 180.098 100.008 180.475C99.7392 181.232 99.529 182.037 99.3205 182.862C99.1111 183.687 98.9173 184.535 98.6676 185.399C98.5167 185.834 98.4499 186.256 98.0913 186.724C98.0245 186.781 97.9636 186.856 97.8275 186.883C97.6808 186.921 97.5703 186.863 97.4673 186.802C97.3296 186.678 97.2628 186.554 97.2018 186.44C97.0938 186.196 97.0279 185.948 96.999 185.706C96.8276 183.778 97.267 181.914 97.567 179.978C97.7319 179.013 97.9075 178.037 98.0328 177.048C98.0946 176.555 98.1466 176.056 98.1523 175.566C98.1705 175.111 98.0905 174.495 97.891 174.408C97.6453 174.316 97.201 174.594 96.9652 175C96.7014 175.401 96.5044 175.878 96.3371 176.363C96.004 177.341 95.7872 178.383 95.5984 179.437C95.4154 180.495 95.272 181.574 95.1549 182.666C95.1013 183.214 95.0478 183.764 94.9934 184.316L94.9216 185.15C94.9002 185.377 94.901 185.848 94.5399 186.12C94.2061 186.37 93.7601 186.396 93.404 186.164C93.2251 186.047 93.0858 185.834 93.0594 185.618C93.0363 185.508 93.0561 185.406 93.0643 185.31L93.0998 185.104C93.1855 184.546 93.2704 183.985 93.357 183.424C93.5144 182.296 93.6529 181.155 93.7617 180.006C93.8689 178.856 93.9497 177.693 93.9662 176.528C93.9687 175.374 93.9604 174.166 93.6282 173.11C93.5202 172.789 93.3421 172.497 93.1443 172.414C92.9407 172.341 92.6464 172.416 92.4955 172.622C92.1633 173.09 92.1072 173.86 92.1336 174.489L92.1353 174.519L92.1336 174.537C91.9283 176.794 91.6827 179.013 91.3579 181.195C91.1905 182.285 91.0125 183.365 90.7388 184.433C90.6712 184.7 90.5887 184.966 90.4948 185.234C90.3678 185.499 90.3324 185.77 89.9515 186.064C89.6218 186.22 89.3769 186.042 89.2458 185.908C89.1057 185.761 89.0488 185.616 88.9845 185.475C88.8741 185.191 88.818 184.918 88.7694 184.645C88.4652 182.479 88.5905 180.395 88.7125 178.351C88.7529 177.324 89.0027 176.308 88.8683 175.405C88.8032 174.959 88.6292 174.511 88.3333 174.311C88.1865 174.216 88.02 174.193 87.8403 174.236L87.5724 174.349C87.4858 174.42 87.504 174.393 87.438 174.515C87.0646 175.3 86.8824 176.292 86.6812 177.19C86.4916 178.109 86.3317 179.023 86.1842 179.926C86.0382 180.829 85.908 181.722 85.7934 182.599C85.6739 183.471 85.6145 184.353 85.443 185.212C85.2798 186.067 85.082 186.9 84.7712 187.697C84.6929 187.897 84.6022 188.094 84.4942 188.287C84.3598 188.468 84.284 188.703 83.9155 188.815C83.7053 188.874 83.5231 188.729 83.4291 188.61C83.3491 188.487 83.3088 188.369 83.2774 188.255C83.2288 188.033 83.2082 187.822 83.1999 187.615C83.1785 185.978 83.4217 184.475 83.5041 183.026C83.5486 182.305 83.5816 181.595 83.4984 180.939C83.4555 180.63 83.3566 180.268 83.1802 180.196C82.9229 180.094 82.5907 180.039 82.397 180.179C81.9725 180.486 81.8257 181.189 81.6864 181.752C81.5512 182.346 81.4894 182.936 81.3797 183.503C80.9807 185.776 80.5578 187.728 80.3526 189.322C80.2586 190.121 80.2207 190.841 80.3212 191.44C80.4548 192.021 80.6493 192.536 80.7623 192.94C80.876 193.324 80.9667 193.629 81.0368 193.87C81.0961 194.079 81.1217 194.188 81.1118 194.191C81.1019 194.193 81.0582 194.091 80.9807 193.887C80.8958 193.652 80.7878 193.352 80.6518 192.977C80.5191 192.567 80.3179 192.099 80.1539 191.472C80.0302 190.844 80.0525 190.11 80.1292 189.298C80.3039 187.675 80.6922 185.737 81.0607 183.459C81.1621 182.893 81.2173 182.292 81.3492 181.68C81.4177 181.374 81.4852 181.061 81.6023 180.749C81.7243 180.445 81.8546 180.096 82.2033 179.867C82.5751 179.635 82.9881 179.72 83.3368 179.852C83.7869 180.11 83.8034 180.543 83.8817 180.883C83.9798 181.6 83.9485 182.318 83.9105 183.051C83.8405 184.509 83.6129 186.044 83.6459 187.594C83.6542 187.786 83.6772 187.973 83.7152 188.145C83.7556 188.331 83.8512 188.402 83.8322 188.367C83.866 188.374 84.0119 188.207 84.0944 188.057C84.1851 187.892 84.2667 187.713 84.3384 187.526C84.6253 186.778 84.8157 185.957 84.969 185.125C85.129 184.295 85.1825 183.428 85.2988 182.538C85.4101 181.652 85.5354 180.755 85.6772 179.846C85.8206 178.936 85.9781 178.016 86.1644 177.084C86.3779 176.148 86.5139 175.222 86.9689 174.249C86.9961 174.15 87.1948 173.931 87.3061 173.878C87.4273 173.805 87.5641 173.751 87.7092 173.708C88.0019 173.631 88.3613 173.674 88.6268 173.853C89.1552 174.227 89.3217 174.807 89.4107 175.321C89.4907 175.849 89.4643 176.382 89.4041 176.891C89.3472 177.384 89.306 177.886 89.2706 178.39C89.1535 180.4 89.0431 182.506 89.3374 184.546C89.3819 184.793 89.4363 185.044 89.522 185.258L89.6663 185.506L89.7133 185.545L89.7166 185.546L89.7174 185.549C89.7009 185.775 89.7149 185.597 89.7108 185.64L89.6721 185.558C89.7215 185.518 89.8757 185.253 89.9499 185.031C90.0348 184.79 90.1106 184.541 90.1757 184.285C90.4371 183.259 90.6135 182.187 90.7775 181.109C91.0966 178.946 91.3398 176.729 91.5425 174.486V174.533C91.5318 173.795 91.5186 173.019 92.0289 172.253C92.3273 171.876 92.864 171.671 93.3685 171.861C93.8689 172.095 94.0527 172.542 94.1929 172.913C94.5737 174.142 94.5597 175.349 94.5638 176.537C94.5457 177.727 94.4633 178.901 94.3536 180.062C94.2424 181.223 94.103 182.372 93.9423 183.509C93.8541 184.076 93.7675 184.64 93.6793 185.205C93.6076 185.562 93.6249 185.574 93.7321 185.679C93.8483 185.767 94.0701 185.753 94.1789 185.662C94.3017 185.579 94.3157 185.412 94.3421 185.1L94.4163 184.266C94.4715 183.709 94.5268 183.155 94.5812 182.604C94.7023 181.503 94.8499 180.413 95.0387 179.341C95.2332 178.267 95.4558 177.207 95.8087 176.182C95.9875 175.67 96.1945 175.163 96.5069 174.691C96.6668 174.458 96.8515 174.226 97.1227 174.054C97.4005 173.894 97.7055 173.749 98.1218 173.91C98.5159 174.125 98.5835 174.49 98.6453 174.756C98.6865 175.036 98.7047 175.309 98.6964 175.572C98.6873 176.102 98.6313 176.612 98.567 177.118C98.4334 178.126 98.2537 179.105 98.0839 180.07C97.7706 181.985 97.3387 183.89 97.4887 185.639C97.5118 185.854 97.5687 186.05 97.642 186.224L97.7657 186.416L97.7418 186.459L97.7327 186.455L97.7377 186.391C97.9405 186.142 98.0831 185.66 98.2092 185.263C98.4582 184.426 98.6585 183.577 98.8745 182.75C99.0905 181.922 99.3089 181.11 99.5933 180.327C99.7368 179.936 99.8942 179.551 100.117 179.186C100.238 179.007 100.357 178.824 100.555 178.677C100.641 178.599 100.771 178.544 100.897 178.507C101.046 178.484 101.168 178.487 101.266 178.507C101.492 178.516 101.798 178.715 101.872 178.951C101.965 179.175 101.986 179.387 101.996 179.587C102.014 179.993 101.97 180.372 101.932 180.749C101.842 181.497 101.703 182.21 101.567 182.905C101.287 184.286 100.984 185.592 100.616 186.781C99.8983 189.165 99.1787 191.18 98.5843 192.826C97.9858 194.469 97.5003 195.737 97.1639 196.594C97.0015 196.996 96.8729 197.316 96.7723 197.566C96.6808 197.783 96.6289 197.892 96.619 197.89L96.6207 197.887Z" fill="#F79A73"/>
<path d="M44.2109 224.966C46.0344 231.408 49.599 241.36 53.4298 251.854C53.9838 253.37 56.0917 253.47 56.7817 252.009L66.1754 232.135C66.1754 232.135 63.9133 215.805 64.1054 216.382C64.2975 216.958 44.7245 218.495 44.7245 218.495L44.2109 224.966Z" fill="#368AC8"/>
<path d="M69.6011 226.548C69.5615 226.589 69.3571 226.362 68.8839 226.226C68.4404 226.093 67.6119 226.094 67.0703 226.707L66.8205 226.988L66.6803 226.631C66.1766 225.353 65.5518 223.684 64.8947 221.857C63.3804 217.638 62.2782 214.174 62.4324 214.118C62.5873 214.062 63.941 217.436 65.4553 221.655C66.1115 223.482 66.6902 225.168 67.1148 226.473L66.7257 226.397C67.0999 226.011 67.5706 225.849 67.9696 225.817C68.3728 225.779 68.7182 225.869 68.9729 225.98C69.4898 226.221 69.6307 226.531 69.6011 226.546V226.548Z" fill="#313F44"/>
<path d="M56.2868 245.454C56.2151 245.413 56.741 244.34 57.6486 242.637C58.5563 240.934 59.8456 238.603 61.3022 236.045C62.7589 233.487 64.1067 231.187 65.1075 229.539C66.1091 227.89 66.7637 226.89 66.8354 226.931C66.9063 226.971 66.3803 228.045 65.4735 229.747C64.5667 231.45 63.2766 233.783 61.8191 236.341C60.3633 238.898 59.0154 241.198 58.0146 242.847C57.013 244.497 56.3585 245.497 56.2868 245.456V245.454Z" fill="#313F44"/>
<path d="M50.0349 242.471C50.0085 242.427 50.6045 242.015 51.6737 241.328C52.7438 240.642 54.2886 239.68 56.1599 238.534L56.0585 238.844C55.019 236.405 53.8023 233.554 52.494 230.486C50.8683 226.615 49.4125 223.073 48.3507 220.42L48.664 220.528C47.1793 221.335 45.9691 221.978 45.1258 222.411C44.2824 222.845 43.8043 223.066 43.7821 223.027C43.7598 222.989 44.1975 222.694 45.0046 222.196C45.8108 221.698 46.9872 220.994 48.4455 220.14L48.6582 220.016L48.7604 220.248C49.9096 222.864 51.419 226.383 53.0455 230.255C54.32 233.337 55.5037 236.201 56.5161 238.651L56.6002 238.854L56.4147 238.962C54.5153 240.061 52.9334 240.962 51.8196 241.575C50.7068 242.189 50.0613 242.517 50.0349 242.472V242.471Z" fill="#F9F8F8"/>
<path d="M100.977 468.884C104.455 468.776 107.278 466.043 107.494 462.569C109.456 430.852 118.272 286.584 116.501 282.054C114.511 276.966 109.285 259.281 109.285 259.281L62.5358 257.086C62.5358 257.086 50.8957 275.487 49.2214 282.53C47.7211 288.842 5.36587 422.391 0.0981563 450.794C-0.442629 453.711 1.29926 456.558 4.13756 457.412L100.976 468.885L100.977 468.884Z" fill="#313F44"/>
<path d="M71.7634 258.11C71.7634 258.11 71.7008 258.284 71.554 258.611C71.3933 258.959 71.1707 259.438 70.8855 260.054C70.2787 261.343 69.4033 263.2 68.2829 265.58C67.7702 266.805 67.1997 268.164 66.5773 269.651C65.9467 271.136 65.2583 272.748 64.6368 274.528C63.9946 276.298 63.2675 278.176 62.5684 280.194C61.9081 282.226 61.2107 284.374 60.4778 286.626C59.8192 288.904 59.1283 291.291 58.4095 293.776C57.7319 296.273 57.0888 298.888 56.3873 301.586C55.76 304.303 55.1104 307.112 54.4418 310.008C53.8326 312.916 53.1566 315.896 52.5524 318.975C51.296 325.12 50.0652 331.591 48.7537 338.292C47.4248 344.991 46.0588 351.931 44.415 358.989C43.6418 362.53 42.7234 365.994 41.8718 369.42C40.9345 372.823 40.0335 376.185 39.0294 379.453C37.0386 385.995 34.8664 392.223 32.643 398.096C28.1618 409.832 23.528 420.157 19.4754 428.741C15.4146 437.322 11.9555 444.181 9.54918 448.912C8.34478 451.253 7.40418 453.079 6.75128 454.345C6.4339 454.946 6.18823 455.412 6.00852 455.751C5.83788 456.066 5.7373 456.221 5.7373 456.221C5.7373 456.221 5.80161 456.048 5.95411 455.722C6.12064 455.378 6.34981 454.903 6.64411 454.292C7.2731 453.013 8.17991 451.171 9.34144 448.808C11.6826 444.046 15.084 437.16 19.0921 428.561C23.0936 419.961 27.682 409.63 32.1278 397.903C34.3338 392.033 36.4904 385.812 38.4688 379.283C39.4672 376.021 40.3632 372.665 41.2964 369.268C42.1447 365.848 43.0597 362.391 43.8322 358.855C45.4735 351.808 46.8428 344.872 48.1791 338.178C49.4997 331.481 50.7404 325.011 52.0132 318.864C52.6241 315.786 53.3099 312.801 53.9282 309.893C54.6075 306.998 55.267 304.186 55.9051 301.466C56.6181 298.767 57.2735 296.151 57.9643 293.652C58.698 291.165 59.402 288.778 60.0739 286.501C60.8216 284.247 61.5338 282.101 62.2082 280.069C62.9229 278.053 63.6657 276.174 64.3235 274.406C64.9616 272.629 65.6664 271.021 66.3127 269.54C66.9541 268.059 67.5402 266.706 68.0686 265.483C69.2128 263.087 70.1543 261.252 70.775 259.999C71.0833 259.396 71.3224 258.925 71.4972 258.583C71.6629 258.264 71.761 258.109 71.761 258.109L71.7634 258.11Z" fill="#44616B"/>
<path d="M30.4849 460.2C30.4849 460.2 30.5154 460.019 30.6036 459.675C30.7017 459.306 30.8369 458.801 31.0108 458.151C31.3884 456.787 31.9341 454.824 32.6323 452.308C34.0478 447.206 36.0823 439.87 38.5942 430.817C41.0904 421.739 44.002 410.914 47.1594 398.872C48.7108 392.844 50.3389 386.517 52.0281 379.958C53.6702 373.387 55.3701 366.586 57.1103 359.616C58.7895 352.63 60.4292 345.811 62.012 339.223C63.5478 332.626 65.03 326.262 66.4422 320.198C69.2112 308.059 71.6348 297.113 73.6199 287.909C75.5794 278.721 77.1664 271.276 78.2702 266.099C78.8151 263.547 79.2396 261.551 79.5348 260.169C79.6807 259.512 79.7953 259.002 79.8777 258.63C79.9585 258.284 80.0154 258.109 80.0154 258.109C80.0154 258.109 79.9989 258.292 79.9379 258.641C79.8695 259.017 79.7747 259.531 79.6527 260.192C79.3831 261.581 78.9948 263.582 78.4977 266.145C77.9775 268.737 77.3444 271.893 76.6099 275.553C75.8507 279.219 74.9867 283.39 74.0321 287.998C72.0998 297.213 69.7182 308.172 66.9772 320.32C65.5898 326.389 64.1488 332.765 62.5808 339.357C61.0005 345.948 59.3641 352.77 57.689 359.758C55.9438 366.727 54.2407 373.531 52.5944 380.103C50.9366 386.671 49.2673 392.99 47.6911 399.012C44.5041 411.047 41.5487 421.865 39.0006 430.931C37.7162 435.457 36.5539 439.553 35.5325 443.157C34.4913 446.742 33.5927 449.834 32.8566 452.372C32.1113 454.874 31.531 456.828 31.127 458.185C30.93 458.827 30.775 459.328 30.6629 459.691C30.5558 460.03 30.4857 460.2 30.4857 460.2H30.4849Z" fill="#44616B"/>
<path d="M86.1922 258.195C86.1922 258.195 86.2318 258.374 86.2796 258.728C86.3266 259.109 86.3925 259.631 86.4758 260.303C86.5582 261.005 86.658 261.86 86.7759 262.866C86.8921 263.88 86.9168 265.058 87.0026 266.381C87.0389 267.043 87.0768 267.742 87.118 268.476C87.1196 269.212 87.1213 269.984 87.1238 270.79C87.1238 271.597 87.1254 272.438 87.1254 273.313C87.118 274.189 87.0496 275.096 87.0116 276.036C86.9647 276.976 86.9144 277.949 86.8633 278.954C86.7718 279.955 86.677 280.987 86.5797 282.051C86.4247 284.182 86.0628 286.413 85.7776 288.765C85.0653 293.451 84.1239 298.557 82.9285 303.998C81.725 309.437 80.3112 315.215 78.843 321.299C77.3814 327.383 75.8637 333.772 74.5967 340.456C73.3543 347.144 72.2752 354.108 71.3701 361.27C70.4559 368.432 69.6851 375.442 68.9415 382.213C68.2045 388.985 67.4568 395.516 66.6745 401.729C66.2499 404.83 65.8361 407.856 65.4338 410.796C64.959 413.726 64.5336 416.574 64.0555 419.318C63.532 422.055 63.0786 424.707 62.5477 427.238C61.983 429.762 61.4711 432.19 60.927 434.496C60.3252 436.787 59.7531 438.968 59.2115 441.035C58.6336 443.089 57.9931 444.999 57.444 446.798C57.1563 447.695 56.9074 448.569 56.6155 449.394C56.3114 450.214 56.0187 451.001 55.7376 451.759C55.1762 453.267 54.6626 454.647 54.1993 455.891C53.1845 458.337 52.3099 460.201 51.7509 461.477C51.4707 462.092 51.2522 462.571 51.0939 462.919C50.9431 463.243 50.8516 463.403 50.8516 463.403C50.8516 463.403 50.906 463.226 51.0379 462.892C51.1846 462.539 51.3841 462.053 51.6413 461.427C52.1648 460.136 53.0032 458.26 53.9842 455.806C54.4318 454.558 54.9281 453.175 55.4705 451.663C55.7425 450.905 56.0278 450.116 56.3221 449.294C56.6048 448.469 56.8472 447.595 57.1258 446.699C57.6584 444.896 58.2832 442.986 58.8455 440.933C59.3731 438.868 59.9312 436.687 60.5165 434.398C61.0193 432.088 61.5469 429.667 62.0951 427.145C62.6136 424.617 63.0555 421.967 63.5666 419.234C64.034 416.492 64.4479 413.645 64.9136 410.719C65.3069 407.783 65.7124 404.759 66.1279 401.659C66.8946 395.448 67.6299 388.922 68.3595 382.149C69.0948 375.376 69.8615 368.362 70.7774 361.191C71.6825 354.023 72.7682 347.046 74.0213 340.345C75.299 333.647 76.8299 327.249 78.3071 321.169C79.7902 315.088 81.2205 309.318 82.4438 303.891C83.6573 298.462 84.621 293.372 85.358 288.703C85.6556 286.358 86.0307 284.136 86.1996 282.012C86.3043 280.954 86.4066 279.925 86.5047 278.927C86.5632 277.925 86.6209 276.956 86.6761 276.018C86.7215 275.08 86.7973 274.176 86.813 273.304C86.8204 272.432 86.8286 271.593 86.8361 270.79C86.8435 269.985 86.8501 269.216 86.8558 268.48C86.8253 267.75 86.7957 267.052 86.7676 266.391C86.7 265.071 86.6951 263.894 86.597 262.881C86.5014 261.876 86.4206 261.019 86.3546 260.316C86.2961 259.643 86.2508 259.117 86.217 258.736C86.1898 258.38 86.1906 258.196 86.1906 258.196L86.1922 258.195Z" fill="#44616B"/>
<path d="M81.0895 467.516C81.0895 467.516 81.0393 467.34 80.9684 466.988C80.8966 466.611 80.7985 466.092 80.6724 465.426C80.5455 464.73 80.3905 463.88 80.2083 462.881C80.0335 461.875 79.7887 460.718 79.6675 459.393C79.515 458.071 79.346 456.603 79.1613 455C78.9429 453.396 78.9305 451.635 78.7953 449.752C78.7467 448.81 78.6741 447.837 78.6387 446.829C78.6321 445.821 78.6255 444.781 78.6189 443.71C78.6123 442.638 78.6057 441.54 78.5991 440.409C78.6403 439.279 78.6824 438.12 78.7261 436.934C78.7731 435.746 78.8217 434.531 78.8712 433.287C78.9701 432.047 79.0707 430.782 79.1737 429.489C79.3427 426.899 79.6675 424.221 79.989 421.446C80.2792 418.667 80.7689 415.82 81.1695 412.871C81.6707 409.939 82.134 406.91 82.7267 403.828C84.983 391.472 88.114 378.029 90.9671 363.839C93.8087 349.644 95.7913 335.982 96.9825 323.495C98.215 311.012 98.6898 299.717 98.8473 290.233C98.9017 285.489 98.886 281.198 98.8283 277.43C98.7549 273.662 98.6651 270.418 98.5521 267.766C98.4722 265.114 98.3345 263.058 98.2826 261.661C98.2554 260.983 98.2339 260.456 98.2191 260.072C98.2076 259.715 98.2174 259.531 98.2174 259.531C98.2174 259.531 98.2479 259.712 98.2793 260.07C98.309 260.453 98.3493 260.977 98.4021 261.653C98.4928 263.049 98.6684 265.103 98.783 267.756C98.9322 270.406 99.0558 273.652 99.1613 277.423C99.2512 281.193 99.2957 285.488 99.2685 290.237C99.1655 299.731 98.7335 311.043 97.5291 323.547C96.3659 336.053 94.3973 349.742 91.5516 363.956C88.6968 378.16 85.5494 391.595 83.2675 403.927C82.6682 407.006 82.1975 410.026 81.688 412.952C81.2791 415.893 80.7796 418.735 80.4803 421.507C80.1489 424.274 79.8134 426.946 79.6329 429.528C79.5249 430.817 79.4177 432.079 79.313 433.316C79.2561 434.555 79.2017 435.765 79.1482 436.951C79.0979 438.134 79.0492 439.291 79.0014 440.416C79.0014 441.544 79.0006 442.641 78.9998 443.708C78.9989 444.776 78.9981 445.814 78.9973 446.819C79.0245 447.824 79.0888 448.796 79.13 449.737C79.2504 451.613 79.2463 453.372 79.4457 454.973C79.6114 456.576 79.7631 458.041 79.8992 459.362C80.003 460.685 80.2289 461.843 80.3847 462.851C80.5446 463.852 80.6798 464.704 80.7911 465.402C80.8933 466.074 80.9717 466.595 81.0294 466.975C81.0796 467.33 81.0904 467.514 81.0904 467.514L81.0895 467.516Z" fill="#44616B"/>
<path d="M106.745 259.164C106.745 259.164 106.811 259.335 106.914 259.676C107.021 260.043 107.167 260.548 107.355 261.196C107.546 261.876 107.779 262.702 108.053 263.676C108.355 264.65 108.603 265.798 108.86 267.095C109.113 268.392 109.462 269.824 109.716 271.414C109.941 273.01 110.186 274.741 110.448 276.601C110.598 278.477 110.758 280.479 110.927 282.604C110.959 284.734 111.1 286.988 111.049 289.351C111.01 294.084 110.669 299.263 110.054 304.79C109.4 310.313 108.506 316.189 107.399 322.339C106.254 328.48 105.052 334.926 103.806 341.607C102.553 348.285 101.45 355.229 100.456 362.365C99.4439 369.5 98.6443 376.49 97.9807 383.252C97.294 390.011 96.8373 396.551 96.4391 402.78C96.0937 409.014 95.8134 414.942 95.6996 420.493C95.5488 426.044 95.5207 431.217 95.5389 435.939C95.5653 440.661 95.6304 444.933 95.7507 448.681C95.8348 452.432 95.9997 455.661 96.0986 458.299C96.2272 460.916 96.327 462.957 96.397 464.374C96.4251 465.049 96.4473 465.574 96.463 465.956C96.4745 466.312 96.4655 466.497 96.4655 466.497C96.4655 466.497 96.4333 466.316 96.4028 465.961C96.3731 465.579 96.3311 465.055 96.2775 464.383C96.1794 462.995 96.0162 460.95 95.867 458.311C95.7334 455.673 95.5348 452.444 95.4185 448.693C95.2668 444.942 95.1712 440.667 95.1176 435.942C95.0731 431.215 95.0764 426.037 95.2058 420.481C95.2982 414.924 95.5611 408.988 95.8909 402.748C96.2742 396.51 96.7202 389.963 97.3995 383.195C98.0565 376.424 98.8528 369.424 99.866 362.282C100.861 355.14 101.969 348.182 103.232 341.5C104.489 334.822 105.703 328.38 106.858 322.241C107.979 316.101 108.888 310.24 109.562 304.733C110.197 299.223 110.561 294.065 110.626 289.347C110.691 286.991 110.565 284.747 110.548 282.621C110.396 280.505 110.252 278.505 110.117 276.637C109.873 274.781 109.645 273.053 109.436 271.46C109.199 269.872 108.868 268.442 108.633 267.143C108.394 265.845 108.165 264.696 107.881 263.719C107.629 262.744 107.415 261.911 107.239 261.229C107.076 260.575 106.948 260.066 106.856 259.695C106.773 259.347 106.745 259.165 106.745 259.165V259.164Z" fill="#44616B"/>
<path d="M565.231 205.5L450.685 221.685C446.433 222.286 442.5 219.324 441.899 215.07L426.672 107.141C426.071 102.885 429.031 98.9494 433.284 98.3488L547.831 82.1633C552.083 81.5627 556.015 84.5252 556.616 88.7789L571.843 196.708C572.444 200.962 569.484 204.898 565.231 205.5Z" fill="#368AC8"/>
<path d="M523.644 167.402C523.646 167.42 523.349 167.482 522.777 167.584C522.156 167.687 521.32 167.824 520.27 167.997C518.028 168.342 514.872 168.827 510.97 169.427C503.027 170.593 492.065 172.204 479.726 174.017L479.472 174.055L479.401 173.805C478.932 172.185 478.435 170.467 477.932 168.728C473.678 153.852 469.883 140.575 467.403 131.898L467.611 132.034C464.083 132.503 461.266 132.879 459.273 133.145C458.343 133.257 457.606 133.346 457.052 133.413C456.546 133.469 456.284 133.489 456.281 133.472C456.278 133.454 456.535 133.4 457.037 133.31C457.587 133.218 458.32 133.096 459.245 132.942C461.232 132.635 464.04 132.202 467.557 131.658L467.719 131.633L467.766 131.793C470.296 140.454 474.167 153.709 478.505 168.56C479.007 170.3 479.504 172.018 479.971 173.64L479.645 173.428C491.992 171.69 502.965 170.148 510.915 169.029C514.828 168.504 517.993 168.082 520.24 167.78C521.297 167.65 522.136 167.547 522.762 167.471C523.338 167.405 523.641 167.381 523.645 167.4L523.644 167.402Z" fill="#EDEDEB"/>
<path d="M477.104 164.797C477.104 164.788 477.178 164.77 477.322 164.741C477.496 164.708 477.708 164.67 477.967 164.623C478.578 164.524 479.414 164.387 480.475 164.214C482.71 163.873 485.893 163.387 489.871 162.778C497.941 161.591 509.228 159.931 522.295 158.009L522.05 158.283C522.226 152.68 522.418 146.622 522.615 140.352C522.72 137.126 522.823 133.957 522.921 130.936L523.258 131.238C508.072 133.382 494.668 135.274 485.01 136.637C480.23 137.286 476.379 137.81 473.676 138.177C472.378 138.341 471.359 138.471 470.619 138.564C470.296 138.6 470.035 138.629 469.825 138.652C469.646 138.668 469.554 138.672 469.553 138.663C469.552 138.654 469.641 138.631 469.818 138.597C470.026 138.56 470.284 138.513 470.604 138.455C471.34 138.338 472.355 138.175 473.646 137.966C476.343 137.557 480.185 136.974 484.954 136.249C494.605 134.836 508 132.875 523.173 130.654L523.521 130.602L523.511 130.955C523.413 133.977 523.313 137.145 523.21 140.37C523.004 146.64 522.805 152.699 522.62 158.302L522.612 158.542L522.375 158.575C509.297 160.413 497.999 162.001 489.922 163.136C485.933 163.674 482.743 164.104 480.501 164.406C479.434 164.54 478.594 164.644 477.981 164.721C477.717 164.75 477.504 164.773 477.329 164.791C477.181 164.803 477.105 164.806 477.103 164.797H477.104Z" fill="#EDEDEB"/>
<path d="M492.39 184.082C492.336 184.091 492.278 183.698 491.99 183.071C491.707 182.456 491.121 181.589 490.049 181.018C489.009 180.442 487.424 180.272 486.033 181.039C484.647 181.76 483.617 183.493 483.893 185.302C484.137 187.117 485.614 188.49 487.146 188.792C488.697 189.136 490.17 188.527 491.006 187.68C491.874 186.831 492.193 185.833 492.292 185.162C492.391 184.481 492.336 184.087 492.39 184.082C492.416 184.075 492.552 184.46 492.522 185.186C492.49 185.899 492.22 187 491.306 187.976C490.428 188.946 488.798 189.687 487.034 189.33C485.294 189.024 483.582 187.466 483.303 185.388C482.986 183.316 484.19 181.339 485.774 180.554C487.365 179.714 489.139 179.967 490.255 180.65C491.406 181.328 491.975 182.308 492.207 182.984C492.44 183.673 492.416 184.08 492.39 184.082V184.082Z" fill="#EDEDEB"/>
<path d="M520.68 180.02C520.627 180.029 520.568 179.636 520.281 179.009C519.998 178.394 519.412 177.527 518.338 176.957C517.299 176.38 515.713 176.212 514.323 176.978C512.937 177.699 511.907 179.432 512.183 181.241C512.427 183.055 513.904 184.429 515.436 184.73C516.986 185.074 518.459 184.465 519.295 183.617C520.164 182.769 520.482 181.772 520.581 181.101C520.68 180.418 520.625 180.025 520.68 180.02C520.705 180.013 520.842 180.398 520.811 181.126C520.78 181.837 520.511 182.939 519.596 183.914C518.718 184.884 517.088 185.626 515.324 185.267C513.582 184.962 511.872 183.404 511.593 181.325C511.275 179.255 512.48 177.277 514.064 176.493C515.656 175.651 517.428 175.904 518.544 176.588C519.695 177.264 520.265 178.247 520.496 178.921C520.731 179.61 520.707 180.019 520.68 180.02Z" fill="#EDEDEB"/>
<path d="M532.717 125.036C533.712 131.969 528.902 138.397 521.974 139.393C515.047 140.389 508.625 135.577 507.628 128.644C506.633 121.711 511.441 115.283 518.369 114.287C525.297 113.29 531.72 118.103 532.716 125.036H532.717Z" fill="#F9F8F8"/>
<path d="M526.311 121.175C526.377 121.222 525.862 122.082 524.974 123.433C524.087 124.783 522.828 126.627 521.408 128.642C520.877 129.387 520.363 130.106 519.881 130.783L519.72 131.008L519.493 130.858C516.442 128.846 514.282 127.319 514.355 127.205C514.428 127.092 516.71 128.428 519.801 130.378L519.415 130.453C519.891 129.773 520.397 129.049 520.92 128.298C522.341 126.283 523.655 124.479 524.63 123.189C525.607 121.9 526.242 121.126 526.311 121.174V121.175Z" fill="#368AC8"/>
<path d="M178.876 117.78C178.725 117.78 178.575 117.721 178.461 117.603L176.271 115.314C176.167 115.205 176.109 115.058 176.112 114.907C176.116 114.754 176.179 114.61 176.289 114.506L178.479 112.408C178.709 112.19 179.073 112.199 179.289 112.427C179.507 112.654 179.5 113.018 179.271 113.237L177.495 114.936L179.289 116.812C179.507 117.04 179.5 117.402 179.271 117.622C179.161 117.728 179.018 117.781 178.876 117.781V117.78Z" fill="#313F44"/>
<path d="M240.256 439.491C242.618 439.491 244.142 437.991 244.142 435.855C244.142 433.72 242.618 432.22 240.256 432.22H237.626V439.491H240.256ZM236.686 431.406H240.307C243.152 431.406 245.07 433.238 245.07 435.855C245.07 438.474 243.152 440.304 240.307 440.304H236.686V431.406Z" fill="#F9F8F8"/>
<path d="M254.781 435.854C254.781 433.73 253.193 432.168 251.06 432.168C248.913 432.168 247.312 433.73 247.312 435.854C247.312 437.976 248.913 439.539 251.06 439.539C253.192 439.539 254.781 437.977 254.781 435.854ZM246.386 435.854C246.386 433.261 248.367 431.328 251.06 431.328C253.727 431.328 255.721 433.249 255.721 435.854C255.721 438.459 253.727 440.379 251.06 440.379C248.367 440.379 246.386 438.447 246.386 435.854Z" fill="#F9F8F8"/>
<path d="M265.253 431.398V440.296H264.479L258.764 433.077V440.296H257.824V431.398H258.599L264.328 438.62V431.398H265.253Z" fill="#F9F8F8"/>
<path d="M274.434 439.484V440.296H268.146V431.398H274.243V432.213H269.087V435.378H273.684V436.179H269.087V439.484H274.434Z" fill="#F9F8F8"/>
<path d="M371.826 197.538C370.937 194.385 366.845 194.691 366.845 194.691L366.957 196.883C369.322 196.476 370.793 199.25 370.793 199.25L371.826 197.538Z" fill="#368AC8"/>
<path d="M212.003 204.142C211.114 200.99 207.021 201.297 207.021 201.297L207.134 203.488C209.5 203.081 210.97 205.855 210.97 205.855L212.003 204.143V204.142Z" fill="#E0E1E2"/>
<path d="M259.825 160.554C264.572 161.993 267.526 156.515 267.526 156.515L264.638 154.867C263.227 158.224 258.485 157.835 258.485 157.835L259.825 160.554Z" fill="#E0E1E2"/>
<path d="M233.481 166.453C231.271 166.688 231.008 169.464 231.008 169.464L232.486 169.64C232.485 168.008 234.508 167.342 234.508 167.342L233.481 166.454V166.453Z" fill="#368AC8"/>
<path d="M397.546 186.749C397.867 184.549 395.244 183.605 395.244 183.605L394.708 184.995C396.289 185.397 396.431 187.525 396.431 187.525L397.546 186.749Z" fill="#E0E1E2"/>
<path d="M246.37 137.496C246.691 135.295 244.07 134.352 244.07 134.352L243.532 135.742C245.113 136.144 245.255 138.272 245.255 138.272L246.37 137.496Z" fill="#368AC8"/>
<path d="M191.782 172.981C191.384 176.431 195.951 177.266 195.951 177.266L196.775 175.009C194.035 174.76 193.639 171.531 193.639 171.531L191.782 172.981Z" fill="#368AC8"/>
<path d="M366.408 160.48C368.625 160.607 369.337 157.911 369.337 157.911L367.906 157.498C367.644 159.109 365.538 159.439 365.538 159.439L366.409 160.481L366.408 160.48Z" fill="#368AC8"/>
<path d="M378.526 169.531C378.526 169.631 377.705 169.711 376.694 169.711C375.684 169.711 374.863 169.631 374.863 169.531C374.863 169.432 375.683 169.352 376.694 169.352C377.705 169.352 378.526 169.432 378.526 169.531Z" fill="#E0E1E2"/>
<path d="M380.471 164.546C380.571 164.546 380.65 165.379 380.65 166.405C380.65 167.433 380.571 168.265 380.471 168.265C380.372 168.265 380.292 167.433 380.292 166.405C380.292 165.379 380.372 164.546 380.471 164.546Z" fill="#E0E1E2"/>
<path d="M382.542 169.412C382.542 169.313 383.362 169.233 384.373 169.233C385.384 169.233 386.205 169.313 386.205 169.412C386.205 169.511 385.384 169.592 384.373 169.592C383.363 169.592 382.542 169.511 382.542 169.412Z" fill="#E0E1E2"/>
<path d="M380.597 174.397C380.499 174.397 380.417 173.566 380.417 172.538C380.417 171.511 380.499 170.678 380.597 170.678C380.696 170.678 380.777 171.511 380.777 172.538C380.777 173.566 380.696 174.397 380.597 174.397Z" fill="#E0E1E2"/>
<path d="M383.557 172.259C383.482 172.322 383.128 172.024 382.769 171.593C382.41 171.163 382.18 170.763 382.255 170.698C382.33 170.636 382.684 170.933 383.043 171.364C383.403 171.795 383.634 172.196 383.557 172.259Z" fill="#E0E1E2"/>
<path d="M383.387 166.606C383.458 166.675 383.212 167.037 382.839 167.414C382.465 167.791 382.105 168.041 382.035 167.971C381.965 167.901 382.212 167.538 382.585 167.161C382.958 166.784 383.318 166.536 383.388 166.605L383.387 166.606Z" fill="#E0E1E2"/>
<path d="M379.189 168.048C379.126 168.123 378.786 167.945 378.43 167.649C378.074 167.353 377.837 167.051 377.901 166.974C377.965 166.898 378.304 167.077 378.659 167.373C379.016 167.669 379.252 167.972 379.189 168.048Z" fill="#E0E1E2"/>
<path d="M379.023 170.538C379.097 170.605 378.88 170.961 378.543 171.333C378.204 171.706 377.871 171.954 377.796 171.887C377.724 171.821 377.939 171.464 378.278 171.092C378.617 170.72 378.952 170.471 379.023 170.538Z" fill="#E0E1E2"/>
<path d="M205.782 159.318C205.782 159.418 204.963 159.498 203.951 159.498C202.939 159.498 202.12 159.418 202.12 159.318C202.12 159.22 202.939 159.141 203.951 159.141C204.962 159.141 205.782 159.22 205.782 159.318Z" fill="#368AC8"/>
<path d="M207.728 154.328C207.827 154.328 207.907 155.161 207.907 156.188C207.907 157.216 207.827 158.047 207.728 158.047C207.63 158.047 207.549 157.216 207.549 156.188C207.549 155.161 207.629 154.328 207.728 154.328Z" fill="#368AC8"/>
<path d="M209.8 159.195C209.8 159.097 210.619 159.016 211.631 159.016C212.642 159.016 213.461 159.096 213.461 159.195C213.461 159.295 212.642 159.375 211.631 159.375C210.619 159.375 209.8 159.295 209.8 159.195Z" fill="#368AC8"/>
<path d="M207.855 164.187C207.755 164.187 207.676 163.355 207.676 162.328C207.676 161.3 207.755 160.469 207.855 160.469C207.953 160.469 208.034 161.3 208.034 162.328C208.034 163.355 207.954 164.187 207.855 164.187Z" fill="#368AC8"/>
<path d="M210.814 162.046C210.738 162.108 210.385 161.812 210.025 161.381C209.666 160.949 209.437 160.549 209.513 160.485C209.588 160.422 209.941 160.72 210.301 161.151C210.66 161.581 210.89 161.983 210.814 162.046Z" fill="#368AC8"/>
<path d="M210.643 156.395C210.713 156.465 210.467 156.827 210.094 157.202C209.721 157.579 209.362 157.828 209.291 157.759C209.221 157.689 209.467 157.329 209.84 156.951C210.213 156.574 210.573 156.325 210.643 156.395Z" fill="#368AC8"/>
<path d="M206.445 157.833C206.382 157.909 206.042 157.731 205.687 157.434C205.331 157.139 205.095 156.836 205.158 156.76C205.221 156.684 205.559 156.863 205.916 157.158C206.271 157.454 206.508 157.757 206.445 157.833Z" fill="#368AC8"/>
<path d="M206.28 160.323C206.353 160.389 206.138 160.745 205.798 161.118C205.459 161.49 205.126 161.737 205.052 161.671C204.981 161.605 205.196 161.248 205.535 160.877C205.873 160.504 206.206 160.257 206.28 160.323Z" fill="#368AC8"/>
<path d="M439.5 111.642C439.5 111.807 435.878 111.94 431.413 111.94C426.947 111.94 423.328 111.807 423.328 111.642C423.328 111.477 426.947 111.344 431.413 111.344C435.879 111.344 439.5 111.477 439.5 111.642Z" fill="#313F44"/>
<path d="M439.5 115.018C439.5 115.182 435.878 115.317 431.413 115.317C426.947 115.317 423.328 115.182 423.328 115.018C423.328 114.853 426.947 114.719 431.413 114.719C435.879 114.719 439.5 114.853 439.5 115.018Z" fill="#313F44"/>
<path d="M439.5 118.392C439.5 118.557 435.878 118.691 431.413 118.691C426.947 118.691 423.328 118.557 423.328 118.392C423.328 118.228 426.947 118.094 431.413 118.094C435.879 118.094 439.5 118.228 439.5 118.392Z" fill="#313F44"/>
</svg>
