<svg width="61" height="61" viewBox="0 0 61 61" fill="none" xmlns="http://www.w3.org/2000/svg">
<path d="M60.0337 30.0229C60.0337 46.6052 46.5947 60.0474 30.0164 60.0474C13.4389 60.0474 0 46.606 0 30.0229C0 13.4414 13.4389 0 30.0164 0C46.5939 0 60.0337 13.4414 60.0337 30.0229Z" fill="#AFF57A"/>
<path d="M60.0337 30.0229C60.0337 46.6052 46.5947 60.0474 30.0164 60.0474C13.4389 60.0474 0 46.606 0 30.0229C0 13.4414 13.4389 0 30.0164 0C46.5939 0 60.0337 13.4414 60.0337 30.0229Z" fill="url(#paint0_linear_13063_25603)"/>
<path d="M44.7994 17.3567C45.1833 17.6688 39.5774 25.2106 32.2776 34.2016C30.7207 36.0899 29.2291 37.9015 27.8563 39.5661L27.252 40.3001L26.6032 39.6313C20.904 33.7565 17.011 29.3928 17.2867 29.1178C17.5633 28.8412 21.9243 32.7343 27.7977 38.4365L26.5454 38.5009C27.8926 36.8165 29.3578 34.9835 30.8866 33.072C38.1864 24.0827 44.4164 17.0446 44.7994 17.3567Z" fill="#FEFEFE"/>
<defs>
<linearGradient id="paint0_linear_13063_25603" x1="60.0337" y1="60.0474" x2="-8.39141" y2="48.1134" gradientUnits="userSpaceOnUse">
<stop stop-color="#54D169"/>
<stop offset="1" stop-color="#54D169" stop-opacity="0"/>
</linearGradient>
</defs>
</svg>
