<svg width="200" height="199" viewBox="0 0 200 199" fill="none" xmlns="http://www.w3.org/2000/svg">
<path fill-rule="evenodd" clip-rule="evenodd" d="M76.5367 183.776C52.2716 193.827 26.2644 199 0 199V99C55.2285 99 100 54.2285 100 -0.999985L200 -1C200 25.2644 194.827 51.2716 184.776 75.5367C174.725 99.8018 159.993 121.85 141.421 140.421C122.85 158.993 100.802 173.725 76.5367 183.776Z" fill="#368AC8"/>
<path fill-rule="evenodd" clip-rule="evenodd" d="M76.5367 183.776C52.2716 193.827 26.2644 199 0 199V99C55.2285 99 100 54.2285 100 -0.999985L200 -1C200 25.2644 194.827 51.2716 184.776 75.5367C174.725 99.8018 159.993 121.85 141.421 140.421C122.85 158.993 100.802 173.725 76.5367 183.776Z" fill="url(#paint0_linear_11349_15815)"/>
<path fill-rule="evenodd" clip-rule="evenodd" d="M49.7488 119.104C33.9765 125.637 17.0718 129 0 129L0 64C35.8985 64 65 34.8985 65 -0.999994L130 -1C130 16.0718 126.637 32.9765 120.104 48.7488C113.571 64.5212 103.996 78.8523 91.9239 90.9239C79.8523 102.996 65.5212 112.571 49.7488 119.104Z" fill="#EBF5FF"/>
<defs>
<linearGradient id="paint0_linear_11349_15815" x1="2.06611e-05" y1="199" x2="38.3054" y2="-28.2548" gradientUnits="userSpaceOnUse">
<stop stop-color="#70ADD9"/>
<stop offset="1" stop-color="#368AC8"/>
</linearGradient>
</defs>
</svg>
