<svg width="200" height="200" viewBox="0 0 200 200" fill="none" xmlns="http://www.w3.org/2000/svg">
<path fill-rule="evenodd" clip-rule="evenodd" d="M76.5367 15.2241C52.2716 5.17314 26.2644 -1.52588e-05 0 -1.52588e-05V100C55.2285 100 100 144.772 100 200L200 200C200 173.736 194.827 147.728 184.776 123.463C174.725 99.1982 159.993 77.1504 141.421 58.5786C122.85 40.0069 100.802 25.275 76.5367 15.2241Z" fill="#368AC8"/>
<path fill-rule="evenodd" clip-rule="evenodd" d="M76.5367 15.2241C52.2716 5.17314 26.2644 -1.52588e-05 0 -1.52588e-05V100C55.2285 100 100 144.772 100 200L200 200C200 173.736 194.827 147.728 184.776 123.463C174.725 99.1982 159.993 77.1504 141.421 58.5786C122.85 40.0069 100.802 25.275 76.5367 15.2241Z" fill="url(#paint0_linear_11349_15824)"/>
<path fill-rule="evenodd" clip-rule="evenodd" d="M49.7488 79.8957C33.9765 73.3625 17.0718 70 0 70L0 135C35.8985 135 65 164.101 65 200L130 200C130 182.928 126.637 166.023 120.104 150.251C113.571 134.479 103.996 120.148 91.9239 108.076C79.8523 96.0045 65.5212 86.4288 49.7488 79.8957Z" fill="#EBF5FF"/>
<defs>
<linearGradient id="paint0_linear_11349_15824" x1="2.06611e-05" y1="0" x2="38.3054" y2="227.255" gradientUnits="userSpaceOnUse">
<stop stop-color="#70ADD9"/>
<stop offset="1" stop-color="#368AC8"/>
</linearGradient>
</defs>
</svg>
