<svg width="300" height="300" viewBox="0 0 300 300" fill="none" xmlns="http://www.w3.org/2000/svg">
<path fill-rule="evenodd" clip-rule="evenodd" d="M185.195 22.8361C221.593 7.7597 260.603 0 300 0V150C217.157 150 150 217.157 150 300H0C0 260.603 7.75973 221.593 22.8361 185.195C37.9125 148.797 60.0104 115.726 87.868 87.868C115.726 60.0104 148.797 37.9125 185.195 22.8361Z" fill="#368AC8"/>
<path fill-rule="evenodd" clip-rule="evenodd" d="M185.195 22.8361C221.593 7.7597 260.603 0 300 0V150C217.157 150 150 217.157 150 300H0C0 260.603 7.75973 221.593 22.8361 185.195C37.9125 148.797 60.0104 115.726 87.868 87.868C115.726 60.0104 148.797 37.9125 185.195 22.8361Z" fill="url(#paint0_linear_11349_15782)"/>
<path fill-rule="evenodd" clip-rule="evenodd" d="M223.463 115.224C247.728 105.173 273.736 100 300 100V200C244.772 200 200 244.772 200 300L100 300C100 273.736 105.173 247.728 115.224 223.463C125.275 199.198 140.007 177.15 158.579 158.579C177.15 140.007 199.198 125.275 223.463 115.224Z" fill="#EBF5FF"/>
<defs>
<linearGradient id="paint0_linear_11349_15782" x1="300" y1="0" x2="242.542" y2="340.882" gradientUnits="userSpaceOnUse">
<stop stop-color="#70ADD9"/>
<stop offset="1" stop-color="#368AC8"/>
</linearGradient>
</defs>
</svg>
