<svg width="307" height="328" viewBox="0 0 307 328" fill="none" xmlns="http://www.w3.org/2000/svg">
<g clip-path="url(#clip0_12451_23197)">
<rect width="307" height="328" rx="4" fill="#1CA29B"/>
<rect x="147.785" y="11.5273" width="146" height="146" rx="13" transform="rotate(-35 147.785 11.5273)" fill="#48C5B5" stroke="white" stroke-width="4"/>
<rect x="163.105" y="14.2285" width="124" height="124" rx="5" transform="rotate(-35 163.105 14.2285)" fill="white"/>
<path d="M228.181 38.2502C226.453 38.3859 224.73 38.7138 223.011 39.234C221.313 39.7388 219.995 40.3201 219.056 40.9778C218.313 41.4979 217.823 42.0528 217.585 42.6427C217.353 43.1955 217.421 43.734 217.788 44.2582C218.14 44.7606 218.624 45.0566 219.24 45.1461C219.84 45.2137 220.49 45.1656 221.189 45.0016C221.873 44.8158 222.865 44.512 224.165 44.0902C226.081 43.4324 227.712 42.9734 229.06 42.7132C230.43 42.4378 231.823 42.5206 233.238 42.9617C234.639 43.3809 235.874 44.3551 236.945 45.8842C238.016 47.4133 238.529 49.0069 238.486 50.665C238.427 52.3013 237.879 53.8896 236.842 55.4299C235.826 56.9549 234.455 58.3216 232.73 59.5299C230.829 60.8606 228.699 61.8636 226.34 62.539C223.987 63.1773 221.717 63.3993 219.531 63.2052L218.576 56.8907C220.453 57.1067 222.407 56.9917 224.439 56.5458C226.492 56.0845 228.13 55.4256 229.354 54.5691C230.249 53.942 230.834 53.2887 231.107 52.6093C231.401 51.9145 231.327 51.2504 230.883 50.6169C230.516 50.0927 230.014 49.7934 229.376 49.7192C228.76 49.6298 228.088 49.6932 227.361 49.9096C226.64 50.0888 225.656 50.4036 224.408 50.8538C222.53 51.5181 220.924 51.9913 219.591 52.2733C218.243 52.5335 216.885 52.4758 215.515 52.1002C214.152 51.6875 212.942 50.7276 211.887 49.2203C210.893 47.8005 210.392 46.2953 210.385 44.7049C210.4 43.0992 210.897 41.5306 211.876 39.999C212.861 38.4303 214.271 37.0036 216.106 35.7188C217.766 34.5563 219.572 33.6495 221.525 32.9982C223.463 32.325 225.319 31.9534 227.093 31.8832L228.181 38.2502ZM244.392 16.596L249.962 12.6956L266.046 35.6647L260.803 39.3356L240.77 32.9025L250.383 46.6315L244.78 50.5547L228.697 27.5857L233.973 23.8919L254.107 30.4003L244.392 16.596ZM287.413 20.7028L282.996 17.741L273.068 24.6928L274.307 29.88L268.147 34.1933L261.926 4.31839L268.086 0.0050896L293.803 16.2289L287.413 20.7028ZM271.658 18.8437L278.014 14.3927L269.133 8.40371L271.658 18.8437Z" fill="#48C5B5"/>
<rect width="307" height="328" fill="url(#paint0_linear_12451_23197)"/>
</g>
<defs>
<linearGradient id="paint0_linear_12451_23197" x1="-37.0142" y1="238.13" x2="358.606" y2="-7.12148" gradientUnits="userSpaceOnUse">
<stop offset="0.382953" stop-color="#48C5B5" stop-opacity="0.84"/>
<stop offset="0.819445" stop-color="#48C5B5" stop-opacity="0"/>
</linearGradient>
<clipPath id="clip0_12451_23197">
<rect width="307" height="328" rx="4" fill="white"/>
</clipPath>
</defs>
</svg>
