<svg width="150" height="150" viewBox="0 0 150 150" fill="none" xmlns="http://www.w3.org/2000/svg">
<rect width="150" height="150" fill="white"/>
<rect x="2" y="2" width="146" height="146" rx="13" fill="#48C5B5" stroke="white" stroke-width="4"/>
<rect x="13" y="13" width="124" height="124" rx="5" fill="white"/>
<path d="M52.5293 70.0035C51.0359 69.1235 49.4359 68.4035 47.7293 67.8435C46.0493 67.2835 44.6359 67.0035 43.4893 67.0035C42.5826 67.0035 41.8626 67.1768 41.3293 67.5235C40.8226 67.8435 40.5693 68.3235 40.5693 68.9635C40.5693 69.5768 40.7959 70.0968 41.2493 70.5235C41.7026 70.9235 42.2626 71.2568 42.9293 71.5235C43.5959 71.7635 44.5826 72.0835 45.8893 72.4835C47.8359 73.0435 49.4359 73.6035 50.6893 74.1635C51.9693 74.7235 53.0626 75.5902 53.9693 76.7635C54.8759 77.9102 55.3293 79.4168 55.3293 81.2835C55.3293 83.1502 54.8359 84.7502 53.8493 86.0835C52.8626 87.3902 51.5026 88.3768 49.7693 89.0435C48.0626 89.7102 46.1559 90.0435 44.0493 90.0435C41.7293 90.0435 39.4093 89.6435 37.0893 88.8435C34.7959 88.0168 32.8093 86.8968 31.1293 85.4835L33.9693 79.7635C35.3826 81.0168 37.0493 82.0435 38.9693 82.8435C40.9159 83.6435 42.6359 84.0435 44.1293 84.0435C45.2226 84.0435 46.0759 83.8435 46.6893 83.4435C47.3293 83.0435 47.6493 82.4568 47.6493 81.6835C47.6493 81.0435 47.4093 80.5102 46.9293 80.0835C46.4759 79.6568 45.8893 79.3235 45.1693 79.0835C44.4759 78.8168 43.4893 78.5102 42.2093 78.1635C40.2893 77.6302 38.7026 77.0968 37.4493 76.5635C36.1959 76.0035 35.1159 75.1768 34.2093 74.0835C33.3293 72.9635 32.8893 71.4835 32.8893 69.6435C32.8893 67.9102 33.3426 66.3902 34.2493 65.0835C35.1826 63.7768 36.4893 62.7768 38.1693 62.0835C39.8759 61.3635 41.8493 61.0035 44.0893 61.0035C46.1159 61.0035 48.1159 61.2968 50.0893 61.8835C52.0626 62.4435 53.7959 63.2035 55.2893 64.1635L52.5293 70.0035ZM78.2286 61.5635H85.0286V89.6035H78.6286L65.9086 72.8435V89.6035H59.0686V61.5635H65.5086L78.2686 78.4435L78.2286 61.5635ZM111.114 89.6035L109.194 84.6435H97.0739L95.1139 89.6035H87.5939L99.6339 61.5635H107.154L118.914 89.6035H111.114ZM99.2739 79.0435H107.034L103.194 69.0435L99.2739 79.0435Z" fill="#48C5B5"/>
</svg>
