<svg width="14" height="9" viewBox="0 0 14 9" fill="none" xmlns="http://www.w3.org/2000/svg">
<path d="M10.6767 8.88766C10.5352 8.88766 10.3936 8.81689 10.2506 8.74612C8.90134 7.96458 7.26749 7.53842 5.49364 7.53842C4.4998 7.53842 3.50595 7.67996 2.58288 7.89381C2.44134 7.89381 2.22749 7.96458 2.15672 7.96458C1.80134 7.96458 1.58903 7.6815 1.58903 7.39689C1.58903 7.0415 1.80288 6.82919 2.08595 6.75689C3.22288 6.47381 4.35826 6.33073 5.56441 6.33073C7.55211 6.33073 9.39826 6.82765 10.9613 7.75073C11.1752 7.89227 11.3167 8.03381 11.3167 8.39073C11.2444 8.67381 10.9598 8.88766 10.6767 8.88766ZM11.6706 6.47227C11.4567 6.47227 11.3152 6.4015 11.1736 6.33073C9.68288 5.40765 7.62288 4.83996 5.2798 4.83996C4.14288 4.83996 3.07826 4.9815 2.29672 5.19535C2.08441 5.26612 2.01364 5.26612 1.87211 5.26612C1.44595 5.26612 1.16288 4.91073 1.16288 4.55689C1.16288 4.13073 1.37672 3.91689 1.73057 3.77535C2.79518 3.49227 3.8598 3.27842 5.35211 3.27842C7.76595 3.27842 10.109 3.84612 11.9552 4.98304C12.2383 5.12458 12.3813 5.40919 12.3813 5.69227C12.3798 6.11842 12.0967 6.47227 11.6706 6.47227ZM12.806 3.63227C12.5921 3.63227 12.5229 3.5615 12.309 3.49073C10.606 2.49535 8.04903 1.92765 5.56441 1.92765C4.28595 1.92765 3.00903 2.06919 1.87211 2.35381C1.73057 2.35381 1.58903 2.42458 1.37518 2.42458C0.87826 2.49688 0.524414 2.07073 0.524414 1.57381C0.524414 1.07689 0.807491 0.79227 1.16441 0.721501C2.51211 0.295347 3.93211 0.153809 5.56595 0.153809C8.26441 0.153809 11.1044 0.721501 13.2336 1.92919C13.5167 2.07073 13.7306 2.35535 13.7306 2.7815C13.6583 3.27689 13.3029 3.63227 12.806 3.63227Z" fill="white"/>
</svg>
