<svg width="307" height="328" viewBox="0 0 307 328" fill="none" xmlns="http://www.w3.org/2000/svg">
<g clip-path="url(#clip0_12451_23214)">
<rect width="307" height="328" rx="4" fill="#90B6BB"/>
<rect x="-1" width="308" height="328" fill="url(#paint0_linear_12451_23214)"/>
<rect x="147.785" y="11.5273" width="146" height="146" rx="13" transform="rotate(-35 147.785 11.5273)" fill="#A9D0D5" stroke="white" stroke-width="4"/>
<rect x="163.105" y="14.2285" width="124" height="124" rx="5" transform="rotate(-35 163.105 14.2285)" fill="white"/>
<path d="M227.661 28.7099L233.821 24.3966L242.138 52.8032L235.978 57.1165L220.676 44.5385L227.197 63.2652L221.037 67.5785L197.221 50.024L203.676 45.5043L219.944 59.1143L212.719 39.172L218.584 35.0652L234.918 48.6294L227.661 28.7099ZM267.158 35.284L262.74 32.3223L252.812 39.274L254.052 44.4612L247.892 48.7745L241.671 18.8996L247.831 14.5863L273.547 30.8101L267.158 35.284ZM251.402 33.4249L257.759 28.9739L248.878 22.985L251.402 33.4249ZM269.627 -1.21208C271.964 -2.84869 274.431 -3.81136 277.029 -4.10009C279.648 -4.40412 282.12 -4.03526 284.445 -2.99352C286.791 -1.96708 288.744 -0.339808 290.304 1.88829C291.88 4.13822 292.756 6.55211 292.933 9.12993C293.133 11.6925 292.649 14.1633 291.483 16.5425C290.338 18.9065 288.598 20.9067 286.26 22.5433C283.923 24.1799 281.445 25.1502 278.825 25.4543C276.213 25.7212 273.725 25.3305 271.364 24.2822C269.008 23.1967 267.043 21.5291 265.468 19.2791C263.908 17.051 263.036 14.6666 262.852 12.126C262.69 9.56997 263.189 7.12095 264.348 4.77887C265.53 2.42151 267.289 0.424521 269.627 -1.21208ZM273.248 3.82077C272.112 4.61613 271.259 5.65285 270.689 6.93093C270.141 8.19372 269.95 9.54821 270.116 10.9944C270.267 12.4188 270.779 13.7535 271.651 14.9986C272.538 16.2656 273.632 17.2244 274.935 17.8753C276.243 18.489 277.592 18.7651 278.982 18.7038C280.356 18.6206 281.611 18.1813 282.747 17.3859C283.883 16.5906 284.714 15.5691 285.24 14.3217C285.773 13.037 285.953 11.6902 285.78 10.2811C285.592 8.85023 285.054 7.5013 284.167 6.23435C283.295 4.98924 282.227 4.04454 280.962 3.40025C279.682 2.73412 278.355 2.44266 276.98 2.52587C275.628 2.59378 274.384 3.02541 273.248 3.82077Z" fill="#A9D0D5"/>
<rect width="307" height="328" fill="url(#paint1_linear_12451_23214)"/>
</g>
<defs>
<linearGradient id="paint0_linear_12451_23214" x1="-38.1348" y1="238.13" x2="358.057" y2="-8.27545" gradientUnits="userSpaceOnUse">
<stop offset="0.382953" stop-color="#A9D0D5" stop-opacity="0.84"/>
<stop offset="1" stop-color="#47838B" stop-opacity="0"/>
</linearGradient>
<linearGradient id="paint1_linear_12451_23214" x1="-37.0142" y1="238.13" x2="358.606" y2="-7.12148" gradientUnits="userSpaceOnUse">
<stop offset="0.382953" stop-color="#A9D0D5" stop-opacity="0.84"/>
<stop offset="0.819445" stop-color="#A9D0D5" stop-opacity="0"/>
</linearGradient>
<clipPath id="clip0_12451_23214">
<rect width="307" height="328" rx="4" fill="white"/>
</clipPath>
</defs>
</svg>
