<svg width="1440" height="1943" viewBox="0 0 1440 1943" fill="none" xmlns="http://www.w3.org/2000/svg">
<g clip-path="url(#clip0_16295_51161)">
<rect width="1440" height="1943" fill="#EBF5FF"/>
<path d="M-121.5 -176C-121.5 -176 33.0253 -116.126 52 -29.5C68.8412 47.386 -18.7383 80.7946 -18 159.5C-16.9215 274.471 124.202 295.295 137.5 409.5C159.114 595.115 -152 790.5 -152 790.5" stroke="#76BDFF" stroke-width="6"/>
<path d="M-183.5 954C-183.5 954 -28.9747 1013.87 -10 1100.5C6.84125 1177.39 -80.7383 1210.79 -80 1289.5C-78.9215 1404.47 62.2016 1425.3 75.5 1539.5C97.1137 1725.12 -214 1920.5 -214 1920.5" stroke="#76BDFF" stroke-width="6"/>
<path d="M1580.3 451C1580.3 451 1406.33 587.203 1372.8 713.5C1341.45 831.572 1432.7 903.817 1410.8 1024C1378.78 1199.71 1170.95 1217.38 1141.3 1393.5C1092.84 1681.3 1594.8 1987.5 1594.8 1987.5" stroke="#76BDFF" stroke-width="6"/>
</g>
<defs>
<clipPath id="clip0_16295_51161">
<rect width="1440" height="1943" fill="white"/>
</clipPath>
</defs>
</svg>
