<svg width="288" height="267" viewBox="0 0 288 267" fill="none" xmlns="http://www.w3.org/2000/svg">
<path fill-rule="evenodd" clip-rule="evenodd" d="M252.069 227C256.549 215.962 259 203.997 259 191.5C259 135.995 210.647 91 151 91C91.3532 91 43 135.995 43 191.5C43 203.997 45.4513 215.962 49.931 227H252.069Z" fill="#E4F2FD"/>
<ellipse cx="150.5" cy="226.5" rx="102.5" ry="6.5" fill="#CBD9E3"/>
<rect x="113" y="104" width="68" height="50" fill="white"/>
<path d="M161.459 70.5601C159.12 68.167 156.327 66.2654 153.243 64.9671C150.159 63.6688 146.846 63 143.5 63C140.154 63 136.841 63.6688 133.757 64.9671C130.673 66.2654 127.88 68.167 125.541 70.5601L120.137 76.1029L112.404 76.0074C109.057 75.9678 105.736 76.5978 102.636 77.8604C99.5355 79.123 96.7191 80.9927 94.3521 83.3595C91.9851 85.7264 90.1153 88.5426 88.8526 91.6425C87.5899 94.7425 86.9599 98.0636 86.9995 101.411L87.0864 109.143L81.5606 114.547C79.1673 116.885 77.2656 119.678 75.9672 122.762C74.6688 125.846 74 129.158 74 132.504C74 135.85 74.6688 139.163 75.9672 142.246C77.2656 145.33 79.1673 148.124 81.5606 150.462L87.0951 155.866L86.9995 163.598C86.9599 166.945 87.5899 170.266 88.8526 173.366C90.1153 176.466 91.9851 179.282 94.3521 181.649C96.7191 184.016 99.5355 185.886 102.636 187.148C105.736 188.411 109.057 189.041 112.404 189.001L120.137 188.914L125.541 194.44C127.88 196.833 130.673 198.735 133.757 200.033C136.841 201.331 140.154 202 143.5 202C146.846 202 150.159 201.331 153.243 200.033C156.327 198.735 159.12 196.833 161.459 194.44L166.863 188.906L174.596 189.001C177.943 189.041 181.264 188.411 184.364 187.148C187.465 185.886 190.281 184.016 192.648 181.649C195.015 179.282 196.885 176.466 198.147 173.366C199.41 170.266 200.04 166.945 200.001 163.598L199.914 155.866L205.439 150.462C207.833 148.124 209.734 145.33 211.033 142.246C212.331 139.163 213 135.85 213 132.504C213 129.158 212.331 125.846 211.033 122.762C209.734 119.678 207.833 116.885 205.439 114.547L199.905 109.143L200.001 101.411C200.04 98.0636 199.41 94.7425 198.147 91.6425C196.885 88.5426 195.015 85.7264 192.648 83.3595C190.281 80.9927 187.465 79.123 184.364 77.8604C181.264 76.5978 177.943 75.9678 174.596 76.0074L166.863 76.0943L161.459 70.5688V70.5601ZM163.952 122.548L137.887 148.612C137.484 149.016 137.004 149.337 136.477 149.556C135.949 149.775 135.383 149.888 134.812 149.888C134.24 149.888 133.674 149.775 133.147 149.556C132.619 149.337 132.139 149.016 131.736 148.612L118.703 135.58C118.299 135.176 117.979 134.696 117.76 134.169C117.542 133.641 117.429 133.076 117.429 132.504C117.429 131.933 117.542 131.368 117.76 130.84C117.979 130.312 118.299 129.833 118.703 129.429C119.107 129.025 119.587 128.705 120.115 128.486C120.642 128.267 121.208 128.155 121.779 128.155C122.35 128.155 122.916 128.267 123.444 128.486C123.971 128.705 124.451 129.025 124.855 129.429L134.812 139.394L157.801 116.397C158.617 115.581 159.723 115.123 160.877 115.123C162.03 115.123 163.137 115.581 163.952 116.397C164.768 117.213 165.226 118.319 165.226 119.473C165.226 120.626 164.768 121.732 163.952 122.548Z" fill="#44B51F"/>
<path d="M62.5502 172.137C62.1289 171.954 61.8711 171.954 61.4498 172.137C60.001 172.763 60.6832 178.095 61.2571 181.394C60.005 178.289 57.7728 173.398 56.2115 173.63C55.7575 173.697 55.5384 173.833 55.2766 174.21C54.4516 175.398 57.2278 178.997 59.4118 181.515C56.8073 179.435 53.0985 176.807 51.9456 177.679C51.5796 177.956 51.4527 178.181 51.4038 178.637C51.2456 180.114 55.642 182 58.7893 183.155C55.4813 182.61 50.7261 182.087 50.1366 183.45C49.9545 183.871 49.9545 184.129 50.1366 184.55C50.7261 185.913 55.4813 185.39 58.7893 184.845C55.642 186 51.2456 187.886 51.4038 189.363C51.4527 189.819 51.5796 190.044 51.9456 190.321C53.0985 191.193 56.8073 188.565 59.4118 186.485C57.2277 189.003 54.4516 192.602 55.2765 193.79C55.5384 194.167 55.7574 194.303 56.2114 194.37C57.7728 194.602 60.0051 189.711 61.2571 186.606C60.6832 189.905 60.001 195.237 61.4498 195.863C61.8711 196.046 62.1289 196.046 62.5502 195.863C63.999 195.237 63.3167 189.904 62.7428 186.605C63.9948 189.711 66.2272 194.602 67.7886 194.37C68.2426 194.303 68.4616 194.167 68.7235 193.79C69.5484 192.602 66.7723 189.003 64.5883 186.485C67.1928 188.565 70.9015 191.193 72.0544 190.321C72.4204 190.044 72.5474 189.819 72.5962 189.363C72.7545 187.886 68.3581 186 65.2108 184.845C68.5187 185.39 73.2739 185.913 73.8634 184.55C74.0455 184.129 74.0455 183.871 73.8634 183.45C73.2739 182.087 68.5187 182.61 65.2108 183.155C68.3581 182 72.7545 180.114 72.5962 178.637C72.5474 178.181 72.4204 177.956 72.0544 177.679C70.9015 176.807 67.1927 179.435 64.5882 181.515C66.7722 178.997 69.5484 175.398 68.7235 174.21C68.4616 173.833 68.2426 173.697 67.7886 173.63C66.2272 173.398 63.9948 178.289 62.7428 181.395C63.3167 178.096 63.999 172.763 62.5502 172.137Z" fill="#CDE2F1"/>
<path d="M237.256 33.1879C236.677 32.9374 236.323 32.9374 235.744 33.1879C233.751 34.0493 234.689 41.3811 235.479 45.9171C233.757 41.6469 230.688 34.9228 228.541 35.2414C227.917 35.334 227.615 35.5209 227.255 36.0392C226.121 37.6718 229.938 42.6206 232.941 46.0827C229.36 43.2227 224.26 39.6094 222.675 40.809C222.172 41.1898 221.997 41.4983 221.93 42.1258C221.713 44.1562 227.758 46.7497 232.085 48.3376C227.537 47.5887 220.998 46.8692 220.188 48.7435C219.937 49.3228 219.937 49.6772 220.188 50.2565C220.998 52.1308 227.537 51.4112 232.085 50.6624C227.758 52.2503 221.713 54.8438 221.93 56.8742C221.997 57.5017 222.172 57.8102 222.675 58.191C224.26 59.3905 229.36 55.7774 232.941 52.9173C229.938 56.3795 226.121 61.3282 227.255 62.9608C227.615 63.479 227.916 63.666 228.541 63.7586C230.688 64.0772 233.757 57.353 235.479 53.0828C234.689 57.6189 233.751 64.9507 235.744 65.8121C236.323 66.0626 236.677 66.0626 237.256 65.8121C239.249 64.9507 238.31 57.6183 237.521 53.0824C239.243 57.3526 242.312 64.0772 244.459 63.7586C245.084 63.666 245.385 63.479 245.745 62.9608C246.879 61.3282 243.062 56.3795 240.059 52.9173C243.64 55.7774 248.74 59.3905 250.325 58.191C250.828 57.8102 251.003 57.5017 251.07 56.8742C251.287 54.8438 245.242 52.2503 240.915 50.6624C245.463 51.4112 252.002 52.1308 252.812 50.2565C253.063 49.6772 253.063 49.3228 252.812 48.7435C252.002 46.8692 245.463 47.5887 240.915 48.3376C245.242 46.7497 251.287 44.1562 251.07 42.1258C251.003 41.4983 250.828 41.1898 250.325 40.809C248.74 39.6094 243.64 43.2227 240.059 46.0827C243.062 42.6206 246.879 37.6718 245.745 36.0392C245.385 35.5209 245.084 35.334 244.459 35.2414C242.312 34.9228 239.243 41.6474 237.521 45.9175C238.31 41.3815 239.249 34.0493 237.256 33.1879Z" fill="#CDE2F1"/>
<path d="M250.256 139.188C249.677 138.937 249.323 138.937 248.744 139.188C246.751 140.049 247.689 147.381 248.479 151.917C246.757 147.647 243.688 140.923 241.541 141.241C240.917 141.334 240.615 141.521 240.255 142.039C239.121 143.672 242.938 148.621 245.941 152.083C242.36 149.223 237.26 145.609 235.675 146.809C235.172 147.19 234.997 147.498 234.93 148.126C234.713 150.156 240.758 152.75 245.085 154.338C240.537 153.589 233.998 152.869 233.188 154.744C232.937 155.323 232.937 155.677 233.188 156.256C233.998 158.131 240.537 157.411 245.085 156.662C240.758 158.25 234.713 160.844 234.93 162.874C234.997 163.502 235.172 163.81 235.675 164.191C237.26 165.391 242.36 161.777 245.941 158.917C242.938 162.38 239.121 167.328 240.255 168.961C240.615 169.479 240.916 169.666 241.541 169.759C243.688 170.077 246.757 163.353 248.479 159.083C247.689 163.619 246.751 170.951 248.744 171.812C249.323 172.063 249.677 172.063 250.256 171.812C252.249 170.951 251.31 163.618 250.521 159.082C252.243 163.353 255.312 170.077 257.459 169.759C258.084 169.666 258.385 169.479 258.745 168.961C259.879 167.328 256.062 162.38 253.059 158.917C256.64 161.777 261.74 165.391 263.325 164.191C263.828 163.81 264.003 163.502 264.07 162.874C264.287 160.844 258.242 158.25 253.915 156.662C258.463 157.411 265.002 158.131 265.812 156.256C266.063 155.677 266.063 155.323 265.812 154.744C265.002 152.869 258.463 153.589 253.915 154.338C258.242 152.75 264.287 150.156 264.07 148.126C264.003 147.498 263.828 147.19 263.325 146.809C261.74 145.609 256.64 149.223 253.059 152.083C256.062 148.621 259.879 143.672 258.745 142.039C258.385 141.521 258.084 141.334 257.459 141.241C255.312 140.923 252.243 147.647 250.521 151.918C251.31 147.382 252.249 140.049 250.256 139.188Z" fill="#E3F4DE"/>
<path d="M46.6691 64.2903C45.7739 63.9032 45.2262 63.9032 44.3309 64.2903C41.2522 65.6216 42.7018 76.9525 43.9214 83.9628C41.2607 77.3634 36.5172 66.9716 33.1994 67.4639C32.2346 67.6071 31.7692 67.896 31.2127 68.697C29.4597 71.2201 35.359 78.8682 40 84.2188C34.4655 79.7987 26.5844 74.2145 24.1345 76.0684C23.3567 76.657 23.087 77.1337 22.9831 78.1035C22.6468 81.2414 31.9893 85.2495 38.6772 87.7036C31.6478 86.5463 21.5429 85.4343 20.2903 88.3309C19.9032 89.2262 19.9032 89.7739 20.2903 90.6691C21.5429 93.5657 31.6478 92.4538 38.6772 91.2964C31.9892 93.7505 22.6468 97.7586 22.9831 100.896C23.087 101.866 23.3567 102.343 24.1345 102.932C26.5844 104.785 34.4654 99.2014 40 94.7812C35.3589 100.132 29.4597 107.78 31.2126 110.303C31.7691 111.104 32.2346 111.393 33.1993 111.536C36.5172 112.028 41.2609 101.637 43.9214 95.0371C42.7018 102.047 41.2522 113.378 44.3309 114.71C45.2262 115.097 45.7739 115.097 46.6691 114.71C49.7478 113.378 48.2981 102.047 47.0785 95.0364C49.739 101.636 54.4828 112.028 57.8007 111.536C58.7655 111.393 59.2309 111.104 59.7875 110.303C61.5404 107.78 55.6412 100.132 51.0002 94.7812C56.5347 99.2014 64.4158 104.785 66.8656 102.932C67.6434 102.343 67.9132 101.866 68.017 100.896C68.3533 97.7586 59.011 93.7505 52.323 91.2964C59.3523 92.4538 69.4571 93.5657 70.7097 90.6691C71.0968 89.7739 71.0968 89.2262 70.7097 88.3309C69.4571 85.4343 59.3523 86.5463 52.323 87.7036C59.011 85.2495 68.3533 81.2414 68.017 78.1035C67.9132 77.1337 67.6434 76.657 66.8656 76.0684C64.4158 74.2145 56.5346 79.7987 51 84.2188C55.641 78.8682 61.5404 71.2201 59.7875 68.697C59.2309 67.896 58.7655 67.6071 57.8007 67.4639C54.4828 66.9716 49.739 77.3641 47.0785 83.9635C48.2981 76.9533 49.7478 65.6216 46.6691 64.2903Z" fill="#E3F4DE"/>
</svg>
