<svg width="88" height="88" viewBox="0 0 88 88" fill="none" xmlns="http://www.w3.org/2000/svg">
<path d="M0 44C0 19.6987 19.7 0 44 0C68.3013 0 88 19.6987 88 44C88 68.3013 68.3013 88 44 88C19.7 88 0 68.3013 0 44Z" fill="#FFD05D"/>
<path d="M67.02 6.44531C71.4021 13.2854 73.9431 21.4201 73.9431 30.1445C73.9431 54.4482 54.2431 74.147 29.9418 74.147C21.5024 74.147 13.6204 71.7695 6.92285 67.6489C14.7416 79.8571 28.4267 87.9484 43.9998 87.9484C68.3011 87.9484 87.9998 68.2497 87.9998 43.9472C87.9998 28.0866 79.6062 14.1885 67.02 6.44531Z" fill="#FDC453"/>
<path d="M5.98073 48.6445C5.98073 26.0802 24.2708 7.79009 46.8326 7.79009C60.0196 7.79009 71.7459 14.0404 79.2141 23.7411C72.161 11.4957 58.9393 3.25195 43.7911 3.25195C21.2293 3.25195 2.94043 21.5408 2.94043 44.1002C2.94043 53.4738 6.09966 62.109 11.4084 69.0023C7.95679 63.0084 5.98073 56.0557 5.98073 48.6445Z" fill="#FFD77F"/>
<path d="M31.0323 33.3279C31.0323 36.3472 29.5815 38.7915 27.7901 38.7915C25.9998 38.7915 24.5479 36.3472 24.5479 33.3279C24.5479 30.3087 25.9998 27.8594 27.7901 27.8594C29.5815 27.8594 31.0323 30.3087 31.0323 33.3279Z" fill="#303030"/>
<path d="M63.4523 33.3279C63.4523 36.3472 62.0015 38.7915 60.21 38.7915C58.4198 38.7915 56.9678 36.3472 56.9678 33.3279C56.9678 30.3087 58.4198 27.8594 60.21 27.8594C62.0015 27.8594 63.4523 30.3087 63.4523 33.3279Z" fill="#303030"/>
<path d="M69.9898 24.1015C69.5166 23.964 69.0557 23.8326 68.606 23.7112C67.6173 23.4312 66.6832 23.1723 65.7812 22.8613C64.4333 22.4017 63.2204 21.8851 62.0744 21.2829C60.8677 20.6449 59.7725 19.9313 58.7232 19.1087C57.5772 18.2166 56.5142 17.1759 55.5354 16.1848C55.4797 16.1315 55.3942 16.1105 55.3224 16.1477C55.2493 16.1786 55.2047 16.248 55.2071 16.3261C55.2802 17.8313 55.8749 19.3825 56.9267 20.8184C57.8881 22.1217 59.1754 23.2144 60.6497 23.985C62.036 24.7135 63.5859 25.162 65.1457 25.2784C65.2064 25.2834 65.2671 25.2896 65.3278 25.2896C67.0759 25.3837 68.6531 25.105 70.0183 24.4608C70.0902 24.4236 70.1336 24.3493 70.1274 24.27C70.1212 24.1907 70.0666 24.1225 69.9898 24.1015Z" fill="#414042"/>
<path d="M18.01 24.1015C18.4832 23.964 18.9441 23.8326 19.3939 23.7112C20.3825 23.4312 21.3166 23.1723 22.2186 22.8613C23.5665 22.4017 24.7794 21.8851 25.9254 21.2829C27.1321 20.6449 28.2273 19.9313 29.2766 19.1087C30.4226 18.2166 31.4869 17.1759 32.4656 16.1848C32.5214 16.1315 32.6069 16.1105 32.6787 16.1477C32.7506 16.1786 32.7964 16.248 32.7927 16.3261C32.7196 17.8313 32.1249 19.3825 31.0731 20.8184C30.1129 22.1217 28.8245 23.2144 27.3514 23.985C25.965 24.7135 24.4139 25.162 22.8541 25.2784C22.7947 25.2834 22.7327 25.2896 22.6733 25.2896C20.9251 25.3837 19.3468 25.105 17.9815 24.4608C17.9096 24.4236 17.8675 24.3493 17.8725 24.27C17.8787 24.1907 17.9344 24.1225 18.01 24.1015Z" fill="#414042"/>
<path d="M27.3622 62.934C26.9026 62.986 26.6387 62.4186 26.6436 61.9924C26.6647 60.0374 27.1863 58.0402 28.1935 56.0567C29.1499 54.2331 30.5165 52.542 32.1543 51.1568C35.4003 48.4387 39.7142 46.8752 43.9971 46.8603C48.3531 46.781 52.7066 48.3482 55.9204 51.1296C59.2593 53.9878 61.2923 58.044 61.3555 61.98C61.3629 62.4297 61.0594 63.0108 60.5589 62.9203C60.1451 62.8472 59.8081 62.2848 59.5046 62.032C59.035 61.6418 58.5481 61.2713 58.0501 60.9195C57.054 60.2183 56.0084 59.5877 54.933 59.0153C50.9709 56.9004 46.4761 55.7582 41.9752 56.1509C39.1096 56.4012 36.327 57.2622 33.7699 58.5705C32.2361 59.356 30.7828 60.2951 29.4151 61.3432C28.896 61.7409 28.0436 62.8063 27.4031 62.9278L27.3622 62.934Z" fill="#5E4939"/>
</svg>
