<svg width="288" height="267" viewBox="0 0 288 267" fill="none" xmlns="http://www.w3.org/2000/svg">
<path fill-rule="evenodd" clip-rule="evenodd" d="M252.069 227C256.549 215.962 259 203.997 259 191.5C259 135.995 210.647 91 151 91C91.3532 91 43 135.995 43 191.5C43 203.997 45.4513 215.962 49.931 227H252.069Z" fill="#E4F2FD"/>
<ellipse cx="150.5" cy="226.5" rx="102.5" ry="6.5" fill="#CBD9E3"/>
<g clip-path="url(#clip0_18479_53250)">
<path d="M47.4139 116.448C47.0759 118.424 45.1985 119.752 43.2256 119.412C41.2479 119.073 39.9186 117.197 40.2566 115.221C40.5945 113.244 42.4719 111.916 44.4495 112.255C46.4294 112.598 47.7518 114.472 47.4139 116.448Z" fill="#76BDFF"/>
<path d="M89.4496 132.532C89.1116 134.508 87.2342 135.836 85.2544 135.493C83.2767 135.155 81.9496 133.283 82.2876 131.307C82.6255 129.33 84.5029 128.002 86.4806 128.341C88.4582 128.679 89.7875 130.555 89.4496 132.532Z" fill="#FEFEFE"/>
<path d="M83.2138 208.691C82.8736 210.662 80.9962 211.99 79.0185 211.652C77.0409 211.314 75.7116 209.437 76.0495 207.461C76.3875 205.484 78.2718 204.159 80.2425 204.495C82.2202 204.833 83.5495 206.71 83.2138 208.691Z" fill="#76BDFF"/>
<path d="M130.687 213.11C130.344 215.088 128.472 216.414 126.494 216.076C124.516 215.737 123.185 213.856 123.525 211.885C123.863 209.908 125.74 208.58 127.718 208.919C129.695 209.257 131.025 211.134 130.687 213.11Z" fill="#FEFEFE"/>
<path d="M215.414 70.4448C215.076 72.4211 213.199 73.749 211.221 73.4107C209.241 73.0678 207.919 71.1937 208.257 69.2175C208.597 67.2459 210.468 65.9155 212.452 66.2562C214.425 66.5967 215.754 68.4733 215.414 70.4448Z" fill="#76BDFF"/>
<path d="M257.414 77.4526C257.076 79.4289 255.199 80.7568 253.221 80.4185C251.241 80.0756 249.919 78.2015 250.257 76.2253C250.597 74.2537 252.468 72.9233 254.452 73.2641C256.425 73.6045 257.754 75.4811 257.414 77.4526Z" fill="#76BDFF"/>
<path d="M52.4141 52.4526C52.0761 54.4289 50.1987 55.7568 48.2211 55.4185C46.2412 55.0756 44.9188 53.2015 45.2568 51.2253C45.5969 49.2537 47.4674 47.9233 49.452 48.2641C51.4249 48.6045 52.7542 50.4811 52.4141 52.4526Z" fill="#76BDFF"/>
<path d="M136.414 42.4448C136.076 44.4211 134.199 45.749 132.221 45.4107C130.241 45.0678 128.919 43.1937 129.257 41.2175C129.597 39.2459 131.467 37.9155 133.452 38.2562C135.425 38.5967 136.754 40.4733 136.414 42.4448Z" fill="#76BDFF"/>
<path d="M30.4151 190.453C30.0771 192.429 28.1997 193.757 26.2221 193.419C24.2422 193.076 22.9198 191.202 23.2577 189.225C23.5979 187.254 25.4684 185.923 27.4529 186.264C29.4259 186.605 30.7552 188.481 30.4151 190.453Z" fill="#76BDFF"/>
<path d="M267.414 165.445C267.076 167.421 265.199 168.749 263.221 168.411C261.241 168.068 259.919 166.194 260.257 164.217C260.597 162.246 262.468 160.916 264.452 161.256C266.425 161.597 267.754 163.473 267.414 165.445Z" fill="#76BDFF"/>
<path d="M55.8925 132.794C54.4618 140.181 78.2459 211.723 87.1295 220.296C96.0131 228.869 217.274 208.828 221.146 202.736C225.013 196.645 223.977 114.199 222.909 109.494C221.848 104.791 146.463 58.7302 131.099 61.2695C118.522 63.347 58.8771 117.384 55.8925 132.794Z" fill="#99CAC5"/>
<path d="M55.8925 132.794C54.4618 140.181 78.2459 211.723 87.1295 220.296C96.0131 228.869 217.274 208.828 221.146 202.736C225.013 196.645 223.977 114.199 222.909 109.494C221.848 104.791 146.463 58.7302 131.099 61.2695C118.522 63.347 58.8771 117.384 55.8925 132.794Z" fill="#FCD47C"/>
<path d="M220.748 203.134C220.863 203 220.968 202.859 221.068 202.719C221.119 202.73 221.144 202.735 221.144 202.735C221.063 202.865 220.93 202.997 220.748 203.134ZM209.996 206.877C181.911 214.112 109.614 225.132 91.0213 221.78C91.5051 221.821 92.0244 221.828 92.5908 221.801C114.61 220.749 181.426 212.662 209.996 206.877ZM193.86 131.72C193.363 127.204 192.82 122.503 192.251 117.86C198.002 111.763 202.693 104.723 206.96 97.4522C214.846 102.536 220.624 106.701 222.372 108.661C220.819 109.876 208.103 119.83 193.86 131.72ZM223.1 111.171C222.95 110.429 222.794 109.7 222.629 108.975C222.78 109.173 222.871 109.342 222.906 109.475C222.908 109.48 222.908 109.48 222.91 109.485C222.905 109.487 222.908 109.491 222.908 109.491C222.973 109.776 223.039 110.352 223.1 111.171ZM86.9638 144.157C70.0052 137.69 55.8878 132.792 55.8878 132.792C56.1509 135.384 56.5231 138.074 56.989 140.828C56.0818 136.838 55.6552 133.985 55.8878 132.792C56.0581 131.904 56.4284 130.881 56.9588 129.747C64.2916 136.084 76.4666 138.512 85.7008 140.215C86.1196 141.524 86.5428 142.843 86.9638 144.157Z" fill="#FCB43C"/>
<path d="M100.936 185.771C100.936 185.771 73.4473 107.283 75.2614 99.4461C77.0685 91.6067 179.962 74.3721 184.953 79.2246C189.943 84.077 196.998 162.713 196.998 162.713L100.936 185.771Z" fill="#FEFEFE"/>
<path d="M157.712 164.676C150.798 161.602 145.696 159.702 144.042 159.865C143.772 159.889 143.445 159.997 143.051 160.183C141.523 160.905 139.079 162.781 136.024 165.451C124.835 159.106 104.398 150.803 86.9644 144.157C86.6191 143.088 86.2808 142.022 85.9402 140.95C98.496 146.655 136.195 162.418 136.195 162.418C136.195 162.418 139.646 158.124 142.003 157.01C142.289 156.875 142.558 156.789 142.802 156.759C145.057 156.496 155.959 162.741 156.437 162.516C156.442 162.513 156.442 162.513 156.447 162.511C164.614 155.026 186.057 134.984 193.365 127.268C193.534 128.765 193.705 130.254 193.865 131.72C180.505 142.873 165.803 155.731 157.712 164.676Z" fill="#F1F1F0"/>
<path d="M55.8878 132.802C55.8878 132.802 140.552 162.17 144.275 172.016C147.999 181.862 87.1239 220.302 87.1239 220.302C81.324 216.199 59.2962 166.39 55.8878 132.802Z" fill="#FCECC4"/>
<path d="M222.527 108.531C222.527 108.531 151.851 163.578 151.505 174.091C151.155 184.612 221.144 202.723 221.144 202.723C225.308 196.968 230.141 141.423 222.527 108.531Z" fill="#FCECC4"/>
<path d="M218.66 204.667C218.05 204.955 217.33 205.203 216.475 205.418C214.632 205.875 212.451 206.355 209.988 206.859C214.373 205.728 217.678 204.689 219.534 203.812C220.054 203.567 220.456 203.337 220.742 203.116C220.227 203.726 219.564 204.24 218.66 204.667Z" fill="#DDBDB8"/>
<path d="M91.0072 221.785C87.7065 221.51 86.2448 219.753 84.9541 217.812C85.8081 219.048 86.5409 219.894 87.1116 220.301C87.7883 220.955 89.1202 221.444 91.0072 221.785Z" fill="#DED4CD"/>
<path d="M219.536 203.828C217.68 204.704 214.376 205.743 209.991 206.874C181.419 212.66 114.6 220.747 92.5795 221.799C92.0131 221.826 91.4938 221.819 91.01 221.778C89.1227 221.437 87.7906 220.949 87.1139 220.294C87.1139 220.294 137.064 188.754 143.709 175.494L151.552 173.612C151.519 173.783 151.499 173.947 151.495 174.098C151.15 184.423 218.538 202.058 221.063 202.717C220.963 202.856 220.858 202.997 220.744 203.131C220.458 203.352 220.056 203.582 219.536 203.828Z" fill="#78B0AA"/>
<path d="M151.559 173.613L143.717 175.495C144.405 174.115 144.631 172.931 144.278 172.003C143.638 170.311 140.603 168.042 136.02 165.444C139.075 162.775 141.519 160.899 143.047 160.177C143.44 159.991 143.767 159.883 144.037 159.859C145.692 159.696 150.794 161.596 157.706 164.67C154.217 168.53 151.955 171.662 151.559 173.613Z" fill="#CFDFDE"/>
<path d="M87.1159 220.304C86.5451 219.897 85.8122 219.051 84.9581 217.816C84.9536 217.806 84.9492 217.797 84.9401 217.79C94.1737 207.72 121.742 177.924 136.015 165.451C140.599 168.049 143.633 170.319 144.273 172.011C144.626 172.939 144.401 174.123 143.712 175.503C137.066 188.764 87.1159 220.304 87.1159 220.304Z" fill="#FCD47C"/>
<path d="M221.063 202.707C218.538 202.048 151.157 184.415 151.502 174.092C151.505 173.941 151.525 173.777 151.559 173.606C151.954 171.654 154.217 168.523 157.706 164.663C177.182 173.327 211.026 191.332 222.573 198.905C222.159 200.43 221.772 201.684 221.063 202.707Z" fill="#FCD47C"/>
<path d="M87.1155 220.289C87.1155 220.289 137.51 160.446 144.14 159.831C150.77 159.215 217.672 197.775 221.139 202.728C224.602 207.684 86.0841 231.66 87.1155 220.289Z" fill="#FCF4EB"/>
<path d="M51.2367 130.806C48.1558 133.517 47.783 140.036 51.2011 142.559C51.4476 142.741 51.8942 142.57 51.8853 142.236C51.8271 140.453 51.3445 138.778 51.1583 137.015C50.9368 134.959 51.429 133.031 51.6173 131.005C51.6379 130.806 51.3857 130.673 51.2367 130.806Z" fill="#B1DFDC"/>
<path d="M45.4087 131.172L45.3096 131.035C45.1611 130.83 44.8433 130.837 44.6614 130.986C42.0449 133.139 41.6529 139.581 44.9832 141.252C45.2996 141.412 45.6773 141.107 45.7005 140.793C45.8418 138.898 44.8953 137.019 44.8771 135.102C44.864 134.008 45.0019 132.905 45.2386 131.842C45.2774 131.658 45.5481 131.37 45.4087 131.172Z" fill="#B1DFDC"/>
<path d="M222.988 102.225C227.094 104.068 228.127 108.554 230.592 111.911C230.882 112.307 231.515 112.128 231.672 111.71C233.715 106.236 227.593 102.663 223.089 101.771C222.816 101.716 222.766 102.118 222.988 102.225Z" fill="#B1DFDC"/>
<path d="M225.561 99.0312C227.031 99.3627 228.382 100.111 229.523 101.091C230.563 101.993 231.341 103.178 232.384 104.072C232.734 104.377 233.161 103.958 233.136 103.591C232.872 100.088 228.497 98.6816 225.573 98.9109L225.561 99.0312Z" fill="#B1DFDC"/>
</g>
<defs>
<clipPath id="clip0_18479_53250">
<rect width="267" height="244" fill="white" transform="translate(0 23.2734) rotate(-5.00093)"/>
</clipPath>
</defs>
</svg>
