<svg width="88" height="88" viewBox="0 0 88 88" fill="none" xmlns="http://www.w3.org/2000/svg">
<path d="M0 44C0 19.6987 19.6987 0 44 0C68.3 0 88 19.6987 88 44C88 68.3013 68.3 88 44 88C19.6987 88 0 68.3013 0 44Z" fill="#FFD05D"/>
<path d="M67.02 6.44531C71.4008 13.2854 73.9419 21.4201 73.9419 30.1445C73.9419 54.4482 54.2431 74.147 29.9419 74.147C21.5024 74.147 13.6192 71.7695 6.92285 67.6489C14.7416 79.8571 28.4254 87.9484 43.9998 87.9484C68.2998 87.9484 87.9998 68.2497 87.9998 43.9472C87.9998 28.0866 79.6062 14.1885 67.02 6.44531Z" fill="#FDC453"/>
<path d="M5.98072 48.6445C5.98072 26.0802 24.2696 7.79009 46.8314 7.79009C60.0196 7.79009 71.7447 14.0404 79.2141 23.7411C72.1597 11.4957 58.9381 3.25195 43.7911 3.25195C21.2293 3.25195 2.94043 21.5408 2.94043 44.1002C2.94043 53.4738 6.09966 62.109 11.4084 69.0023C7.95555 63.0084 5.98072 56.0557 5.98072 48.6445Z" fill="#FFD77F"/>
<path d="M31.0311 33.3279C31.0311 36.3472 29.5803 38.7915 27.7901 38.7915C25.9986 38.7915 24.5479 36.3472 24.5479 33.3279C24.5479 30.3087 25.9986 27.8594 27.7901 27.8594C29.5803 27.8594 31.0311 30.3087 31.0311 33.3279Z" fill="#303030"/>
<path d="M63.4522 33.3279C63.4522 36.3472 62.0002 38.7915 60.21 38.7915C58.4198 38.7915 56.9678 36.3472 56.9678 33.3279C56.9678 30.3087 58.4198 27.8594 60.21 27.8594C62.0002 27.8594 63.4522 30.3087 63.4522 33.3279Z" fill="#303030"/>
<path d="M14.4336 48.1641C16.1098 63.01 28.7046 74.5504 44.0002 74.5504C59.2959 74.5504 71.8907 63.01 73.5657 48.1641H14.4336Z" fill="#695342"/>
<path d="M23.5762 66.4247C28.906 71.4584 36.088 74.5507 43.9996 74.5507C51.5694 74.5507 58.4739 71.7223 63.7256 67.0664L63.4518 66.4272C43.597 56.7451 23.8463 66.2921 23.5762 66.4247Z" fill="#F06669"/>
</svg>
