<svg width="424" height="428" viewBox="0 0 424 428" fill="none" xmlns="http://www.w3.org/2000/svg">
<g filter="url(#filter0_d_20075_62651)">
<rect x="44" y="15" width="360" height="52" rx="4" fill="#1DA4D9"/>
<path d="M119.02 50V33.2H126.556C128.492 33.2 129.98 33.592 131.02 34.376C132.06 35.144 132.58 36.2 132.58 37.544C132.58 38.456 132.372 39.224 131.956 39.848C131.556 40.472 131.012 40.952 130.324 41.288C129.636 41.624 128.892 41.792 128.092 41.792L128.524 41.072C129.484 41.072 130.332 41.24 131.068 41.576C131.804 41.912 132.388 42.408 132.82 43.064C133.252 43.704 133.468 44.504 133.468 45.464C133.468 46.904 132.924 48.024 131.836 48.824C130.764 49.608 129.164 50 127.036 50H119.02ZM121.42 48.056H126.94C128.268 48.056 129.284 47.832 129.988 47.384C130.692 46.936 131.044 46.232 131.044 45.272C131.044 44.296 130.692 43.584 129.988 43.136C129.284 42.688 128.268 42.464 126.94 42.464H121.204V40.52H126.34C127.556 40.52 128.5 40.296 129.172 39.848C129.844 39.4 130.18 38.728 130.18 37.832C130.18 36.936 129.844 36.264 129.172 35.816C128.5 35.368 127.556 35.144 126.34 35.144H121.42V48.056ZM136.848 50V37.28H139.152V50H136.848ZM138 34.832C137.552 34.832 137.176 34.688 136.872 34.4C136.584 34.112 136.44 33.76 136.44 33.344C136.44 32.912 136.584 32.552 136.872 32.264C137.176 31.976 137.552 31.832 138 31.832C138.448 31.832 138.816 31.976 139.104 32.264C139.408 32.536 139.56 32.88 139.56 33.296C139.56 33.728 139.416 34.096 139.128 34.4C138.84 34.688 138.464 34.832 138 34.832ZM149.119 54.8C147.951 54.8 146.815 54.632 145.711 54.296C144.623 53.976 143.735 53.512 143.047 52.904L144.151 51.128C144.743 51.64 145.471 52.04 146.335 52.328C147.199 52.632 148.103 52.784 149.047 52.784C150.551 52.784 151.655 52.432 152.359 51.728C153.063 51.024 153.415 49.952 153.415 48.512V45.824L153.655 43.304L153.535 40.76V37.28H155.719V48.272C155.719 50.512 155.159 52.16 154.039 53.216C152.919 54.272 151.279 54.8 149.119 54.8ZM148.831 49.472C147.599 49.472 146.495 49.216 145.519 48.704C144.559 48.176 143.791 47.448 143.215 46.52C142.655 45.592 142.375 44.52 142.375 43.304C142.375 42.072 142.655 41 143.215 40.088C143.791 39.16 144.559 38.44 145.519 37.928C146.495 37.416 147.599 37.16 148.831 37.16C149.919 37.16 150.911 37.384 151.807 37.832C152.703 38.264 153.415 38.936 153.943 39.848C154.487 40.76 154.759 41.912 154.759 43.304C154.759 44.68 154.487 45.824 153.943 46.736C153.415 47.648 152.703 48.336 151.807 48.8C150.911 49.248 149.919 49.472 148.831 49.472ZM149.095 47.456C149.943 47.456 150.695 47.28 151.351 46.928C152.007 46.576 152.519 46.088 152.887 45.464C153.271 44.84 153.463 44.12 153.463 43.304C153.463 42.488 153.271 41.768 152.887 41.144C152.519 40.52 152.007 40.04 151.351 39.704C150.695 39.352 149.943 39.176 149.095 39.176C148.247 39.176 147.487 39.352 146.815 39.704C146.159 40.04 145.639 40.52 145.255 41.144C144.887 41.768 144.703 42.488 144.703 43.304C144.703 44.12 144.887 44.84 145.255 45.464C145.639 46.088 146.159 46.576 146.815 46.928C147.487 47.28 148.247 47.456 149.095 47.456ZM166.903 50V33.2H173.983C175.775 33.2 177.351 33.552 178.711 34.256C180.087 34.96 181.151 35.944 181.903 37.208C182.671 38.472 183.055 39.936 183.055 41.6C183.055 43.264 182.671 44.728 181.903 45.992C181.151 47.256 180.087 48.24 178.711 48.944C177.351 49.648 175.775 50 173.983 50H166.903ZM169.303 47.912H173.839C175.231 47.912 176.431 47.648 177.439 47.12C178.463 46.592 179.255 45.856 179.815 44.912C180.375 43.952 180.655 42.848 180.655 41.6C180.655 40.336 180.375 39.232 179.815 38.288C179.255 37.344 178.463 36.608 177.439 36.08C176.431 35.552 175.231 35.288 173.839 35.288H169.303V47.912ZM194.291 50V47.312L194.171 46.808V42.224C194.171 41.248 193.883 40.496 193.307 39.968C192.747 39.424 191.899 39.152 190.763 39.152C190.011 39.152 189.275 39.28 188.555 39.536C187.835 39.776 187.227 40.104 186.731 40.52L185.771 38.792C186.427 38.264 187.211 37.864 188.123 37.592C189.051 37.304 190.019 37.16 191.027 37.16C192.771 37.16 194.115 37.584 195.059 38.432C196.003 39.28 196.475 40.576 196.475 42.32V50H194.291ZM190.115 50.144C189.171 50.144 188.339 49.984 187.619 49.664C186.915 49.344 186.371 48.904 185.987 48.344C185.603 47.768 185.411 47.12 185.411 46.4C185.411 45.712 185.571 45.088 185.891 44.528C186.227 43.968 186.763 43.52 187.499 43.184C188.251 42.848 189.259 42.68 190.523 42.68H194.555V44.336H190.619C189.467 44.336 188.691 44.528 188.291 44.912C187.891 45.296 187.691 45.76 187.691 46.304C187.691 46.928 187.939 47.432 188.435 47.816C188.931 48.184 189.619 48.368 190.499 48.368C191.363 48.368 192.115 48.176 192.755 47.792C193.411 47.408 193.883 46.848 194.171 46.112L194.627 47.696C194.323 48.448 193.787 49.048 193.019 49.496C192.251 49.928 191.283 50.144 190.115 50.144ZM205.107 50.144C203.827 50.144 202.835 49.8 202.131 49.112C201.427 48.424 201.075 47.44 201.075 46.16V34.496H203.379V46.064C203.379 46.752 203.547 47.28 203.883 47.648C204.235 48.016 204.731 48.2 205.371 48.2C206.091 48.2 206.691 48 207.171 47.6L207.891 49.256C207.539 49.56 207.115 49.784 206.619 49.928C206.139 50.072 205.635 50.144 205.107 50.144ZM198.915 39.176V37.28H207.027V39.176H198.915ZM218.572 50V47.312L218.452 46.808V42.224C218.452 41.248 218.164 40.496 217.588 39.968C217.028 39.424 216.18 39.152 215.044 39.152C214.292 39.152 213.556 39.28 212.836 39.536C212.116 39.776 211.508 40.104 211.012 40.52L210.052 38.792C210.708 38.264 211.492 37.864 212.404 37.592C213.332 37.304 214.3 37.16 215.308 37.16C217.052 37.16 218.396 37.584 219.34 38.432C220.284 39.28 220.756 40.576 220.756 42.32V50H218.572ZM214.396 50.144C213.452 50.144 212.62 49.984 211.9 49.664C211.196 49.344 210.652 48.904 210.268 48.344C209.884 47.768 209.692 47.12 209.692 46.4C209.692 45.712 209.852 45.088 210.172 44.528C210.508 43.968 211.044 43.52 211.78 43.184C212.532 42.848 213.54 42.68 214.804 42.68H218.836V44.336H214.9C213.748 44.336 212.972 44.528 212.572 44.912C212.172 45.296 211.972 45.76 211.972 46.304C211.972 46.928 212.22 47.432 212.716 47.816C213.212 48.184 213.9 48.368 214.78 48.368C215.644 48.368 216.396 48.176 217.036 47.792C217.692 47.408 218.164 46.848 218.452 46.112L218.908 47.696C218.604 48.448 218.068 49.048 217.3 49.496C216.532 49.928 215.564 50.144 214.396 50.144ZM236.697 50.192C235.417 50.192 234.193 50 233.025 49.616C231.857 49.216 230.937 48.704 230.265 48.08L231.153 46.208C231.793 46.768 232.609 47.232 233.601 47.6C234.593 47.968 235.625 48.152 236.697 48.152C237.673 48.152 238.465 48.04 239.073 47.816C239.681 47.592 240.129 47.288 240.417 46.904C240.705 46.504 240.849 46.056 240.849 45.56C240.849 44.984 240.657 44.52 240.273 44.168C239.905 43.816 239.417 43.536 238.809 43.328C238.217 43.104 237.561 42.912 236.841 42.752C236.121 42.592 235.393 42.408 234.657 42.2C233.937 41.976 233.273 41.696 232.665 41.36C232.073 41.024 231.593 40.576 231.225 40.016C230.857 39.44 230.673 38.704 230.673 37.808C230.673 36.944 230.897 36.152 231.345 35.432C231.809 34.696 232.513 34.112 233.457 33.68C234.417 33.232 235.633 33.008 237.105 33.008C238.081 33.008 239.049 33.136 240.009 33.392C240.969 33.648 241.801 34.016 242.505 34.496L241.713 36.416C240.993 35.936 240.233 35.592 239.433 35.384C238.633 35.16 237.857 35.048 237.105 35.048C236.161 35.048 235.385 35.168 234.777 35.408C234.169 35.648 233.721 35.968 233.433 36.368C233.161 36.768 233.025 37.216 233.025 37.712C233.025 38.304 233.209 38.776 233.577 39.128C233.961 39.48 234.449 39.76 235.041 39.968C235.649 40.176 236.313 40.368 237.033 40.544C237.753 40.704 238.473 40.888 239.193 41.096C239.929 41.304 240.593 41.576 241.185 41.912C241.793 42.248 242.281 42.696 242.649 43.256C243.017 43.816 243.201 44.536 243.201 45.416C243.201 46.264 242.969 47.056 242.505 47.792C242.041 48.512 241.321 49.096 240.345 49.544C239.385 49.976 238.169 50.192 236.697 50.192ZM251.82 50.144C250.54 50.144 249.404 49.864 248.412 49.304C247.42 48.744 246.636 47.976 246.06 47C245.484 46.008 245.196 44.888 245.196 43.64C245.196 42.376 245.484 41.256 246.06 40.28C246.636 39.304 247.42 38.544 248.412 38C249.404 37.44 250.54 37.16 251.82 37.16C253.084 37.16 254.212 37.44 255.204 38C256.212 38.544 256.996 39.304 257.556 40.28C258.132 41.24 258.42 42.36 258.42 43.64C258.42 44.904 258.132 46.024 257.556 47C256.996 47.976 256.212 48.744 255.204 49.304C254.212 49.864 253.084 50.144 251.82 50.144ZM251.82 48.128C252.636 48.128 253.364 47.944 254.004 47.576C254.66 47.208 255.172 46.688 255.54 46.016C255.908 45.328 256.092 44.536 256.092 43.64C256.092 42.728 255.908 41.944 255.54 41.288C255.172 40.616 254.66 40.096 254.004 39.728C253.364 39.36 252.636 39.176 251.82 39.176C251.004 39.176 250.276 39.36 249.636 39.728C248.996 40.096 248.484 40.616 248.1 41.288C247.716 41.944 247.524 42.728 247.524 43.64C247.524 44.536 247.716 45.328 248.1 46.016C248.484 46.688 248.996 47.208 249.636 47.576C250.276 47.944 251.004 48.128 251.82 48.128ZM261.606 50V32.192H263.91V50H261.606ZM273.661 50.144C272.573 50.144 271.613 49.944 270.781 49.544C269.965 49.144 269.325 48.536 268.861 47.72C268.413 46.888 268.189 45.848 268.189 44.6V37.28H270.493V44.336C270.493 45.584 270.789 46.52 271.381 47.144C271.989 47.768 272.837 48.08 273.925 48.08C274.725 48.08 275.421 47.92 276.013 47.6C276.605 47.264 277.061 46.784 277.381 46.16C277.701 45.52 277.861 44.752 277.861 43.856V37.28H280.165V50H277.981V46.568L278.341 47.48C277.925 48.328 277.301 48.984 276.469 49.448C275.637 49.912 274.701 50.144 273.661 50.144ZM288.919 50.144C287.639 50.144 286.647 49.8 285.943 49.112C285.239 48.424 284.887 47.44 284.887 46.16V34.496H287.191V46.064C287.191 46.752 287.359 47.28 287.695 47.648C288.047 48.016 288.543 48.2 289.183 48.2C289.903 48.2 290.503 48 290.983 47.6L291.703 49.256C291.351 49.56 290.927 49.784 290.431 49.928C289.951 50.072 289.447 50.144 288.919 50.144ZM282.727 39.176V37.28H290.839V39.176H282.727ZM294.489 50V37.28H296.793V50H294.489ZM295.641 34.832C295.193 34.832 294.817 34.688 294.513 34.4C294.225 34.112 294.081 33.76 294.081 33.344C294.081 32.912 294.225 32.552 294.513 32.264C294.817 31.976 295.193 31.832 295.641 31.832C296.089 31.832 296.457 31.976 296.745 32.264C297.049 32.536 297.201 32.88 297.201 33.296C297.201 33.728 297.057 34.096 296.769 34.4C296.481 34.688 296.105 34.832 295.641 34.832ZM306.64 50.144C305.36 50.144 304.224 49.864 303.232 49.304C302.24 48.744 301.456 47.976 300.88 47C300.304 46.008 300.016 44.888 300.016 43.64C300.016 42.376 300.304 41.256 300.88 40.28C301.456 39.304 302.24 38.544 303.232 38C304.224 37.44 305.36 37.16 306.64 37.16C307.904 37.16 309.032 37.44 310.024 38C311.032 38.544 311.816 39.304 312.376 40.28C312.952 41.24 313.24 42.36 313.24 43.64C313.24 44.904 312.952 46.024 312.376 47C311.816 47.976 311.032 48.744 310.024 49.304C309.032 49.864 307.904 50.144 306.64 50.144ZM306.64 48.128C307.456 48.128 308.184 47.944 308.824 47.576C309.48 47.208 309.992 46.688 310.36 46.016C310.728 45.328 310.912 44.536 310.912 43.64C310.912 42.728 310.728 41.944 310.36 41.288C309.992 40.616 309.48 40.096 308.824 39.728C308.184 39.36 307.456 39.176 306.64 39.176C305.824 39.176 305.096 39.36 304.456 39.728C303.816 40.096 303.304 40.616 302.92 41.288C302.536 41.944 302.344 42.728 302.344 43.64C302.344 44.536 302.536 45.328 302.92 46.016C303.304 46.688 303.816 47.208 304.456 47.576C305.096 47.944 305.824 48.128 306.64 48.128ZM323.218 37.16C324.258 37.16 325.17 37.36 325.954 37.76C326.754 38.16 327.378 38.768 327.826 39.584C328.274 40.4 328.498 41.432 328.498 42.68V50H326.194V42.944C326.194 41.712 325.89 40.784 325.282 40.16C324.69 39.536 323.85 39.224 322.762 39.224C321.946 39.224 321.234 39.384 320.626 39.704C320.018 40.024 319.546 40.496 319.21 41.12C318.89 41.744 318.73 42.52 318.73 43.448V50H316.426V37.28H318.634V40.712L318.274 39.8C318.69 38.968 319.33 38.32 320.194 37.856C321.058 37.392 322.066 37.16 323.218 37.16Z" fill="white"/>
</g>
<g filter="url(#filter1_d_20075_62651)">
<rect x="20" y="15" width="16" height="52" rx="4" fill="#FFA600"/>
</g>
<g filter="url(#filter2_d_20075_62651)">
<rect x="44" y="99" width="360" height="52" rx="4" fill="#1DA4D9"/>
<path d="M157.476 134L165.084 117.2H167.46L175.092 134H172.572L165.78 118.544H166.74L159.948 134H157.476ZM160.716 129.8L161.364 127.88H170.82L171.516 129.8H160.716ZM177.598 134V117.2H179.998V134H177.598ZM196.369 134.192C195.089 134.192 193.865 134 192.697 133.616C191.529 133.216 190.609 132.704 189.937 132.08L190.825 130.208C191.465 130.768 192.281 131.232 193.273 131.6C194.265 131.968 195.297 132.152 196.369 132.152C197.345 132.152 198.137 132.04 198.745 131.816C199.353 131.592 199.801 131.288 200.089 130.904C200.377 130.504 200.521 130.056 200.521 129.56C200.521 128.984 200.329 128.52 199.945 128.168C199.577 127.816 199.089 127.536 198.481 127.328C197.889 127.104 197.233 126.912 196.513 126.752C195.793 126.592 195.065 126.408 194.329 126.2C193.609 125.976 192.945 125.696 192.337 125.36C191.745 125.024 191.265 124.576 190.897 124.016C190.529 123.44 190.345 122.704 190.345 121.808C190.345 120.944 190.569 120.152 191.017 119.432C191.481 118.696 192.185 118.112 193.129 117.68C194.089 117.232 195.305 117.008 196.777 117.008C197.753 117.008 198.721 117.136 199.681 117.392C200.641 117.648 201.473 118.016 202.177 118.496L201.385 120.416C200.665 119.936 199.905 119.592 199.105 119.384C198.305 119.16 197.529 119.048 196.777 119.048C195.833 119.048 195.057 119.168 194.449 119.408C193.841 119.648 193.393 119.968 193.105 120.368C192.833 120.768 192.697 121.216 192.697 121.712C192.697 122.304 192.881 122.776 193.249 123.128C193.633 123.48 194.121 123.76 194.713 123.968C195.321 124.176 195.985 124.368 196.705 124.544C197.425 124.704 198.145 124.888 198.865 125.096C199.601 125.304 200.265 125.576 200.857 125.912C201.465 126.248 201.953 126.696 202.321 127.256C202.689 127.816 202.873 128.536 202.873 129.416C202.873 130.264 202.641 131.056 202.177 131.792C201.713 132.512 200.993 133.096 200.017 133.544C199.057 133.976 197.841 134.192 196.369 134.192ZM211.491 134.144C210.211 134.144 209.075 133.864 208.083 133.304C207.091 132.744 206.307 131.976 205.731 131C205.155 130.008 204.867 128.888 204.867 127.64C204.867 126.376 205.155 125.256 205.731 124.28C206.307 123.304 207.091 122.544 208.083 122C209.075 121.44 210.211 121.16 211.491 121.16C212.755 121.16 213.883 121.44 214.875 122C215.883 122.544 216.667 123.304 217.227 124.28C217.803 125.24 218.091 126.36 218.091 127.64C218.091 128.904 217.803 130.024 217.227 131C216.667 131.976 215.883 132.744 214.875 133.304C213.883 133.864 212.755 134.144 211.491 134.144ZM211.491 132.128C212.307 132.128 213.035 131.944 213.675 131.576C214.331 131.208 214.843 130.688 215.211 130.016C215.579 129.328 215.763 128.536 215.763 127.64C215.763 126.728 215.579 125.944 215.211 125.288C214.843 124.616 214.331 124.096 213.675 123.728C213.035 123.36 212.307 123.176 211.491 123.176C210.675 123.176 209.947 123.36 209.307 123.728C208.667 124.096 208.155 124.616 207.771 125.288C207.387 125.944 207.195 126.728 207.195 127.64C207.195 128.536 207.387 129.328 207.771 130.016C208.155 130.688 208.667 131.208 209.307 131.576C209.947 131.944 210.675 132.128 211.491 132.128ZM221.278 134V116.192H223.582V134H221.278ZM233.333 134.144C232.245 134.144 231.285 133.944 230.453 133.544C229.637 133.144 228.997 132.536 228.533 131.72C228.085 130.888 227.861 129.848 227.861 128.6V121.28H230.165V128.336C230.165 129.584 230.461 130.52 231.053 131.144C231.661 131.768 232.509 132.08 233.597 132.08C234.397 132.08 235.093 131.92 235.685 131.6C236.277 131.264 236.733 130.784 237.053 130.16C237.373 129.52 237.533 128.752 237.533 127.856V121.28H239.837V134H237.653V130.568L238.013 131.48C237.597 132.328 236.973 132.984 236.141 133.448C235.309 133.912 234.373 134.144 233.333 134.144ZM248.591 134.144C247.311 134.144 246.319 133.8 245.615 133.112C244.911 132.424 244.559 131.44 244.559 130.16V118.496H246.863V130.064C246.863 130.752 247.031 131.28 247.367 131.648C247.719 132.016 248.215 132.2 248.855 132.2C249.575 132.2 250.175 132 250.655 131.6L251.375 133.256C251.023 133.56 250.599 133.784 250.103 133.928C249.623 134.072 249.119 134.144 248.591 134.144ZM242.399 123.176V121.28H250.511V123.176H242.399ZM254.161 134V121.28H256.465V134H254.161ZM255.313 118.832C254.865 118.832 254.489 118.688 254.185 118.4C253.897 118.112 253.753 117.76 253.753 117.344C253.753 116.912 253.897 116.552 254.185 116.264C254.489 115.976 254.865 115.832 255.313 115.832C255.761 115.832 256.129 115.976 256.417 116.264C256.721 116.536 256.873 116.88 256.873 117.296C256.873 117.728 256.729 118.096 256.441 118.4C256.153 118.688 255.777 118.832 255.313 118.832ZM266.312 134.144C265.032 134.144 263.896 133.864 262.904 133.304C261.912 132.744 261.128 131.976 260.552 131C259.976 130.008 259.688 128.888 259.688 127.64C259.688 126.376 259.976 125.256 260.552 124.28C261.128 123.304 261.912 122.544 262.904 122C263.896 121.44 265.032 121.16 266.312 121.16C267.576 121.16 268.704 121.44 269.696 122C270.704 122.544 271.488 123.304 272.048 124.28C272.624 125.24 272.912 126.36 272.912 127.64C272.912 128.904 272.624 130.024 272.048 131C271.488 131.976 270.704 132.744 269.696 133.304C268.704 133.864 267.576 134.144 266.312 134.144ZM266.312 132.128C267.128 132.128 267.856 131.944 268.496 131.576C269.152 131.208 269.664 130.688 270.032 130.016C270.4 129.328 270.584 128.536 270.584 127.64C270.584 126.728 270.4 125.944 270.032 125.288C269.664 124.616 269.152 124.096 268.496 123.728C267.856 123.36 267.128 123.176 266.312 123.176C265.496 123.176 264.768 123.36 264.128 123.728C263.488 124.096 262.976 124.616 262.592 125.288C262.208 125.944 262.016 126.728 262.016 127.64C262.016 128.536 262.208 129.328 262.592 130.016C262.976 130.688 263.488 131.208 264.128 131.576C264.768 131.944 265.496 132.128 266.312 132.128ZM282.89 121.16C283.93 121.16 284.842 121.36 285.626 121.76C286.426 122.16 287.05 122.768 287.498 123.584C287.946 124.4 288.17 125.432 288.17 126.68V134H285.866V126.944C285.866 125.712 285.562 124.784 284.954 124.16C284.362 123.536 283.522 123.224 282.434 123.224C281.618 123.224 280.906 123.384 280.298 123.704C279.69 124.024 279.218 124.496 278.882 125.12C278.562 125.744 278.402 126.52 278.402 127.448V134H276.098V121.28H278.306V124.712L277.946 123.8C278.362 122.968 279.002 122.32 279.866 121.856C280.73 121.392 281.738 121.16 282.89 121.16Z" fill="white"/>
</g>
<g filter="url(#filter3_d_20075_62651)">
<rect x="20" y="99" width="16" height="52" rx="4" fill="#FFA600"/>
</g>
<g filter="url(#filter4_d_20075_62651)">
<rect x="44" y="183" width="360" height="52" rx="4" fill="#1DA4D9"/>
<path d="M83.916 218.192C82.636 218.192 81.412 218 80.244 217.616C79.076 217.216 78.156 216.704 77.484 216.08L78.372 214.208C79.012 214.768 79.828 215.232 80.82 215.6C81.812 215.968 82.844 216.152 83.916 216.152C84.892 216.152 85.684 216.04 86.292 215.816C86.9 215.592 87.348 215.288 87.636 214.904C87.924 214.504 88.068 214.056 88.068 213.56C88.068 212.984 87.876 212.52 87.492 212.168C87.124 211.816 86.636 211.536 86.028 211.328C85.436 211.104 84.78 210.912 84.06 210.752C83.34 210.592 82.612 210.408 81.876 210.2C81.156 209.976 80.492 209.696 79.884 209.36C79.292 209.024 78.812 208.576 78.444 208.016C78.076 207.44 77.892 206.704 77.892 205.808C77.892 204.944 78.116 204.152 78.564 203.432C79.028 202.696 79.732 202.112 80.676 201.68C81.636 201.232 82.852 201.008 84.324 201.008C85.3 201.008 86.268 201.136 87.228 201.392C88.188 201.648 89.02 202.016 89.724 202.496L88.932 204.416C88.212 203.936 87.452 203.592 86.652 203.384C85.852 203.16 85.076 203.048 84.324 203.048C83.38 203.048 82.604 203.168 81.996 203.408C81.388 203.648 80.94 203.968 80.652 204.368C80.38 204.768 80.244 205.216 80.244 205.712C80.244 206.304 80.428 206.776 80.796 207.128C81.18 207.48 81.668 207.76 82.26 207.968C82.868 208.176 83.532 208.368 84.252 208.544C84.972 208.704 85.692 208.888 86.412 209.096C87.148 209.304 87.812 209.576 88.404 209.912C89.012 210.248 89.5 210.696 89.868 211.256C90.236 211.816 90.42 212.536 90.42 213.416C90.42 214.264 90.188 215.056 89.724 215.792C89.26 216.512 88.54 217.096 87.564 217.544C86.604 217.976 85.388 218.192 83.916 218.192ZM99.0383 218.144C97.7583 218.144 96.6223 217.864 95.6303 217.304C94.6383 216.744 93.8543 215.976 93.2783 215C92.7023 214.008 92.4143 212.888 92.4143 211.64C92.4143 210.376 92.7023 209.256 93.2783 208.28C93.8543 207.304 94.6383 206.544 95.6303 206C96.6223 205.44 97.7583 205.16 99.0383 205.16C100.302 205.16 101.43 205.44 102.422 206C103.43 206.544 104.214 207.304 104.774 208.28C105.35 209.24 105.638 210.36 105.638 211.64C105.638 212.904 105.35 214.024 104.774 215C104.214 215.976 103.43 216.744 102.422 217.304C101.43 217.864 100.302 218.144 99.0383 218.144ZM99.0383 216.128C99.8543 216.128 100.582 215.944 101.222 215.576C101.878 215.208 102.39 214.688 102.758 214.016C103.126 213.328 103.31 212.536 103.31 211.64C103.31 210.728 103.126 209.944 102.758 209.288C102.39 208.616 101.878 208.096 101.222 207.728C100.582 207.36 99.8543 207.176 99.0383 207.176C98.2223 207.176 97.4943 207.36 96.8543 207.728C96.2143 208.096 95.7023 208.616 95.3183 209.288C94.9343 209.944 94.7423 210.728 94.7423 211.64C94.7423 212.536 94.9343 213.328 95.3183 214.016C95.7023 214.688 96.2143 215.208 96.8543 215.576C97.4943 215.944 98.2223 216.128 99.0383 216.128ZM114.369 218.144C113.073 218.144 111.913 217.864 110.889 217.304C109.881 216.744 109.089 215.976 108.513 215C107.937 214.024 107.649 212.904 107.649 211.64C107.649 210.376 107.937 209.256 108.513 208.28C109.089 207.304 109.881 206.544 110.889 206C111.913 205.44 113.073 205.16 114.369 205.16C115.521 205.16 116.545 205.392 117.441 205.856C118.353 206.304 119.057 206.976 119.553 207.872L117.801 209C117.385 208.376 116.873 207.92 116.265 207.632C115.673 207.328 115.033 207.176 114.345 207.176C113.513 207.176 112.769 207.36 112.113 207.728C111.457 208.096 110.937 208.616 110.553 209.288C110.169 209.944 109.977 210.728 109.977 211.64C109.977 212.552 110.169 213.344 110.553 214.016C110.937 214.688 111.457 215.208 112.113 215.576C112.769 215.944 113.513 216.128 114.345 216.128C115.033 216.128 115.673 215.984 116.265 215.696C116.873 215.392 117.385 214.928 117.801 214.304L119.553 215.408C119.057 216.288 118.353 216.968 117.441 217.448C116.545 217.912 115.521 218.144 114.369 218.144ZM122.372 218V205.28H124.676V218H122.372ZM123.524 202.832C123.076 202.832 122.7 202.688 122.396 202.4C122.108 202.112 121.964 201.76 121.964 201.344C121.964 200.912 122.108 200.552 122.396 200.264C122.7 199.976 123.076 199.832 123.524 199.832C123.972 199.832 124.34 199.976 124.628 200.264C124.932 200.536 125.084 200.88 125.084 201.296C125.084 201.728 124.94 202.096 124.652 202.4C124.364 202.688 123.988 202.832 123.524 202.832ZM136.971 218V215.312L136.851 214.808V210.224C136.851 209.248 136.563 208.496 135.987 207.968C135.427 207.424 134.579 207.152 133.443 207.152C132.691 207.152 131.955 207.28 131.235 207.536C130.515 207.776 129.907 208.104 129.411 208.52L128.451 206.792C129.107 206.264 129.891 205.864 130.803 205.592C131.731 205.304 132.699 205.16 133.707 205.16C135.451 205.16 136.795 205.584 137.739 206.432C138.683 207.28 139.155 208.576 139.155 210.32V218H136.971ZM132.795 218.144C131.851 218.144 131.019 217.984 130.299 217.664C129.595 217.344 129.051 216.904 128.667 216.344C128.283 215.768 128.091 215.12 128.091 214.4C128.091 213.712 128.251 213.088 128.571 212.528C128.907 211.968 129.443 211.52 130.179 211.184C130.931 210.848 131.939 210.68 133.203 210.68H137.235V212.336H133.299C132.147 212.336 131.371 212.528 130.971 212.912C130.571 213.296 130.371 213.76 130.371 214.304C130.371 214.928 130.619 215.432 131.115 215.816C131.611 216.184 132.299 216.368 133.179 216.368C134.043 216.368 134.795 216.176 135.435 215.792C136.091 215.408 136.563 214.848 136.851 214.112L137.307 215.696C137.003 216.448 136.467 217.048 135.699 217.496C134.931 217.928 133.963 218.144 132.795 218.144ZM143.418 218V200.192H145.722V218H143.418ZM156.903 218V201.2H158.871L166.407 213.896H165.351L172.791 201.2H174.759L174.783 218H172.479L172.455 204.824H173.007L166.383 215.96H165.279L158.607 204.824H159.207V218H156.903ZM185.153 218.144C183.793 218.144 182.593 217.864 181.553 217.304C180.529 216.744 179.729 215.976 179.153 215C178.593 214.024 178.313 212.904 178.313 211.64C178.313 210.376 178.585 209.256 179.129 208.28C179.689 207.304 180.449 206.544 181.409 206C182.385 205.44 183.481 205.16 184.697 205.16C185.929 205.16 187.017 205.432 187.961 205.976C188.905 206.52 189.641 207.288 190.169 208.28C190.713 209.256 190.985 210.4 190.985 211.712C190.985 211.808 190.977 211.92 190.961 212.048C190.961 212.176 190.953 212.296 190.937 212.408H180.113V210.752H189.737L188.801 211.328C188.817 210.512 188.649 209.784 188.297 209.144C187.945 208.504 187.457 208.008 186.833 207.656C186.225 207.288 185.513 207.104 184.697 207.104C183.897 207.104 183.185 207.288 182.561 207.656C181.937 208.008 181.449 208.512 181.097 209.168C180.745 209.808 180.569 210.544 180.569 211.376V211.76C180.569 212.608 180.761 213.368 181.145 214.04C181.545 214.696 182.097 215.208 182.801 215.576C183.505 215.944 184.313 216.128 185.225 216.128C185.977 216.128 186.657 216 187.265 215.744C187.889 215.488 188.433 215.104 188.897 214.592L190.169 216.08C189.593 216.752 188.873 217.264 188.009 217.616C187.161 217.968 186.209 218.144 185.153 218.144ZM199.44 218.144C198.208 218.144 197.104 217.872 196.128 217.328C195.168 216.784 194.408 216.024 193.848 215.048C193.288 214.072 193.008 212.936 193.008 211.64C193.008 210.344 193.288 209.216 193.848 208.256C194.408 207.28 195.168 206.52 196.128 205.976C197.104 205.432 198.208 205.16 199.44 205.16C200.512 205.16 201.48 205.4 202.344 205.88C203.208 206.36 203.896 207.08 204.408 208.04C204.936 209 205.2 210.2 205.2 211.64C205.2 213.08 204.944 214.28 204.432 215.24C203.936 216.2 203.256 216.928 202.392 217.424C201.528 217.904 200.544 218.144 199.44 218.144ZM199.632 216.128C200.432 216.128 201.152 215.944 201.792 215.576C202.448 215.208 202.96 214.688 203.328 214.016C203.712 213.328 203.904 212.536 203.904 211.64C203.904 210.728 203.712 209.944 203.328 209.288C202.96 208.616 202.448 208.096 201.792 207.728C201.152 207.36 200.432 207.176 199.632 207.176C198.816 207.176 198.088 207.36 197.448 207.728C196.808 208.096 196.296 208.616 195.912 209.288C195.528 209.944 195.336 210.728 195.336 211.64C195.336 212.536 195.528 213.328 195.912 214.016C196.296 214.688 196.808 215.208 197.448 215.576C198.088 215.944 198.816 216.128 199.632 216.128ZM203.976 218V214.568L204.12 211.616L203.88 208.664V200.192H206.184V218H203.976ZM210.543 218V205.28H212.847V218H210.543ZM211.695 202.832C211.247 202.832 210.871 202.688 210.567 202.4C210.279 202.112 210.135 201.76 210.135 201.344C210.135 200.912 210.279 200.552 210.567 200.264C210.871 199.976 211.247 199.832 211.695 199.832C212.143 199.832 212.511 199.976 212.799 200.264C213.103 200.536 213.255 200.88 213.255 201.296C213.255 201.728 213.111 202.096 212.823 202.4C212.535 202.688 212.159 202.832 211.695 202.832ZM225.143 218V215.312L225.023 214.808V210.224C225.023 209.248 224.735 208.496 224.159 207.968C223.599 207.424 222.751 207.152 221.615 207.152C220.863 207.152 220.127 207.28 219.407 207.536C218.687 207.776 218.079 208.104 217.583 208.52L216.623 206.792C217.279 206.264 218.063 205.864 218.975 205.592C219.903 205.304 220.871 205.16 221.879 205.16C223.623 205.16 224.967 205.584 225.911 206.432C226.855 207.28 227.327 208.576 227.327 210.32V218H225.143ZM220.967 218.144C220.023 218.144 219.191 217.984 218.471 217.664C217.767 217.344 217.223 216.904 216.839 216.344C216.455 215.768 216.263 215.12 216.263 214.4C216.263 213.712 216.423 213.088 216.743 212.528C217.079 211.968 217.615 211.52 218.351 211.184C219.103 210.848 220.111 210.68 221.375 210.68H225.407V212.336H221.471C220.319 212.336 219.543 212.528 219.143 212.912C218.743 213.296 218.543 213.76 218.543 214.304C218.543 214.928 218.791 215.432 219.287 215.816C219.783 216.184 220.471 216.368 221.351 216.368C222.215 216.368 222.967 216.176 223.607 215.792C224.263 215.408 224.735 214.848 225.023 214.112L225.479 215.696C225.175 216.448 224.639 217.048 223.871 217.496C223.103 217.928 222.135 218.144 220.967 218.144ZM238.372 218V201.2H240.34L247.876 213.896H246.82L254.26 201.2H256.228L256.252 218H253.948L253.924 204.824H254.476L247.852 215.96H246.748L240.076 204.824H240.676V218H238.372ZM266.405 218.144C265.125 218.144 263.989 217.864 262.997 217.304C262.005 216.744 261.221 215.976 260.645 215C260.069 214.008 259.781 212.888 259.781 211.64C259.781 210.376 260.069 209.256 260.645 208.28C261.221 207.304 262.005 206.544 262.997 206C263.989 205.44 265.125 205.16 266.405 205.16C267.669 205.16 268.797 205.44 269.789 206C270.797 206.544 271.581 207.304 272.141 208.28C272.717 209.24 273.005 210.36 273.005 211.64C273.005 212.904 272.717 214.024 272.141 215C271.581 215.976 270.797 216.744 269.789 217.304C268.797 217.864 267.669 218.144 266.405 218.144ZM266.405 216.128C267.221 216.128 267.949 215.944 268.589 215.576C269.245 215.208 269.757 214.688 270.125 214.016C270.493 213.328 270.677 212.536 270.677 211.64C270.677 210.728 270.493 209.944 270.125 209.288C269.757 208.616 269.245 208.096 268.589 207.728C267.949 207.36 267.221 207.176 266.405 207.176C265.589 207.176 264.861 207.36 264.221 207.728C263.581 208.096 263.069 208.616 262.685 209.288C262.301 209.944 262.109 210.728 262.109 211.64C262.109 212.536 262.301 213.328 262.685 214.016C263.069 214.688 263.581 215.208 264.221 215.576C264.861 215.944 265.589 216.128 266.405 216.128ZM282.984 205.16C284.024 205.16 284.936 205.36 285.72 205.76C286.52 206.16 287.144 206.768 287.592 207.584C288.04 208.4 288.264 209.432 288.264 210.68V218H285.96V210.944C285.96 209.712 285.656 208.784 285.048 208.16C284.456 207.536 283.616 207.224 282.528 207.224C281.712 207.224 281 207.384 280.392 207.704C279.784 208.024 279.312 208.496 278.976 209.12C278.656 209.744 278.496 210.52 278.496 211.448V218H276.192V205.28H278.4V208.712L278.04 207.8C278.456 206.968 279.096 206.32 279.96 205.856C280.824 205.392 281.832 205.16 282.984 205.16ZM292.528 218V205.28H294.832V218H292.528ZM293.68 202.832C293.232 202.832 292.856 202.688 292.552 202.4C292.264 202.112 292.12 201.76 292.12 201.344C292.12 200.912 292.264 200.552 292.552 200.264C292.856 199.976 293.232 199.832 293.68 199.832C294.128 199.832 294.496 199.976 294.784 200.264C295.088 200.536 295.24 200.88 295.24 201.296C295.24 201.728 295.096 202.096 294.808 202.4C294.52 202.688 294.144 202.832 293.68 202.832ZM303.599 218.144C302.319 218.144 301.327 217.8 300.623 217.112C299.919 216.424 299.567 215.44 299.567 214.16V202.496H301.871V214.064C301.871 214.752 302.039 215.28 302.375 215.648C302.727 216.016 303.223 216.2 303.863 216.2C304.583 216.2 305.183 216 305.663 215.6L306.383 217.256C306.031 217.56 305.607 217.784 305.111 217.928C304.631 218.072 304.127 218.144 303.599 218.144ZM297.407 207.176V205.28H305.519V207.176H297.407ZM314.195 218.144C312.915 218.144 311.779 217.864 310.787 217.304C309.795 216.744 309.011 215.976 308.435 215C307.859 214.008 307.571 212.888 307.571 211.64C307.571 210.376 307.859 209.256 308.435 208.28C309.011 207.304 309.795 206.544 310.787 206C311.779 205.44 312.915 205.16 314.195 205.16C315.459 205.16 316.587 205.44 317.579 206C318.587 206.544 319.371 207.304 319.931 208.28C320.507 209.24 320.795 210.36 320.795 211.64C320.795 212.904 320.507 214.024 319.931 215C319.371 215.976 318.587 216.744 317.579 217.304C316.587 217.864 315.459 218.144 314.195 218.144ZM314.195 216.128C315.011 216.128 315.739 215.944 316.379 215.576C317.035 215.208 317.547 214.688 317.915 214.016C318.283 213.328 318.467 212.536 318.467 211.64C318.467 210.728 318.283 209.944 317.915 209.288C317.547 208.616 317.035 208.096 316.379 207.728C315.739 207.36 315.011 207.176 314.195 207.176C313.379 207.176 312.651 207.36 312.011 207.728C311.371 208.096 310.859 208.616 310.475 209.288C310.091 209.944 309.899 210.728 309.899 211.64C309.899 212.536 310.091 213.328 310.475 214.016C310.859 214.688 311.371 215.208 312.011 215.576C312.651 215.944 313.379 216.128 314.195 216.128ZM323.981 218V205.28H326.189V208.736L325.973 207.872C326.325 206.992 326.917 206.32 327.749 205.856C328.581 205.392 329.605 205.16 330.821 205.16V207.392C330.725 207.376 330.629 207.368 330.533 207.368C330.453 207.368 330.373 207.368 330.293 207.368C329.061 207.368 328.085 207.736 327.365 208.472C326.645 209.208 326.285 210.272 326.285 211.664V218H323.981ZM333.661 218V205.28H335.965V218H333.661ZM334.813 202.832C334.365 202.832 333.989 202.688 333.685 202.4C333.397 202.112 333.253 201.76 333.253 201.344C333.253 200.912 333.397 200.552 333.685 200.264C333.989 199.976 334.365 199.832 334.813 199.832C335.261 199.832 335.629 199.976 335.917 200.264C336.221 200.536 336.373 200.88 336.373 201.296C336.373 201.728 336.229 202.096 335.941 202.4C335.653 202.688 335.277 202.832 334.813 202.832ZM347.156 205.16C348.196 205.16 349.108 205.36 349.892 205.76C350.692 206.16 351.316 206.768 351.764 207.584C352.212 208.4 352.436 209.432 352.436 210.68V218H350.132V210.944C350.132 209.712 349.828 208.784 349.22 208.16C348.628 207.536 347.788 207.224 346.7 207.224C345.884 207.224 345.172 207.384 344.564 207.704C343.956 208.024 343.484 208.496 343.148 209.12C342.828 209.744 342.668 210.52 342.668 211.448V218H340.364V205.28H342.572V208.712L342.212 207.8C342.628 206.968 343.268 206.32 344.132 205.856C344.996 205.392 346.004 205.16 347.156 205.16ZM362.268 222.8C361.1 222.8 359.964 222.632 358.86 222.296C357.772 221.976 356.884 221.512 356.196 220.904L357.3 219.128C357.892 219.64 358.62 220.04 359.484 220.328C360.348 220.632 361.252 220.784 362.196 220.784C363.7 220.784 364.804 220.432 365.508 219.728C366.212 219.024 366.564 217.952 366.564 216.512V213.824L366.804 211.304L366.684 208.76V205.28H368.868V216.272C368.868 218.512 368.308 220.16 367.188 221.216C366.068 222.272 364.428 222.8 362.268 222.8ZM361.98 217.472C360.748 217.472 359.644 217.216 358.668 216.704C357.708 216.176 356.94 215.448 356.364 214.52C355.804 213.592 355.524 212.52 355.524 211.304C355.524 210.072 355.804 209 356.364 208.088C356.94 207.16 357.708 206.44 358.668 205.928C359.644 205.416 360.748 205.16 361.98 205.16C363.068 205.16 364.06 205.384 364.956 205.832C365.852 206.264 366.564 206.936 367.092 207.848C367.636 208.76 367.908 209.912 367.908 211.304C367.908 212.68 367.636 213.824 367.092 214.736C366.564 215.648 365.852 216.336 364.956 216.8C364.06 217.248 363.068 217.472 361.98 217.472ZM362.244 215.456C363.092 215.456 363.844 215.28 364.5 214.928C365.156 214.576 365.668 214.088 366.036 213.464C366.42 212.84 366.612 212.12 366.612 211.304C366.612 210.488 366.42 209.768 366.036 209.144C365.668 208.52 365.156 208.04 364.5 207.704C363.844 207.352 363.092 207.176 362.244 207.176C361.396 207.176 360.636 207.352 359.964 207.704C359.308 208.04 358.788 208.52 358.404 209.144C358.036 209.768 357.852 210.488 357.852 211.304C357.852 212.12 358.036 212.84 358.404 213.464C358.788 214.088 359.308 214.576 359.964 214.928C360.636 215.28 361.396 215.456 362.244 215.456Z" fill="white"/>
</g>
<g filter="url(#filter5_d_20075_62651)">
<rect x="20" y="183" width="16" height="52" rx="4" fill="#FFA600"/>
</g>
<g filter="url(#filter6_d_20075_62651)">
<rect x="44" y="267" width="360" height="52" rx="4" fill="#1DA4D9"/>
<path d="M99.976 302L107.584 285.2H109.96L117.592 302H115.072L108.28 286.544H109.24L102.448 302H99.976ZM103.216 297.8L103.864 295.88H113.32L114.016 297.8H103.216ZM126.506 302.144C125.45 302.144 124.482 301.904 123.602 301.424C122.738 300.928 122.042 300.2 121.514 299.24C121.002 298.28 120.746 297.08 120.746 295.64C120.746 294.2 120.994 293 121.49 292.04C122.002 291.08 122.69 290.36 123.554 289.88C124.434 289.4 125.418 289.16 126.506 289.16C127.754 289.16 128.858 289.432 129.818 289.976C130.778 290.52 131.538 291.28 132.098 292.256C132.658 293.216 132.938 294.344 132.938 295.64C132.938 296.936 132.658 298.072 132.098 299.048C131.538 300.024 130.778 300.784 129.818 301.328C128.858 301.872 127.754 302.144 126.506 302.144ZM119.762 306.656V289.28H121.97V292.712L121.826 295.664L122.066 298.616V306.656H119.762ZM126.314 300.128C127.13 300.128 127.858 299.944 128.498 299.576C129.154 299.208 129.666 298.688 130.034 298.016C130.418 297.328 130.61 296.536 130.61 295.64C130.61 294.728 130.418 293.944 130.034 293.288C129.666 292.616 129.154 292.096 128.498 291.728C127.858 291.36 127.13 291.176 126.314 291.176C125.514 291.176 124.786 291.36 124.13 291.728C123.49 292.096 122.978 292.616 122.594 293.288C122.226 293.944 122.042 294.728 122.042 295.64C122.042 296.536 122.226 297.328 122.594 298.016C122.978 298.688 123.49 299.208 124.13 299.576C124.786 299.944 125.514 300.128 126.314 300.128ZM142.866 302.144C141.81 302.144 140.842 301.904 139.962 301.424C139.098 300.928 138.402 300.2 137.874 299.24C137.362 298.28 137.105 297.08 137.105 295.64C137.105 294.2 137.354 293 137.85 292.04C138.362 291.08 139.05 290.36 139.914 289.88C140.794 289.4 141.778 289.16 142.866 289.16C144.114 289.16 145.218 289.432 146.178 289.976C147.138 290.52 147.898 291.28 148.458 292.256C149.018 293.216 149.298 294.344 149.298 295.64C149.298 296.936 149.018 298.072 148.458 299.048C147.898 300.024 147.138 300.784 146.178 301.328C145.218 301.872 144.114 302.144 142.866 302.144ZM136.122 306.656V289.28H138.33V292.712L138.186 295.664L138.426 298.616V306.656H136.122ZM142.674 300.128C143.49 300.128 144.218 299.944 144.858 299.576C145.514 299.208 146.026 298.688 146.394 298.016C146.778 297.328 146.97 296.536 146.97 295.64C146.97 294.728 146.778 293.944 146.394 293.288C146.026 292.616 145.514 292.096 144.858 291.728C144.218 291.36 143.49 291.176 142.674 291.176C141.874 291.176 141.146 291.36 140.49 291.728C139.85 292.096 139.338 292.616 138.954 293.288C138.586 293.944 138.402 294.728 138.402 295.64C138.402 296.536 138.586 297.328 138.954 298.016C139.338 298.688 139.85 299.208 140.49 299.576C141.146 299.944 141.874 300.128 142.674 300.128ZM152.481 302V284.192H154.785V302H152.481ZM159.184 302V289.28H161.488V302H159.184ZM160.336 286.832C159.888 286.832 159.512 286.688 159.208 286.4C158.92 286.112 158.776 285.76 158.776 285.344C158.776 284.912 158.92 284.552 159.208 284.264C159.512 283.976 159.888 283.832 160.336 283.832C160.784 283.832 161.152 283.976 161.44 284.264C161.744 284.536 161.896 284.88 161.896 285.296C161.896 285.728 161.752 286.096 161.464 286.4C161.176 286.688 160.8 286.832 160.336 286.832ZM171.431 302.144C170.135 302.144 168.975 301.864 167.951 301.304C166.943 300.744 166.151 299.976 165.575 299C164.999 298.024 164.711 296.904 164.711 295.64C164.711 294.376 164.999 293.256 165.575 292.28C166.151 291.304 166.943 290.544 167.951 290C168.975 289.44 170.135 289.16 171.431 289.16C172.583 289.16 173.607 289.392 174.503 289.856C175.415 290.304 176.119 290.976 176.615 291.872L174.863 293C174.447 292.376 173.935 291.92 173.327 291.632C172.735 291.328 172.095 291.176 171.407 291.176C170.575 291.176 169.831 291.36 169.175 291.728C168.519 292.096 167.999 292.616 167.615 293.288C167.231 293.944 167.039 294.728 167.039 295.64C167.039 296.552 167.231 297.344 167.615 298.016C167.999 298.688 168.519 299.208 169.175 299.576C169.831 299.944 170.575 300.128 171.407 300.128C172.095 300.128 172.735 299.984 173.327 299.696C173.935 299.392 174.447 298.928 174.863 298.304L176.615 299.408C176.119 300.288 175.415 300.968 174.503 301.448C173.607 301.912 172.583 302.144 171.431 302.144ZM187.494 302V299.312L187.374 298.808V294.224C187.374 293.248 187.086 292.496 186.51 291.968C185.95 291.424 185.102 291.152 183.966 291.152C183.214 291.152 182.478 291.28 181.758 291.536C181.038 291.776 180.43 292.104 179.934 292.52L178.974 290.792C179.63 290.264 180.414 289.864 181.326 289.592C182.254 289.304 183.222 289.16 184.23 289.16C185.974 289.16 187.318 289.584 188.262 290.432C189.206 291.28 189.678 292.576 189.678 294.32V302H187.494ZM183.318 302.144C182.374 302.144 181.542 301.984 180.822 301.664C180.118 301.344 179.574 300.904 179.19 300.344C178.806 299.768 178.614 299.12 178.614 298.4C178.614 297.712 178.774 297.088 179.094 296.528C179.43 295.968 179.966 295.52 180.702 295.184C181.454 294.848 182.462 294.68 183.726 294.68H187.758V296.336H183.822C182.67 296.336 181.894 296.528 181.494 296.912C181.094 297.296 180.894 297.76 180.894 298.304C180.894 298.928 181.142 299.432 181.638 299.816C182.134 300.184 182.822 300.368 183.702 300.368C184.566 300.368 185.318 300.176 185.958 299.792C186.614 299.408 187.086 298.848 187.374 298.112L187.83 299.696C187.526 300.448 186.99 301.048 186.222 301.496C185.454 301.928 184.486 302.144 183.318 302.144ZM198.31 302.144C197.03 302.144 196.038 301.8 195.334 301.112C194.63 300.424 194.278 299.44 194.278 298.16V286.496H196.582V298.064C196.582 298.752 196.75 299.28 197.086 299.648C197.438 300.016 197.934 300.2 198.574 300.2C199.294 300.2 199.894 300 200.374 299.6L201.094 301.256C200.742 301.56 200.318 301.784 199.822 301.928C199.342 302.072 198.838 302.144 198.31 302.144ZM192.118 291.176V289.28H200.23V291.176H192.118ZM203.879 302V289.28H206.183V302H203.879ZM205.031 286.832C204.583 286.832 204.207 286.688 203.903 286.4C203.615 286.112 203.471 285.76 203.471 285.344C203.471 284.912 203.615 284.552 203.903 284.264C204.207 283.976 204.583 283.832 205.031 283.832C205.479 283.832 205.847 283.976 206.135 284.264C206.439 284.536 206.591 284.88 206.591 285.296C206.591 285.728 206.447 286.096 206.159 286.4C205.871 286.688 205.495 286.832 205.031 286.832ZM216.03 302.144C214.75 302.144 213.614 301.864 212.622 301.304C211.63 300.744 210.846 299.976 210.27 299C209.694 298.008 209.406 296.888 209.406 295.64C209.406 294.376 209.694 293.256 210.27 292.28C210.846 291.304 211.63 290.544 212.622 290C213.614 289.44 214.75 289.16 216.03 289.16C217.294 289.16 218.422 289.44 219.414 290C220.422 290.544 221.206 291.304 221.766 292.28C222.342 293.24 222.63 294.36 222.63 295.64C222.63 296.904 222.342 298.024 221.766 299C221.206 299.976 220.422 300.744 219.414 301.304C218.422 301.864 217.294 302.144 216.03 302.144ZM216.03 300.128C216.846 300.128 217.574 299.944 218.214 299.576C218.87 299.208 219.382 298.688 219.75 298.016C220.118 297.328 220.302 296.536 220.302 295.64C220.302 294.728 220.118 293.944 219.75 293.288C219.382 292.616 218.87 292.096 218.214 291.728C217.574 291.36 216.846 291.176 216.03 291.176C215.214 291.176 214.486 291.36 213.846 291.728C213.206 292.096 212.694 292.616 212.31 293.288C211.926 293.944 211.734 294.728 211.734 295.64C211.734 296.536 211.926 297.328 212.31 298.016C212.694 298.688 213.206 299.208 213.846 299.576C214.486 299.944 215.214 300.128 216.03 300.128ZM232.609 289.16C233.649 289.16 234.561 289.36 235.345 289.76C236.145 290.16 236.769 290.768 237.217 291.584C237.665 292.4 237.889 293.432 237.889 294.68V302H235.585V294.944C235.585 293.712 235.281 292.784 234.673 292.16C234.081 291.536 233.241 291.224 232.153 291.224C231.337 291.224 230.625 291.384 230.017 291.704C229.409 292.024 228.937 292.496 228.601 293.12C228.281 293.744 228.121 294.52 228.121 295.448V302H225.817V289.28H228.025V292.712L227.665 291.8C228.081 290.968 228.721 290.32 229.585 289.856C230.449 289.392 231.457 289.16 232.609 289.16ZM253.83 302.192C252.55 302.192 251.326 302 250.158 301.616C248.99 301.216 248.07 300.704 247.398 300.08L248.286 298.208C248.926 298.768 249.742 299.232 250.734 299.6C251.726 299.968 252.758 300.152 253.83 300.152C254.806 300.152 255.598 300.04 256.206 299.816C256.814 299.592 257.262 299.288 257.55 298.904C257.838 298.504 257.982 298.056 257.982 297.56C257.982 296.984 257.79 296.52 257.406 296.168C257.038 295.816 256.55 295.536 255.942 295.328C255.35 295.104 254.694 294.912 253.974 294.752C253.254 294.592 252.526 294.408 251.79 294.2C251.07 293.976 250.406 293.696 249.798 293.36C249.206 293.024 248.726 292.576 248.358 292.016C247.99 291.44 247.806 290.704 247.806 289.808C247.806 288.944 248.03 288.152 248.478 287.432C248.942 286.696 249.646 286.112 250.59 285.68C251.55 285.232 252.766 285.008 254.238 285.008C255.214 285.008 256.182 285.136 257.142 285.392C258.102 285.648 258.934 286.016 259.638 286.496L258.846 288.416C258.126 287.936 257.366 287.592 256.566 287.384C255.766 287.16 254.99 287.048 254.238 287.048C253.294 287.048 252.518 287.168 251.91 287.408C251.302 287.648 250.854 287.968 250.566 288.368C250.294 288.768 250.158 289.216 250.158 289.712C250.158 290.304 250.342 290.776 250.71 291.128C251.094 291.48 251.582 291.76 252.174 291.968C252.782 292.176 253.446 292.368 254.166 292.544C254.886 292.704 255.606 292.888 256.326 293.096C257.062 293.304 257.726 293.576 258.318 293.912C258.926 294.248 259.414 294.696 259.782 295.256C260.15 295.816 260.334 296.536 260.334 297.416C260.334 298.264 260.102 299.056 259.638 299.792C259.174 300.512 258.454 301.096 257.478 301.544C256.518 301.976 255.302 302.192 253.83 302.192ZM268.952 302.144C267.672 302.144 266.536 301.864 265.544 301.304C264.552 300.744 263.768 299.976 263.192 299C262.616 298.008 262.328 296.888 262.328 295.64C262.328 294.376 262.616 293.256 263.192 292.28C263.768 291.304 264.552 290.544 265.544 290C266.536 289.44 267.672 289.16 268.952 289.16C270.216 289.16 271.344 289.44 272.336 290C273.344 290.544 274.128 291.304 274.688 292.28C275.264 293.24 275.552 294.36 275.552 295.64C275.552 296.904 275.264 298.024 274.688 299C274.128 299.976 273.344 300.744 272.336 301.304C271.344 301.864 270.216 302.144 268.952 302.144ZM268.952 300.128C269.768 300.128 270.496 299.944 271.136 299.576C271.792 299.208 272.304 298.688 272.672 298.016C273.04 297.328 273.224 296.536 273.224 295.64C273.224 294.728 273.04 293.944 272.672 293.288C272.304 292.616 271.792 292.096 271.136 291.728C270.496 291.36 269.768 291.176 268.952 291.176C268.136 291.176 267.408 291.36 266.768 291.728C266.128 292.096 265.616 292.616 265.232 293.288C264.848 293.944 264.656 294.728 264.656 295.64C264.656 296.536 264.848 297.328 265.232 298.016C265.616 298.688 266.128 299.208 266.768 299.576C267.408 299.944 268.136 300.128 268.952 300.128ZM278.739 302V284.192H281.043V302H278.739ZM290.794 302.144C289.706 302.144 288.746 301.944 287.914 301.544C287.098 301.144 286.458 300.536 285.994 299.72C285.546 298.888 285.322 297.848 285.322 296.6V289.28H287.626V296.336C287.626 297.584 287.922 298.52 288.514 299.144C289.122 299.768 289.97 300.08 291.058 300.08C291.858 300.08 292.554 299.92 293.146 299.6C293.738 299.264 294.194 298.784 294.514 298.16C294.834 297.52 294.994 296.752 294.994 295.856V289.28H297.298V302H295.114V298.568L295.474 299.48C295.058 300.328 294.434 300.984 293.602 301.448C292.77 301.912 291.834 302.144 290.794 302.144ZM306.052 302.144C304.772 302.144 303.78 301.8 303.076 301.112C302.372 300.424 302.02 299.44 302.02 298.16V286.496H304.324V298.064C304.324 298.752 304.492 299.28 304.828 299.648C305.18 300.016 305.676 300.2 306.316 300.2C307.036 300.2 307.636 300 308.116 299.6L308.836 301.256C308.484 301.56 308.06 301.784 307.564 301.928C307.084 302.072 306.58 302.144 306.052 302.144ZM299.86 291.176V289.28H307.972V291.176H299.86ZM311.622 302V289.28H313.926V302H311.622ZM312.774 286.832C312.326 286.832 311.95 286.688 311.646 286.4C311.358 286.112 311.214 285.76 311.214 285.344C311.214 284.912 311.358 284.552 311.646 284.264C311.95 283.976 312.326 283.832 312.774 283.832C313.222 283.832 313.59 283.976 313.878 284.264C314.182 284.536 314.334 284.88 314.334 285.296C314.334 285.728 314.19 286.096 313.902 286.4C313.614 286.688 313.238 286.832 312.774 286.832ZM323.773 302.144C322.493 302.144 321.357 301.864 320.365 301.304C319.373 300.744 318.589 299.976 318.013 299C317.437 298.008 317.149 296.888 317.149 295.64C317.149 294.376 317.437 293.256 318.013 292.28C318.589 291.304 319.373 290.544 320.365 290C321.357 289.44 322.493 289.16 323.773 289.16C325.037 289.16 326.165 289.44 327.157 290C328.165 290.544 328.949 291.304 329.509 292.28C330.085 293.24 330.373 294.36 330.373 295.64C330.373 296.904 330.085 298.024 329.509 299C328.949 299.976 328.165 300.744 327.157 301.304C326.165 301.864 325.037 302.144 323.773 302.144ZM323.773 300.128C324.589 300.128 325.317 299.944 325.957 299.576C326.613 299.208 327.125 298.688 327.493 298.016C327.861 297.328 328.045 296.536 328.045 295.64C328.045 294.728 327.861 293.944 327.493 293.288C327.125 292.616 326.613 292.096 325.957 291.728C325.317 291.36 324.589 291.176 323.773 291.176C322.957 291.176 322.229 291.36 321.589 291.728C320.949 292.096 320.437 292.616 320.053 293.288C319.669 293.944 319.477 294.728 319.477 295.64C319.477 296.536 319.669 297.328 320.053 298.016C320.437 298.688 320.949 299.208 321.589 299.576C322.229 299.944 322.957 300.128 323.773 300.128ZM340.351 289.16C341.391 289.16 342.303 289.36 343.087 289.76C343.887 290.16 344.511 290.768 344.959 291.584C345.407 292.4 345.631 293.432 345.631 294.68V302H343.327V294.944C343.327 293.712 343.023 292.784 342.415 292.16C341.823 291.536 340.983 291.224 339.895 291.224C339.079 291.224 338.367 291.384 337.759 291.704C337.151 292.024 336.679 292.496 336.343 293.12C336.023 293.744 335.863 294.52 335.863 295.448V302H333.559V289.28H335.767V292.712L335.407 291.8C335.823 290.968 336.463 290.32 337.327 289.856C338.191 289.392 339.199 289.16 340.351 289.16Z" fill="white"/>
</g>
<g filter="url(#filter7_d_20075_62651)">
<rect x="20" y="267" width="16" height="52" rx="4" fill="#FFA600"/>
</g>
<g filter="url(#filter8_d_20075_62651)">
<rect x="44" y="351" width="360" height="52" rx="4" fill="#1DA4D9"/>
<path d="M80.52 386V369.2H82.92V386H80.52ZM91.2857 386V371.288H85.5257V369.2H99.4217V371.288H93.6617V386H91.2857ZM115.993 386.192C114.713 386.192 113.529 385.984 112.441 385.568C111.369 385.136 110.433 384.536 109.633 383.768C108.849 382.984 108.233 382.072 107.785 381.032C107.337 379.992 107.113 378.848 107.113 377.6C107.113 376.352 107.337 375.208 107.785 374.168C108.233 373.128 108.857 372.224 109.657 371.456C110.457 370.672 111.393 370.072 112.465 369.656C113.553 369.224 114.737 369.008 116.017 369.008C117.313 369.008 118.505 369.232 119.593 369.68C120.697 370.112 121.633 370.76 122.401 371.624L120.841 373.136C120.201 372.464 119.481 371.968 118.681 371.648C117.881 371.312 117.025 371.144 116.113 371.144C115.169 371.144 114.289 371.304 113.473 371.624C112.673 371.944 111.977 372.392 111.385 372.968C110.793 373.544 110.329 374.232 109.993 375.032C109.673 375.816 109.513 376.672 109.513 377.6C109.513 378.528 109.673 379.392 109.993 380.192C110.329 380.976 110.793 381.656 111.385 382.232C111.977 382.808 112.673 383.256 113.473 383.576C114.289 383.896 115.169 384.056 116.113 384.056C117.025 384.056 117.881 383.896 118.681 383.576C119.481 383.24 120.201 382.728 120.841 382.04L122.401 383.552C121.633 384.416 120.697 385.072 119.593 385.52C118.505 385.968 117.305 386.192 115.993 386.192ZM130.398 386.144C129.118 386.144 127.982 385.864 126.99 385.304C125.998 384.744 125.214 383.976 124.638 383C124.062 382.008 123.774 380.888 123.774 379.64C123.774 378.376 124.062 377.256 124.638 376.28C125.214 375.304 125.998 374.544 126.99 374C127.982 373.44 129.118 373.16 130.398 373.16C131.662 373.16 132.79 373.44 133.782 374C134.79 374.544 135.574 375.304 136.134 376.28C136.71 377.24 136.998 378.36 136.998 379.64C136.998 380.904 136.71 382.024 136.134 383C135.574 383.976 134.79 384.744 133.782 385.304C132.79 385.864 131.662 386.144 130.398 386.144ZM130.398 384.128C131.214 384.128 131.942 383.944 132.582 383.576C133.238 383.208 133.75 382.688 134.118 382.016C134.486 381.328 134.67 380.536 134.67 379.64C134.67 378.728 134.486 377.944 134.118 377.288C133.75 376.616 133.238 376.096 132.582 375.728C131.942 375.36 131.214 375.176 130.398 375.176C129.582 375.176 128.854 375.36 128.214 375.728C127.574 376.096 127.062 376.616 126.678 377.288C126.294 377.944 126.102 378.728 126.102 379.64C126.102 380.536 126.294 381.328 126.678 382.016C127.062 382.688 127.574 383.208 128.214 383.576C128.854 383.944 129.582 384.128 130.398 384.128ZM146.976 373.16C148.016 373.16 148.928 373.36 149.712 373.76C150.512 374.16 151.136 374.768 151.584 375.584C152.032 376.4 152.256 377.432 152.256 378.68V386H149.952V378.944C149.952 377.712 149.648 376.784 149.04 376.16C148.448 375.536 147.608 375.224 146.52 375.224C145.704 375.224 144.992 375.384 144.384 375.704C143.776 376.024 143.304 376.496 142.968 377.12C142.648 377.744 142.488 378.52 142.488 379.448V386H140.184V373.28H142.392V376.712L142.032 375.8C142.448 374.968 143.088 374.32 143.952 373.856C144.816 373.392 145.824 373.16 146.976 373.16ZM160.168 386.144C159.112 386.144 158.104 386 157.144 385.712C156.2 385.424 155.456 385.072 154.912 384.656L155.872 382.832C156.416 383.2 157.088 383.512 157.888 383.768C158.688 384.024 159.504 384.152 160.336 384.152C161.408 384.152 162.176 384 162.64 383.696C163.12 383.392 163.36 382.968 163.36 382.424C163.36 382.024 163.216 381.712 162.928 381.488C162.64 381.264 162.256 381.096 161.776 380.984C161.312 380.872 160.792 380.776 160.216 380.696C159.64 380.6 159.064 380.488 158.488 380.36C157.912 380.216 157.384 380.024 156.904 379.784C156.424 379.528 156.04 379.184 155.752 378.752C155.464 378.304 155.32 377.712 155.32 376.976C155.32 376.208 155.536 375.536 155.968 374.96C156.4 374.384 157.008 373.944 157.792 373.64C158.592 373.32 159.536 373.16 160.624 373.16C161.456 373.16 162.296 373.264 163.144 373.472C164.008 373.664 164.712 373.944 165.256 374.312L164.272 376.136C163.696 375.752 163.096 375.488 162.472 375.344C161.848 375.2 161.224 375.128 160.6 375.128C159.592 375.128 158.84 375.296 158.344 375.632C157.848 375.952 157.6 376.368 157.6 376.88C157.6 377.312 157.744 377.648 158.032 377.888C158.336 378.112 158.72 378.288 159.184 378.416C159.664 378.544 160.192 378.656 160.768 378.752C161.344 378.832 161.92 378.944 162.496 379.088C163.072 379.216 163.592 379.4 164.056 379.64C164.536 379.88 164.92 380.216 165.208 380.648C165.512 381.08 165.664 381.656 165.664 382.376C165.664 383.144 165.44 383.808 164.992 384.368C164.544 384.928 163.912 385.368 163.096 385.688C162.28 385.992 161.304 386.144 160.168 386.144ZM173.895 386.144C172.807 386.144 171.847 385.944 171.015 385.544C170.199 385.144 169.559 384.536 169.095 383.72C168.647 382.888 168.423 381.848 168.423 380.6V373.28H170.727V380.336C170.727 381.584 171.023 382.52 171.615 383.144C172.223 383.768 173.071 384.08 174.159 384.08C174.959 384.08 175.655 383.92 176.247 383.6C176.839 383.264 177.295 382.784 177.615 382.16C177.935 381.52 178.095 380.752 178.095 379.856V373.28H180.399V386H178.215V382.568L178.575 383.48C178.159 384.328 177.535 384.984 176.703 385.448C175.871 385.912 174.935 386.144 173.895 386.144ZM184.786 386V368.192H187.09V386H184.786ZM196.185 386.144C194.905 386.144 193.913 385.8 193.209 385.112C192.505 384.424 192.153 383.44 192.153 382.16V370.496H194.457V382.064C194.457 382.752 194.625 383.28 194.961 383.648C195.313 384.016 195.809 384.2 196.449 384.2C197.169 384.2 197.769 384 198.249 383.6L198.969 385.256C198.617 385.56 198.193 385.784 197.697 385.928C197.217 386.072 196.713 386.144 196.185 386.144ZM189.993 375.176V373.28H198.105V375.176H189.993ZM209.65 386V383.312L209.53 382.808V378.224C209.53 377.248 209.242 376.496 208.666 375.968C208.106 375.424 207.258 375.152 206.122 375.152C205.37 375.152 204.634 375.28 203.914 375.536C203.194 375.776 202.586 376.104 202.09 376.52L201.13 374.792C201.786 374.264 202.57 373.864 203.482 373.592C204.41 373.304 205.378 373.16 206.386 373.16C208.13 373.16 209.474 373.584 210.418 374.432C211.362 375.28 211.834 376.576 211.834 378.32V386H209.65ZM205.474 386.144C204.53 386.144 203.698 385.984 202.978 385.664C202.274 385.344 201.73 384.904 201.346 384.344C200.962 383.768 200.77 383.12 200.77 382.4C200.77 381.712 200.93 381.088 201.25 380.528C201.586 379.968 202.122 379.52 202.858 379.184C203.61 378.848 204.618 378.68 205.882 378.68H209.914V380.336H205.978C204.826 380.336 204.05 380.528 203.65 380.912C203.25 381.296 203.05 381.76 203.05 382.304C203.05 382.928 203.298 383.432 203.794 383.816C204.29 384.184 204.978 384.368 205.858 384.368C206.722 384.368 207.474 384.176 208.114 383.792C208.77 383.408 209.242 382.848 209.53 382.112L209.986 383.696C209.682 384.448 209.146 385.048 208.378 385.496C207.61 385.928 206.642 386.144 205.474 386.144ZM222.89 373.16C223.93 373.16 224.842 373.36 225.626 373.76C226.426 374.16 227.05 374.768 227.498 375.584C227.946 376.4 228.17 377.432 228.17 378.68V386H225.866V378.944C225.866 377.712 225.562 376.784 224.954 376.16C224.362 375.536 223.522 375.224 222.434 375.224C221.618 375.224 220.906 375.384 220.298 375.704C219.69 376.024 219.218 376.496 218.882 377.12C218.562 377.744 218.402 378.52 218.402 379.448V386H216.098V373.28H218.306V376.712L217.946 375.8C218.362 374.968 219.002 374.32 219.866 373.856C220.73 373.392 221.738 373.16 222.89 373.16ZM236.802 386.144C235.522 386.144 234.53 385.8 233.826 385.112C233.122 384.424 232.77 383.44 232.77 382.16V370.496H235.074V382.064C235.074 382.752 235.242 383.28 235.578 383.648C235.93 384.016 236.426 384.2 237.066 384.2C237.786 384.2 238.386 384 238.866 383.6L239.586 385.256C239.234 385.56 238.81 385.784 238.314 385.928C237.834 386.072 237.33 386.144 236.802 386.144ZM230.61 375.176V373.28H238.722V375.176H230.61ZM253.593 386.192C252.457 386.192 251.449 386.008 250.569 385.64C249.689 385.272 248.993 384.76 248.481 384.104C247.969 383.448 247.713 382.688 247.713 381.824C247.713 381.072 247.881 380.384 248.217 379.76C248.553 379.136 249.089 378.536 249.825 377.96C250.561 377.368 251.529 376.76 252.729 376.136C253.705 375.624 254.465 375.176 255.009 374.792C255.569 374.408 255.961 374.048 256.185 373.712C256.425 373.36 256.545 372.984 256.545 372.584C256.545 372.04 256.353 371.6 255.969 371.264C255.585 370.912 255.033 370.736 254.313 370.736C253.561 370.736 252.969 370.928 252.537 371.312C252.121 371.68 251.913 372.168 251.913 372.776C251.913 373.08 251.961 373.376 252.057 373.664C252.169 373.936 252.361 374.248 252.633 374.6C252.921 374.936 253.329 375.368 253.857 375.896L262.737 384.728L261.441 386.264L252.009 376.88C251.449 376.32 251.009 375.824 250.689 375.392C250.369 374.944 250.137 374.512 249.993 374.096C249.849 373.68 249.777 373.256 249.777 372.824C249.777 372.072 249.961 371.416 250.329 370.856C250.713 370.28 251.241 369.84 251.913 369.536C252.601 369.216 253.401 369.056 254.313 369.056C255.161 369.056 255.897 369.2 256.521 369.488C257.145 369.76 257.625 370.16 257.961 370.688C258.313 371.2 258.489 371.824 258.489 372.56C258.489 373.2 258.329 373.792 258.009 374.336C257.705 374.88 257.209 375.408 256.521 375.92C255.833 376.432 254.905 376.984 253.737 377.576C252.777 378.072 252.025 378.536 251.481 378.968C250.937 379.384 250.545 379.8 250.305 380.216C250.081 380.632 249.969 381.088 249.969 381.584C249.969 382.112 250.121 382.584 250.425 383C250.745 383.4 251.185 383.712 251.745 383.936C252.321 384.16 252.985 384.272 253.737 384.272C254.809 384.272 255.777 384.04 256.641 383.576C257.505 383.112 258.225 382.416 258.801 381.488C259.393 380.56 259.825 379.408 260.097 378.032L261.945 378.632C261.625 380.248 261.073 381.616 260.289 382.736C259.521 383.856 258.569 384.712 257.433 385.304C256.297 385.896 255.017 386.192 253.593 386.192ZM275.387 386V371.288H269.627V369.2H283.523V371.288H277.763V386H275.387ZM285.497 386V373.28H287.705V376.736L287.489 375.872C287.841 374.992 288.433 374.32 289.265 373.856C290.097 373.392 291.121 373.16 292.337 373.16V375.392C292.241 375.376 292.145 375.368 292.049 375.368C291.969 375.368 291.889 375.368 291.809 375.368C290.577 375.368 289.601 375.736 288.881 376.472C288.161 377.208 287.801 378.272 287.801 379.664V386H285.497ZM302.135 386V383.312L302.015 382.808V378.224C302.015 377.248 301.727 376.496 301.151 375.968C300.591 375.424 299.743 375.152 298.607 375.152C297.855 375.152 297.119 375.28 296.399 375.536C295.679 375.776 295.071 376.104 294.575 376.52L293.615 374.792C294.271 374.264 295.055 373.864 295.967 373.592C296.895 373.304 297.863 373.16 298.871 373.16C300.615 373.16 301.959 373.584 302.903 374.432C303.847 375.28 304.319 376.576 304.319 378.32V386H302.135ZM297.959 386.144C297.015 386.144 296.183 385.984 295.463 385.664C294.759 385.344 294.215 384.904 293.831 384.344C293.447 383.768 293.255 383.12 293.255 382.4C293.255 381.712 293.415 381.088 293.735 380.528C294.071 379.968 294.607 379.52 295.343 379.184C296.095 378.848 297.103 378.68 298.367 378.68H302.399V380.336H298.463C297.311 380.336 296.535 380.528 296.135 380.912C295.735 381.296 295.535 381.76 295.535 382.304C295.535 382.928 295.783 383.432 296.279 383.816C296.775 384.184 297.463 384.368 298.343 384.368C299.207 384.368 299.959 384.176 300.599 383.792C301.255 383.408 301.727 382.848 302.015 382.112L302.471 383.696C302.167 384.448 301.631 385.048 300.863 385.496C300.095 385.928 299.127 386.144 297.959 386.144ZM308.582 386V373.28H310.886V386H308.582ZM309.734 370.832C309.286 370.832 308.91 370.688 308.606 370.4C308.318 370.112 308.174 369.76 308.174 369.344C308.174 368.912 308.318 368.552 308.606 368.264C308.91 367.976 309.286 367.832 309.734 367.832C310.182 367.832 310.55 367.976 310.838 368.264C311.142 368.536 311.294 368.88 311.294 369.296C311.294 369.728 311.15 370.096 310.862 370.4C310.574 370.688 310.198 370.832 309.734 370.832ZM322.078 373.16C323.118 373.16 324.03 373.36 324.814 373.76C325.614 374.16 326.238 374.768 326.686 375.584C327.134 376.4 327.358 377.432 327.358 378.68V386H325.054V378.944C325.054 377.712 324.75 376.784 324.142 376.16C323.55 375.536 322.71 375.224 321.622 375.224C320.806 375.224 320.094 375.384 319.486 375.704C318.878 376.024 318.406 376.496 318.07 377.12C317.75 377.744 317.59 378.52 317.59 379.448V386H315.286V373.28H317.494V376.712L317.134 375.8C317.55 374.968 318.19 374.32 319.054 373.856C319.918 373.392 320.926 373.16 322.078 373.16ZM331.622 386V373.28H333.926V386H331.622ZM332.774 370.832C332.326 370.832 331.95 370.688 331.646 370.4C331.358 370.112 331.214 369.76 331.214 369.344C331.214 368.912 331.358 368.552 331.646 368.264C331.95 367.976 332.326 367.832 332.774 367.832C333.222 367.832 333.59 367.976 333.878 368.264C334.182 368.536 334.334 368.88 334.334 369.296C334.334 369.728 334.19 370.096 333.902 370.4C333.614 370.688 333.238 370.832 332.774 370.832ZM345.117 373.16C346.157 373.16 347.069 373.36 347.853 373.76C348.653 374.16 349.277 374.768 349.725 375.584C350.173 376.4 350.397 377.432 350.397 378.68V386H348.093V378.944C348.093 377.712 347.789 376.784 347.181 376.16C346.589 375.536 345.749 375.224 344.661 375.224C343.845 375.224 343.133 375.384 342.525 375.704C341.917 376.024 341.445 376.496 341.109 377.12C340.789 377.744 340.629 378.52 340.629 379.448V386H338.325V373.28H340.533V376.712L340.173 375.8C340.589 374.968 341.229 374.32 342.093 373.856C342.957 373.392 343.965 373.16 345.117 373.16ZM360.229 390.8C359.061 390.8 357.925 390.632 356.821 390.296C355.733 389.976 354.845 389.512 354.157 388.904L355.261 387.128C355.853 387.64 356.581 388.04 357.445 388.328C358.309 388.632 359.213 388.784 360.157 388.784C361.661 388.784 362.765 388.432 363.469 387.728C364.173 387.024 364.525 385.952 364.525 384.512V381.824L364.765 379.304L364.645 376.76V373.28H366.829V384.272C366.829 386.512 366.269 388.16 365.149 389.216C364.029 390.272 362.389 390.8 360.229 390.8ZM359.941 385.472C358.709 385.472 357.605 385.216 356.629 384.704C355.669 384.176 354.901 383.448 354.325 382.52C353.765 381.592 353.485 380.52 353.485 379.304C353.485 378.072 353.765 377 354.325 376.088C354.901 375.16 355.669 374.44 356.629 373.928C357.605 373.416 358.709 373.16 359.941 373.16C361.029 373.16 362.021 373.384 362.917 373.832C363.813 374.264 364.525 374.936 365.053 375.848C365.597 376.76 365.869 377.912 365.869 379.304C365.869 380.68 365.597 381.824 365.053 382.736C364.525 383.648 363.813 384.336 362.917 384.8C362.021 385.248 361.029 385.472 359.941 385.472ZM360.205 383.456C361.053 383.456 361.805 383.28 362.461 382.928C363.117 382.576 363.629 382.088 363.997 381.464C364.381 380.84 364.573 380.12 364.573 379.304C364.573 378.488 364.381 377.768 363.997 377.144C363.629 376.52 363.117 376.04 362.461 375.704C361.805 375.352 361.053 375.176 360.205 375.176C359.357 375.176 358.597 375.352 357.925 375.704C357.269 376.04 356.749 376.52 356.365 377.144C355.997 377.768 355.813 378.488 355.813 379.304C355.813 380.12 355.997 380.84 356.365 381.464C356.749 382.088 357.269 382.576 357.925 382.928C358.597 383.28 359.357 383.456 360.205 383.456Z" fill="white"/>
</g>
<g filter="url(#filter9_d_20075_62651)">
<rect x="20" y="351" width="16" height="52" rx="4" fill="#FFA600"/>
</g>
<defs>
<filter id="filter0_d_20075_62651" x="24" y="0" width="400" height="92" filterUnits="userSpaceOnUse" color-interpolation-filters="sRGB">
<feFlood flood-opacity="0" result="BackgroundImageFix"/>
<feColorMatrix in="SourceAlpha" type="matrix" values="0 0 0 0 0 0 0 0 0 0 0 0 0 0 0 0 0 0 127 0" result="hardAlpha"/>
<feOffset dy="5"/>
<feGaussianBlur stdDeviation="10"/>
<feColorMatrix type="matrix" values="0 0 0 0 0 0 0 0 0 0 0 0 0 0 0 0 0 0 0.1 0"/>
<feBlend mode="normal" in2="BackgroundImageFix" result="effect1_dropShadow_20075_62651"/>
<feBlend mode="normal" in="SourceGraphic" in2="effect1_dropShadow_20075_62651" result="shape"/>
</filter>
<filter id="filter1_d_20075_62651" x="0" y="0" width="56" height="92" filterUnits="userSpaceOnUse" color-interpolation-filters="sRGB">
<feFlood flood-opacity="0" result="BackgroundImageFix"/>
<feColorMatrix in="SourceAlpha" type="matrix" values="0 0 0 0 0 0 0 0 0 0 0 0 0 0 0 0 0 0 127 0" result="hardAlpha"/>
<feOffset dy="5"/>
<feGaussianBlur stdDeviation="10"/>
<feColorMatrix type="matrix" values="0 0 0 0 0 0 0 0 0 0 0 0 0 0 0 0 0 0 0.1 0"/>
<feBlend mode="normal" in2="BackgroundImageFix" result="effect1_dropShadow_20075_62651"/>
<feBlend mode="normal" in="SourceGraphic" in2="effect1_dropShadow_20075_62651" result="shape"/>
</filter>
<filter id="filter2_d_20075_62651" x="24" y="84" width="400" height="92" filterUnits="userSpaceOnUse" color-interpolation-filters="sRGB">
<feFlood flood-opacity="0" result="BackgroundImageFix"/>
<feColorMatrix in="SourceAlpha" type="matrix" values="0 0 0 0 0 0 0 0 0 0 0 0 0 0 0 0 0 0 127 0" result="hardAlpha"/>
<feOffset dy="5"/>
<feGaussianBlur stdDeviation="10"/>
<feColorMatrix type="matrix" values="0 0 0 0 0 0 0 0 0 0 0 0 0 0 0 0 0 0 0.1 0"/>
<feBlend mode="normal" in2="BackgroundImageFix" result="effect1_dropShadow_20075_62651"/>
<feBlend mode="normal" in="SourceGraphic" in2="effect1_dropShadow_20075_62651" result="shape"/>
</filter>
<filter id="filter3_d_20075_62651" x="0" y="84" width="56" height="92" filterUnits="userSpaceOnUse" color-interpolation-filters="sRGB">
<feFlood flood-opacity="0" result="BackgroundImageFix"/>
<feColorMatrix in="SourceAlpha" type="matrix" values="0 0 0 0 0 0 0 0 0 0 0 0 0 0 0 0 0 0 127 0" result="hardAlpha"/>
<feOffset dy="5"/>
<feGaussianBlur stdDeviation="10"/>
<feColorMatrix type="matrix" values="0 0 0 0 0 0 0 0 0 0 0 0 0 0 0 0 0 0 0.1 0"/>
<feBlend mode="normal" in2="BackgroundImageFix" result="effect1_dropShadow_20075_62651"/>
<feBlend mode="normal" in="SourceGraphic" in2="effect1_dropShadow_20075_62651" result="shape"/>
</filter>
<filter id="filter4_d_20075_62651" x="24" y="168" width="400" height="92" filterUnits="userSpaceOnUse" color-interpolation-filters="sRGB">
<feFlood flood-opacity="0" result="BackgroundImageFix"/>
<feColorMatrix in="SourceAlpha" type="matrix" values="0 0 0 0 0 0 0 0 0 0 0 0 0 0 0 0 0 0 127 0" result="hardAlpha"/>
<feOffset dy="5"/>
<feGaussianBlur stdDeviation="10"/>
<feColorMatrix type="matrix" values="0 0 0 0 0 0 0 0 0 0 0 0 0 0 0 0 0 0 0.1 0"/>
<feBlend mode="normal" in2="BackgroundImageFix" result="effect1_dropShadow_20075_62651"/>
<feBlend mode="normal" in="SourceGraphic" in2="effect1_dropShadow_20075_62651" result="shape"/>
</filter>
<filter id="filter5_d_20075_62651" x="0" y="168" width="56" height="92" filterUnits="userSpaceOnUse" color-interpolation-filters="sRGB">
<feFlood flood-opacity="0" result="BackgroundImageFix"/>
<feColorMatrix in="SourceAlpha" type="matrix" values="0 0 0 0 0 0 0 0 0 0 0 0 0 0 0 0 0 0 127 0" result="hardAlpha"/>
<feOffset dy="5"/>
<feGaussianBlur stdDeviation="10"/>
<feColorMatrix type="matrix" values="0 0 0 0 0 0 0 0 0 0 0 0 0 0 0 0 0 0 0.1 0"/>
<feBlend mode="normal" in2="BackgroundImageFix" result="effect1_dropShadow_20075_62651"/>
<feBlend mode="normal" in="SourceGraphic" in2="effect1_dropShadow_20075_62651" result="shape"/>
</filter>
<filter id="filter6_d_20075_62651" x="24" y="252" width="400" height="92" filterUnits="userSpaceOnUse" color-interpolation-filters="sRGB">
<feFlood flood-opacity="0" result="BackgroundImageFix"/>
<feColorMatrix in="SourceAlpha" type="matrix" values="0 0 0 0 0 0 0 0 0 0 0 0 0 0 0 0 0 0 127 0" result="hardAlpha"/>
<feOffset dy="5"/>
<feGaussianBlur stdDeviation="10"/>
<feColorMatrix type="matrix" values="0 0 0 0 0 0 0 0 0 0 0 0 0 0 0 0 0 0 0.1 0"/>
<feBlend mode="normal" in2="BackgroundImageFix" result="effect1_dropShadow_20075_62651"/>
<feBlend mode="normal" in="SourceGraphic" in2="effect1_dropShadow_20075_62651" result="shape"/>
</filter>
<filter id="filter7_d_20075_62651" x="0" y="252" width="56" height="92" filterUnits="userSpaceOnUse" color-interpolation-filters="sRGB">
<feFlood flood-opacity="0" result="BackgroundImageFix"/>
<feColorMatrix in="SourceAlpha" type="matrix" values="0 0 0 0 0 0 0 0 0 0 0 0 0 0 0 0 0 0 127 0" result="hardAlpha"/>
<feOffset dy="5"/>
<feGaussianBlur stdDeviation="10"/>
<feColorMatrix type="matrix" values="0 0 0 0 0 0 0 0 0 0 0 0 0 0 0 0 0 0 0.1 0"/>
<feBlend mode="normal" in2="BackgroundImageFix" result="effect1_dropShadow_20075_62651"/>
<feBlend mode="normal" in="SourceGraphic" in2="effect1_dropShadow_20075_62651" result="shape"/>
</filter>
<filter id="filter8_d_20075_62651" x="24" y="336" width="400" height="92" filterUnits="userSpaceOnUse" color-interpolation-filters="sRGB">
<feFlood flood-opacity="0" result="BackgroundImageFix"/>
<feColorMatrix in="SourceAlpha" type="matrix" values="0 0 0 0 0 0 0 0 0 0 0 0 0 0 0 0 0 0 127 0" result="hardAlpha"/>
<feOffset dy="5"/>
<feGaussianBlur stdDeviation="10"/>
<feColorMatrix type="matrix" values="0 0 0 0 0 0 0 0 0 0 0 0 0 0 0 0 0 0 0.1 0"/>
<feBlend mode="normal" in2="BackgroundImageFix" result="effect1_dropShadow_20075_62651"/>
<feBlend mode="normal" in="SourceGraphic" in2="effect1_dropShadow_20075_62651" result="shape"/>
</filter>
<filter id="filter9_d_20075_62651" x="0" y="336" width="56" height="92" filterUnits="userSpaceOnUse" color-interpolation-filters="sRGB">
<feFlood flood-opacity="0" result="BackgroundImageFix"/>
<feColorMatrix in="SourceAlpha" type="matrix" values="0 0 0 0 0 0 0 0 0 0 0 0 0 0 0 0 0 0 127 0" result="hardAlpha"/>
<feOffset dy="5"/>
<feGaussianBlur stdDeviation="10"/>
<feColorMatrix type="matrix" values="0 0 0 0 0 0 0 0 0 0 0 0 0 0 0 0 0 0 0.1 0"/>
<feBlend mode="normal" in2="BackgroundImageFix" result="effect1_dropShadow_20075_62651"/>
<feBlend mode="normal" in="SourceGraphic" in2="effect1_dropShadow_20075_62651" result="shape"/>
</filter>
</defs>
</svg>
